%TF.GenerationSoftware,KiCad,Pcbnew,9.0.3*%
%TF.CreationDate,2025-08-25T11:29:22-05:00*%
%TF.ProjectId,controller,636f6e74-726f-46c6-9c65-722e6b696361,rev?*%
%TF.SameCoordinates,Original*%
%TF.FileFunction,Legend,Top*%
%TF.FilePolarity,Positive*%
%FSLAX46Y46*%
G04 Gerber Fmt 4.6, Leading zero omitted, Abs format (unit mm)*
G04 Created by KiCad (PCBNEW 9.0.3) date 2025-08-25 11:29:22*
%MOMM*%
%LPD*%
G01*
G04 APERTURE LIST*
G04 Aperture macros list*
%AMRoundRect*
0 Rectangle with rounded corners*
0 $1 Rounding radius*
0 $2 $3 $4 $5 $6 $7 $8 $9 X,Y pos of 4 corners*
0 Add a 4 corners polygon primitive as box body*
4,1,4,$2,$3,$4,$5,$6,$7,$8,$9,$2,$3,0*
0 Add four circle primitives for the rounded corners*
1,1,$1+$1,$2,$3*
1,1,$1+$1,$4,$5*
1,1,$1+$1,$6,$7*
1,1,$1+$1,$8,$9*
0 Add four rect primitives between the rounded corners*
20,1,$1+$1,$2,$3,$4,$5,0*
20,1,$1+$1,$4,$5,$6,$7,0*
20,1,$1+$1,$6,$7,$8,$9,0*
20,1,$1+$1,$8,$9,$2,$3,0*%
G04 Aperture macros list end*
%ADD10C,0.300000*%
%ADD11C,0.150000*%
%ADD12C,0.100000*%
%ADD13C,0.120000*%
%ADD14C,0.127000*%
%ADD15C,0.250000*%
%ADD16C,0.200000*%
%ADD17C,0.152400*%
%ADD18C,0.010000*%
%ADD19R,0.558800X0.203200*%
%ADD20R,0.450000X0.200000*%
%ADD21RoundRect,0.100000X0.100000X-0.130000X0.100000X0.130000X-0.100000X0.130000X-0.100000X-0.130000X0*%
%ADD22R,0.400000X0.650000*%
%ADD23RoundRect,0.100000X0.130000X0.100000X-0.130000X0.100000X-0.130000X-0.100000X0.130000X-0.100000X0*%
%ADD24R,0.320000X0.360000*%
%ADD25RoundRect,0.225000X-0.250000X0.225000X-0.250000X-0.225000X0.250000X-0.225000X0.250000X0.225000X0*%
%ADD26RoundRect,0.250000X0.325000X0.650000X-0.325000X0.650000X-0.325000X-0.650000X0.325000X-0.650000X0*%
%ADD27RoundRect,0.218750X-0.218750X-0.256250X0.218750X-0.256250X0.218750X0.256250X-0.218750X0.256250X0*%
%ADD28RoundRect,0.140000X-0.140000X-0.170000X0.140000X-0.170000X0.140000X0.170000X-0.140000X0.170000X0*%
%ADD29C,3.700000*%
%ADD30RoundRect,0.250000X-0.250000X-0.475000X0.250000X-0.475000X0.250000X0.475000X-0.250000X0.475000X0*%
%ADD31RoundRect,0.225000X0.225000X0.250000X-0.225000X0.250000X-0.225000X-0.250000X0.225000X-0.250000X0*%
%ADD32RoundRect,0.100000X0.100000X-0.105500X0.100000X0.105500X-0.100000X0.105500X-0.100000X-0.105500X0*%
%ADD33RoundRect,0.218750X0.218750X0.381250X-0.218750X0.381250X-0.218750X-0.381250X0.218750X-0.381250X0*%
%ADD34RoundRect,0.218750X-0.218750X-0.381250X0.218750X-0.381250X0.218750X0.381250X-0.218750X0.381250X0*%
%ADD35C,1.000000*%
%ADD36RoundRect,0.225000X0.250000X-0.225000X0.250000X0.225000X-0.250000X0.225000X-0.250000X-0.225000X0*%
%ADD37RoundRect,0.100000X-0.100000X0.225000X-0.100000X-0.225000X0.100000X-0.225000X0.100000X0.225000X0*%
%ADD38RoundRect,0.100000X0.105500X0.100000X-0.105500X0.100000X-0.105500X-0.100000X0.105500X-0.100000X0*%
%ADD39R,0.500000X0.500000*%
%ADD40R,1.375000X1.015000*%
%ADD41RoundRect,0.050000X-0.250000X0.250000X-0.250000X-0.250000X0.250000X-0.250000X0.250000X0.250000X0*%
%ADD42RoundRect,0.050000X-0.612500X0.990000X-0.612500X-0.990000X0.612500X-0.990000X0.612500X0.990000X0*%
%ADD43RoundRect,0.050000X-0.250000X0.325000X-0.250000X-0.325000X0.250000X-0.325000X0.250000X0.325000X0*%
%ADD44R,1.175000X0.715000*%
%ADD45RoundRect,0.135000X0.135000X0.185000X-0.135000X0.185000X-0.135000X-0.185000X0.135000X-0.185000X0*%
%ADD46RoundRect,0.200000X0.275000X-0.200000X0.275000X0.200000X-0.275000X0.200000X-0.275000X-0.200000X0*%
%ADD47RoundRect,0.102000X-0.750000X1.750000X-0.750000X-1.750000X0.750000X-1.750000X0.750000X1.750000X0*%
%ADD48RoundRect,0.100000X-0.105500X-0.100000X0.105500X-0.100000X0.105500X0.100000X-0.105500X0.100000X0*%
%ADD49RoundRect,0.102000X0.750000X-1.750000X0.750000X1.750000X-0.750000X1.750000X-0.750000X-1.750000X0*%
%ADD50RoundRect,0.250000X-0.475000X0.250000X-0.475000X-0.250000X0.475000X-0.250000X0.475000X0.250000X0*%
%ADD51RoundRect,0.250000X0.250000X0.475000X-0.250000X0.475000X-0.250000X-0.475000X0.250000X-0.475000X0*%
%ADD52RoundRect,0.135000X-0.185000X0.135000X-0.185000X-0.135000X0.185000X-0.135000X0.185000X0.135000X0*%
%ADD53C,1.700000*%
%ADD54RoundRect,0.102000X-0.400000X-0.550000X0.400000X-0.550000X0.400000X0.550000X-0.400000X0.550000X0*%
%ADD55RoundRect,0.292500X-0.409500X-1.159500X0.409500X-1.159500X0.409500X1.159500X-0.409500X1.159500X0*%
%ADD56R,1.100000X3.700000*%
%ADD57RoundRect,0.200000X-0.275000X0.200000X-0.275000X-0.200000X0.275000X-0.200000X0.275000X0.200000X0*%
%ADD58RoundRect,0.250000X-1.000000X-0.650000X1.000000X-0.650000X1.000000X0.650000X-1.000000X0.650000X0*%
%ADD59R,0.939800X1.244600*%
%ADD60R,0.360000X0.320000*%
%ADD61RoundRect,0.250000X-0.650000X0.325000X-0.650000X-0.325000X0.650000X-0.325000X0.650000X0.325000X0*%
%ADD62RoundRect,0.040000X-0.140000X-0.120000X0.140000X-0.120000X0.140000X0.120000X-0.140000X0.120000X0*%
%ADD63RoundRect,0.135000X0.185000X-0.135000X0.185000X0.135000X-0.185000X0.135000X-0.185000X-0.135000X0*%
%ADD64RoundRect,0.225000X-0.225000X-0.250000X0.225000X-0.250000X0.225000X0.250000X-0.225000X0.250000X0*%
%ADD65RoundRect,0.250000X-0.325000X-0.650000X0.325000X-0.650000X0.325000X0.650000X-0.325000X0.650000X0*%
%ADD66R,0.609600X0.254000*%
%ADD67R,1.016000X1.549400*%
%ADD68C,0.800000*%
%ADD69C,1.200000*%
%ADD70C,0.900000*%
%ADD71C,3.150000*%
%ADD72C,1.545000*%
%ADD73C,1.400000*%
%ADD74C,2.400000*%
%ADD75RoundRect,0.102000X0.714000X-0.714000X0.714000X0.714000X-0.714000X0.714000X-0.714000X-0.714000X0*%
%ADD76C,1.632000*%
%ADD77O,2.420000X1.312000*%
%ADD78R,1.700000X1.700000*%
%ADD79C,0.700000*%
%ADD80O,1.700000X0.900000*%
%ADD81O,2.400000X0.900000*%
G04 APERTURE END LIST*
D10*
G36*
X49631177Y-18780352D02*
G01*
X40426415Y-18780352D01*
X40426415Y-17106542D01*
X40593082Y-17106542D01*
X40593082Y-17249400D01*
X40595964Y-17278664D01*
X40598026Y-17283642D01*
X40598408Y-17289018D01*
X40608918Y-17316482D01*
X40680346Y-17459339D01*
X40688274Y-17471934D01*
X40689790Y-17475593D01*
X40693169Y-17479710D01*
X40696011Y-17484225D01*
X40699005Y-17486821D01*
X40708445Y-17498324D01*
X40779874Y-17569752D01*
X40791374Y-17579190D01*
X40793971Y-17582184D01*
X40798483Y-17585024D01*
X40802604Y-17588406D01*
X40806263Y-17589921D01*
X40818857Y-17597849D01*
X40961713Y-17669278D01*
X40963855Y-17670097D01*
X40964725Y-17670742D01*
X40976996Y-17675126D01*
X40989177Y-17679787D01*
X40990257Y-17679863D01*
X40992416Y-17680635D01*
X41262154Y-17748069D01*
X41368513Y-17801248D01*
X41405517Y-17838253D01*
X41450225Y-17927667D01*
X41450225Y-17999703D01*
X41405517Y-18089117D01*
X41368514Y-18126121D01*
X41279101Y-18170828D01*
X40981711Y-18170828D01*
X40790516Y-18107097D01*
X40761842Y-18100577D01*
X40703462Y-18104727D01*
X40651115Y-18130901D01*
X40612767Y-18175115D01*
X40594259Y-18230640D01*
X40598409Y-18289020D01*
X40624583Y-18341367D01*
X40668797Y-18379715D01*
X40695648Y-18391703D01*
X40909934Y-18463131D01*
X40924446Y-18466430D01*
X40928104Y-18467946D01*
X40933406Y-18468468D01*
X40938608Y-18469651D01*
X40942562Y-18469369D01*
X40957368Y-18470828D01*
X41314510Y-18470828D01*
X41343774Y-18467946D01*
X41348752Y-18465883D01*
X41354128Y-18465502D01*
X41381591Y-18454992D01*
X41524450Y-18383564D01*
X41537044Y-18375635D01*
X41540704Y-18374120D01*
X41544824Y-18370738D01*
X41549335Y-18367899D01*
X41551929Y-18364907D01*
X41563435Y-18355465D01*
X41634863Y-18284036D01*
X41644301Y-18272535D01*
X41647295Y-18269939D01*
X41650135Y-18265426D01*
X41653517Y-18261306D01*
X41655032Y-18257646D01*
X41662960Y-18245053D01*
X41734389Y-18102197D01*
X41744898Y-18074733D01*
X41745279Y-18069358D01*
X41747343Y-18064378D01*
X41750225Y-18035114D01*
X41750225Y-17892257D01*
X41747343Y-17862993D01*
X41745279Y-17858012D01*
X41744898Y-17852638D01*
X41734389Y-17825174D01*
X41662960Y-17682318D01*
X41655032Y-17669724D01*
X41653517Y-17666065D01*
X41650135Y-17661944D01*
X41647295Y-17657432D01*
X41644301Y-17654835D01*
X41634863Y-17643335D01*
X41563435Y-17571906D01*
X41551932Y-17562466D01*
X41549336Y-17559472D01*
X41544821Y-17556630D01*
X41540704Y-17553251D01*
X41537045Y-17551735D01*
X41524450Y-17543807D01*
X41381592Y-17472378D01*
X41379451Y-17471558D01*
X41378581Y-17470914D01*
X41366325Y-17466535D01*
X41354129Y-17461868D01*
X41353045Y-17461791D01*
X41350890Y-17461021D01*
X41081152Y-17393586D01*
X40974792Y-17340406D01*
X40937787Y-17303401D01*
X40893082Y-17213990D01*
X40893082Y-17141951D01*
X40937787Y-17052540D01*
X40974792Y-17015535D01*
X41064206Y-16970828D01*
X41361599Y-16970828D01*
X41552790Y-17034559D01*
X41581464Y-17041079D01*
X41639844Y-17036930D01*
X41692191Y-17010756D01*
X41730539Y-16966542D01*
X41749047Y-16911018D01*
X41744898Y-16852638D01*
X41727319Y-16817480D01*
X41878833Y-16817480D01*
X41888967Y-16875123D01*
X41902247Y-16901359D01*
X42378796Y-17650221D01*
X42378796Y-18320828D01*
X42381678Y-18350092D01*
X42404076Y-18404164D01*
X42445460Y-18445548D01*
X42499532Y-18467946D01*
X42558060Y-18467946D01*
X42612132Y-18445548D01*
X42653516Y-18404164D01*
X42675914Y-18350092D01*
X42678796Y-18320828D01*
X42678796Y-17650221D01*
X43155345Y-16901360D01*
X43168625Y-16875123D01*
X43178169Y-16820828D01*
X43378795Y-16820828D01*
X43378795Y-18320828D01*
X43381677Y-18350092D01*
X43404075Y-18404164D01*
X43445459Y-18445548D01*
X43499531Y-18467946D01*
X43558059Y-18467946D01*
X43612131Y-18445548D01*
X43653515Y-18404164D01*
X43675913Y-18350092D01*
X43678795Y-18320828D01*
X43678795Y-17385661D01*
X44255702Y-18395249D01*
X44260079Y-18401416D01*
X44261218Y-18404164D01*
X44264017Y-18406963D01*
X44272723Y-18419227D01*
X44288496Y-18431442D01*
X44302602Y-18445548D01*
X44311435Y-18449206D01*
X44318997Y-18455063D01*
X44338245Y-18460312D01*
X44356674Y-18467946D01*
X44366236Y-18467946D01*
X44375461Y-18470462D01*
X44395252Y-18467946D01*
X44415202Y-18467946D01*
X44424035Y-18464286D01*
X44433521Y-18463081D01*
X44450843Y-18453182D01*
X44469274Y-18445548D01*
X44476034Y-18438787D01*
X44484337Y-18434043D01*
X44496550Y-18418271D01*
X44510658Y-18404164D01*
X44514317Y-18395328D01*
X44520172Y-18387769D01*
X44525420Y-18368524D01*
X44533056Y-18350092D01*
X44534529Y-18335127D01*
X44535572Y-18331306D01*
X44535196Y-18328354D01*
X44535938Y-18320828D01*
X44535938Y-17463685D01*
X44878796Y-17463685D01*
X44878796Y-17677971D01*
X44879298Y-17683074D01*
X44878973Y-17685262D01*
X44880592Y-17696212D01*
X44881678Y-17707235D01*
X44882525Y-17709279D01*
X44883275Y-17714351D01*
X44954703Y-18000065D01*
X44955474Y-18002223D01*
X44955551Y-18003304D01*
X44960209Y-18015478D01*
X44964596Y-18027756D01*
X44965240Y-18028626D01*
X44966060Y-18030767D01*
X45037489Y-18173624D01*
X45045416Y-18186217D01*
X45046932Y-18189877D01*
X45050313Y-18193996D01*
X45053154Y-18198510D01*
X45056147Y-18201106D01*
X45065587Y-18212608D01*
X45208444Y-18355466D01*
X45231174Y-18374121D01*
X45236153Y-18376183D01*
X45240225Y-18379715D01*
X45267076Y-18391703D01*
X45481362Y-18463131D01*
X45495874Y-18466430D01*
X45499532Y-18467946D01*
X45504834Y-18468468D01*
X45510036Y-18469651D01*
X45513990Y-18469369D01*
X45528796Y-18470828D01*
X45671653Y-18470828D01*
X45686458Y-18469369D01*
X45690413Y-18469651D01*
X45695614Y-18468468D01*
X45700917Y-18467946D01*
X45704574Y-18466430D01*
X45719087Y-18463131D01*
X45805218Y-18434421D01*
X46095964Y-18434421D01*
X46095964Y-18492949D01*
X46118362Y-18547021D01*
X46159746Y-18588405D01*
X46213818Y-18610803D01*
X46243082Y-18613685D01*
X47385939Y-18613685D01*
X47415203Y-18610803D01*
X47469275Y-18588405D01*
X47510659Y-18547021D01*
X47533057Y-18492949D01*
X47533057Y-18434421D01*
X47510659Y-18380349D01*
X47469275Y-18338965D01*
X47415203Y-18316567D01*
X47385939Y-18313685D01*
X46243082Y-18313685D01*
X46213818Y-18316567D01*
X46159746Y-18338965D01*
X46118362Y-18380349D01*
X46095964Y-18434421D01*
X45805218Y-18434421D01*
X45933373Y-18391703D01*
X45960224Y-18379715D01*
X45964297Y-18376181D01*
X45969275Y-18374120D01*
X45992006Y-18355465D01*
X46063434Y-18284036D01*
X46082088Y-18261306D01*
X46104485Y-18207233D01*
X46104484Y-18148707D01*
X46082087Y-18094635D01*
X46040701Y-18053250D01*
X45986629Y-18030853D01*
X45928103Y-18030854D01*
X45874031Y-18053251D01*
X45851300Y-18071906D01*
X45804912Y-18118294D01*
X45647310Y-18170828D01*
X45553139Y-18170828D01*
X45395536Y-18118294D01*
X45294931Y-18017688D01*
X45241750Y-17911328D01*
X45178796Y-17659507D01*
X45178796Y-17482148D01*
X45241750Y-17230327D01*
X45294931Y-17123967D01*
X45395537Y-17023361D01*
X45553139Y-16970828D01*
X45647313Y-16970828D01*
X45804911Y-17023361D01*
X45851301Y-17069751D01*
X45874031Y-17088406D01*
X45928104Y-17110802D01*
X45986630Y-17110802D01*
X46040702Y-17088406D01*
X46082088Y-17047020D01*
X46104484Y-16992948D01*
X46104484Y-16934422D01*
X46082088Y-16880349D01*
X46063433Y-16857619D01*
X46026642Y-16820828D01*
X47593081Y-16820828D01*
X47593081Y-18320828D01*
X47595963Y-18350092D01*
X47618361Y-18404164D01*
X47659745Y-18445548D01*
X47713817Y-18467946D01*
X47772345Y-18467946D01*
X47826417Y-18445548D01*
X47867801Y-18404164D01*
X47890199Y-18350092D01*
X47893081Y-18320828D01*
X47893081Y-16820828D01*
X48307367Y-16820828D01*
X48307367Y-18320828D01*
X48310249Y-18350092D01*
X48332647Y-18404164D01*
X48374031Y-18445548D01*
X48428103Y-18467946D01*
X48486631Y-18467946D01*
X48540703Y-18445548D01*
X48582087Y-18404164D01*
X48604485Y-18350092D01*
X48607367Y-18320828D01*
X48607367Y-17385661D01*
X49184274Y-18395249D01*
X49188651Y-18401416D01*
X49189790Y-18404164D01*
X49192589Y-18406963D01*
X49201295Y-18419227D01*
X49217068Y-18431442D01*
X49231174Y-18445548D01*
X49240007Y-18449206D01*
X49247569Y-18455063D01*
X49266817Y-18460312D01*
X49285246Y-18467946D01*
X49294808Y-18467946D01*
X49304033Y-18470462D01*
X49323824Y-18467946D01*
X49343774Y-18467946D01*
X49352607Y-18464286D01*
X49362093Y-18463081D01*
X49379415Y-18453182D01*
X49397846Y-18445548D01*
X49404606Y-18438787D01*
X49412909Y-18434043D01*
X49425122Y-18418271D01*
X49439230Y-18404164D01*
X49442889Y-18395328D01*
X49448744Y-18387769D01*
X49453992Y-18368524D01*
X49461628Y-18350092D01*
X49463101Y-18335127D01*
X49464144Y-18331306D01*
X49463768Y-18328354D01*
X49464510Y-18320828D01*
X49464510Y-16820828D01*
X49461628Y-16791564D01*
X49439230Y-16737492D01*
X49397846Y-16696108D01*
X49343774Y-16673710D01*
X49285246Y-16673710D01*
X49231174Y-16696108D01*
X49189790Y-16737492D01*
X49167392Y-16791564D01*
X49164510Y-16820828D01*
X49164510Y-17755992D01*
X48587603Y-16746407D01*
X48583225Y-16740239D01*
X48582087Y-16737492D01*
X48579287Y-16734692D01*
X48570582Y-16722429D01*
X48554810Y-16710215D01*
X48540703Y-16696108D01*
X48531867Y-16692448D01*
X48524308Y-16686594D01*
X48505063Y-16681345D01*
X48486631Y-16673710D01*
X48477069Y-16673710D01*
X48467844Y-16671194D01*
X48448053Y-16673710D01*
X48428103Y-16673710D01*
X48419269Y-16677369D01*
X48409784Y-16678575D01*
X48392461Y-16688473D01*
X48374031Y-16696108D01*
X48367270Y-16702868D01*
X48358968Y-16707613D01*
X48346754Y-16723384D01*
X48332647Y-16737492D01*
X48328987Y-16746327D01*
X48323133Y-16753887D01*
X48317884Y-16773131D01*
X48310249Y-16791564D01*
X48308775Y-16806530D01*
X48307733Y-16810351D01*
X48308108Y-16813302D01*
X48307367Y-16820828D01*
X47893081Y-16820828D01*
X47890199Y-16791564D01*
X47867801Y-16737492D01*
X47826417Y-16696108D01*
X47772345Y-16673710D01*
X47713817Y-16673710D01*
X47659745Y-16696108D01*
X47618361Y-16737492D01*
X47595963Y-16791564D01*
X47593081Y-16820828D01*
X46026642Y-16820828D01*
X45992005Y-16786191D01*
X45969274Y-16767536D01*
X45964294Y-16765473D01*
X45960224Y-16761943D01*
X45933373Y-16749954D01*
X45719087Y-16678526D01*
X45704579Y-16675227D01*
X45700917Y-16673710D01*
X45695608Y-16673187D01*
X45690414Y-16672006D01*
X45686464Y-16672286D01*
X45671653Y-16670828D01*
X45528796Y-16670828D01*
X45513984Y-16672286D01*
X45510035Y-16672006D01*
X45504840Y-16673187D01*
X45499532Y-16673710D01*
X45495870Y-16675226D01*
X45481361Y-16678526D01*
X45267076Y-16749955D01*
X45240225Y-16761943D01*
X45236155Y-16765472D01*
X45231174Y-16767536D01*
X45208444Y-16786191D01*
X45065587Y-16929048D01*
X45056147Y-16940549D01*
X45053154Y-16943146D01*
X45050313Y-16947659D01*
X45046932Y-16951779D01*
X45045416Y-16955438D01*
X45037489Y-16968032D01*
X44966060Y-17110889D01*
X44965240Y-17113029D01*
X44964596Y-17113900D01*
X44960209Y-17126177D01*
X44955551Y-17138352D01*
X44955474Y-17139432D01*
X44954703Y-17141591D01*
X44883275Y-17427305D01*
X44882525Y-17432376D01*
X44881678Y-17434421D01*
X44880592Y-17445443D01*
X44878973Y-17456394D01*
X44879298Y-17458581D01*
X44878796Y-17463685D01*
X44535938Y-17463685D01*
X44535938Y-16820828D01*
X44533056Y-16791564D01*
X44510658Y-16737492D01*
X44469274Y-16696108D01*
X44415202Y-16673710D01*
X44356674Y-16673710D01*
X44302602Y-16696108D01*
X44261218Y-16737492D01*
X44238820Y-16791564D01*
X44235938Y-16820828D01*
X44235938Y-17755992D01*
X43659031Y-16746407D01*
X43654653Y-16740239D01*
X43653515Y-16737492D01*
X43650715Y-16734692D01*
X43642010Y-16722429D01*
X43626238Y-16710215D01*
X43612131Y-16696108D01*
X43603295Y-16692448D01*
X43595736Y-16686594D01*
X43576491Y-16681345D01*
X43558059Y-16673710D01*
X43548497Y-16673710D01*
X43539272Y-16671194D01*
X43519481Y-16673710D01*
X43499531Y-16673710D01*
X43490697Y-16677369D01*
X43481212Y-16678575D01*
X43463889Y-16688473D01*
X43445459Y-16696108D01*
X43438698Y-16702868D01*
X43430396Y-16707613D01*
X43418182Y-16723384D01*
X43404075Y-16737492D01*
X43400415Y-16746327D01*
X43394561Y-16753887D01*
X43389312Y-16773131D01*
X43381677Y-16791564D01*
X43380203Y-16806530D01*
X43379161Y-16810351D01*
X43379536Y-16813302D01*
X43378795Y-16820828D01*
X43178169Y-16820828D01*
X43178758Y-16817480D01*
X43166062Y-16760348D01*
X43132469Y-16712422D01*
X43083091Y-16680999D01*
X43025448Y-16670866D01*
X42968315Y-16683562D01*
X42920389Y-16717155D01*
X42902247Y-16740297D01*
X42528796Y-17327147D01*
X42155345Y-16740297D01*
X42137203Y-16717155D01*
X42089276Y-16683562D01*
X42032144Y-16670865D01*
X41974501Y-16680999D01*
X41925123Y-16712421D01*
X41891530Y-16760348D01*
X41878833Y-16817480D01*
X41727319Y-16817480D01*
X41718724Y-16800290D01*
X41674510Y-16761943D01*
X41647659Y-16749954D01*
X41433373Y-16678526D01*
X41418865Y-16675227D01*
X41415203Y-16673710D01*
X41409894Y-16673187D01*
X41404700Y-16672006D01*
X41400750Y-16672286D01*
X41385939Y-16670828D01*
X41028796Y-16670828D01*
X40999532Y-16673710D01*
X40994551Y-16675773D01*
X40989177Y-16676155D01*
X40961713Y-16686664D01*
X40818857Y-16758093D01*
X40806263Y-16766020D01*
X40802604Y-16767536D01*
X40798483Y-16770917D01*
X40793971Y-16773758D01*
X40791374Y-16776751D01*
X40779874Y-16786190D01*
X40708445Y-16857618D01*
X40699005Y-16869120D01*
X40696011Y-16871717D01*
X40693169Y-16876231D01*
X40689790Y-16880349D01*
X40688274Y-16884007D01*
X40680346Y-16896603D01*
X40608918Y-17039460D01*
X40598408Y-17066924D01*
X40598026Y-17072299D01*
X40595964Y-17077278D01*
X40593082Y-17106542D01*
X40426415Y-17106542D01*
X40426415Y-16504161D01*
X49631177Y-16504161D01*
X49631177Y-18780352D01*
G37*
G36*
X44275207Y57886122D02*
G01*
X44371473Y57789856D01*
X44428346Y57562366D01*
X44428346Y57099293D01*
X44371473Y56871803D01*
X44275207Y56775536D01*
X44185793Y56730829D01*
X43970899Y56730829D01*
X43881486Y56775536D01*
X43785219Y56871803D01*
X43728346Y57099295D01*
X43728346Y57562364D01*
X43785219Y57789856D01*
X43881486Y57886123D01*
X43970899Y57930829D01*
X44185793Y57930829D01*
X44275207Y57886122D01*
G37*
G36*
X51823584Y56264162D02*
G01*
X40407418Y56264162D01*
X40407418Y56610093D01*
X40574085Y56610093D01*
X40574085Y56551565D01*
X40596483Y56497493D01*
X40637867Y56456109D01*
X40691939Y56433711D01*
X40721203Y56430829D01*
X41578345Y56430829D01*
X41607609Y56433711D01*
X41661681Y56456109D01*
X41703065Y56497493D01*
X41725463Y56551565D01*
X41725463Y56610093D01*
X41703065Y56664165D01*
X41661681Y56705549D01*
X41607609Y56727947D01*
X41578345Y56730829D01*
X41299774Y56730829D01*
X41299774Y57795115D01*
X41928346Y57795115D01*
X41928346Y56580829D01*
X41931228Y56551565D01*
X41953626Y56497493D01*
X41995010Y56456109D01*
X42049082Y56433711D01*
X42107610Y56433711D01*
X42161682Y56456109D01*
X42203066Y56497493D01*
X42225464Y56551565D01*
X42228346Y56580829D01*
X42228346Y57759706D01*
X42273051Y57849117D01*
X42310056Y57886122D01*
X42399470Y57930829D01*
X42614364Y57930829D01*
X42703778Y57886122D01*
X42740782Y57849118D01*
X42785489Y57759705D01*
X42785489Y56580829D01*
X42788371Y56551565D01*
X42810769Y56497493D01*
X42852153Y56456109D01*
X42906225Y56433711D01*
X42964753Y56433711D01*
X43018825Y56456109D01*
X43060209Y56497493D01*
X43082607Y56551565D01*
X43085489Y56580829D01*
X43085489Y57580829D01*
X43428346Y57580829D01*
X43428346Y57080829D01*
X43428848Y57075726D01*
X43428523Y57073538D01*
X43430142Y57062587D01*
X43431228Y57051565D01*
X43432074Y57049521D01*
X43432825Y57044448D01*
X43504254Y56758735D01*
X43514147Y56731044D01*
X43520786Y56722084D01*
X43525054Y56711780D01*
X43543709Y56689049D01*
X43686566Y56546192D01*
X43698068Y56536752D01*
X43700664Y56533759D01*
X43705173Y56530921D01*
X43709296Y56527537D01*
X43712958Y56526021D01*
X43725550Y56518094D01*
X43868406Y56446665D01*
X43895870Y56436156D01*
X43901244Y56435775D01*
X43906225Y56433711D01*
X43935489Y56430829D01*
X44221203Y56430829D01*
X44250467Y56433711D01*
X44255444Y56435773D01*
X44260822Y56436155D01*
X44288285Y56446665D01*
X44431143Y56518094D01*
X44443736Y56526022D01*
X44447396Y56527537D01*
X44451515Y56530919D01*
X44456029Y56533759D01*
X44458625Y56536753D01*
X44470127Y56546192D01*
X44612984Y56689049D01*
X44631639Y56711779D01*
X44635907Y56722085D01*
X44642546Y56731044D01*
X44652439Y56758735D01*
X44723867Y57044449D01*
X44724616Y57049521D01*
X44725464Y57051565D01*
X44726549Y57062588D01*
X44728169Y57073538D01*
X44727843Y57075726D01*
X44728346Y57080829D01*
X44728346Y57580829D01*
X44727843Y57585933D01*
X44728169Y57588120D01*
X44726549Y57599071D01*
X44725464Y57610093D01*
X44724616Y57612138D01*
X44723867Y57617209D01*
X44652439Y57902923D01*
X44642546Y57930614D01*
X44635907Y57939574D01*
X44631639Y57949879D01*
X44617395Y57967235D01*
X46145514Y57967235D01*
X46145514Y57908709D01*
X46167911Y57854637D01*
X46209297Y57813251D01*
X46263369Y57790854D01*
X46321895Y57790854D01*
X46375967Y57813251D01*
X46398698Y57831906D01*
X46445087Y57878296D01*
X46602689Y57930829D01*
X46696863Y57930829D01*
X46854461Y57878296D01*
X46955068Y57777689D01*
X47008247Y57671330D01*
X47071203Y57419509D01*
X47071203Y57242150D01*
X47008247Y56990329D01*
X46955068Y56883970D01*
X46854461Y56783363D01*
X46696863Y56730829D01*
X46602689Y56730829D01*
X46445087Y56783363D01*
X46398698Y56829752D01*
X46375967Y56848407D01*
X46321895Y56870804D01*
X46263369Y56870804D01*
X46209297Y56848407D01*
X46167911Y56807021D01*
X46145514Y56752949D01*
X46145514Y56694423D01*
X46167911Y56640351D01*
X46186566Y56617620D01*
X46257994Y56546192D01*
X46280724Y56527537D01*
X46285704Y56525474D01*
X46289775Y56521944D01*
X46316626Y56509956D01*
X46530911Y56438527D01*
X46545420Y56435228D01*
X46549082Y56433711D01*
X46554390Y56433189D01*
X46559585Y56432007D01*
X46563534Y56432288D01*
X46578346Y56430829D01*
X46721203Y56430829D01*
X46736014Y56432288D01*
X46739964Y56432007D01*
X46745158Y56433189D01*
X46750467Y56433711D01*
X46754129Y56435229D01*
X46768637Y56438527D01*
X46982923Y56509955D01*
X47009774Y56521944D01*
X47013844Y56525475D01*
X47018824Y56527537D01*
X47041555Y56546192D01*
X47184412Y56689049D01*
X47193852Y56700552D01*
X47196845Y56703147D01*
X47199683Y56707657D01*
X47203067Y56711779D01*
X47204583Y56715442D01*
X47212510Y56728033D01*
X47283939Y56870889D01*
X47284758Y56873032D01*
X47285403Y56873901D01*
X47289787Y56886173D01*
X47294448Y56898353D01*
X47294524Y56899434D01*
X47295296Y56901592D01*
X47366724Y57187306D01*
X47367473Y57192378D01*
X47368321Y57194422D01*
X47369406Y57205445D01*
X47371026Y57216395D01*
X47370700Y57218583D01*
X47371203Y57223686D01*
X47371203Y57437972D01*
X47370700Y57443076D01*
X47371026Y57445263D01*
X47369406Y57456214D01*
X47368321Y57467236D01*
X47367473Y57469281D01*
X47366724Y57474352D01*
X47295296Y57760066D01*
X47294524Y57762225D01*
X47294448Y57763305D01*
X47289787Y57775486D01*
X47285403Y57787757D01*
X47284758Y57788627D01*
X47283939Y57790769D01*
X47212510Y57933625D01*
X47204583Y57946217D01*
X47203067Y57949879D01*
X47199683Y57954002D01*
X47196845Y57958511D01*
X47193852Y57961107D01*
X47184412Y57972609D01*
X47076192Y58080829D01*
X47714061Y58080829D01*
X47714061Y56580829D01*
X47716943Y56551565D01*
X47739341Y56497493D01*
X47780725Y56456109D01*
X47834797Y56433711D01*
X47893325Y56433711D01*
X47947397Y56456109D01*
X47988781Y56497493D01*
X48011179Y56551565D01*
X48014061Y56580829D01*
X48014061Y57515996D01*
X48590968Y56506408D01*
X48595345Y56500241D01*
X48596484Y56497493D01*
X48599283Y56494694D01*
X48607989Y56482430D01*
X48623762Y56470215D01*
X48637868Y56456109D01*
X48646701Y56452451D01*
X48654263Y56446594D01*
X48673511Y56441345D01*
X48691940Y56433711D01*
X48701502Y56433711D01*
X48710727Y56431195D01*
X48730518Y56433711D01*
X48750468Y56433711D01*
X48759301Y56437371D01*
X48768787Y56438576D01*
X48786109Y56448475D01*
X48804540Y56456109D01*
X48811300Y56462870D01*
X48819603Y56467614D01*
X48831816Y56483386D01*
X48845924Y56497493D01*
X48849583Y56506329D01*
X48855438Y56513888D01*
X48860686Y56533133D01*
X48868322Y56551565D01*
X48869795Y56566530D01*
X48870838Y56570351D01*
X48870462Y56573303D01*
X48870874Y56577481D01*
X49071240Y56577481D01*
X49083937Y56520349D01*
X49117530Y56472422D01*
X49166908Y56441000D01*
X49224551Y56430866D01*
X49281683Y56443563D01*
X49329610Y56477156D01*
X49347752Y56500298D01*
X49721203Y57087149D01*
X50094654Y56500298D01*
X50112796Y56477156D01*
X50160722Y56443563D01*
X50217855Y56430867D01*
X50275498Y56441000D01*
X50324876Y56472423D01*
X50358469Y56520349D01*
X50371165Y56577481D01*
X50361032Y56635124D01*
X50347752Y56661361D01*
X49871203Y57410223D01*
X49871203Y57795115D01*
X50499774Y57795115D01*
X50499774Y57652258D01*
X50502656Y57622994D01*
X50504717Y57618017D01*
X50505100Y57612639D01*
X50515610Y57585176D01*
X50587039Y57442318D01*
X50594967Y57429723D01*
X50596483Y57426064D01*
X50599862Y57421947D01*
X50602704Y57417432D01*
X50605698Y57414836D01*
X50615138Y57403333D01*
X50686567Y57331905D01*
X50698067Y57322467D01*
X50700664Y57319473D01*
X50705176Y57316633D01*
X50709297Y57313251D01*
X50712956Y57311736D01*
X50725550Y57303808D01*
X50868406Y57232379D01*
X50870548Y57231560D01*
X50871418Y57230915D01*
X50883689Y57226531D01*
X50895870Y57221870D01*
X50896950Y57221794D01*
X50899109Y57221022D01*
X51168846Y57153589D01*
X51275207Y57100408D01*
X51312211Y57063403D01*
X51356917Y56973991D01*
X51356917Y56901953D01*
X51312211Y56812541D01*
X51275207Y56775537D01*
X51185793Y56730829D01*
X50888403Y56730829D01*
X50697208Y56794560D01*
X50668535Y56801080D01*
X50610155Y56796931D01*
X50557808Y56770758D01*
X50519460Y56726543D01*
X50500952Y56671019D01*
X50505101Y56612639D01*
X50531274Y56560292D01*
X50575489Y56521944D01*
X50602340Y56509956D01*
X50816625Y56438527D01*
X50831134Y56435228D01*
X50834796Y56433711D01*
X50840104Y56433189D01*
X50845299Y56432007D01*
X50849248Y56432288D01*
X50864060Y56430829D01*
X51221203Y56430829D01*
X51250467Y56433711D01*
X51255447Y56435775D01*
X51260822Y56436156D01*
X51288285Y56446665D01*
X51431142Y56518094D01*
X51443737Y56526023D01*
X51447394Y56527537D01*
X51451511Y56530917D01*
X51456028Y56533759D01*
X51458625Y56536754D01*
X51470125Y56546191D01*
X51541554Y56617619D01*
X51550996Y56629125D01*
X51553988Y56631719D01*
X51556827Y56636230D01*
X51560209Y56640350D01*
X51561724Y56644010D01*
X51569653Y56656604D01*
X51641081Y56799462D01*
X51651591Y56826925D01*
X51651972Y56832301D01*
X51654035Y56837279D01*
X51656917Y56866543D01*
X51656917Y57009400D01*
X51654035Y57038664D01*
X51651972Y57043643D01*
X51651591Y57049018D01*
X51641082Y57076481D01*
X51569653Y57219339D01*
X51561724Y57231936D01*
X51560209Y57235594D01*
X51556830Y57239711D01*
X51553989Y57244225D01*
X51550993Y57246823D01*
X51541554Y57258325D01*
X51470125Y57329753D01*
X51458625Y57339191D01*
X51456028Y57342185D01*
X51451511Y57345028D01*
X51447394Y57348407D01*
X51443737Y57349922D01*
X51431142Y57357850D01*
X51288285Y57429279D01*
X51286144Y57430099D01*
X51285274Y57430743D01*
X51272996Y57435130D01*
X51260822Y57439788D01*
X51259741Y57439865D01*
X51257583Y57440636D01*
X50987845Y57508071D01*
X50881485Y57561251D01*
X50844480Y57598255D01*
X50799774Y57687668D01*
X50799774Y57759705D01*
X50844481Y57849119D01*
X50881485Y57886122D01*
X50970899Y57930829D01*
X51268291Y57930829D01*
X51459482Y57867098D01*
X51488156Y57860578D01*
X51546536Y57864727D01*
X51598883Y57890900D01*
X51637231Y57935115D01*
X51655739Y57990639D01*
X51651590Y58049019D01*
X51625416Y58101366D01*
X51581202Y58139714D01*
X51554351Y58151702D01*
X51340067Y58223131D01*
X51325557Y58226431D01*
X51321896Y58227947D01*
X51316587Y58228470D01*
X51311393Y58229651D01*
X51307443Y58229371D01*
X51292632Y58230829D01*
X50935489Y58230829D01*
X50906225Y58227947D01*
X50901244Y58225884D01*
X50895870Y58225502D01*
X50868406Y58214993D01*
X50725550Y58143564D01*
X50712956Y58135637D01*
X50709297Y58134121D01*
X50705176Y58130740D01*
X50700664Y58127899D01*
X50698067Y58124906D01*
X50686567Y58115467D01*
X50615138Y58044039D01*
X50605698Y58032537D01*
X50602704Y58029940D01*
X50599862Y58025426D01*
X50596483Y58021308D01*
X50594967Y58017650D01*
X50587039Y58005054D01*
X50515610Y57862197D01*
X50505101Y57834734D01*
X50504719Y57829360D01*
X50502656Y57824379D01*
X50499774Y57795115D01*
X49871203Y57795115D01*
X49871203Y58080829D01*
X49868321Y58110093D01*
X49845923Y58164165D01*
X49804539Y58205549D01*
X49750467Y58227947D01*
X49691939Y58227947D01*
X49637867Y58205549D01*
X49596483Y58164165D01*
X49574085Y58110093D01*
X49571203Y58080829D01*
X49571203Y57410223D01*
X49094654Y56661360D01*
X49081374Y56635124D01*
X49071240Y56577481D01*
X48870874Y56577481D01*
X48871204Y56580829D01*
X48871204Y58080829D01*
X48868322Y58110093D01*
X48845924Y58164165D01*
X48804540Y58205549D01*
X48750468Y58227947D01*
X48691940Y58227947D01*
X48637868Y58205549D01*
X48596484Y58164165D01*
X48574086Y58110093D01*
X48571204Y58080829D01*
X48571204Y57145665D01*
X47994297Y58155250D01*
X47989919Y58161418D01*
X47988781Y58164165D01*
X47985981Y58166965D01*
X47977276Y58179228D01*
X47961504Y58191442D01*
X47947397Y58205549D01*
X47938561Y58209209D01*
X47931002Y58215063D01*
X47911757Y58220312D01*
X47893325Y58227947D01*
X47883763Y58227947D01*
X47874538Y58230463D01*
X47854747Y58227947D01*
X47834797Y58227947D01*
X47825963Y58224288D01*
X47816478Y58223082D01*
X47799155Y58213184D01*
X47780725Y58205549D01*
X47773964Y58198789D01*
X47765662Y58194044D01*
X47753448Y58178273D01*
X47739341Y58164165D01*
X47735681Y58155330D01*
X47729827Y58147770D01*
X47724578Y58128526D01*
X47716943Y58110093D01*
X47715469Y58095127D01*
X47714427Y58091306D01*
X47714802Y58088355D01*
X47714061Y58080829D01*
X47076192Y58080829D01*
X47041555Y58115466D01*
X47018824Y58134121D01*
X47013844Y58136184D01*
X47009774Y58139714D01*
X46982923Y58151703D01*
X46768637Y58223131D01*
X46754129Y58226430D01*
X46750467Y58227947D01*
X46745158Y58228470D01*
X46739964Y58229651D01*
X46736014Y58229371D01*
X46721203Y58230829D01*
X46578346Y58230829D01*
X46563534Y58229371D01*
X46559585Y58229651D01*
X46554390Y58228470D01*
X46549082Y58227947D01*
X46545420Y58226431D01*
X46530911Y58223131D01*
X46316626Y58151702D01*
X46289775Y58139714D01*
X46285704Y58136185D01*
X46280724Y58134121D01*
X46257994Y58115466D01*
X46186566Y58044038D01*
X46167911Y58021307D01*
X46145514Y57967235D01*
X44617395Y57967235D01*
X44612984Y57972609D01*
X44470127Y58115466D01*
X44458625Y58124906D01*
X44456029Y58127899D01*
X44451515Y58130740D01*
X44447396Y58134121D01*
X44443736Y58135637D01*
X44431143Y58143564D01*
X44288285Y58214993D01*
X44260822Y58225503D01*
X44255444Y58225886D01*
X44250467Y58227947D01*
X44221203Y58230829D01*
X43935489Y58230829D01*
X43906225Y58227947D01*
X43901244Y58225884D01*
X43895870Y58225502D01*
X43868406Y58214993D01*
X43725550Y58143564D01*
X43712958Y58135638D01*
X43709296Y58134121D01*
X43705173Y58130738D01*
X43700664Y58127899D01*
X43698068Y58124907D01*
X43686566Y58115466D01*
X43543709Y57972609D01*
X43525054Y57949878D01*
X43520786Y57939575D01*
X43514147Y57930614D01*
X43504254Y57902923D01*
X43432825Y57617210D01*
X43432074Y57612138D01*
X43431228Y57610093D01*
X43430142Y57599072D01*
X43428523Y57588120D01*
X43428848Y57585933D01*
X43428346Y57580829D01*
X43085489Y57580829D01*
X43085489Y57795115D01*
X43082607Y57824379D01*
X43080543Y57829360D01*
X43080162Y57834734D01*
X43069653Y57862198D01*
X42998224Y58005054D01*
X42990297Y58017646D01*
X42988781Y58021308D01*
X42985397Y58025431D01*
X42982559Y58029940D01*
X42979566Y58032536D01*
X42970126Y58044038D01*
X42898698Y58115466D01*
X42887196Y58124906D01*
X42884600Y58127899D01*
X42880086Y58130740D01*
X42875967Y58134121D01*
X42872307Y58135637D01*
X42859714Y58143564D01*
X42716856Y58214993D01*
X42689393Y58225503D01*
X42684015Y58225886D01*
X42679038Y58227947D01*
X42649774Y58230829D01*
X42364060Y58230829D01*
X42334796Y58227947D01*
X42329815Y58225884D01*
X42324441Y58225502D01*
X42296977Y58214993D01*
X42154121Y58143564D01*
X42141527Y58135637D01*
X42137868Y58134121D01*
X42133747Y58130740D01*
X42129235Y58127899D01*
X42126638Y58124906D01*
X42115138Y58115467D01*
X42043709Y58044039D01*
X42034269Y58032537D01*
X42031275Y58029940D01*
X42028433Y58025426D01*
X42025054Y58021308D01*
X42023538Y58017650D01*
X42015610Y58005054D01*
X41944182Y57862197D01*
X41933672Y57834733D01*
X41933290Y57829358D01*
X41931228Y57824379D01*
X41928346Y57795115D01*
X41299774Y57795115D01*
X41299774Y58080829D01*
X41296892Y58110093D01*
X41274494Y58164165D01*
X41233110Y58205549D01*
X41179038Y58227947D01*
X41120510Y58227947D01*
X41066438Y58205549D01*
X41025054Y58164165D01*
X41002656Y58110093D01*
X40999774Y58080829D01*
X40999774Y56730829D01*
X40721203Y56730829D01*
X40691939Y56727947D01*
X40637867Y56705549D01*
X40596483Y56664165D01*
X40574085Y56610093D01*
X40407418Y56610093D01*
X40407418Y58252950D01*
X44716942Y58252950D01*
X44716942Y58194422D01*
X44739340Y58140350D01*
X44780724Y58098966D01*
X44834796Y58076568D01*
X44864060Y58073686D01*
X46006918Y58073686D01*
X46036182Y58076568D01*
X46090254Y58098966D01*
X46131638Y58140350D01*
X46154036Y58194422D01*
X46154036Y58252950D01*
X46131638Y58307022D01*
X46090254Y58348406D01*
X46036182Y58370804D01*
X46006918Y58373686D01*
X44864060Y58373686D01*
X44834796Y58370804D01*
X44780724Y58348406D01*
X44739340Y58307022D01*
X44716942Y58252950D01*
X40407418Y58252950D01*
X40407418Y58540353D01*
X51823584Y58540353D01*
X51823584Y56264162D01*
G37*
D11*
X-21527143Y18613086D02*
X-21584286Y18641658D01*
X-21584286Y18641658D02*
X-21641429Y18698800D01*
X-21641429Y18698800D02*
X-21727143Y18784515D01*
X-21727143Y18784515D02*
X-21784286Y18813086D01*
X-21784286Y18813086D02*
X-21841429Y18813086D01*
X-21812858Y18670229D02*
X-21870000Y18698800D01*
X-21870000Y18698800D02*
X-21927143Y18755943D01*
X-21927143Y18755943D02*
X-21955715Y18870229D01*
X-21955715Y18870229D02*
X-21955715Y19070229D01*
X-21955715Y19070229D02*
X-21927143Y19184515D01*
X-21927143Y19184515D02*
X-21870000Y19241658D01*
X-21870000Y19241658D02*
X-21812858Y19270229D01*
X-21812858Y19270229D02*
X-21698572Y19270229D01*
X-21698572Y19270229D02*
X-21641429Y19241658D01*
X-21641429Y19241658D02*
X-21584286Y19184515D01*
X-21584286Y19184515D02*
X-21555715Y19070229D01*
X-21555715Y19070229D02*
X-21555715Y18870229D01*
X-21555715Y18870229D02*
X-21584286Y18755943D01*
X-21584286Y18755943D02*
X-21641429Y18698800D01*
X-21641429Y18698800D02*
X-21698572Y18670229D01*
X-21698572Y18670229D02*
X-21812858Y18670229D01*
X-21327144Y19213086D02*
X-21298572Y19241658D01*
X-21298572Y19241658D02*
X-21241429Y19270229D01*
X-21241429Y19270229D02*
X-21098572Y19270229D01*
X-21098572Y19270229D02*
X-21041429Y19241658D01*
X-21041429Y19241658D02*
X-21012858Y19213086D01*
X-21012858Y19213086D02*
X-20984287Y19155943D01*
X-20984287Y19155943D02*
X-20984287Y19098800D01*
X-20984287Y19098800D02*
X-21012858Y19013086D01*
X-21012858Y19013086D02*
X-21355715Y18670229D01*
X-21355715Y18670229D02*
X-20984287Y18670229D01*
G36*
X39812716Y54355114D02*
G01*
X39833598Y54334232D01*
X39858333Y54284763D01*
X39858333Y54167791D01*
X39833598Y54118323D01*
X39812715Y54097439D01*
X39763247Y54072705D01*
X39646276Y54072705D01*
X39596808Y54097439D01*
X39575924Y54118324D01*
X39551190Y54167792D01*
X39551190Y54284762D01*
X39575925Y54334232D01*
X39596808Y54355114D01*
X39646276Y54379848D01*
X39763247Y54379848D01*
X39812716Y54355114D01*
G37*
G36*
X39812716Y54697971D02*
G01*
X39833598Y54677089D01*
X39858333Y54627620D01*
X39858333Y54624934D01*
X39833598Y54575466D01*
X39812715Y54554582D01*
X39763247Y54529848D01*
X39646276Y54529848D01*
X39596808Y54554582D01*
X39575924Y54575467D01*
X39551190Y54624935D01*
X39551190Y54627619D01*
X39575925Y54677089D01*
X39596808Y54697971D01*
X39646276Y54722705D01*
X39763247Y54722705D01*
X39812716Y54697971D01*
G37*
G36*
X40097222Y53833816D02*
G01*
X38666123Y53833816D01*
X38666123Y54012337D01*
X38755012Y54012337D01*
X38755012Y53983073D01*
X38766211Y53956037D01*
X38786903Y53935345D01*
X38813939Y53924146D01*
X38828571Y53922705D01*
X38904762Y53922705D01*
X38912167Y53923435D01*
X38914142Y53923294D01*
X38916739Y53923885D01*
X38919394Y53924146D01*
X38921225Y53924905D01*
X38928479Y53926554D01*
X39042764Y53964649D01*
X39056190Y53970643D01*
X39058226Y53972410D01*
X39060715Y53973440D01*
X39072080Y53982767D01*
X39148271Y54058958D01*
X39157598Y54070323D01*
X39158629Y54072814D01*
X39160395Y54074849D01*
X39166389Y54088274D01*
X39204484Y54202560D01*
X39206133Y54209814D01*
X39206892Y54211645D01*
X39207153Y54214300D01*
X39207744Y54216897D01*
X39207603Y54218872D01*
X39208333Y54226277D01*
X39208333Y54645324D01*
X39401190Y54645324D01*
X39401190Y54607229D01*
X39402631Y54592597D01*
X39403661Y54590109D01*
X39403853Y54587419D01*
X39409108Y54573687D01*
X39447204Y54497498D01*
X39451166Y54491204D01*
X39451925Y54489372D01*
X39453618Y54487309D01*
X39455037Y54485055D01*
X39456531Y54483759D01*
X39461252Y54478007D01*
X39484410Y54454849D01*
X39461253Y54431691D01*
X39456532Y54425939D01*
X39455037Y54424642D01*
X39453617Y54422388D01*
X39451926Y54420326D01*
X39451167Y54418496D01*
X39447204Y54412199D01*
X39409108Y54336008D01*
X39403853Y54322277D01*
X39403661Y54319588D01*
X39402631Y54317099D01*
X39401190Y54302467D01*
X39401190Y54150086D01*
X39402631Y54135454D01*
X39403661Y54132966D01*
X39403853Y54130276D01*
X39409108Y54116544D01*
X39447204Y54040355D01*
X39451166Y54034061D01*
X39451925Y54032229D01*
X39453618Y54030166D01*
X39455037Y54027912D01*
X39456531Y54026616D01*
X39461252Y54020864D01*
X39499347Y53982768D01*
X39505098Y53978048D01*
X39506397Y53976550D01*
X39508652Y53975131D01*
X39510712Y53973440D01*
X39512542Y53972682D01*
X39518840Y53968718D01*
X39595030Y53930623D01*
X39608762Y53925368D01*
X39611449Y53925178D01*
X39613939Y53924146D01*
X39628571Y53922705D01*
X39780952Y53922705D01*
X39795584Y53924146D01*
X39798073Y53925178D01*
X39800761Y53925368D01*
X39814493Y53930623D01*
X39890684Y53968718D01*
X39896983Y53972683D01*
X39898811Y53973440D01*
X39900867Y53975128D01*
X39903127Y53976550D01*
X39904427Y53978050D01*
X39910177Y53982768D01*
X39948272Y54020864D01*
X39952989Y54026613D01*
X39954488Y54027912D01*
X39955909Y54030171D01*
X39957599Y54032229D01*
X39958356Y54034059D01*
X39962320Y54040355D01*
X40000415Y54116545D01*
X40005670Y54130277D01*
X40005860Y54132965D01*
X40006892Y54135454D01*
X40008333Y54150086D01*
X40008333Y54302467D01*
X40006892Y54317099D01*
X40005860Y54319589D01*
X40005670Y54322276D01*
X40000415Y54336008D01*
X39962320Y54412199D01*
X39958355Y54418499D01*
X39957598Y54420326D01*
X39955909Y54422383D01*
X39954488Y54424642D01*
X39952989Y54425942D01*
X39948271Y54431691D01*
X39925113Y54454849D01*
X39948272Y54478007D01*
X39952989Y54483756D01*
X39954488Y54485055D01*
X39955909Y54487314D01*
X39957599Y54489372D01*
X39958356Y54491202D01*
X39962320Y54497498D01*
X40000415Y54573688D01*
X40005670Y54587420D01*
X40005860Y54590108D01*
X40006892Y54592597D01*
X40008333Y54607229D01*
X40008333Y54645324D01*
X40006892Y54659956D01*
X40005860Y54662446D01*
X40005670Y54665133D01*
X40000415Y54678865D01*
X39962320Y54755056D01*
X39958355Y54761356D01*
X39957598Y54763183D01*
X39955909Y54765240D01*
X39954488Y54767499D01*
X39952989Y54768799D01*
X39948271Y54774548D01*
X39910176Y54812643D01*
X39904426Y54817362D01*
X39903127Y54818860D01*
X39900867Y54820282D01*
X39898811Y54821970D01*
X39896983Y54822728D01*
X39890684Y54826692D01*
X39814493Y54864787D01*
X39800761Y54870042D01*
X39798073Y54870233D01*
X39795584Y54871264D01*
X39780952Y54872705D01*
X39628571Y54872705D01*
X39613939Y54871264D01*
X39611449Y54870233D01*
X39608762Y54870042D01*
X39595030Y54864787D01*
X39518840Y54826692D01*
X39512540Y54822728D01*
X39510713Y54821970D01*
X39508656Y54820282D01*
X39506397Y54818860D01*
X39505097Y54817362D01*
X39499348Y54812643D01*
X39461253Y54774548D01*
X39456532Y54768796D01*
X39455037Y54767499D01*
X39453617Y54765245D01*
X39451926Y54763183D01*
X39451167Y54761353D01*
X39447204Y54755056D01*
X39409108Y54678865D01*
X39403853Y54665134D01*
X39403661Y54662445D01*
X39402631Y54659956D01*
X39401190Y54645324D01*
X39208333Y54645324D01*
X39208333Y54797705D01*
X39206892Y54812337D01*
X39195693Y54839373D01*
X39175001Y54860065D01*
X39147965Y54871264D01*
X39118701Y54871264D01*
X39091665Y54860065D01*
X39070973Y54839373D01*
X39059774Y54812337D01*
X39058333Y54797705D01*
X39058333Y54238447D01*
X39029685Y54152505D01*
X38978533Y54101352D01*
X38892592Y54072705D01*
X38828571Y54072705D01*
X38813939Y54071264D01*
X38786903Y54060065D01*
X38766211Y54039373D01*
X38755012Y54012337D01*
X38666123Y54012337D01*
X38666123Y54961594D01*
X40097222Y54961594D01*
X40097222Y53833816D01*
G37*
G36*
X39662716Y-14506791D02*
G01*
X39683598Y-14527673D01*
X39708333Y-14577142D01*
X39708333Y-14732209D01*
X39683598Y-14781677D01*
X39662715Y-14802561D01*
X39613247Y-14827295D01*
X39496276Y-14827295D01*
X39446808Y-14802561D01*
X39425924Y-14781676D01*
X39401190Y-14732208D01*
X39401190Y-14577143D01*
X39425925Y-14527673D01*
X39446808Y-14506791D01*
X39496276Y-14482057D01*
X39613247Y-14482057D01*
X39662716Y-14506791D01*
G37*
G36*
X39947222Y-15066184D02*
G01*
X38516123Y-15066184D01*
X38516123Y-14887663D01*
X38605012Y-14887663D01*
X38605012Y-14916927D01*
X38616211Y-14943963D01*
X38636903Y-14964655D01*
X38663939Y-14975854D01*
X38678571Y-14977295D01*
X38754762Y-14977295D01*
X38762167Y-14976565D01*
X38764142Y-14976706D01*
X38766739Y-14976115D01*
X38769394Y-14975854D01*
X38771225Y-14975095D01*
X38778479Y-14973446D01*
X38892764Y-14935351D01*
X38906190Y-14929357D01*
X38908226Y-14927590D01*
X38910715Y-14926560D01*
X38922080Y-14917233D01*
X38998271Y-14841042D01*
X39007598Y-14829677D01*
X39008629Y-14827186D01*
X39010395Y-14825151D01*
X39016389Y-14811726D01*
X39054484Y-14697440D01*
X39056133Y-14690186D01*
X39056892Y-14688355D01*
X39057153Y-14685700D01*
X39057744Y-14683103D01*
X39057603Y-14681128D01*
X39058333Y-14673723D01*
X39058333Y-14445152D01*
X39251190Y-14445152D01*
X39251190Y-14749914D01*
X39252631Y-14764546D01*
X39253661Y-14767034D01*
X39253853Y-14769724D01*
X39259108Y-14783456D01*
X39297204Y-14859645D01*
X39301166Y-14865939D01*
X39301925Y-14867771D01*
X39303618Y-14869834D01*
X39305037Y-14872088D01*
X39306531Y-14873384D01*
X39311252Y-14879136D01*
X39349347Y-14917232D01*
X39355098Y-14921952D01*
X39356397Y-14923450D01*
X39358652Y-14924869D01*
X39360712Y-14926560D01*
X39362542Y-14927318D01*
X39368840Y-14931282D01*
X39445030Y-14969377D01*
X39458762Y-14974632D01*
X39461449Y-14974822D01*
X39463939Y-14975854D01*
X39478571Y-14977295D01*
X39630952Y-14977295D01*
X39645584Y-14975854D01*
X39648073Y-14974822D01*
X39650761Y-14974632D01*
X39664493Y-14969377D01*
X39740684Y-14931282D01*
X39746983Y-14927317D01*
X39748811Y-14926560D01*
X39750867Y-14924872D01*
X39753127Y-14923450D01*
X39754427Y-14921950D01*
X39760177Y-14917232D01*
X39798272Y-14879136D01*
X39802989Y-14873387D01*
X39804488Y-14872088D01*
X39805909Y-14869829D01*
X39807599Y-14867771D01*
X39808356Y-14865941D01*
X39812320Y-14859645D01*
X39850415Y-14783455D01*
X39855670Y-14769723D01*
X39855860Y-14767035D01*
X39856892Y-14764546D01*
X39858333Y-14749914D01*
X39858333Y-14559438D01*
X39856892Y-14544806D01*
X39855860Y-14542316D01*
X39855670Y-14539629D01*
X39850415Y-14525897D01*
X39812320Y-14449706D01*
X39808355Y-14443406D01*
X39807598Y-14441579D01*
X39805909Y-14439522D01*
X39804488Y-14437263D01*
X39802989Y-14435963D01*
X39798271Y-14430214D01*
X39760176Y-14392119D01*
X39754426Y-14387400D01*
X39753127Y-14385902D01*
X39750867Y-14384480D01*
X39748811Y-14382792D01*
X39746983Y-14382034D01*
X39740684Y-14378070D01*
X39664493Y-14339975D01*
X39650761Y-14334720D01*
X39648073Y-14334529D01*
X39645584Y-14333498D01*
X39630952Y-14332057D01*
X39478571Y-14332057D01*
X39463939Y-14333498D01*
X39461449Y-14334529D01*
X39458762Y-14334720D01*
X39445030Y-14339975D01*
X39427616Y-14348681D01*
X39433896Y-14323563D01*
X39498762Y-14226265D01*
X39522997Y-14202029D01*
X39572467Y-14177295D01*
X39707143Y-14177295D01*
X39721775Y-14175854D01*
X39748811Y-14164655D01*
X39769503Y-14143963D01*
X39780702Y-14116927D01*
X39780702Y-14087663D01*
X39769503Y-14060627D01*
X39748811Y-14039935D01*
X39721775Y-14028736D01*
X39707143Y-14027295D01*
X39554762Y-14027295D01*
X39540130Y-14028736D01*
X39537640Y-14029767D01*
X39534953Y-14029958D01*
X39521221Y-14035213D01*
X39445030Y-14073308D01*
X39438730Y-14077272D01*
X39436903Y-14078030D01*
X39434846Y-14079718D01*
X39432587Y-14081140D01*
X39431287Y-14082638D01*
X39425538Y-14087357D01*
X39387443Y-14125452D01*
X39387409Y-14125493D01*
X39387387Y-14125508D01*
X39382882Y-14131009D01*
X39378116Y-14136817D01*
X39378105Y-14136841D01*
X39378072Y-14136883D01*
X39301882Y-14251169D01*
X39297577Y-14259243D01*
X39296472Y-14260735D01*
X39295842Y-14262497D01*
X39294965Y-14264143D01*
X39294606Y-14265956D01*
X39291525Y-14274580D01*
X39253429Y-14426961D01*
X39253053Y-14429499D01*
X39252631Y-14430520D01*
X39252088Y-14436031D01*
X39251279Y-14441506D01*
X39251441Y-14442598D01*
X39251190Y-14445152D01*
X39058333Y-14445152D01*
X39058333Y-14102295D01*
X39056892Y-14087663D01*
X39045693Y-14060627D01*
X39025001Y-14039935D01*
X38997965Y-14028736D01*
X38968701Y-14028736D01*
X38941665Y-14039935D01*
X38920973Y-14060627D01*
X38909774Y-14087663D01*
X38908333Y-14102295D01*
X38908333Y-14661553D01*
X38879685Y-14747495D01*
X38828533Y-14798648D01*
X38742592Y-14827295D01*
X38678571Y-14827295D01*
X38663939Y-14828736D01*
X38636903Y-14839935D01*
X38616211Y-14860627D01*
X38605012Y-14887663D01*
X38516123Y-14887663D01*
X38516123Y-13938406D01*
X39947222Y-13938406D01*
X39947222Y-15066184D01*
G37*
G36*
X20459206Y-1665930D02*
G01*
X17564616Y-1665930D01*
X17564616Y-1465187D01*
X17675727Y-1465187D01*
X17675727Y-1494451D01*
X17686926Y-1521487D01*
X17707618Y-1542179D01*
X17734654Y-1553378D01*
X17749286Y-1554819D01*
X17844524Y-1554819D01*
X17851929Y-1554089D01*
X17853904Y-1554230D01*
X17856501Y-1553639D01*
X17859156Y-1553378D01*
X17860987Y-1552619D01*
X17868241Y-1550970D01*
X18011098Y-1503351D01*
X18024523Y-1497357D01*
X18026558Y-1495591D01*
X18029049Y-1494560D01*
X18040414Y-1485233D01*
X18135653Y-1389993D01*
X18144980Y-1378628D01*
X18146010Y-1376139D01*
X18147776Y-1374104D01*
X18153770Y-1360678D01*
X18201389Y-1217822D01*
X18203038Y-1210566D01*
X18203797Y-1208736D01*
X18204058Y-1206082D01*
X18204649Y-1203485D01*
X18204508Y-1201510D01*
X18205238Y-1194104D01*
X18205238Y-479819D01*
X18531429Y-479819D01*
X18531429Y-1479819D01*
X18532870Y-1494451D01*
X18544069Y-1521487D01*
X18564761Y-1542179D01*
X18591797Y-1553378D01*
X18621061Y-1553378D01*
X18648097Y-1542179D01*
X18668789Y-1521487D01*
X18679988Y-1494451D01*
X18681429Y-1479819D01*
X18681429Y-817886D01*
X18871798Y-1225821D01*
X18874972Y-1231180D01*
X18875632Y-1232993D01*
X18876806Y-1234275D01*
X18879292Y-1238471D01*
X18887701Y-1246171D01*
X18895396Y-1254574D01*
X18898414Y-1255982D01*
X18900873Y-1258234D01*
X18911585Y-1262129D01*
X18921914Y-1266950D01*
X18925242Y-1267096D01*
X18928374Y-1268235D01*
X18939768Y-1267734D01*
X18951150Y-1268234D01*
X18954278Y-1267096D01*
X18957610Y-1266950D01*
X18967945Y-1262126D01*
X18978651Y-1258234D01*
X18981106Y-1255984D01*
X18984128Y-1254575D01*
X18991829Y-1246164D01*
X19000232Y-1238470D01*
X19002715Y-1234277D01*
X19003892Y-1232993D01*
X19004552Y-1231177D01*
X19007726Y-1225820D01*
X19198095Y-817886D01*
X19198095Y-1479819D01*
X19199536Y-1494451D01*
X19210735Y-1521487D01*
X19231427Y-1542179D01*
X19258463Y-1553378D01*
X19287727Y-1553378D01*
X19314763Y-1542179D01*
X19335455Y-1521487D01*
X19346654Y-1494451D01*
X19348095Y-1479819D01*
X19348095Y-1465187D01*
X19580489Y-1465187D01*
X19580489Y-1494451D01*
X19591688Y-1521487D01*
X19612380Y-1542179D01*
X19639416Y-1553378D01*
X19654048Y-1554819D01*
X20273095Y-1554819D01*
X20287727Y-1553378D01*
X20314763Y-1542179D01*
X20335455Y-1521487D01*
X20346654Y-1494451D01*
X20346654Y-1465187D01*
X20335455Y-1438151D01*
X20314763Y-1417459D01*
X20287727Y-1406260D01*
X20273095Y-1404819D01*
X19835114Y-1404819D01*
X20278509Y-961423D01*
X20287837Y-950058D01*
X20288868Y-947567D01*
X20290633Y-945533D01*
X20296627Y-932107D01*
X20344246Y-789251D01*
X20345895Y-781995D01*
X20346654Y-780165D01*
X20346915Y-777511D01*
X20347506Y-774914D01*
X20347365Y-772939D01*
X20348095Y-765533D01*
X20348095Y-670295D01*
X20346654Y-655663D01*
X20345623Y-653174D01*
X20345432Y-650485D01*
X20340177Y-636754D01*
X20292558Y-541516D01*
X20288593Y-535216D01*
X20287836Y-533389D01*
X20286147Y-531332D01*
X20284726Y-529073D01*
X20283227Y-527773D01*
X20278509Y-522024D01*
X20230890Y-474405D01*
X20225140Y-469686D01*
X20223841Y-468188D01*
X20221581Y-466766D01*
X20219525Y-465078D01*
X20217697Y-464320D01*
X20211398Y-460356D01*
X20116160Y-412737D01*
X20102428Y-407482D01*
X20099740Y-407291D01*
X20097251Y-406260D01*
X20082619Y-404819D01*
X19844524Y-404819D01*
X19829892Y-406260D01*
X19827403Y-407290D01*
X19824714Y-407482D01*
X19810983Y-412737D01*
X19715745Y-460356D01*
X19709445Y-464320D01*
X19707618Y-465078D01*
X19705561Y-466766D01*
X19703302Y-468188D01*
X19702002Y-469686D01*
X19696253Y-474405D01*
X19648634Y-522024D01*
X19639307Y-533389D01*
X19628108Y-560426D01*
X19628108Y-589688D01*
X19639307Y-616725D01*
X19659999Y-637417D01*
X19687036Y-648616D01*
X19716298Y-648616D01*
X19743335Y-637417D01*
X19754700Y-628090D01*
X19793713Y-589077D01*
X19862229Y-554819D01*
X20064914Y-554819D01*
X20133430Y-589077D01*
X20163837Y-619484D01*
X20198095Y-688000D01*
X20198095Y-753363D01*
X20159923Y-867876D01*
X19601015Y-1426786D01*
X19591688Y-1438151D01*
X19580489Y-1465187D01*
X19348095Y-1465187D01*
X19348095Y-479819D01*
X19347147Y-470197D01*
X19347225Y-468431D01*
X19346880Y-467482D01*
X19346654Y-465187D01*
X19341672Y-453160D01*
X19337225Y-440930D01*
X19336095Y-439696D01*
X19335455Y-438151D01*
X19326255Y-428951D01*
X19317461Y-419348D01*
X19315944Y-418640D01*
X19314763Y-417459D01*
X19302750Y-412482D01*
X19290943Y-406973D01*
X19289270Y-406899D01*
X19287727Y-406260D01*
X19274721Y-406260D01*
X19261707Y-405688D01*
X19260134Y-406260D01*
X19258463Y-406260D01*
X19246444Y-411238D01*
X19234206Y-415689D01*
X19232972Y-416819D01*
X19231427Y-417459D01*
X19222228Y-426657D01*
X19212625Y-435452D01*
X19211449Y-437436D01*
X19210735Y-438151D01*
X19210058Y-439784D01*
X19205131Y-448102D01*
X18939761Y-1016750D01*
X18674393Y-448103D01*
X18669467Y-439787D01*
X18668789Y-438151D01*
X18668073Y-437435D01*
X18666899Y-435453D01*
X18657302Y-426664D01*
X18648097Y-417459D01*
X18646551Y-416818D01*
X18645318Y-415689D01*
X18633087Y-411241D01*
X18621061Y-406260D01*
X18619387Y-406260D01*
X18617817Y-405689D01*
X18604816Y-406260D01*
X18591797Y-406260D01*
X18590252Y-406899D01*
X18588581Y-406973D01*
X18576782Y-412479D01*
X18564761Y-417459D01*
X18563578Y-418641D01*
X18562063Y-419349D01*
X18553274Y-428945D01*
X18544069Y-438151D01*
X18543428Y-439696D01*
X18542299Y-440930D01*
X18537851Y-453160D01*
X18532870Y-465187D01*
X18532643Y-467482D01*
X18532299Y-468431D01*
X18532376Y-470197D01*
X18531429Y-479819D01*
X18205238Y-479819D01*
X18203797Y-465187D01*
X18192598Y-438151D01*
X18171906Y-417459D01*
X18144870Y-406260D01*
X18115606Y-406260D01*
X18088570Y-417459D01*
X18067878Y-438151D01*
X18056679Y-465187D01*
X18055238Y-479819D01*
X18055238Y-1181934D01*
X18017066Y-1296447D01*
X17946867Y-1366647D01*
X17832354Y-1404819D01*
X17749286Y-1404819D01*
X17734654Y-1406260D01*
X17707618Y-1417459D01*
X17686926Y-1438151D01*
X17675727Y-1465187D01*
X17564616Y-1465187D01*
X17564616Y-293708D01*
X20459206Y-293708D01*
X20459206Y-1665930D01*
G37*
X-26583511Y21865592D02*
X-26583511Y22198925D01*
X-27107321Y22198925D02*
X-26107321Y22198925D01*
X-26107321Y22198925D02*
X-26107321Y21722735D01*
X-27107321Y20865592D02*
X-27107321Y21341782D01*
X-27107321Y21341782D02*
X-26107321Y21341782D01*
X-27107321Y20008449D02*
X-27107321Y20579877D01*
X-27107321Y20294163D02*
X-26107321Y20294163D01*
X-26107321Y20294163D02*
X-26250178Y20389401D01*
X-26250178Y20389401D02*
X-26345416Y20484639D01*
X-26345416Y20484639D02*
X-26393035Y20579877D01*
G36*
X20457765Y50334070D02*
G01*
X17564616Y50334070D01*
X17564616Y50534813D01*
X17675727Y50534813D01*
X17675727Y50505549D01*
X17686926Y50478513D01*
X17707618Y50457821D01*
X17734654Y50446622D01*
X17749286Y50445181D01*
X17844524Y50445181D01*
X17851929Y50445911D01*
X17853904Y50445770D01*
X17856501Y50446361D01*
X17859156Y50446622D01*
X17860987Y50447381D01*
X17868241Y50449030D01*
X18011098Y50496649D01*
X18024523Y50502643D01*
X18026558Y50504409D01*
X18029049Y50505440D01*
X18040414Y50514767D01*
X18135653Y50610007D01*
X18144980Y50621372D01*
X18146010Y50623861D01*
X18147776Y50625896D01*
X18153770Y50639322D01*
X18201389Y50782178D01*
X18203038Y50789434D01*
X18203797Y50791264D01*
X18204058Y50793918D01*
X18204649Y50796515D01*
X18204508Y50798490D01*
X18205238Y50805896D01*
X18205238Y51520181D01*
X18531429Y51520181D01*
X18531429Y50520181D01*
X18532870Y50505549D01*
X18544069Y50478513D01*
X18564761Y50457821D01*
X18591797Y50446622D01*
X18621061Y50446622D01*
X18648097Y50457821D01*
X18668789Y50478513D01*
X18679988Y50505549D01*
X18681429Y50520181D01*
X18681429Y51182114D01*
X18871798Y50774179D01*
X18874972Y50768820D01*
X18875632Y50767007D01*
X18876806Y50765725D01*
X18879292Y50761529D01*
X18887701Y50753829D01*
X18895396Y50745426D01*
X18898414Y50744018D01*
X18900873Y50741766D01*
X18911585Y50737871D01*
X18921914Y50733050D01*
X18925242Y50732904D01*
X18928374Y50731765D01*
X18939768Y50732266D01*
X18951150Y50731766D01*
X18954278Y50732904D01*
X18957610Y50733050D01*
X18967945Y50737874D01*
X18978651Y50741766D01*
X18981106Y50744016D01*
X18984128Y50745425D01*
X18991829Y50753836D01*
X19000232Y50761530D01*
X19002715Y50765723D01*
X19003892Y50767007D01*
X19004552Y50768823D01*
X19007726Y50774180D01*
X19198095Y51182114D01*
X19198095Y50520181D01*
X19199536Y50505549D01*
X19210735Y50478513D01*
X19231427Y50457821D01*
X19258463Y50446622D01*
X19287727Y50446622D01*
X19314763Y50457821D01*
X19335455Y50478513D01*
X19346654Y50505549D01*
X19348095Y50520181D01*
X19348095Y51243848D01*
X19627256Y51243848D01*
X19629330Y51214658D01*
X19642417Y51188483D01*
X19664525Y51169310D01*
X19692286Y51160056D01*
X19721476Y51162130D01*
X19735208Y51167385D01*
X19830446Y51215004D01*
X19836745Y51218969D01*
X19838573Y51219726D01*
X19840629Y51221415D01*
X19842889Y51222836D01*
X19844188Y51224335D01*
X19849938Y51229053D01*
X19912381Y51291496D01*
X19912381Y50595181D01*
X19701667Y50595181D01*
X19687035Y50593740D01*
X19659999Y50582541D01*
X19639307Y50561849D01*
X19628108Y50534813D01*
X19628108Y50505549D01*
X19639307Y50478513D01*
X19659999Y50457821D01*
X19687035Y50446622D01*
X19701667Y50445181D01*
X20273095Y50445181D01*
X20287727Y50446622D01*
X20314763Y50457821D01*
X20335455Y50478513D01*
X20346654Y50505549D01*
X20346654Y50534813D01*
X20335455Y50561849D01*
X20314763Y50582541D01*
X20287727Y50593740D01*
X20273095Y50595181D01*
X20062381Y50595181D01*
X20062381Y51520181D01*
X20062375Y51520234D01*
X20062381Y51520260D01*
X20062365Y51520337D01*
X20060940Y51534813D01*
X20058098Y51541674D01*
X20056642Y51548955D01*
X20052552Y51555062D01*
X20049741Y51561849D01*
X20044492Y51567098D01*
X20040359Y51573270D01*
X20034242Y51577348D01*
X20029049Y51582541D01*
X20022189Y51585383D01*
X20016010Y51589502D01*
X20008801Y51590928D01*
X20002013Y51593740D01*
X19994586Y51593740D01*
X19987302Y51595181D01*
X19980097Y51593740D01*
X19972749Y51593740D01*
X19965888Y51590899D01*
X19958608Y51589442D01*
X19952502Y51585354D01*
X19945713Y51582541D01*
X19940462Y51577291D01*
X19934293Y51573159D01*
X19925072Y51561901D01*
X19925021Y51561849D01*
X19925011Y51561827D01*
X19924977Y51561784D01*
X19833857Y51425104D01*
X19752478Y51343725D01*
X19668126Y51301549D01*
X19655683Y51293717D01*
X19636510Y51271609D01*
X19627256Y51243848D01*
X19348095Y51243848D01*
X19348095Y51520181D01*
X19347147Y51529803D01*
X19347225Y51531569D01*
X19346880Y51532518D01*
X19346654Y51534813D01*
X19341672Y51546840D01*
X19337225Y51559070D01*
X19336095Y51560304D01*
X19335455Y51561849D01*
X19326255Y51571049D01*
X19317461Y51580652D01*
X19315944Y51581360D01*
X19314763Y51582541D01*
X19302750Y51587518D01*
X19290943Y51593027D01*
X19289270Y51593101D01*
X19287727Y51593740D01*
X19274721Y51593740D01*
X19261707Y51594312D01*
X19260134Y51593740D01*
X19258463Y51593740D01*
X19246444Y51588762D01*
X19234206Y51584311D01*
X19232972Y51583181D01*
X19231427Y51582541D01*
X19222228Y51573343D01*
X19212625Y51564548D01*
X19211449Y51562564D01*
X19210735Y51561849D01*
X19210058Y51560216D01*
X19205131Y51551898D01*
X18939761Y50983250D01*
X18674393Y51551897D01*
X18669467Y51560213D01*
X18668789Y51561849D01*
X18668073Y51562565D01*
X18666899Y51564547D01*
X18657302Y51573336D01*
X18648097Y51582541D01*
X18646551Y51583182D01*
X18645318Y51584311D01*
X18633087Y51588759D01*
X18621061Y51593740D01*
X18619387Y51593740D01*
X18617817Y51594311D01*
X18604816Y51593740D01*
X18591797Y51593740D01*
X18590252Y51593101D01*
X18588581Y51593027D01*
X18576782Y51587521D01*
X18564761Y51582541D01*
X18563578Y51581359D01*
X18562063Y51580651D01*
X18553274Y51571055D01*
X18544069Y51561849D01*
X18543428Y51560304D01*
X18542299Y51559070D01*
X18537851Y51546840D01*
X18532870Y51534813D01*
X18532643Y51532518D01*
X18532299Y51531569D01*
X18532376Y51529803D01*
X18531429Y51520181D01*
X18205238Y51520181D01*
X18203797Y51534813D01*
X18192598Y51561849D01*
X18171906Y51582541D01*
X18144870Y51593740D01*
X18115606Y51593740D01*
X18088570Y51582541D01*
X18067878Y51561849D01*
X18056679Y51534813D01*
X18055238Y51520181D01*
X18055238Y50818066D01*
X18017066Y50703553D01*
X17946867Y50633353D01*
X17832354Y50595181D01*
X17749286Y50595181D01*
X17734654Y50593740D01*
X17707618Y50582541D01*
X17686926Y50561849D01*
X17675727Y50534813D01*
X17564616Y50534813D01*
X17564616Y51706292D01*
X20457765Y51706292D01*
X20457765Y50334070D01*
G37*
D12*
%TO.C,U4*%
X-5750000Y33800000D02*
X-6050000Y33600000D01*
X-6050000Y34000000D01*
X-5750000Y33800000D01*
G36*
X-5750000Y33800000D02*
G01*
X-6050000Y33600000D01*
X-6050000Y34000000D01*
X-5750000Y33800000D01*
G37*
%TO.C,U3*%
X-5750000Y26529999D02*
X-6050000Y26329999D01*
X-6050000Y26729999D01*
X-5750000Y26529999D01*
G36*
X-5750000Y26529999D02*
G01*
X-6050000Y26329999D01*
X-6050000Y26729999D01*
X-5750000Y26529999D01*
G37*
D13*
%TO.C,U2*%
X3670000Y51400000D02*
X3670000Y52800000D01*
X5990000Y53300000D02*
X5990000Y51400000D01*
%TO.C,C31*%
X-23410000Y23630580D02*
X-23410000Y23349420D01*
X-22390000Y23630580D02*
X-22390000Y23349420D01*
%TO.C,C10*%
X-30238748Y7572500D02*
X-31661252Y7572500D01*
X-30238748Y5752500D02*
X-31661252Y5752500D01*
%TO.C,FB2*%
X27099721Y54884999D02*
X27425279Y54884999D01*
X27099721Y53864999D02*
X27425279Y53864999D01*
%TO.C,C14*%
X-8107836Y12300000D02*
X-7892164Y12300000D01*
X-8107836Y11580000D02*
X-7892164Y11580000D01*
%TO.C,C11*%
X-20351253Y8475000D02*
X-19828747Y8475000D01*
X-20351253Y7005000D02*
X-19828747Y7005000D01*
%TO.C,C34*%
X-8107836Y13600000D02*
X-7892164Y13600000D01*
X-8107836Y12880000D02*
X-7892164Y12880000D01*
%TO.C,FB4*%
X5837221Y47010000D02*
X6162779Y47010000D01*
X5837221Y45990000D02*
X6162779Y45990000D01*
%TO.C,C27*%
X-19139419Y46260000D02*
X-19420581Y46260000D01*
X-19139419Y45240000D02*
X-19420581Y45240000D01*
%TO.C,L5*%
X-18062878Y-6140001D02*
X-18862122Y-6140001D01*
X-18062878Y-7260001D02*
X-18862122Y-7260001D01*
%TO.C,L8*%
X-7924622Y-6140001D02*
X-7125378Y-6140001D01*
X-7924622Y-7260001D02*
X-7125378Y-7260001D01*
%TO.C,C9*%
X-20351253Y6475000D02*
X-19828747Y6475000D01*
X-20351253Y5005000D02*
X-19828747Y5005000D01*
%TO.C,C21*%
X-24670000Y-12250581D02*
X-24670000Y-11969419D01*
X-23650000Y-12250581D02*
X-23650000Y-11969419D01*
%TO.C,Q2*%
X-22630000Y19640000D02*
X-22630000Y18240000D01*
X-20310000Y19650000D02*
X-20310000Y18240000D01*
X-20030000Y19780000D02*
X-20360000Y20020000D01*
X-20030000Y20260000D01*
X-20030000Y19780000D01*
G36*
X-20030000Y19780000D02*
G01*
X-20360000Y20020000D01*
X-20030000Y20260000D01*
X-20030000Y19780000D01*
G37*
%TO.C,C28*%
X-31040000Y-13500581D02*
X-31040000Y-13219419D01*
X-30020000Y-13500581D02*
X-30020000Y-13219419D01*
%TO.C,L6*%
X-7924622Y-2640000D02*
X-7125378Y-2640000D01*
X-7924622Y-3760000D02*
X-7125378Y-3760000D01*
D14*
%TO.C,D3*%
X-12675000Y-2800001D02*
X-12675000Y-2900001D01*
X-12675000Y-5400001D02*
X-12675000Y-5800001D01*
X-12675000Y-5800001D02*
X-12295000Y-5800001D01*
X-12295000Y-2800001D02*
X-12675000Y-2800001D01*
X-11005000Y-2800001D02*
X-11345000Y-2800001D01*
X-11005000Y-5800001D02*
X-11345000Y-5800001D01*
X-10055000Y-2800001D02*
X-9675000Y-2800001D01*
X-10055000Y-5800001D02*
X-9675000Y-5800001D01*
X-9675000Y-2800001D02*
X-9675000Y-2900001D01*
X-9675000Y-5800001D02*
X-9675000Y-4400001D01*
D15*
X-10425000Y-2200001D02*
G75*
G02*
X-10525000Y-2200001I-50000J0D01*
G01*
X-10525000Y-2200001D02*
G75*
G02*
X-10425000Y-2200001I50000J0D01*
G01*
D13*
%TO.C,R13*%
X-26086359Y6490000D02*
X-26393641Y6490000D01*
X-26086359Y5730000D02*
X-26393641Y5730000D01*
%TO.C,L4*%
X-18862122Y-4390000D02*
X-18062878Y-4390000D01*
X-18862122Y-5510000D02*
X-18062878Y-5510000D01*
%TO.C,R1*%
X-15922500Y43777742D02*
X-15922500Y44252258D01*
X-14877500Y43777742D02*
X-14877500Y44252258D01*
D14*
%TO.C,U5*%
X770000Y31910000D02*
X-430000Y31910000D01*
X770000Y29870000D02*
X-430000Y29870000D01*
D12*
X1270000Y30090000D02*
X1070000Y30290000D01*
X1270000Y30490000D01*
X1270000Y30090000D01*
G36*
X1270000Y30090000D02*
G01*
X1070000Y30290000D01*
X1270000Y30490000D01*
X1270000Y30090000D01*
G37*
D16*
%TO.C,J8*%
X36600000Y54377500D02*
G75*
G02*
X36400000Y54377500I-100000J0D01*
G01*
X36400000Y54377500D02*
G75*
G02*
X36600000Y54377500I100000J0D01*
G01*
D13*
%TO.C,C5*%
X-8107836Y-310000D02*
X-7892164Y-310000D01*
X-8107836Y-1030000D02*
X-7892164Y-1030000D01*
D14*
%TO.C,D4*%
X-16275000Y-2800001D02*
X-16275000Y-2900001D01*
X-16275000Y-5400001D02*
X-16275000Y-5800001D01*
X-16275000Y-5800001D02*
X-15895000Y-5800001D01*
X-15895000Y-2800001D02*
X-16275000Y-2800001D01*
X-14605000Y-2800001D02*
X-14945000Y-2800001D01*
X-14605000Y-5800001D02*
X-14945000Y-5800001D01*
X-13655000Y-2800001D02*
X-13275000Y-2800001D01*
X-13655000Y-5800001D02*
X-13275000Y-5800001D01*
X-13275000Y-2800001D02*
X-13275000Y-2900001D01*
X-13275000Y-5800001D02*
X-13275000Y-4400001D01*
D15*
X-14025000Y-2200001D02*
G75*
G02*
X-14125000Y-2200001I-50000J0D01*
G01*
X-14125000Y-2200001D02*
G75*
G02*
X-14025000Y-2200001I50000J0D01*
G01*
D16*
%TO.C,J6*%
X36600000Y-14627500D02*
G75*
G02*
X36400000Y-14627500I-100000J0D01*
G01*
X36400000Y-14627500D02*
G75*
G02*
X36600000Y-14627500I100000J0D01*
G01*
D13*
%TO.C,C16*%
X29365000Y53761253D02*
X29365000Y53238747D01*
X30835000Y53761253D02*
X30835000Y53238747D01*
%TO.C,C7*%
X-23228747Y6475000D02*
X-23751253Y6475000D01*
X-23228747Y5005000D02*
X-23751253Y5005000D01*
%TO.C,R33*%
X-18160000Y7863641D02*
X-18160000Y7556359D01*
X-17400000Y7863641D02*
X-17400000Y7556359D01*
%TO.C,R31*%
X-26086359Y7700000D02*
X-26393641Y7700000D01*
X-26086359Y6940000D02*
X-26393641Y6940000D01*
D12*
%TO.C,JM2*%
X19600000Y-9900000D02*
X19000000Y-9900000D01*
X19300000Y-9400000D01*
X19600000Y-9900000D01*
G36*
X19600000Y-9900000D02*
G01*
X19000000Y-9900000D01*
X19300000Y-9400000D01*
X19600000Y-9900000D01*
G37*
D13*
%TO.C,L2*%
X-29670000Y-10650000D02*
X-29670000Y-10800000D01*
X-29670000Y-15170000D02*
X-29670000Y-15020000D01*
X-25150000Y-10650000D02*
X-29670000Y-10650000D01*
X-25150000Y-10650000D02*
X-25150000Y-10800000D01*
X-25150000Y-15170000D02*
X-29670000Y-15170000D01*
X-25150000Y-15170000D02*
X-25150000Y-15020000D01*
%TO.C,L7*%
X-7125378Y-4390000D02*
X-7924622Y-4390000D01*
X-7125378Y-5510000D02*
X-7924622Y-5510000D01*
%TO.C,C12*%
X20790000Y53840581D02*
X20790000Y53559419D01*
X21810000Y53840581D02*
X21810000Y53559419D01*
%TO.C,R8*%
X-5247500Y-3762742D02*
X-5247500Y-4237258D01*
X-4202500Y-3762742D02*
X-4202500Y-4237258D01*
%TO.C,D1*%
X-16510000Y-6550000D02*
X-16510000Y-9850000D01*
X-16510000Y-6550000D02*
X-11000000Y-6550000D01*
X-16510000Y-9850000D02*
X-11000000Y-9850000D01*
D17*
%TO.C,FL1*%
X-29129001Y23705596D02*
X-29129001Y18549396D01*
X-29129001Y18549396D02*
X-28455142Y18549396D01*
X-28455142Y23705596D02*
X-29129001Y23705596D01*
X-26849862Y18549396D02*
X-26455140Y18549396D01*
X-26455140Y23705596D02*
X-26849862Y23705596D01*
X-24849860Y18549396D02*
X-24176001Y18549396D01*
X-24176001Y23705596D02*
X-24849860Y23705596D01*
X-24176001Y18549396D02*
X-24176001Y23705596D01*
X-25525501Y25848696D02*
G75*
G02*
X-25779501Y25848696I-127000J0D01*
G01*
X-25779501Y25848696D02*
G75*
G02*
X-25525501Y25848696I127000J0D01*
G01*
D13*
%TO.C,R7*%
X-21722500Y-3762742D02*
X-21722500Y-4237258D01*
X-20677500Y-3762742D02*
X-20677500Y-4237258D01*
%TO.C,C29*%
X-22710000Y-7888748D02*
X-22710000Y-9311252D01*
X-20890000Y-7888748D02*
X-20890000Y-9311252D01*
%TO.C,C8*%
X-23228747Y8475000D02*
X-23751253Y8475000D01*
X-23228747Y7005000D02*
X-23751253Y7005000D01*
D12*
%TO.C,JM1*%
X19600000Y42100000D02*
X19000000Y42100000D01*
X19300000Y42600000D01*
X19600000Y42100000D01*
G36*
X19600000Y42100000D02*
G01*
X19000000Y42100000D01*
X19300000Y42600000D01*
X19600000Y42100000D01*
G37*
D13*
%TO.C,R32*%
X-18160000Y5556359D02*
X-18160000Y5863641D01*
X-17400000Y5556359D02*
X-17400000Y5863641D01*
%TO.C,C30*%
X-5110000Y-7888748D02*
X-5110000Y-9311252D01*
X-3290000Y-7888748D02*
X-3290000Y-9311252D01*
%TO.C,C37*%
X-17640581Y48010000D02*
X-17359419Y48010000D01*
X-17640581Y46990000D02*
X-17359419Y46990000D01*
%TO.C,C43*%
X-22511252Y10790000D02*
X-21088748Y10790000D01*
X-22511252Y8970000D02*
X-21088748Y8970000D01*
D12*
%TO.C,U7*%
X25096700Y52974874D02*
X24496700Y52974874D01*
X24796700Y53374874D01*
X25096700Y52974874D01*
G36*
X25096700Y52974874D02*
G01*
X24496700Y52974874D01*
X24796700Y53374874D01*
X25096700Y52974874D01*
G37*
D13*
%TO.C,L3*%
X-18062878Y-2640000D02*
X-18862122Y-2640000D01*
X-18062878Y-3760000D02*
X-18862122Y-3760000D01*
%TO.C,C44*%
X-22511252Y4500000D02*
X-21088748Y4500000D01*
X-22511252Y2680000D02*
X-21088748Y2680000D01*
D14*
%TO.C,U11*%
X46340000Y1410000D02*
X47540000Y1410000D01*
X46340000Y-630000D02*
X47540000Y-630000D01*
D12*
X48040000Y-410000D02*
X47840000Y-210000D01*
X48040000Y-10000D01*
X48040000Y-410000D01*
G36*
X48040000Y-410000D02*
G01*
X47840000Y-210000D01*
X48040000Y-10000D01*
X48040000Y-410000D01*
G37*
D13*
%TO.C,C22*%
X-20530580Y41700000D02*
X-20249420Y41700000D01*
X-20530580Y40680000D02*
X-20249420Y40680000D01*
%TO.C,C6*%
X-8107836Y970000D02*
X-7892164Y970000D01*
X-8107836Y250000D02*
X-7892164Y250000D01*
%TO.C,C23*%
X-20859419Y48010000D02*
X-21140581Y48010000D01*
X-20859419Y46990000D02*
X-21140581Y46990000D01*
%TD*%
%LPC*%
D18*
%TO.C,U5*%
X120000Y31340000D02*
X-680000Y31340000D01*
X-680000Y31640000D01*
X120000Y31640000D01*
X120000Y31340000D01*
G36*
X120000Y31340000D02*
G01*
X-680000Y31340000D01*
X-680000Y31640000D01*
X120000Y31640000D01*
X120000Y31340000D01*
G37*
X120000Y30940000D02*
X-680000Y30940000D01*
X-680000Y31240000D01*
X120000Y31240000D01*
X120000Y30940000D01*
G36*
X120000Y30940000D02*
G01*
X-680000Y30940000D01*
X-680000Y31240000D01*
X120000Y31240000D01*
X120000Y30940000D01*
G37*
X120000Y30540000D02*
X-680000Y30540000D01*
X-680000Y30840000D01*
X120000Y30840000D01*
X120000Y30540000D01*
G36*
X120000Y30540000D02*
G01*
X-680000Y30540000D01*
X-680000Y30840000D01*
X120000Y30840000D01*
X120000Y30540000D01*
G37*
X120000Y30140000D02*
X-680000Y30140000D01*
X-680000Y30440000D01*
X120000Y30440000D01*
X120000Y30140000D01*
G36*
X120000Y30140000D02*
G01*
X-680000Y30140000D01*
X-680000Y30440000D01*
X120000Y30440000D01*
X120000Y30140000D01*
G37*
X1020000Y31340000D02*
X220000Y31340000D01*
X220000Y31640000D01*
X1020000Y31640000D01*
X1020000Y31340000D01*
G36*
X1020000Y31340000D02*
G01*
X220000Y31340000D01*
X220000Y31640000D01*
X1020000Y31640000D01*
X1020000Y31340000D01*
G37*
X1020000Y30940000D02*
X220000Y30940000D01*
X220000Y31240000D01*
X1020000Y31240000D01*
X1020000Y30940000D01*
G36*
X1020000Y30940000D02*
G01*
X220000Y30940000D01*
X220000Y31240000D01*
X1020000Y31240000D01*
X1020000Y30940000D01*
G37*
X1020000Y30540000D02*
X220000Y30540000D01*
X220000Y30840000D01*
X1020000Y30840000D01*
X1020000Y30540000D01*
G36*
X1020000Y30540000D02*
G01*
X220000Y30540000D01*
X220000Y30840000D01*
X1020000Y30840000D01*
X1020000Y30540000D01*
G37*
X1020000Y30140000D02*
X220000Y30140000D01*
X220000Y30440000D01*
X1020000Y30440000D01*
X1020000Y30140000D01*
G36*
X1020000Y30140000D02*
G01*
X220000Y30140000D01*
X220000Y30440000D01*
X1020000Y30440000D01*
X1020000Y30140000D01*
G37*
%TO.C,U11*%
X46890000Y840000D02*
X46090000Y840000D01*
X46090000Y1140000D01*
X46890000Y1140000D01*
X46890000Y840000D01*
G36*
X46890000Y840000D02*
G01*
X46090000Y840000D01*
X46090000Y1140000D01*
X46890000Y1140000D01*
X46890000Y840000D01*
G37*
X46890000Y440000D02*
X46090000Y440000D01*
X46090000Y740000D01*
X46890000Y740000D01*
X46890000Y440000D01*
G36*
X46890000Y440000D02*
G01*
X46090000Y440000D01*
X46090000Y740000D01*
X46890000Y740000D01*
X46890000Y440000D01*
G37*
X46890000Y40000D02*
X46090000Y40000D01*
X46090000Y340000D01*
X46890000Y340000D01*
X46890000Y40000D01*
G36*
X46890000Y40000D02*
G01*
X46090000Y40000D01*
X46090000Y340000D01*
X46890000Y340000D01*
X46890000Y40000D01*
G37*
X46890000Y-360000D02*
X46090000Y-360000D01*
X46090000Y-60000D01*
X46890000Y-60000D01*
X46890000Y-360000D01*
G36*
X46890000Y-360000D02*
G01*
X46090000Y-360000D01*
X46090000Y-60000D01*
X46890000Y-60000D01*
X46890000Y-360000D01*
G37*
X47790000Y840000D02*
X46990000Y840000D01*
X46990000Y1140000D01*
X47790000Y1140000D01*
X47790000Y840000D01*
G36*
X47790000Y840000D02*
G01*
X46990000Y840000D01*
X46990000Y1140000D01*
X47790000Y1140000D01*
X47790000Y840000D01*
G37*
X47790000Y440000D02*
X46990000Y440000D01*
X46990000Y740000D01*
X47790000Y740000D01*
X47790000Y440000D01*
G36*
X47790000Y440000D02*
G01*
X46990000Y440000D01*
X46990000Y740000D01*
X47790000Y740000D01*
X47790000Y440000D01*
G37*
X47790000Y40000D02*
X46990000Y40000D01*
X46990000Y340000D01*
X47790000Y340000D01*
X47790000Y40000D01*
G36*
X47790000Y40000D02*
G01*
X46990000Y40000D01*
X46990000Y340000D01*
X47790000Y340000D01*
X47790000Y40000D01*
G37*
X47790000Y-360000D02*
X46990000Y-360000D01*
X46990000Y-60000D01*
X47790000Y-60000D01*
X47790000Y-360000D01*
G36*
X47790000Y-360000D02*
G01*
X46990000Y-360000D01*
X46990000Y-60000D01*
X47790000Y-60000D01*
X47790000Y-360000D01*
G37*
%TD*%
D19*
%TO.C,U4*%
X-5385000Y33800001D03*
X-5385000Y33399999D03*
D20*
X-5260000Y33000000D03*
D19*
X-5385000Y32600001D03*
X-5385000Y32199999D03*
X-4615000Y32199999D03*
X-4615000Y32600001D03*
D20*
X-4740000Y33000000D03*
D19*
X-4615000Y33399999D03*
X-4615000Y33800001D03*
%TD*%
%TO.C,U3*%
X-5385000Y26530000D03*
X-5385000Y26129998D03*
D20*
X-5260000Y25729999D03*
D19*
X-5385000Y25330000D03*
X-5385000Y24929998D03*
X-4615000Y24929998D03*
X-4615000Y25330000D03*
D20*
X-4740000Y25729999D03*
D19*
X-4615000Y26129998D03*
X-4615000Y26530000D03*
%TD*%
D21*
%TO.C,C1*%
X-350000Y54800000D03*
X-350000Y55440000D03*
%TD*%
D22*
%TO.C,U2*%
X5480000Y53050000D03*
X4830000Y53049999D03*
X4180000Y53050000D03*
X4180000Y51150000D03*
X5480000Y51150000D03*
%TD*%
D23*
%TO.C,R2*%
X5150000Y50070000D03*
X4510000Y50070000D03*
%TD*%
D24*
%TO.C,C13*%
X20200000Y53880000D03*
X20200000Y53320000D03*
%TD*%
D25*
%TO.C,C31*%
X-22900000Y24265000D03*
X-22900000Y22715000D03*
%TD*%
D26*
%TO.C,C10*%
X-29474999Y6662500D03*
X-32425001Y6662500D03*
%TD*%
D27*
%TO.C,FB2*%
X26475000Y54374999D03*
X28050000Y54374999D03*
%TD*%
D28*
%TO.C,C14*%
X-8480000Y11940001D03*
X-7520000Y11939999D03*
%TD*%
D29*
%TO.C,H2*%
X-27000000Y-5000000D03*
%TD*%
D30*
%TO.C,C11*%
X-21039999Y7740000D03*
X-19140001Y7740000D03*
%TD*%
D21*
%TO.C,C33*%
X-1290000Y54800000D03*
X-1290000Y55440000D03*
%TD*%
D28*
%TO.C,C34*%
X-8480000Y13240001D03*
X-7520000Y13239999D03*
%TD*%
D27*
%TO.C,FB4*%
X5212500Y46500000D03*
X6787500Y46500000D03*
%TD*%
D31*
%TO.C,C27*%
X-18505000Y45750000D03*
X-20055000Y45750000D03*
%TD*%
D24*
%TO.C,C15*%
X26300000Y53180000D03*
X26300000Y52620000D03*
%TD*%
D32*
%TO.C,R6*%
X-18460000Y40850000D03*
X-18460000Y41490000D03*
%TD*%
D33*
%TO.C,L5*%
X-17400000Y-6700001D03*
X-19525000Y-6700001D03*
%TD*%
D34*
%TO.C,L8*%
X-8587500Y-6700001D03*
X-6462500Y-6700001D03*
%TD*%
D35*
%TO.C,FID1*%
X37820000Y-11230000D03*
%TD*%
D30*
%TO.C,C9*%
X-21039999Y5740000D03*
X-19140001Y5740000D03*
%TD*%
D35*
%TO.C,FID9*%
X45000000Y20000000D03*
%TD*%
D36*
%TO.C,C21*%
X-24160000Y-12885000D03*
X-24160000Y-11335000D03*
%TD*%
D37*
%TO.C,Q2*%
X-20820000Y19890000D03*
X-21470000Y19889999D03*
X-22120000Y19890000D03*
X-22120000Y17990000D03*
X-21470000Y17990001D03*
X-20820000Y17990000D03*
%TD*%
D38*
%TO.C,R18*%
X-180000Y41500000D03*
X-820000Y41500000D03*
%TD*%
D35*
%TO.C,FID2*%
X40000000Y48000000D03*
%TD*%
D36*
%TO.C,C28*%
X-30530000Y-14135000D03*
X-30530000Y-12585000D03*
%TD*%
D29*
%TO.C,H3*%
X45000000Y-11000000D03*
%TD*%
%TO.C,H4*%
X-27000000Y45000000D03*
%TD*%
%TO.C,H1*%
X45000000Y51000000D03*
%TD*%
D34*
%TO.C,L6*%
X-8587500Y-3200000D03*
X-6462500Y-3200000D03*
%TD*%
D38*
%TO.C,R4*%
X-180000Y43000000D03*
X-820000Y43000000D03*
%TD*%
D39*
%TO.C,D3*%
X-10525000Y-2900001D03*
D40*
X-10525000Y-3657501D03*
D41*
X-11825000Y-2900001D03*
D42*
X-11937500Y-4140001D03*
D43*
X-11825000Y-5625001D03*
X-10525000Y-5625001D03*
D44*
X-10487500Y-4772501D03*
%TD*%
D45*
%TO.C,R13*%
X-25730001Y6110000D03*
X-26749999Y6110000D03*
%TD*%
D34*
%TO.C,L4*%
X-19525000Y-4950000D03*
X-17400000Y-4950000D03*
%TD*%
D46*
%TO.C,R1*%
X-15400000Y43190000D03*
X-15400000Y44840000D03*
%TD*%
D47*
%TO.C,J8*%
X36500000Y56777500D03*
X39200000Y56777500D03*
X33800000Y56777500D03*
%TD*%
D48*
%TO.C,R10*%
X-19590000Y17830000D03*
X-18950000Y17830000D03*
%TD*%
D35*
%TO.C,FID8*%
X13000000Y47000000D03*
%TD*%
D28*
%TO.C,C5*%
X-8480000Y-669999D03*
X-7520000Y-670001D03*
%TD*%
D39*
%TO.C,D4*%
X-14125000Y-2900001D03*
D40*
X-14125000Y-3657501D03*
D41*
X-15425000Y-2900001D03*
D42*
X-15537500Y-4140001D03*
D43*
X-15425000Y-5625001D03*
X-14125000Y-5625001D03*
D44*
X-14087500Y-4772501D03*
%TD*%
D49*
%TO.C,J6*%
X36500000Y-17027500D03*
X33800000Y-17027500D03*
X39200000Y-17027500D03*
%TD*%
D50*
%TO.C,C16*%
X30100000Y54449999D03*
X30100000Y52550001D03*
%TD*%
D51*
%TO.C,C7*%
X-22540001Y5740000D03*
X-24439999Y5740000D03*
%TD*%
D52*
%TO.C,R33*%
X-17780000Y8219999D03*
X-17780000Y7200001D03*
%TD*%
D45*
%TO.C,R31*%
X-25730001Y7320000D03*
X-26749999Y7320000D03*
%TD*%
D53*
%TO.C,JM2*%
X17075000Y-6000000D03*
X32925000Y-6000000D03*
D54*
X19285000Y-8750000D03*
X20555000Y-8750000D03*
X21825000Y-8750000D03*
X23095000Y-8750000D03*
X24365000Y-8750000D03*
X25635000Y-8750000D03*
X26905000Y-8750000D03*
X28175000Y-8750000D03*
X29445000Y-8750000D03*
X30715000Y-8750000D03*
X19285000Y-3250000D03*
X20555000Y-3250000D03*
X21825000Y-3250000D03*
X23095000Y-3250000D03*
X24365000Y-3250000D03*
X25635000Y-3250000D03*
X26905000Y-3250000D03*
X28175000Y-3250000D03*
X29445000Y-3250000D03*
X30715000Y-3250000D03*
D55*
X16790000Y-8450000D03*
X16790000Y-3550000D03*
X33210000Y-8450000D03*
X33210000Y-3550000D03*
%TD*%
D56*
%TO.C,L2*%
X-25910000Y-12910000D03*
X-28910000Y-12910000D03*
%TD*%
D33*
%TO.C,L7*%
X-6462500Y-4950000D03*
X-8587500Y-4950000D03*
%TD*%
D25*
%TO.C,C12*%
X21300000Y54475000D03*
X21300000Y52925000D03*
%TD*%
D57*
%TO.C,R8*%
X-4725000Y-3175000D03*
X-4725000Y-4825000D03*
%TD*%
D48*
%TO.C,R17*%
X-28837500Y17252499D03*
X-28197500Y17252499D03*
%TD*%
D58*
%TO.C,D1*%
X-15000001Y-8200000D03*
X-10999999Y-8200000D03*
%TD*%
D59*
%TO.C,FL1*%
X-25652500Y23502499D03*
X-27652502Y23502499D03*
X-27652502Y18752493D03*
X-25652500Y18752493D03*
%TD*%
D57*
%TO.C,R7*%
X-21200000Y-3175000D03*
X-21200000Y-4825000D03*
%TD*%
D60*
%TO.C,C3*%
X5120000Y49360000D03*
X4560000Y49360000D03*
%TD*%
D61*
%TO.C,C29*%
X-21800000Y-7124999D03*
X-21800000Y-10075001D03*
%TD*%
D51*
%TO.C,C8*%
X-22540001Y7740000D03*
X-24439999Y7740000D03*
%TD*%
D48*
%TO.C,R9*%
X-19590000Y18670000D03*
X-18950000Y18670000D03*
%TD*%
D62*
%TO.C,C36*%
X-27182500Y17252499D03*
X-26622500Y17252499D03*
%TD*%
D53*
%TO.C,JM1*%
X17075000Y46000000D03*
X32925000Y46000000D03*
D54*
X19285000Y43250000D03*
X20555000Y43250000D03*
X21825000Y43250000D03*
X23095000Y43250000D03*
X24365000Y43250000D03*
X25635000Y43250000D03*
X26905000Y43250000D03*
X28175000Y43250000D03*
X29445000Y43250000D03*
X30715000Y43250000D03*
X19285000Y48750000D03*
X20555000Y48750000D03*
X21825000Y48750000D03*
X23095000Y48750000D03*
X24365000Y48750000D03*
X25635000Y48750000D03*
X26905000Y48750000D03*
X28175000Y48750000D03*
X29445000Y48750000D03*
X30715000Y48750000D03*
D55*
X16790000Y43550000D03*
X16790000Y48450000D03*
X33210000Y43550000D03*
X33210000Y48450000D03*
%TD*%
D63*
%TO.C,R32*%
X-17780000Y5200001D03*
X-17780000Y6219999D03*
%TD*%
D61*
%TO.C,C30*%
X-4200000Y-7124999D03*
X-4200000Y-10075001D03*
%TD*%
D64*
%TO.C,C37*%
X-18275000Y47500000D03*
X-16725000Y47500000D03*
%TD*%
D65*
%TO.C,C43*%
X-23275000Y9880000D03*
X-20325000Y9880000D03*
%TD*%
D66*
%TO.C,U7*%
X24800000Y53574748D03*
X24800000Y54074874D03*
X24800000Y54575000D03*
X22793400Y54575000D03*
X22793400Y54074874D03*
X22793400Y53574748D03*
D67*
X23796700Y54074874D03*
%TD*%
D33*
%TO.C,L3*%
X-17400000Y-3200000D03*
X-19525000Y-3200000D03*
%TD*%
D35*
%TO.C,FID5*%
X3600000Y-7500000D03*
%TD*%
D65*
%TO.C,C44*%
X-23275001Y3590000D03*
X-20324999Y3590000D03*
%TD*%
D48*
%TO.C,R11*%
X-28590000Y25090000D03*
X-27950000Y25090000D03*
%TD*%
D24*
%TO.C,C17*%
X28300000Y53160000D03*
X28300000Y52600000D03*
%TD*%
D64*
%TO.C,C22*%
X-21165000Y41190000D03*
X-19615000Y41190000D03*
%TD*%
D28*
%TO.C,C6*%
X-8480000Y610001D03*
X-7520000Y609999D03*
%TD*%
D31*
%TO.C,C23*%
X-20225000Y47500000D03*
X-21775000Y47500000D03*
%TD*%
D68*
%TO.C,M2*%
X53000000Y-10100000D03*
D69*
X53000000Y50100000D03*
%TD*%
D70*
%TO.C,SW1*%
X12375000Y56500000D03*
X16625000Y56500000D03*
%TD*%
D69*
%TO.C,J5*%
X-28180000Y53100000D03*
X-34179999Y53100000D03*
%TD*%
D71*
%TO.C,J4*%
X-29040000Y170000D03*
X-29040000Y12870000D03*
D72*
X-13800000Y11850000D03*
X-13800000Y9820000D03*
X-13800000Y7790000D03*
X-13800000Y5760000D03*
X-13800000Y3730000D03*
X-13800000Y1700000D03*
X-11260000Y12870000D03*
X-11260000Y10830000D03*
X-11260000Y8790000D03*
X-11260000Y4740000D03*
X-11260000Y2700000D03*
X-11260000Y660000D03*
D73*
X-20910000Y12355000D03*
X-20910000Y1175000D03*
X-22460000Y12355000D03*
X-22460000Y1175000D03*
D74*
X-32220000Y-1410000D03*
X-32220000Y14940000D03*
%TD*%
D75*
%TO.C,J1*%
X-29427500Y31170000D03*
D76*
X-29427500Y33670000D03*
X-29427500Y35670000D03*
X-29427500Y38170000D03*
D77*
X-30627500Y28270000D03*
X-30627500Y41070000D03*
%TD*%
D68*
%TO.C,M1*%
X8500000Y-10100000D03*
D69*
X8500000Y50100000D03*
%TD*%
D78*
%TO.C,J9*%
X-6775000Y44275000D03*
D53*
X-6775000Y41735000D03*
X-4235000Y44275000D03*
X-4235000Y41735000D03*
%TD*%
D79*
%TO.C,J2*%
X-30542500Y19102499D03*
X-30542500Y19952499D03*
X-30542500Y20802500D03*
X-30542500Y21652499D03*
X-30542500Y22502499D03*
X-30542500Y23352499D03*
X-30542500Y24202500D03*
X-30542500Y25052499D03*
X-31892500Y25052499D03*
X-31892500Y24202499D03*
X-31892500Y23352499D03*
X-31892500Y22502499D03*
X-31892500Y21652499D03*
X-31892500Y20802499D03*
X-31892500Y19952499D03*
X-31892500Y19102499D03*
D80*
X-34902500Y17752499D03*
D81*
X-31522500Y17752499D03*
D80*
X-34902500Y26402499D03*
D81*
X-31522500Y26402499D03*
%TD*%
%LPD*%
M02*
