M48
; DRILL file {KiCad 9.0.3} date 2025-08-25T11:29:22-0500
; FORMAT={-:-/ absolute / inch / decimal}
; #@! TF.CreationDate,2025-08-25T11:29:22-05:00
; #@! TF.GenerationSoftware,Kicad,Pcbnew,9.0.3
; #@! TF.FileFunction,Plated,1,6,PTH
FMAT,2
INCH
; #@! TA.AperFunction,Plated,PTH,ViaDrill
T1C0.0118
; #@! TA.AperFunction,Plated,PTH,ComponentDrill
T2C0.0157
; #@! TA.AperFunction,Plated,PTH,ViaDrill
T3C0.0197
; #@! TA.AperFunction,Plated,PTH,ViaDrill
T4C0.0236
; #@! TA.AperFunction,Plated,PTH,ComponentDrill
T5C0.0236
; #@! TA.AperFunction,Plated,PTH,ViaDrill
T6C0.0315
; #@! TA.AperFunction,Plated,PTH,ComponentDrill
T7C0.0354
; #@! TA.AperFunction,Plated,PTH,ComponentDrill
T8C0.0362
; #@! TA.AperFunction,Plated,PTH,ComponentDrill
T9C0.0394
; #@! TA.AperFunction,Plated,PTH,ComponentDrill
T10C0.0406
; #@! TA.AperFunction,Plated,PTH,ComponentDrill
T11C0.0630
%
G90
G05
T1
X-1.3059Y2.2287
X-1.1477Y0.9351
X-1.1477Y0.9056
X-1.1477Y0.8761
X-1.0592Y0.8662
X-1.0592Y0.8269
X-1.0531Y0.2642
X-1.0315Y0.6783
X-1.0001Y0.8662
X-1.0001Y0.8269
X-0.985Y0.7374
X-0.9725Y0.9686
X-0.941Y0.8662
X-0.924Y1.9472
X-0.9056Y1.0434
X-0.882Y1.0434
X-0.876Y1.8331
X-0.8713Y0.7638
X-0.8584Y1.0434
X-0.8559Y1.5906
X-0.8539Y1.8083
X-0.8508Y1.6402
X-0.8423Y1.3768
X-0.8423Y1.3516
X-0.8343Y1.8717
X-0.8328Y1.0434
X-0.8185Y1.5484
X-0.811Y1.8409
X-0.8079Y0.8917
X-0.7896Y1.7894
X-0.7874Y-0.315
X-0.7874Y-0.3543
X-0.7874Y-0.3937
X-0.7874Y-0.4331
X-0.7862Y0.7335
X-0.7718Y1.008
X-0.771Y1.0796
X-0.7697Y1.5496
X-0.7602Y1.8768
X-0.7512Y1.5709
X-0.748Y-0.315
X-0.748Y-0.3543
X-0.748Y-0.3937
X-0.748Y-0.4331
X-0.7453Y0.6866
X-0.7327Y1.6531
X-0.7285Y1.7894
X-0.711Y1.8783
X-0.7087Y1.5811
X-0.7087Y-0.315
X-0.7087Y-0.3543
X-0.7087Y-0.3937
X-0.7087Y-0.4331
X-0.7079Y2.1634
X-0.7Y0.2673
X-0.6831Y1.5792
X-0.6693Y-0.315
X-0.6693Y-0.3543
X-0.6693Y-0.3937
X-0.6693Y-0.4331
X-0.6575Y1.5787
X-0.6319Y1.5791
X-0.6303Y1.8035
X-0.6299Y-0.3937
X-0.6299Y-0.4331
X-0.6295Y1.8933
X-0.6059Y1.8752
X-0.6059Y1.5799
X-0.5906Y-0.3937
X-0.5906Y-0.4331
X-0.5811Y1.5811
X-0.5512Y-0.3937
X-0.5512Y-0.4331
X-0.5118Y-0.3937
X-0.5118Y-0.4331
X-0.4933Y0.2311
X-0.4724Y-0.3937
X-0.4724Y-0.4331
X-0.4331Y-0.3937
X-0.4331Y-0.4331
X-0.3984Y0.3724
X-0.3937Y-0.3937
X-0.3937Y-0.4331
X-0.3543Y-0.315
X-0.3543Y-0.3543
X-0.3543Y-0.3937
X-0.3543Y-0.4331
X-0.3159Y1.2705
X-0.315Y-0.315
X-0.315Y-0.3543
X-0.315Y-0.3937
X-0.315Y-0.4331
X-0.313Y2.2618
X-0.3106Y2.1819
X-0.278Y0.5209
X-0.2776Y0.4697
X-0.2768Y0.0236
X-0.2768Y-0.0264
X-0.2756Y-0.315
X-0.2756Y-0.3543
X-0.2756Y-0.3937
X-0.2756Y-0.4331
X-0.2642Y0.9917
X-0.2533Y2.214
X-0.2362Y-0.315
X-0.2362Y-0.3543
X-0.2362Y-0.3937
X-0.2362Y-0.4331
X-0.2303Y1.0031
X-0.2291Y1.2866
X-0.228Y1.2579
X-0.213Y0.9693
X-0.2122Y1.0547
X-0.2114Y1.3406
X-0.1651Y0.0158
X-0.1579Y1.0126
X-0.1512Y1.3193
X-0.1473Y0.0336
X-0.1469Y1.0504
X-0.1461Y-0.0449
X-0.1323Y0.6154
X-0.1253Y0.1783
X-0.1215Y2.1163
X-0.1179Y0.0682
X-0.1075Y0.1962
X-0.1Y0.086
X-0.0787Y-0.2362
X-0.0787Y-0.2756
X-0.0787Y-0.315
X-0.0787Y-0.3543
X-0.0787Y-0.3937
X-0.0787Y-0.4331
X-0.0781Y2.1163
X-0.0752Y0.2275
X-0.0614Y1.7091
X-0.0579Y1.6118
X-0.0574Y0.2454
X-0.0559Y1.2335
X-0.0543Y1.2055
X-0.052Y2.202
X-0.048Y1.9122
X-0.0449Y0.1697
X-0.0429Y1.8752
X-0.0394Y-0.2362
X-0.0394Y-0.2756
X-0.0394Y-0.315
X-0.0394Y-0.3543
X-0.0394Y-0.3937
X-0.0394Y-0.4331
X-0.0346Y1.7413
X-0.0339Y2.1488
X-0.0315Y1.1839
X-0.022Y1.2539
X-0.0134Y2.2016
X0.0085Y2.1163
X0.0091Y0.3996
X0.0248Y1.263
X0.0248Y1.1815
X0.0677Y1.5165
X0.0762Y1.5559
X0.0764Y1.4123
X0.0843Y1.9028
X0.0987Y0.3995
X0.1004Y1.9827
X0.1031Y1.9472
X0.1171Y1.4793
X0.1181Y1.8583
X0.1205Y1.0866
X0.1323Y1.0551
X0.1388Y1.501
X0.1496Y2.0882
X0.152Y1.0236
X0.1524Y2.0138
X0.1591Y2.1843
X0.1681Y1.3386
X0.1693Y0.1732
X0.1783Y1.9307
X0.1818Y-0.1449
X0.1818Y-0.1701
X0.1821Y-0.0504
X0.1821Y-0.0756
X0.1882Y1.1567
X0.1909Y1.5906
X0.1917Y2.1169
X0.1996Y1.6177
X0.2031Y-0.1094
X0.2106Y1.9567
X0.2165Y1.7795
X0.2583Y1.5594
X0.2622Y1.8744
X0.2638Y1.2756
X0.2638Y1.1181
X0.2638Y0.8661
X0.2638Y0.6457
X0.2638Y0.3937
X0.2902Y2.1504
X0.2921Y-0.015
X0.3425Y1.3386
X0.3425Y1.1181
X0.3425Y0.9606
X0.3425Y0.8661
X0.3425Y0.6457
X0.3437Y1.7165
X0.3449Y1.4339
X0.3457Y1.4012
X0.3547Y-0.1764
X0.3547Y-0.2016
X0.3556Y-0.0819
X0.3556Y-0.1071
X0.4213Y-0.0472
X0.437Y0.5197
X0.437Y0.3622
X0.437Y0.0472
X0.437Y-0.1417
X0.498Y2.2657
X0.5086Y0.0461
X0.5226Y2.189
X0.5338Y0.0461
X0.615Y2.076
X0.6191Y2.189
X0.6437Y2.2657
X0.661Y1.9075
X0.661Y1.7146
X0.661Y-0.1398
X0.661Y-0.3327
X0.7593Y1.9193
X0.7593Y-0.128
X0.7595Y-0.3442
X0.7945Y2.0862
X0.7953Y2.0591
X0.8093Y1.7028
X0.8093Y-0.128
X0.8093Y-0.3445
X0.8185Y2.1362
X0.8189Y2.1657
X0.8268Y2.0591
X0.8496Y2.0587
X0.8579Y2.1362
X0.8583Y2.1657
X0.8587Y-0.3559
X0.8593Y1.9193
X0.8593Y1.7028
X0.8593Y-0.128
X0.9093Y1.9193
X0.9093Y1.7028
X0.9093Y-0.128
X0.9093Y-0.3445
X0.9369Y2.1684
X0.9369Y2.1289
X0.9369Y2.0894
X0.9593Y1.9193
X0.9593Y1.7028
X0.9593Y-0.3445
X1.0093Y1.9193
X1.0093Y1.7028
X1.0093Y-0.128
X1.0093Y-0.3411
X1.0354Y2.0551
X1.0531Y1.8953
X1.0593Y1.7008
X1.0593Y-0.128
X1.0611Y-0.3426
X1.0984Y2.1063
X1.1093Y-0.128
X1.1093Y-0.3445
X1.1102Y1.7323
X1.1142Y2.0551
X1.1173Y1.8957
X1.1339Y2.1063
X1.1593Y1.9193
X1.1593Y-0.128
X1.1593Y-0.3445
X1.1732Y2.1063
X1.2093Y1.9193
X1.2093Y-0.128
X1.2093Y-0.3445
X1.2205Y2.0866
X1.2205Y2.0512
X1.3075Y1.9075
X1.3075Y1.7146
X1.3075Y-0.1398
X1.3075Y-0.3327
X1.437Y2.1657
X1.437Y-0.6079
X1.5201Y0.5693
X1.5209Y0.5331
X1.5213Y0.8063
X1.5386Y0.7504
X1.5709Y0.5874
X1.5902Y0.7693
X1.5902Y0.5335
X1.5906Y0.8047
X1.8295Y-0.0193
X1.8307Y0.0496
X1.8843Y0.0307
X1.8906Y-0.0126
X1.936Y-0.2215
X1.9488Y-0.2677
X1.9528Y1.4016
X1.9528Y1.3701
X1.9528Y1.3386
X1.9528Y1.2992
X1.9528Y1.2697
X1.9528Y1.2441
X1.9528Y1.1811
X1.9528Y1.1496
X1.9528Y1.1181
X1.9528Y1.0866
X1.9528Y1.0551
X1.9528Y1.0236
X1.9528Y0.9921
X1.9528Y0.3622
X1.9528Y0.3307
X1.9528Y0.2992
X1.9528Y0.2677
X1.9528Y0.2047
X1.9528Y0.1732
X1.9528Y0.1417
X1.9528Y0.1102
X1.9528Y0.0787
X1.9528Y0.0472
X1.9528Y-0.0157
X1.9528Y-0.0472
X1.9528Y-0.0787
X1.9528Y-0.1102
X1.9528Y-0.1417
X1.9528Y-0.1732
X1.9559Y-0.2984
X2.0406Y-0.2681
X2.0406Y-0.2984
X2.0433Y0.9291
X2.0472Y1.811
X2.0472Y1.7165
X2.0472Y1.622
X2.0472Y1.5276
X2.0472Y1.4331
X2.0472Y1.2126
X2.0472Y0.7087
X2.0472Y0.4882
X2.0472Y0.0157
X2.0472Y-0.2362
X2.0543Y0.2362
X2.122Y-0.2047
X2.124Y0.2362
X2.126Y1.874
X2.126Y1.7795
X2.126Y1.685
X2.126Y1.5906
X2.126Y1.4961
X2.126Y1.4016
X2.126Y1.3071
X2.126Y1.1811
X2.126Y0.9291
X2.126Y0.7087
X2.126Y0.4882
X2.126Y0.2677
X2.126Y0.0157
X2.126Y-0.0157
X2.126Y-0.2362
X2.1272Y0.9913
X2.128Y0.298
X2.1303Y-0.3
X2.1323Y-0.2673
X2.2154Y-0.3
X2.2193Y-0.2677
T2
X-1.2556Y0.9863
X-1.2556Y0.9529
X-1.2556Y0.9194
X-1.2556Y0.8859
X-1.2556Y0.8525
X-1.2556Y0.819
X-1.2556Y0.7855
X-1.2556Y0.7521
X-1.2025Y0.9863
X-1.2025Y0.9529
X-1.2025Y0.9194
X-1.2025Y0.8859
X-1.2025Y0.8525
X-1.2025Y0.819
X-1.2025Y0.7855
X-1.2025Y0.7521
T3
X-1.2591Y2.0303
X-1.2016Y-0.465
X-1.0535Y-0.3736
X-0.9984Y-0.5882
X-0.9508Y-0.413
X-0.913Y2.1555
X-0.8587Y-0.4339
X-0.6724Y-0.648
X-0.6689Y-0.5594
X-0.6122Y-0.1642
X-0.5583Y-0.252
X-0.4709Y-0.1598
X-0.4122Y-0.2524
X-0.3159Y1.4705
X-0.3159Y1.3705
X-0.165Y-0.4343
X-0.1171Y1.1705
X-0.1171Y1.4705
X0.2006Y-0.2655
X0.2291Y-0.3252
X0.2732Y-0.3244
X0.2978Y-0.2662
X0.3346Y-0.2559
X0.3713Y-0.2685
X0.3925Y-0.3244
X0.4425Y-0.3248
X0.4705Y-0.2669
X0.5025Y-0.2506
X0.7598Y1.7362
X0.811Y1.8858
X1.1598Y1.7323
X1.1697Y1.6609
X1.2094Y1.7371
X1.222Y1.6609
X1.3307Y2.2649
X1.3307Y-0.6704
X1.5433Y2.2649
X1.5433Y-0.6704
T4
X-0.8591Y-0.2354
X-0.2063Y-0.2299
X0.1756Y1.8587
X0.3052Y1.8425
T6
X-1.1035Y-0.5268
X-0.9177Y0.726
X-0.7579Y0.7953
X0.3339Y0.5953
X0.748Y2.0976
T7
X-0.8843Y0.4864
X-0.8843Y0.0463
X-0.8232Y0.4864
X-0.8232Y0.0463
T8
X-1.1586Y1.5028
X-1.1586Y1.4043
X-1.1586Y1.3256
X-1.1586Y1.2272
T9
X-0.2667Y1.7431
X-0.2667Y1.6431
X-0.1667Y1.7431
X-0.1667Y1.6431
T10
X-0.5433Y0.4665
X-0.5433Y0.3866
X-0.5433Y0.3067
X-0.5433Y0.2268
X-0.5433Y0.1469
X-0.5433Y0.0669
X-0.4433Y0.5067
X-0.4433Y0.4264
X-0.4433Y0.3461
X-0.4433Y0.1866
X-0.4433Y0.1063
X-0.4433Y0.026
T11
X-1.2685Y0.5882
X-1.2685Y-0.0555
T5
G00X-1.3899Y1.0395
M15
G01X-1.3584Y1.0395
M16
G05
G00X-1.3899Y0.6989
M15
G01X-1.3584Y0.6989
M16
G05
G00X-1.2706Y1.0395
M15
G01X-1.2115Y1.0395
M16
G05
G00X-1.2706Y0.6989
M15
G01X-1.2115Y0.6989
M16
G05
G00X-1.2255Y1.6169
M15
G01X-1.1861Y1.6169
M16
G05
G00X-1.2255Y1.113
M15
G01X-1.1861Y1.113
M16
G05
M30
