%TF.GenerationSoftware,KiCad,Pcbnew,9.0.3*%
%TF.CreationDate,2025-08-25T11:29:22-05:00*%
%TF.ProjectId,controller,636f6e74-726f-46c6-9c65-722e6b696361,rev?*%
%TF.SameCoordinates,Original*%
%TF.FileFunction,Copper,L4,Inr*%
%TF.FilePolarity,Positive*%
%FSLAX46Y46*%
G04 Gerber Fmt 4.6, Leading zero omitted, Abs format (unit mm)*
G04 Created by KiCad (PCBNEW 9.0.3) date 2025-08-25 11:29:22*
%MOMM*%
%LPD*%
G01*
G04 APERTURE LIST*
%TA.AperFunction,ComponentPad*%
%ADD10C,1.545000*%
%TD*%
%TA.AperFunction,ComponentPad*%
%ADD11C,1.400000*%
%TD*%
%TA.AperFunction,ComponentPad*%
%ADD12C,2.400000*%
%TD*%
%TA.AperFunction,ComponentPad*%
%ADD13R,1.428000X1.428000*%
%TD*%
%TA.AperFunction,ComponentPad*%
%ADD14C,1.428000*%
%TD*%
%TA.AperFunction,ComponentPad*%
%ADD15O,2.216000X1.108000*%
%TD*%
%TA.AperFunction,ComponentPad*%
%ADD16R,1.700000X1.700000*%
%TD*%
%TA.AperFunction,ComponentPad*%
%ADD17C,1.700000*%
%TD*%
%TA.AperFunction,ComponentPad*%
%ADD18C,0.700000*%
%TD*%
%TA.AperFunction,ComponentPad*%
%ADD19O,1.700000X0.900000*%
%TD*%
%TA.AperFunction,ComponentPad*%
%ADD20O,2.400000X0.900000*%
%TD*%
%TA.AperFunction,ViaPad*%
%ADD21C,0.800000*%
%TD*%
%TA.AperFunction,ViaPad*%
%ADD22C,0.500000*%
%TD*%
%TA.AperFunction,ViaPad*%
%ADD23C,1.400000*%
%TD*%
%TA.AperFunction,ViaPad*%
%ADD24C,0.600000*%
%TD*%
%TA.AperFunction,ViaPad*%
%ADD25C,1.200000*%
%TD*%
%TA.AperFunction,Conductor*%
%ADD26C,0.300000*%
%TD*%
G04 APERTURE END LIST*
D10*
%TO.N,Net-(J4-TRCT3)*%
%TO.C,J4*%
X-13800000Y11850000D03*
%TO.N,/Ethernet/RGMII0_TRN2*%
X-13800000Y9820000D03*
%TO.N,/Ethernet/RGMII0_TRP2*%
X-13800000Y7790000D03*
%TO.N,/Ethernet/RGMII0_TRP1*%
X-13800000Y5760000D03*
%TO.N,/Ethernet/RGMII0_TRN1*%
X-13800000Y3730000D03*
%TO.N,Net-(J4-TRCT2)*%
X-13800000Y1700000D03*
%TO.N,Net-(J4-TRCT4)*%
X-11260000Y12870000D03*
%TO.N,/Ethernet/RGMII0_TRP3*%
X-11260000Y10830000D03*
%TO.N,/Ethernet/RGMII0_TRN3*%
X-11260000Y8790000D03*
%TO.N,/Ethernet/RGMII0_TRN0*%
X-11260000Y4740000D03*
%TO.N,/Ethernet/RGMII0_TRP0*%
X-11260000Y2700000D03*
%TO.N,Net-(J4-TRCT1)*%
X-11260000Y660000D03*
D11*
%TO.N,/Ethernet/POE_PR12*%
X-20910000Y12355000D03*
%TO.N,/Ethernet/POE_PR36*%
X-20910000Y1175000D03*
%TO.N,/Ethernet/POE_PR45*%
X-22460000Y12355000D03*
%TO.N,/Ethernet/POE_PR78*%
X-22460000Y1175000D03*
D12*
%TO.N,Earth_Clean*%
X-32220000Y-1410000D03*
X-32220000Y14940000D03*
%TD*%
D13*
%TO.N,VDD_5V*%
%TO.C,J1*%
X-29427500Y31170000D03*
D14*
%TO.N,/SOM/USB_D-*%
X-29427500Y33670000D03*
%TO.N,/SOM/USB_D+*%
X-29427500Y35670000D03*
%TO.N,GND*%
X-29427500Y38170000D03*
D15*
%TO.N,Earth_Clean*%
X-30627500Y28270000D03*
X-30627500Y41070000D03*
%TD*%
D16*
%TO.N,+3V3*%
%TO.C,J9*%
X-6775000Y44275000D03*
D17*
X-6775000Y41735000D03*
%TO.N,/SOM/SD_BOOT_CONF_H*%
X-4235000Y44275000D03*
%TO.N,/SOM/S_JTAG_H*%
X-4235000Y41735000D03*
%TD*%
D18*
%TO.N,GNDPWR*%
%TO.C,J2*%
X-30542500Y19102499D03*
%TO.N,/PSU/VBUS*%
X-30542500Y19952499D03*
%TO.N,Net-(J2-CC1)*%
X-30542500Y20802500D03*
%TO.N,unconnected-(J2-D+-PadA6)*%
X-30542500Y21652499D03*
%TO.N,unconnected-(J2-D--PadA7)*%
X-30542500Y22502499D03*
%TO.N,unconnected-(J2-SBU1-PadA8)*%
X-30542500Y23352499D03*
%TO.N,/PSU/VBUS*%
X-30542500Y24202500D03*
%TO.N,GNDPWR*%
X-30542500Y25052499D03*
X-31892500Y25052499D03*
%TO.N,/PSU/VBUS*%
X-31892500Y24202499D03*
%TO.N,Net-(J2-CC2)*%
X-31892500Y23352499D03*
%TO.N,unconnected-(J2-D+-PadB6)*%
X-31892500Y22502499D03*
%TO.N,unconnected-(J2-D--PadB7)*%
X-31892500Y21652499D03*
%TO.N,unconnected-(J2-SBU2-PadB8)*%
X-31892500Y20802499D03*
%TO.N,/PSU/VBUS*%
X-31892500Y19952499D03*
%TO.N,GNDPWR*%
X-31892500Y19102499D03*
D19*
%TO.N,Earth_Clean*%
X-34902500Y17752499D03*
D20*
X-31522500Y17752499D03*
D19*
X-34902500Y26402499D03*
D20*
X-31522500Y26402499D03*
%TD*%
D21*
%TO.N,+5V*%
X9430000Y-6820000D03*
D22*
X40400000Y20440000D03*
X49680000Y-7580000D03*
X49500000Y-6800000D03*
D21*
X11950000Y-6780000D03*
D22*
X20790000Y54260000D03*
X51830000Y-6810000D03*
X56270000Y-7620000D03*
D21*
X9970000Y-8240000D03*
D23*
X19000000Y53280000D03*
D22*
X38630000Y13540000D03*
D21*
X29460000Y44000000D03*
X5096483Y-6743517D03*
D23*
X-23310000Y18440000D03*
D22*
X56370000Y-6800000D03*
X46470000Y-490000D03*
D21*
X11240000Y-8250000D03*
X7563422Y-6762000D03*
D22*
X54110000Y-7620000D03*
D21*
X5820000Y-8260000D03*
D22*
X21800000Y55010000D03*
X21790000Y54260000D03*
X51830000Y-7580000D03*
X20800000Y55010000D03*
X54160000Y-6790000D03*
D21*
X6940000Y-8240000D03*
D22*
%TO.N,/SOM/D10*%
X49600000Y25200000D03*
X20555000Y43250000D03*
%TO.N,/SOM/D50*%
X21825000Y43250000D03*
X49600000Y26000000D03*
%TO.N,/SOM/D28*%
X49600000Y26800000D03*
X23095000Y43250000D03*
%TO.N,/SOM/D12*%
X49600000Y28400000D03*
X24365000Y43250000D03*
%TO.N,/SOM/D2*%
X49600000Y30000000D03*
X25635000Y43250000D03*
%TO.N,/SOM/D8*%
X49600000Y32249997D03*
X26905000Y43200000D03*
%TO.N,/SOM/D48*%
X49600000Y27600000D03*
X21825000Y48750000D03*
%TO.N,/SOM/D26*%
X49600000Y29200000D03*
X23095000Y48750000D03*
%TO.N,/SOM/D46*%
X49600000Y31600000D03*
X24365000Y48750000D03*
%TO.N,/SOM/D24*%
X25635000Y48750000D03*
X49600000Y33000000D03*
%TO.N,/SOM/D44*%
X26750000Y48140000D03*
X54000000Y33200000D03*
%TO.N,/SOM/D22*%
X49600000Y34000000D03*
X28380000Y48150000D03*
%TO.N,/SOM/D42*%
X49600000Y34800000D03*
X29445000Y48750000D03*
%TO.N,/SOM/D40*%
X30715000Y48750000D03*
X49600000Y35600000D03*
%TO.N,/SOM/D16*%
X23095000Y-8750000D03*
X49600000Y3600000D03*
%TO.N,/SOM/D32*%
X24365000Y-8750000D03*
X49600000Y2000000D03*
%TO.N,/SOM/D54*%
X49600000Y-400000D03*
X25635000Y-8665000D03*
D21*
%TO.N,+3V3*%
X-2974999Y37350000D03*
D22*
X230000Y10150000D03*
D23*
X8480000Y15120000D03*
D22*
X2620000Y49460000D03*
D21*
X-8025001Y37350000D03*
D22*
X-860000Y54580000D03*
X-800000Y30070000D03*
X-19080000Y39900000D03*
%TO.N,/SOM/MCLK0*%
X19285000Y48750000D03*
X54030000Y25180000D03*
%TO.N,/SOM/MCLK1*%
X49600000Y4400000D03*
X20555000Y-8750000D03*
%TO.N,/SD/CLK*%
X-1220000Y48570000D03*
X-1985000Y53755000D03*
D24*
%TO.N,/SD/CMD*%
X215000Y53755000D03*
X2140000Y48330000D03*
D22*
%TO.N,+1V8*%
X5350000Y49700000D03*
X-560000Y31850000D03*
X630000Y30010000D03*
X-20790000Y39330000D03*
X3000000Y47200000D03*
%TO.N,GND*%
X7420000Y-380000D03*
X21810000Y-9040000D03*
X11100000Y1200000D03*
D21*
X-24150000Y-10490000D03*
X12762743Y-6366240D03*
D22*
X6700000Y16400000D03*
X8700000Y34000000D03*
X6660000Y47610000D03*
X54000000Y6800000D03*
X2506210Y10146210D03*
X-4010000Y25720000D03*
X52000000Y36400000D03*
X23796700Y53071574D03*
D21*
X-4190000Y-11030000D03*
D22*
X-7890000Y55420000D03*
X-25020000Y18730000D03*
D21*
X33800000Y-17027500D03*
D22*
X39080000Y19060000D03*
X-19550000Y39360000D03*
X-15390000Y40130000D03*
X-1470000Y40940000D03*
D21*
X8500000Y-6500000D03*
D22*
X54000000Y47600000D03*
X54000000Y12400000D03*
X52000000Y30800000D03*
X33210000Y43550000D03*
X6560000Y39610000D03*
D21*
X-17080000Y-16460000D03*
D22*
X52000000Y46000000D03*
X630000Y32080000D03*
D21*
X39200000Y57527500D03*
D22*
X11100000Y13200000D03*
D21*
X-30520000Y-11810000D03*
D22*
X39900000Y14920000D03*
X28300000Y52200000D03*
X33210000Y-8450000D03*
X-1560000Y43410000D03*
D21*
X-21810000Y-11020000D03*
D22*
X54000000Y-6000000D03*
X23796700Y54074872D03*
X-14760000Y40160000D03*
D21*
X20600000Y47900000D03*
D22*
X20200000Y52300000D03*
X54000000Y42800000D03*
X13275000Y55600000D03*
X54000000Y18000000D03*
X20180000Y52990000D03*
X54000000Y400000D03*
D21*
X-26760000Y-9490000D03*
D22*
X-7030000Y600000D03*
X15620000Y52730000D03*
X6700000Y22000000D03*
X-26200000Y17230000D03*
X54000000Y23600000D03*
X-6435000Y56235000D03*
X-1320000Y55930000D03*
X52000000Y38800000D03*
X4300000Y4400000D03*
D21*
X-8025000Y34810000D03*
X31040000Y42187998D03*
D22*
X28200000Y44000000D03*
X2550000Y50360000D03*
X52000000Y400000D03*
X-21740000Y40400000D03*
X-3840000Y33510000D03*
X23796700Y55078174D03*
X16790000Y43550000D03*
X6700000Y32400000D03*
X49600000Y6800000D03*
D21*
X39200000Y-17027500D03*
X-16990000Y-14210000D03*
D22*
X-3085000Y53755000D03*
X52000000Y41200000D03*
X-18930000Y17440000D03*
X54000000Y38000000D03*
X-1140000Y4310000D03*
X31000000Y52100000D03*
X54000000Y40400000D03*
X4530000Y49040000D03*
X-7030000Y-670000D03*
X5160000Y-2780000D03*
X52000000Y-6000000D03*
X8700000Y22000000D03*
X4040000Y55480000D03*
X21000000Y52300000D03*
X-7060000Y13230000D03*
X10700000Y-1200000D03*
X52000000Y12400000D03*
D21*
X-2975000Y29730000D03*
D22*
X21580000Y52290000D03*
X54000000Y30000000D03*
D21*
X33800000Y57527500D03*
D22*
X54000000Y45200000D03*
X8700000Y24400000D03*
X16790000Y48450000D03*
X33210000Y48450000D03*
X6700000Y28400000D03*
X52000000Y18000000D03*
X11100000Y-3600000D03*
X-3710000Y-1140000D03*
X31000000Y53000000D03*
X-7050000Y11930000D03*
X8700000Y28400000D03*
X16350000Y57550001D03*
X16790000Y-8450000D03*
X11100000Y9200000D03*
X52000000Y43600000D03*
X33210000Y-3550000D03*
X3800000Y53040000D03*
D21*
X29710000Y42187998D03*
D22*
X15725000Y55600000D03*
X54000000Y35600000D03*
X8730000Y43600000D03*
X-3360000Y15630000D03*
X26300000Y52200000D03*
X-18000000Y40160000D03*
X-1090804Y47630349D03*
X-340000Y55920000D03*
X16790000Y-3550000D03*
X6700000Y10000000D03*
D21*
X19300000Y44100000D03*
D22*
X8700000Y16400000D03*
X12650000Y57550001D03*
X51900000Y23600000D03*
%TO.N,/SD/SD_D0*%
X1940861Y35871601D03*
X1718432Y38518432D03*
%TO.N,/SD/SD_CMD*%
X4270000Y34000000D03*
X3525000Y38125000D03*
%TO.N,/SD/SD_D3*%
X2975000Y37575000D03*
X1935000Y39520000D03*
%TO.N,/SD/SD_CD*%
X3870000Y51150000D03*
D25*
%TO.N,VDDIO_501_PS*%
X7752157Y46800000D03*
D22*
%TO.N,/SOM/JTAG_TMS*%
X-6710000Y25190000D03*
%TO.N,/SOM/JTAG_TDO*%
X-5790000Y31950000D03*
%TO.N,/SOM/JTAG_TDI*%
X-5390000Y26790000D03*
%TO.N,/SOM/JTAG_TCK*%
X-8025000Y32270000D03*
X4780000Y29380000D03*
%TO.N,/SOM/UART_TX*%
X4850000Y40400000D03*
%TO.N,/SOM/UART_RX*%
X5070000Y41090000D03*
%TO.N,/SOM/EXT_RST_IN*%
X-5820000Y32680000D03*
%TO.N,Net-(J3-DET)*%
X4870000Y53770000D03*
%TO.N,3V3_MIC*%
X28800000Y53500000D03*
D21*
X30719458Y44121819D03*
D22*
X29800000Y53500000D03*
X27900000Y53500000D03*
%TO.N,/SOM/UART_TX_3V3*%
X-3730000Y26680000D03*
X-1420000Y31330000D03*
X-5850000Y25480000D03*
%TO.N,/SOM/UART_RX_3V3*%
X-1380000Y30620000D03*
X-5410000Y24620000D03*
%TO.N,/SOM/D56*%
X49600000Y-2000000D03*
X26952500Y-8702500D03*
%TO.N,/SOM/D34*%
X28175000Y-8750000D03*
X49600000Y-4400000D03*
%TO.N,/SOM/D58*%
X29445000Y-8750000D03*
X53900000Y-5200000D03*
%TO.N,/SOM/D36*%
X30715000Y-8750000D03*
X49175000Y-5625000D03*
%TO.N,/SOM/D52*%
X19285000Y-3250000D03*
X49600000Y9200000D03*
%TO.N,/SOM/D30*%
X49600000Y8400000D03*
X20555000Y-3250000D03*
%TO.N,/SOM/D14*%
X21825000Y-3250000D03*
X49600000Y7600000D03*
%TO.N,/SOM/D4*%
X49600000Y5200000D03*
X23095000Y-3250000D03*
%TO.N,/SOM/D0*%
X49600000Y2800000D03*
X25635000Y-3250000D03*
%TO.N,/SOM/D6*%
X49600000Y1200000D03*
X26905000Y-3250000D03*
%TO.N,/SOM/D20*%
X28175000Y-3250000D03*
X49600000Y-1200000D03*
%TO.N,/SOM/D18*%
X49600000Y-2800000D03*
X29445000Y-3250000D03*
%TO.N,/SOM/D38*%
X30715000Y-3250000D03*
X49600000Y-3600000D03*
%TO.N,/SOM/LED_DI*%
X54000000Y-400000D03*
%TO.N,/SOM/LED0*%
X-7950000Y57450000D03*
X7370000Y54620000D03*
%TO.N,/SOM/MCLK2*%
X19292500Y-8742500D03*
X54050000Y7570000D03*
%TO.N,/SOM/SD_BOOT_CONF_H*%
X8760000Y36420000D03*
%TO.N,VDDIO_34_3V3*%
X53950000Y6000000D03*
X52180000Y6000000D03*
X40390000Y13550000D03*
X38610000Y14460000D03*
X40390000Y19540000D03*
X38640000Y20480000D03*
%TO.N,GNDPWR*%
X-26902500Y22002499D03*
X-25402500Y22002499D03*
X-23902500Y22002499D03*
X-19582500Y27422499D03*
X-25402500Y21002499D03*
X-26902500Y21002499D03*
X-20520000Y22650000D03*
X-19602500Y25602499D03*
D23*
%TO.N,VCCIN*%
X-19250000Y20200000D03*
X-28030000Y-13380000D03*
D21*
%TO.N,/Ethernet/POE_PR78*%
X-15550000Y-4170000D03*
%TO.N,/Ethernet/POE_PR45*%
X-14180000Y-6400000D03*
%TO.N,/Ethernet/POE_PR36*%
X-11960000Y-4060000D03*
%TO.N,/Ethernet/POE_PR12*%
X-10470000Y-6410000D03*
D22*
%TO.N,Net-(C10-Pad1)*%
X-26749999Y6710000D03*
X-17780000Y6790000D03*
%TO.N,/Ethernet/RGMII0_TRP3*%
X-10120000Y9460000D03*
X4625551Y-1920000D03*
X-3183112Y4529988D03*
%TO.N,/Ethernet/RGMII0_TRN2*%
X-1458270Y6231941D03*
X9033443Y-2080000D03*
%TO.N,/Ethernet/RGMII0_TRN1*%
X-2540945Y2184916D03*
X-12530000Y5870000D03*
X4618499Y-3680000D03*
%TO.N,/Ethernet/RGMII0_TRN0*%
X-3741369Y853917D03*
X9009609Y-4480000D03*
%TO.N,/Ethernet/RGMII0_TRP2*%
X9033443Y-2720000D03*
X-1910818Y5779393D03*
%TO.N,/Ethernet/RGMII0_TRN3*%
X4625551Y-1280000D03*
X-2730564Y4982536D03*
%TO.N,/Ethernet/RGMII0_TRP1*%
X4618499Y-4320000D03*
X-2993493Y1732368D03*
%TO.N,/Ethernet/RGMII0_TRP0*%
X9009609Y-5120000D03*
X-4193917Y401369D03*
%TO.N,/PSU/PoE_VIN+*%
X-19000000Y-11000000D03*
X-10000000Y-11000000D03*
X-18000000Y-9000000D03*
X-17000000Y-9000000D03*
X-10000000Y-10000000D03*
X-20000000Y-9000000D03*
X-13000000Y-10000000D03*
X-17000000Y-10000000D03*
X-11000000Y-10000000D03*
X-18000000Y-11000000D03*
X-18000000Y-10000000D03*
X-17000000Y-8000000D03*
X-15000000Y-10000000D03*
X-19000000Y-8000000D03*
X-15000000Y-11000000D03*
X-20000000Y-10000000D03*
X-18000000Y-8000000D03*
X-13000000Y-11000000D03*
X-12000000Y-10000000D03*
X-20000000Y-11000000D03*
X-12000000Y-11000000D03*
X-16000000Y-10000000D03*
X-16000000Y-11000000D03*
X-14000000Y-11000000D03*
X-11000000Y-11000000D03*
X-19000000Y-10000000D03*
X-17000000Y-11000000D03*
D25*
X-21820000Y-5980000D03*
D22*
X-14000000Y-10000000D03*
X-20000000Y-8000000D03*
X-19000000Y-9000000D03*
%TO.N,/PSU/PoE_VIN-*%
X-6000000Y-9000000D03*
X-1000000Y-10000000D03*
X-1000000Y-11000000D03*
X-2000000Y-6000000D03*
X-8000000Y-11000000D03*
X-9000000Y-9000000D03*
X-2000000Y-10000000D03*
X-8000000Y-8000000D03*
X-2000000Y-11000000D03*
X-9000000Y-11000000D03*
X-9000000Y-10000000D03*
X-7000000Y-11000000D03*
X-6000000Y-8000000D03*
X-9000000Y-8000000D03*
X-8000000Y-9000000D03*
X-7000000Y-10000000D03*
X-2000000Y-8000000D03*
X-1000000Y-8000000D03*
X-1000000Y-9000000D03*
X-6000000Y-11000000D03*
X-7000000Y-8000000D03*
D25*
X-5240000Y-5840000D03*
D22*
X-6000000Y-10000000D03*
X-7000000Y-9000000D03*
X-1000000Y-6000000D03*
X-2000000Y-7000000D03*
X-8000000Y-10000000D03*
X-1000000Y-7000000D03*
X-2000000Y-9000000D03*
%TO.N,/SOM/FPGA_DONE*%
X-5370000Y34050000D03*
X-880000Y44230000D03*
X5500000Y45200000D03*
D21*
%TO.N,/PSU/PoE_VDC+*%
X-25360000Y-14940000D03*
D22*
%TO.N,/SOM/FPGA_USB_D+*%
X13557886Y1171265D03*
X-21393671Y34970000D03*
%TO.N,/SOM/FPGA_USB_D-*%
X12917886Y1171265D03*
X-21393671Y34330000D03*
%TO.N,Net-(Q1-G)*%
X-22130000Y19400000D03*
X-19970000Y18630000D03*
%TO.N,/PSU/VBUS_TVS*%
X-21152500Y26502499D03*
X-21802500Y26502499D03*
X-22402500Y26502499D03*
X-23002500Y26502499D03*
X-24702500Y24602499D03*
%TO.N,/PSU/VBUS*%
X-29152500Y23002499D03*
X-29152500Y22252499D03*
X-29152500Y23752499D03*
%TO.N,/SOM/S_JTAG_H*%
X8780000Y35590000D03*
%TO.N,GNDA*%
X-21190000Y47540000D03*
X-23470000Y49460000D03*
X-21690000Y45930000D03*
X-17980000Y54950000D03*
X-19310000Y47670000D03*
X-33170000Y56610000D03*
X-15990000Y48090000D03*
X-15390000Y47630000D03*
D21*
%TO.N,Net-(C2-Pad1)*%
X-23190000Y54750000D03*
X-31980000Y51570000D03*
D22*
%TO.N,/DAC/LDOO*%
X-21610000Y41660000D03*
%TO.N,+3.3VA*%
X-16010000Y45810000D03*
X-22250000Y46560000D03*
X-20600000Y46760000D03*
%TO.N,Net-(U10-CAPM)*%
X-18505000Y45450000D03*
%TO.N,Net-(U10-CAPP)*%
X-20055000Y45450000D03*
%TO.N,Net-(U10-VNEG)*%
X-18060000Y47710000D03*
%TO.N,Net-(U10-XSMT)*%
X-18610000Y41990000D03*
%TO.N,/DAC/I2S_LRCK*%
X3860000Y26000000D03*
X-17349918Y40110483D03*
%TO.N,/DAC/I2S_BCK*%
X-16050000Y40110000D03*
X3060000Y27600000D03*
%TO.N,/DAC/I2S_DIN*%
X3360000Y26800000D03*
X-16700000Y40100000D03*
%TO.N,/SOM/SYNC_IN_5V*%
X36500000Y-15440000D03*
%TO.N,/SOM/SYNC_OUT_5V*%
X36500000Y55010000D03*
%TD*%
D26*
%TO.N,VDDIO_34_3V3*%
X40340000Y19540000D02*
X39400000Y20480000D01*
X40390000Y13550000D02*
X40441000Y13601000D01*
X40441000Y13601000D02*
X40441000Y19489000D01*
X39480000Y14460000D02*
X40390000Y13550000D01*
X39400000Y20480000D02*
X38640000Y20480000D01*
X40390000Y13550000D02*
X41290000Y13550000D01*
X40390000Y19540000D02*
X40340000Y19540000D01*
X48840000Y6000000D02*
X53950000Y6000000D01*
X40441000Y19489000D02*
X40390000Y19540000D01*
X41290000Y13550000D02*
X48840000Y6000000D01*
X38610000Y14460000D02*
X39480000Y14460000D01*
%TD*%
%TA.AperFunction,Conductor*%
%TO.N,/PSU/PoE_VIN-*%
G36*
X-706478Y-3219685D02*
G01*
X-660723Y-3272489D01*
X-649518Y-3323516D01*
X-600486Y-15875516D01*
X-619908Y-15942631D01*
X-672533Y-15988592D01*
X-724485Y-16000000D01*
X-9376000Y-16000000D01*
X-9443039Y-15980315D01*
X-9488794Y-15927511D01*
X-9500000Y-15876000D01*
X-9500000Y-10950943D01*
X-4790500Y-10950943D01*
X-4790500Y-11109056D01*
X-4749577Y-11261783D01*
X-4749574Y-11261790D01*
X-4670525Y-11398709D01*
X-4670521Y-11398714D01*
X-4670520Y-11398716D01*
X-4558716Y-11510520D01*
X-4558714Y-11510521D01*
X-4558710Y-11510524D01*
X-4421791Y-11589573D01*
X-4421784Y-11589577D01*
X-4269057Y-11630500D01*
X-4269055Y-11630500D01*
X-4110945Y-11630500D01*
X-4110943Y-11630500D01*
X-3958216Y-11589577D01*
X-3821284Y-11510520D01*
X-3709480Y-11398716D01*
X-3630423Y-11261784D01*
X-3589500Y-11109057D01*
X-3589500Y-10950943D01*
X-3630423Y-10798216D01*
X-3673625Y-10723387D01*
X-3709476Y-10661290D01*
X-3709482Y-10661282D01*
X-3821283Y-10549481D01*
X-3821291Y-10549475D01*
X-3958210Y-10470426D01*
X-3958214Y-10470424D01*
X-3958216Y-10470423D01*
X-4110943Y-10429500D01*
X-4269057Y-10429500D01*
X-4421784Y-10470423D01*
X-4421791Y-10470426D01*
X-4558710Y-10549475D01*
X-4558718Y-10549481D01*
X-4670519Y-10661282D01*
X-4670525Y-10661290D01*
X-4749574Y-10798209D01*
X-4749577Y-10798216D01*
X-4790500Y-10950943D01*
X-9500000Y-10950943D01*
X-9500000Y-3324000D01*
X-9480315Y-3256961D01*
X-9427511Y-3211206D01*
X-9376000Y-3200000D01*
X-773517Y-3200000D01*
X-706478Y-3219685D01*
G37*
%TD.AperFunction*%
%TD*%
%TA.AperFunction,Conductor*%
%TO.N,/PSU/PoE_VIN+*%
G36*
X-9856961Y-3219685D02*
G01*
X-9811206Y-3272489D01*
X-9800000Y-3324000D01*
X-9800000Y-5931402D01*
X-9819685Y-5998441D01*
X-9872489Y-6044196D01*
X-9941647Y-6054140D01*
X-10005203Y-6025115D01*
X-10011681Y-6019083D01*
X-10101283Y-5929481D01*
X-10101291Y-5929475D01*
X-10238210Y-5850426D01*
X-10238214Y-5850424D01*
X-10238216Y-5850423D01*
X-10390943Y-5809500D01*
X-10549057Y-5809500D01*
X-10701784Y-5850423D01*
X-10701791Y-5850426D01*
X-10838710Y-5929475D01*
X-10838718Y-5929481D01*
X-10950519Y-6041282D01*
X-10950525Y-6041290D01*
X-11029574Y-6178209D01*
X-11029577Y-6178216D01*
X-11070500Y-6330943D01*
X-11070500Y-6489057D01*
X-11032256Y-6631783D01*
X-11029577Y-6641783D01*
X-11029574Y-6641790D01*
X-10950525Y-6778709D01*
X-10950521Y-6778714D01*
X-10950520Y-6778716D01*
X-10838716Y-6890520D01*
X-10838714Y-6890521D01*
X-10838710Y-6890524D01*
X-10719105Y-6959577D01*
X-10701784Y-6969577D01*
X-10549057Y-7010500D01*
X-10549055Y-7010500D01*
X-10390945Y-7010500D01*
X-10390943Y-7010500D01*
X-10238216Y-6969577D01*
X-10101284Y-6890520D01*
X-10011681Y-6800917D01*
X-9950358Y-6767432D01*
X-9880666Y-6772416D01*
X-9824733Y-6814288D01*
X-9800316Y-6879752D01*
X-9800000Y-6888598D01*
X-9800000Y-15876000D01*
X-9819685Y-15943039D01*
X-9872489Y-15988794D01*
X-9924000Y-16000000D01*
X-16642516Y-16000000D01*
X-16704515Y-15983388D01*
X-16848216Y-15900423D01*
X-17000943Y-15859500D01*
X-17159057Y-15859500D01*
X-17311784Y-15900423D01*
X-17311785Y-15900423D01*
X-17455485Y-15983388D01*
X-17517484Y-16000000D01*
X-22876000Y-16000000D01*
X-22943039Y-15980315D01*
X-22988794Y-15927511D01*
X-23000000Y-15876000D01*
X-23000000Y-14130943D01*
X-17590500Y-14130943D01*
X-17590500Y-14289056D01*
X-17549577Y-14441783D01*
X-17549574Y-14441790D01*
X-17470525Y-14578709D01*
X-17470521Y-14578714D01*
X-17470520Y-14578716D01*
X-17358716Y-14690520D01*
X-17358714Y-14690521D01*
X-17358710Y-14690524D01*
X-17221791Y-14769573D01*
X-17221784Y-14769577D01*
X-17069057Y-14810500D01*
X-17069055Y-14810500D01*
X-16910945Y-14810500D01*
X-16910943Y-14810500D01*
X-16758216Y-14769577D01*
X-16621284Y-14690520D01*
X-16509480Y-14578716D01*
X-16430423Y-14441784D01*
X-16389500Y-14289057D01*
X-16389500Y-14130943D01*
X-16430423Y-13978216D01*
X-16430427Y-13978209D01*
X-16509476Y-13841290D01*
X-16509482Y-13841282D01*
X-16621283Y-13729481D01*
X-16621291Y-13729475D01*
X-16758210Y-13650426D01*
X-16758214Y-13650424D01*
X-16758216Y-13650423D01*
X-16910943Y-13609500D01*
X-17069057Y-13609500D01*
X-17221784Y-13650423D01*
X-17221791Y-13650426D01*
X-17358710Y-13729475D01*
X-17358718Y-13729481D01*
X-17470519Y-13841282D01*
X-17470525Y-13841290D01*
X-17549574Y-13978209D01*
X-17549577Y-13978216D01*
X-17590500Y-14130943D01*
X-23000000Y-14130943D01*
X-23000000Y-10940943D01*
X-22410500Y-10940943D01*
X-22410500Y-11099056D01*
X-22369577Y-11251783D01*
X-22369574Y-11251790D01*
X-22290525Y-11388709D01*
X-22290521Y-11388714D01*
X-22290520Y-11388716D01*
X-22178716Y-11500520D01*
X-22178714Y-11500521D01*
X-22178710Y-11500524D01*
X-22041791Y-11579573D01*
X-22041784Y-11579577D01*
X-21889057Y-11620500D01*
X-21889055Y-11620500D01*
X-21730945Y-11620500D01*
X-21730943Y-11620500D01*
X-21578216Y-11579577D01*
X-21441284Y-11500520D01*
X-21329480Y-11388716D01*
X-21250423Y-11251784D01*
X-21209500Y-11099057D01*
X-21209500Y-10940943D01*
X-21250423Y-10788216D01*
X-21250427Y-10788209D01*
X-21329476Y-10651290D01*
X-21329482Y-10651282D01*
X-21441283Y-10539481D01*
X-21441291Y-10539475D01*
X-21578210Y-10460426D01*
X-21578214Y-10460424D01*
X-21578216Y-10460423D01*
X-21730943Y-10419500D01*
X-21889057Y-10419500D01*
X-22041784Y-10460423D01*
X-22041791Y-10460426D01*
X-22178710Y-10539475D01*
X-22178718Y-10539481D01*
X-22290519Y-10651282D01*
X-22290525Y-10651290D01*
X-22369574Y-10788209D01*
X-22369577Y-10788216D01*
X-22410500Y-10940943D01*
X-23000000Y-10940943D01*
X-23000000Y-6320943D01*
X-14780500Y-6320943D01*
X-14780500Y-6479057D01*
X-14777820Y-6489057D01*
X-14739577Y-6631783D01*
X-14739574Y-6631790D01*
X-14660525Y-6768709D01*
X-14660521Y-6768714D01*
X-14660520Y-6768716D01*
X-14548716Y-6880520D01*
X-14548714Y-6880521D01*
X-14548710Y-6880524D01*
X-14411791Y-6959573D01*
X-14411784Y-6959577D01*
X-14259057Y-7000500D01*
X-14259055Y-7000500D01*
X-14100945Y-7000500D01*
X-14100943Y-7000500D01*
X-13948216Y-6959577D01*
X-13811284Y-6880520D01*
X-13699480Y-6768716D01*
X-13620423Y-6631784D01*
X-13579500Y-6479057D01*
X-13579500Y-6320943D01*
X-13620423Y-6168216D01*
X-13693703Y-6041290D01*
X-13699476Y-6031290D01*
X-13699482Y-6031282D01*
X-13811283Y-5919481D01*
X-13811291Y-5919475D01*
X-13948210Y-5840426D01*
X-13948214Y-5840424D01*
X-13948216Y-5840423D01*
X-14100943Y-5799500D01*
X-14259057Y-5799500D01*
X-14411784Y-5840423D01*
X-14411791Y-5840426D01*
X-14548710Y-5919475D01*
X-14548718Y-5919481D01*
X-14660519Y-6031282D01*
X-14660525Y-6031290D01*
X-14739574Y-6168209D01*
X-14739577Y-6168216D01*
X-14780500Y-6320943D01*
X-23000000Y-6320943D01*
X-23000000Y-4090943D01*
X-16150500Y-4090943D01*
X-16150500Y-4249057D01*
X-16139049Y-4291790D01*
X-16109577Y-4401783D01*
X-16109574Y-4401790D01*
X-16030525Y-4538709D01*
X-16030521Y-4538714D01*
X-16030520Y-4538716D01*
X-15918716Y-4650520D01*
X-15918714Y-4650521D01*
X-15918710Y-4650524D01*
X-15781791Y-4729573D01*
X-15781784Y-4729577D01*
X-15629057Y-4770500D01*
X-15629055Y-4770500D01*
X-15470945Y-4770500D01*
X-15470943Y-4770500D01*
X-15318216Y-4729577D01*
X-15181284Y-4650520D01*
X-15069480Y-4538716D01*
X-14990423Y-4401784D01*
X-14949500Y-4249057D01*
X-14949500Y-4090943D01*
X-14978974Y-3980943D01*
X-12560500Y-3980943D01*
X-12560500Y-4139057D01*
X-12531025Y-4249057D01*
X-12519577Y-4291783D01*
X-12519574Y-4291790D01*
X-12440525Y-4428709D01*
X-12440521Y-4428714D01*
X-12440520Y-4428716D01*
X-12328716Y-4540520D01*
X-12328714Y-4540521D01*
X-12328710Y-4540524D01*
X-12191791Y-4619573D01*
X-12191784Y-4619577D01*
X-12039057Y-4660500D01*
X-12039055Y-4660500D01*
X-11880945Y-4660500D01*
X-11880943Y-4660500D01*
X-11728216Y-4619577D01*
X-11591284Y-4540520D01*
X-11479480Y-4428716D01*
X-11400423Y-4291784D01*
X-11359500Y-4139057D01*
X-11359500Y-3980943D01*
X-11400423Y-3828216D01*
X-11406006Y-3818546D01*
X-11479476Y-3691290D01*
X-11479482Y-3691282D01*
X-11591283Y-3579481D01*
X-11591291Y-3579475D01*
X-11728210Y-3500426D01*
X-11728214Y-3500424D01*
X-11728216Y-3500423D01*
X-11880943Y-3459500D01*
X-12039057Y-3459500D01*
X-12191784Y-3500423D01*
X-12191791Y-3500426D01*
X-12328710Y-3579475D01*
X-12328718Y-3579481D01*
X-12440519Y-3691282D01*
X-12440525Y-3691290D01*
X-12519574Y-3828209D01*
X-12519577Y-3828216D01*
X-12560500Y-3980943D01*
X-14978974Y-3980943D01*
X-14990423Y-3938216D01*
X-15053935Y-3828209D01*
X-15069476Y-3801290D01*
X-15069482Y-3801282D01*
X-15181283Y-3689481D01*
X-15181291Y-3689475D01*
X-15318210Y-3610426D01*
X-15318214Y-3610424D01*
X-15318216Y-3610423D01*
X-15470943Y-3569500D01*
X-15629057Y-3569500D01*
X-15781784Y-3610423D01*
X-15781791Y-3610426D01*
X-15918710Y-3689475D01*
X-15918718Y-3689481D01*
X-16030519Y-3801282D01*
X-16030525Y-3801290D01*
X-16109574Y-3938209D01*
X-16109576Y-3938214D01*
X-16109577Y-3938216D01*
X-16150500Y-4090943D01*
X-23000000Y-4090943D01*
X-23000000Y-3324000D01*
X-22980315Y-3256961D01*
X-22927511Y-3211206D01*
X-22876000Y-3200000D01*
X-9924000Y-3200000D01*
X-9856961Y-3219685D01*
G37*
%TD.AperFunction*%
%TD*%
%TA.AperFunction,Conductor*%
%TO.N,+3V3*%
G36*
X12959191Y58853593D02*
G01*
X12995155Y58804093D01*
X13000000Y58773500D01*
X13000000Y58039594D01*
X12981093Y57981403D01*
X12931593Y57945439D01*
X12870407Y57945439D01*
X12851500Y57953857D01*
X12823887Y57969800D01*
X12780583Y57981403D01*
X12709309Y58000501D01*
X12590691Y58000501D01*
X12520567Y57981712D01*
X12476109Y57969799D01*
X12373391Y57910494D01*
X12289507Y57826610D01*
X12230202Y57723892D01*
X12230201Y57723887D01*
X12199500Y57609310D01*
X12199500Y57490692D01*
X12202416Y57479811D01*
X12230202Y57376111D01*
X12265159Y57315565D01*
X12277881Y57255717D01*
X12252995Y57199821D01*
X12200007Y57169228D01*
X12198740Y57168968D01*
X12173594Y57163966D01*
X12173587Y57163964D01*
X12047930Y57111916D01*
X12047919Y57111910D01*
X11934832Y57036346D01*
X11934828Y57036343D01*
X11838657Y56940172D01*
X11838654Y56940168D01*
X11763090Y56827081D01*
X11763084Y56827070D01*
X11711036Y56701413D01*
X11684500Y56568009D01*
X11684500Y56431992D01*
X11711036Y56298588D01*
X11763084Y56172931D01*
X11763090Y56172920D01*
X11805766Y56109052D01*
X11838654Y56059832D01*
X11934832Y55963654D01*
X12002256Y55918603D01*
X12047919Y55888091D01*
X12047930Y55888085D01*
X12089919Y55870693D01*
X12173589Y55836036D01*
X12306992Y55809500D01*
X12306993Y55809500D01*
X12443007Y55809500D01*
X12443008Y55809500D01*
X12576411Y55836036D01*
X12702074Y55888087D01*
X12707845Y55891943D01*
X12766732Y55908553D01*
X12824137Y55887377D01*
X12858131Y55836505D01*
X12855928Y55780410D01*
X12856881Y55780154D01*
X12855753Y55775948D01*
X12855731Y55775367D01*
X12855309Y55774291D01*
X12841889Y55724206D01*
X12824500Y55659309D01*
X12824500Y55540691D01*
X12840948Y55479308D01*
X12855202Y55426110D01*
X12914507Y55323392D01*
X12914509Y55323390D01*
X12914511Y55323387D01*
X12971005Y55266893D01*
X12998781Y55212378D01*
X13000000Y55196891D01*
X13000000Y36000000D01*
X49139275Y36000000D01*
X49197466Y35981093D01*
X49233430Y35931593D01*
X49233430Y35870407D01*
X49225011Y35851500D01*
X49180202Y35773891D01*
X49180201Y35773886D01*
X49149500Y35659309D01*
X49149500Y35540691D01*
X49152179Y35530693D01*
X49180202Y35426110D01*
X49239507Y35323392D01*
X49239509Y35323390D01*
X49239511Y35323387D01*
X49292896Y35270002D01*
X49320672Y35215487D01*
X49311101Y35155055D01*
X49292897Y35130000D01*
X49262738Y35099840D01*
X49239508Y35076610D01*
X49239507Y35076609D01*
X49180202Y34973891D01*
X49180201Y34973886D01*
X49149500Y34859309D01*
X49149500Y34740691D01*
X49152112Y34730943D01*
X49180202Y34626110D01*
X49239507Y34523392D01*
X49239509Y34523390D01*
X49239511Y34523387D01*
X49292896Y34470002D01*
X49320672Y34415487D01*
X49311101Y34355055D01*
X49292897Y34330000D01*
X49239511Y34276613D01*
X49239508Y34276610D01*
X49239507Y34276609D01*
X49180202Y34173891D01*
X49180201Y34173886D01*
X49149500Y34059309D01*
X49149500Y33940691D01*
X49166805Y33876110D01*
X49180202Y33826110D01*
X49239507Y33723392D01*
X49239509Y33723390D01*
X49239511Y33723387D01*
X49323387Y33639511D01*
X49323389Y33639510D01*
X49416526Y33585736D01*
X49457466Y33540266D01*
X49463861Y33479416D01*
X49433268Y33426428D01*
X49416526Y33414264D01*
X49323389Y33360491D01*
X49239507Y33276609D01*
X49180202Y33173891D01*
X49173669Y33149508D01*
X49149500Y33059309D01*
X49149500Y32940691D01*
X49173667Y32850500D01*
X49180202Y32826110D01*
X49239507Y32723392D01*
X49239509Y32723390D01*
X49239511Y32723387D01*
X49267897Y32695001D01*
X49295673Y32640486D01*
X49286102Y32580054D01*
X49267897Y32554996D01*
X49239507Y32526606D01*
X49180202Y32423888D01*
X49180201Y32423883D01*
X49149500Y32309306D01*
X49149500Y32190688D01*
X49180201Y32076111D01*
X49227959Y31993392D01*
X49238867Y31974500D01*
X49251589Y31914651D01*
X49238867Y31875499D01*
X49180202Y31773891D01*
X49167651Y31727050D01*
X49149500Y31659309D01*
X49149500Y31540691D01*
X49173010Y31452951D01*
X49180202Y31426110D01*
X49239507Y31323392D01*
X49239509Y31323390D01*
X49239511Y31323387D01*
X49323387Y31239511D01*
X49323389Y31239510D01*
X49323391Y31239508D01*
X49426110Y31180203D01*
X49426111Y31180203D01*
X49426114Y31180201D01*
X49540691Y31149500D01*
X49540693Y31149500D01*
X49659307Y31149500D01*
X49659309Y31149500D01*
X49773886Y31180201D01*
X49773888Y31180203D01*
X49773890Y31180203D01*
X49876608Y31239508D01*
X49876608Y31239509D01*
X49876613Y31239511D01*
X49960489Y31323387D01*
X49998549Y31389308D01*
X50019797Y31426110D01*
X50019797Y31426112D01*
X50019799Y31426114D01*
X50050500Y31540691D01*
X50050500Y31659309D01*
X50019799Y31773886D01*
X50019797Y31773889D01*
X50019797Y31773891D01*
X49961133Y31875499D01*
X49948411Y31935347D01*
X49961133Y31974500D01*
X50019799Y32076111D01*
X50050500Y32190688D01*
X50050500Y32309306D01*
X50019799Y32423883D01*
X50019797Y32423886D01*
X50019797Y32423888D01*
X49960492Y32526606D01*
X49960490Y32526608D01*
X49960489Y32526610D01*
X49932101Y32554998D01*
X49904326Y32609512D01*
X49913897Y32669944D01*
X49932098Y32694997D01*
X49960489Y32723387D01*
X49969682Y32739309D01*
X50019797Y32826110D01*
X50019797Y32826112D01*
X50019799Y32826114D01*
X50050500Y32940691D01*
X50050500Y33059309D01*
X50019799Y33173886D01*
X50019797Y33173889D01*
X50019797Y33173891D01*
X49995313Y33216298D01*
X49970480Y33259309D01*
X53549500Y33259309D01*
X53549500Y33140691D01*
X53563029Y33090201D01*
X53580202Y33026110D01*
X53639507Y32923392D01*
X53639509Y32923390D01*
X53639511Y32923387D01*
X53723387Y32839511D01*
X53723389Y32839510D01*
X53723391Y32839508D01*
X53826110Y32780203D01*
X53826111Y32780203D01*
X53826114Y32780201D01*
X53940691Y32749500D01*
X53940693Y32749500D01*
X54059307Y32749500D01*
X54059309Y32749500D01*
X54173886Y32780201D01*
X54173888Y32780203D01*
X54173890Y32780203D01*
X54276608Y32839508D01*
X54276608Y32839509D01*
X54276613Y32839511D01*
X54360489Y32923387D01*
X54419799Y33026114D01*
X54450500Y33140691D01*
X54450500Y33259309D01*
X54419799Y33373886D01*
X54419797Y33373889D01*
X54419797Y33373891D01*
X54360492Y33476609D01*
X54360490Y33476611D01*
X54360489Y33476613D01*
X54276613Y33560489D01*
X54276610Y33560491D01*
X54276608Y33560493D01*
X54173889Y33619798D01*
X54173890Y33619798D01*
X54135065Y33630201D01*
X54059309Y33650500D01*
X53940691Y33650500D01*
X53899669Y33639508D01*
X53826109Y33619798D01*
X53723391Y33560493D01*
X53639507Y33476609D01*
X53580202Y33373891D01*
X53580201Y33373886D01*
X53549500Y33259309D01*
X49970480Y33259309D01*
X49960492Y33276609D01*
X49960490Y33276611D01*
X49960489Y33276613D01*
X49876613Y33360489D01*
X49876610Y33360491D01*
X49876608Y33360493D01*
X49783474Y33414264D01*
X49742533Y33459733D01*
X49736137Y33520584D01*
X49766730Y33573572D01*
X49783474Y33585736D01*
X49876608Y33639508D01*
X49876608Y33639509D01*
X49876613Y33639511D01*
X49960489Y33723387D01*
X50019799Y33826114D01*
X50050500Y33940691D01*
X50050500Y34059309D01*
X50019799Y34173886D01*
X50019797Y34173889D01*
X50019797Y34173891D01*
X49960492Y34276609D01*
X49960490Y34276611D01*
X49960489Y34276613D01*
X49907103Y34329999D01*
X49879328Y34384513D01*
X49888899Y34444945D01*
X49907102Y34470001D01*
X49960489Y34523387D01*
X49992145Y34578216D01*
X50019797Y34626110D01*
X50019797Y34626112D01*
X50019799Y34626114D01*
X50050500Y34740691D01*
X50050500Y34859309D01*
X50019799Y34973886D01*
X50019797Y34973889D01*
X50019797Y34973891D01*
X49960492Y35076609D01*
X49960490Y35076611D01*
X49960489Y35076613D01*
X49907103Y35129999D01*
X49879328Y35184513D01*
X49888899Y35244945D01*
X49907102Y35270001D01*
X49960489Y35323387D01*
X49960492Y35323392D01*
X50019797Y35426110D01*
X50019797Y35426112D01*
X50019799Y35426114D01*
X50050500Y35540691D01*
X50050500Y35659309D01*
X50019799Y35773886D01*
X50019797Y35773889D01*
X50019797Y35773891D01*
X49974989Y35851500D01*
X49962267Y35911348D01*
X49987153Y35967244D01*
X50040141Y35997837D01*
X50060725Y36000000D01*
X51765294Y36000000D01*
X51814793Y35986737D01*
X51826114Y35980201D01*
X51940691Y35949500D01*
X51940693Y35949500D01*
X52059307Y35949500D01*
X52059309Y35949500D01*
X52173886Y35980201D01*
X52185207Y35986737D01*
X52234706Y36000000D01*
X53539275Y36000000D01*
X53597466Y35981093D01*
X53633430Y35931593D01*
X53633430Y35870407D01*
X53625011Y35851500D01*
X53580202Y35773891D01*
X53580201Y35773886D01*
X53549500Y35659309D01*
X53549500Y35540691D01*
X53552179Y35530693D01*
X53580202Y35426110D01*
X53639507Y35323392D01*
X53639509Y35323390D01*
X53639511Y35323387D01*
X53723387Y35239511D01*
X53723389Y35239510D01*
X53723391Y35239508D01*
X53826110Y35180203D01*
X53826111Y35180203D01*
X53826114Y35180201D01*
X53940691Y35149500D01*
X53940693Y35149500D01*
X54059307Y35149500D01*
X54059309Y35149500D01*
X54173886Y35180201D01*
X54173888Y35180203D01*
X54173890Y35180203D01*
X54276608Y35239508D01*
X54276608Y35239509D01*
X54276613Y35239511D01*
X54360489Y35323387D01*
X54360492Y35323392D01*
X54419797Y35426110D01*
X54419797Y35426112D01*
X54419799Y35426114D01*
X54450500Y35540691D01*
X54450500Y35659309D01*
X54419799Y35773886D01*
X54419797Y35773889D01*
X54419797Y35773891D01*
X54374989Y35851500D01*
X54362267Y35911348D01*
X54387153Y35967244D01*
X54440141Y35997837D01*
X54460725Y36000000D01*
X56901000Y36000000D01*
X56959191Y35981093D01*
X56995155Y35931593D01*
X57000000Y35901000D01*
X57000000Y-3901000D01*
X56981093Y-3959191D01*
X56931593Y-3995155D01*
X56901000Y-4000000D01*
X50060725Y-4000000D01*
X50002534Y-3981093D01*
X49966570Y-3931593D01*
X49966570Y-3870407D01*
X49974989Y-3851500D01*
X50019797Y-3773890D01*
X50019797Y-3773888D01*
X50019799Y-3773886D01*
X50050500Y-3659309D01*
X50050500Y-3540691D01*
X50019799Y-3426114D01*
X50019797Y-3426111D01*
X50019797Y-3426109D01*
X49960492Y-3323391D01*
X49960490Y-3323389D01*
X49960489Y-3323387D01*
X49907103Y-3270001D01*
X49879328Y-3215487D01*
X49888899Y-3155055D01*
X49907102Y-3129999D01*
X49960489Y-3076613D01*
X49972039Y-3056608D01*
X50019797Y-2973890D01*
X50019797Y-2973888D01*
X50019799Y-2973886D01*
X50050500Y-2859309D01*
X50050500Y-2740691D01*
X50019799Y-2626114D01*
X50019797Y-2626111D01*
X50019797Y-2626109D01*
X49960492Y-2523391D01*
X49960490Y-2523389D01*
X49960489Y-2523387D01*
X49907103Y-2470001D01*
X49879328Y-2415487D01*
X49888899Y-2355055D01*
X49907102Y-2329999D01*
X49960489Y-2276613D01*
X49973611Y-2253886D01*
X50019797Y-2173890D01*
X50019797Y-2173888D01*
X50019799Y-2173886D01*
X50050500Y-2059309D01*
X50050500Y-1940691D01*
X50019799Y-1826114D01*
X50019797Y-1826111D01*
X50019797Y-1826109D01*
X49960492Y-1723391D01*
X49960490Y-1723389D01*
X49960489Y-1723387D01*
X49907103Y-1670001D01*
X49879328Y-1615487D01*
X49888899Y-1555055D01*
X49907102Y-1529999D01*
X49960489Y-1476613D01*
X49973611Y-1453886D01*
X50019797Y-1373890D01*
X50019797Y-1373888D01*
X50019799Y-1373886D01*
X50050500Y-1259309D01*
X50050500Y-1140691D01*
X50019799Y-1026114D01*
X50019797Y-1026111D01*
X50019797Y-1026109D01*
X49960492Y-923391D01*
X49960490Y-923389D01*
X49960489Y-923387D01*
X49907103Y-870001D01*
X49879328Y-815487D01*
X49888899Y-755055D01*
X49907102Y-729999D01*
X49960489Y-676613D01*
X49985971Y-632477D01*
X50019797Y-573890D01*
X50019797Y-573888D01*
X50019799Y-573886D01*
X50050500Y-459309D01*
X50050500Y-340691D01*
X50019799Y-226114D01*
X50019797Y-226111D01*
X50019797Y-226109D01*
X49960492Y-123391D01*
X49960490Y-123389D01*
X49960489Y-123387D01*
X49876613Y-39511D01*
X49876610Y-39509D01*
X49876608Y-39507D01*
X49773889Y19798D01*
X49773890Y19798D01*
X49760351Y23426D01*
X49659309Y50500D01*
X49540691Y50500D01*
X49499669Y39508D01*
X49426109Y19798D01*
X49323391Y-39507D01*
X49239507Y-123391D01*
X49180202Y-226109D01*
X49168819Y-268591D01*
X49149500Y-340691D01*
X49149500Y-459309D01*
X49152560Y-470728D01*
X49180202Y-573890D01*
X49239507Y-676608D01*
X49239509Y-676610D01*
X49239511Y-676613D01*
X49292896Y-729998D01*
X49320672Y-784513D01*
X49311101Y-844945D01*
X49292897Y-870000D01*
X49253101Y-909797D01*
X49239508Y-923390D01*
X49239507Y-923391D01*
X49180202Y-1026109D01*
X49165577Y-1080691D01*
X49149500Y-1140691D01*
X49149500Y-1259309D01*
X49164124Y-1313886D01*
X49180202Y-1373890D01*
X49239507Y-1476608D01*
X49239509Y-1476610D01*
X49239511Y-1476613D01*
X49292896Y-1529998D01*
X49320672Y-1584513D01*
X49311101Y-1644945D01*
X49292897Y-1670000D01*
X49243391Y-1719507D01*
X49239508Y-1723390D01*
X49239507Y-1723391D01*
X49180202Y-1826109D01*
X49180201Y-1826114D01*
X49149500Y-1940691D01*
X49149500Y-2059309D01*
X49158765Y-2093886D01*
X49180202Y-2173890D01*
X49239507Y-2276608D01*
X49239509Y-2276610D01*
X49239511Y-2276613D01*
X49292896Y-2329998D01*
X49320672Y-2384513D01*
X49311101Y-2444945D01*
X49292897Y-2470000D01*
X49259511Y-2503387D01*
X49239508Y-2523390D01*
X49239507Y-2523391D01*
X49180202Y-2626109D01*
X49180201Y-2626114D01*
X49149500Y-2740691D01*
X49149500Y-2859309D01*
X49157592Y-2889507D01*
X49180202Y-2973890D01*
X49239507Y-3076608D01*
X49239509Y-3076610D01*
X49239511Y-3076613D01*
X49292896Y-3129998D01*
X49320672Y-3184513D01*
X49311101Y-3244945D01*
X49292897Y-3270000D01*
X49253591Y-3309307D01*
X49239508Y-3323390D01*
X49239507Y-3323391D01*
X49180202Y-3426109D01*
X49180201Y-3426114D01*
X49149500Y-3540691D01*
X49149500Y-3659309D01*
X49166805Y-3723890D01*
X49180202Y-3773890D01*
X49225011Y-3851500D01*
X49237733Y-3911348D01*
X49212847Y-3967244D01*
X49159859Y-3997837D01*
X49139275Y-4000000D01*
X33636109Y-4000000D01*
X33577918Y-3981093D01*
X33541954Y-3931593D01*
X33541954Y-3870407D01*
X33566103Y-3830998D01*
X33570489Y-3826613D01*
X33600931Y-3773886D01*
X33629797Y-3723890D01*
X33629797Y-3723888D01*
X33629799Y-3723886D01*
X33660500Y-3609309D01*
X33660500Y-3490691D01*
X33629799Y-3376114D01*
X33629797Y-3376111D01*
X33629797Y-3376109D01*
X33570492Y-3273391D01*
X33570490Y-3273389D01*
X33570489Y-3273387D01*
X33486613Y-3189511D01*
X33486610Y-3189509D01*
X33486608Y-3189507D01*
X33383889Y-3130202D01*
X33383890Y-3130202D01*
X33370351Y-3126574D01*
X33269309Y-3099500D01*
X33150691Y-3099500D01*
X33080567Y-3118289D01*
X33036109Y-3130202D01*
X32933391Y-3189507D01*
X32849507Y-3273391D01*
X32790202Y-3376109D01*
X32790201Y-3376114D01*
X32759500Y-3490691D01*
X32759500Y-3609309D01*
X32780982Y-3689480D01*
X32790202Y-3723890D01*
X32849507Y-3826608D01*
X32849509Y-3826610D01*
X32849511Y-3826613D01*
X32853896Y-3830998D01*
X32881672Y-3885513D01*
X32872101Y-3945945D01*
X32828836Y-3989210D01*
X32783891Y-4000000D01*
X17216109Y-4000000D01*
X17157918Y-3981093D01*
X17121954Y-3931593D01*
X17121954Y-3870407D01*
X17146103Y-3830998D01*
X17150489Y-3826613D01*
X17180931Y-3773886D01*
X17209797Y-3723890D01*
X17209797Y-3723888D01*
X17209799Y-3723886D01*
X17240500Y-3609309D01*
X17240500Y-3490691D01*
X17209799Y-3376114D01*
X17209797Y-3376111D01*
X17209797Y-3376109D01*
X17150492Y-3273391D01*
X17150490Y-3273389D01*
X17150489Y-3273387D01*
X17067793Y-3190691D01*
X18834500Y-3190691D01*
X18834500Y-3309309D01*
X18859708Y-3403387D01*
X18865202Y-3423890D01*
X18924507Y-3526608D01*
X18924509Y-3526610D01*
X18924511Y-3526613D01*
X19008387Y-3610489D01*
X19008389Y-3610490D01*
X19008391Y-3610492D01*
X19111110Y-3669797D01*
X19111111Y-3669797D01*
X19111114Y-3669799D01*
X19225691Y-3700500D01*
X19225693Y-3700500D01*
X19344307Y-3700500D01*
X19344309Y-3700500D01*
X19458886Y-3669799D01*
X19458888Y-3669797D01*
X19458890Y-3669797D01*
X19561608Y-3610492D01*
X19561608Y-3610491D01*
X19561613Y-3610489D01*
X19645489Y-3526613D01*
X19704799Y-3423886D01*
X19735500Y-3309309D01*
X19735500Y-3190691D01*
X20104500Y-3190691D01*
X20104500Y-3309309D01*
X20129708Y-3403387D01*
X20135202Y-3423890D01*
X20194507Y-3526608D01*
X20194509Y-3526610D01*
X20194511Y-3526613D01*
X20278387Y-3610489D01*
X20278389Y-3610490D01*
X20278391Y-3610492D01*
X20381110Y-3669797D01*
X20381111Y-3669797D01*
X20381114Y-3669799D01*
X20495691Y-3700500D01*
X20495693Y-3700500D01*
X20614307Y-3700500D01*
X20614309Y-3700500D01*
X20728886Y-3669799D01*
X20728888Y-3669797D01*
X20728890Y-3669797D01*
X20831608Y-3610492D01*
X20831608Y-3610491D01*
X20831613Y-3610489D01*
X20915489Y-3526613D01*
X20974799Y-3423886D01*
X21005500Y-3309309D01*
X21005500Y-3190691D01*
X21374500Y-3190691D01*
X21374500Y-3309309D01*
X21399708Y-3403387D01*
X21405202Y-3423890D01*
X21464507Y-3526608D01*
X21464509Y-3526610D01*
X21464511Y-3526613D01*
X21548387Y-3610489D01*
X21548389Y-3610490D01*
X21548391Y-3610492D01*
X21651110Y-3669797D01*
X21651111Y-3669797D01*
X21651114Y-3669799D01*
X21765691Y-3700500D01*
X21765693Y-3700500D01*
X21884307Y-3700500D01*
X21884309Y-3700500D01*
X21998886Y-3669799D01*
X21998888Y-3669797D01*
X21998890Y-3669797D01*
X22101608Y-3610492D01*
X22101608Y-3610491D01*
X22101613Y-3610489D01*
X22185489Y-3526613D01*
X22244799Y-3423886D01*
X22275500Y-3309309D01*
X22275500Y-3190691D01*
X22644500Y-3190691D01*
X22644500Y-3309309D01*
X22669708Y-3403387D01*
X22675202Y-3423890D01*
X22734507Y-3526608D01*
X22734509Y-3526610D01*
X22734511Y-3526613D01*
X22818387Y-3610489D01*
X22818389Y-3610490D01*
X22818391Y-3610492D01*
X22921110Y-3669797D01*
X22921111Y-3669797D01*
X22921114Y-3669799D01*
X23035691Y-3700500D01*
X23035693Y-3700500D01*
X23154307Y-3700500D01*
X23154309Y-3700500D01*
X23268886Y-3669799D01*
X23268888Y-3669797D01*
X23268890Y-3669797D01*
X23371608Y-3610492D01*
X23371608Y-3610491D01*
X23371613Y-3610489D01*
X23455489Y-3526613D01*
X23514799Y-3423886D01*
X23545500Y-3309309D01*
X23545500Y-3190691D01*
X25184500Y-3190691D01*
X25184500Y-3309309D01*
X25209708Y-3403387D01*
X25215202Y-3423890D01*
X25274507Y-3526608D01*
X25274509Y-3526610D01*
X25274511Y-3526613D01*
X25358387Y-3610489D01*
X25358389Y-3610490D01*
X25358391Y-3610492D01*
X25461110Y-3669797D01*
X25461111Y-3669797D01*
X25461114Y-3669799D01*
X25575691Y-3700500D01*
X25575693Y-3700500D01*
X25694307Y-3700500D01*
X25694309Y-3700500D01*
X25808886Y-3669799D01*
X25808888Y-3669797D01*
X25808890Y-3669797D01*
X25911608Y-3610492D01*
X25911608Y-3610491D01*
X25911613Y-3610489D01*
X25995489Y-3526613D01*
X26054799Y-3423886D01*
X26085500Y-3309309D01*
X26085500Y-3190691D01*
X26454500Y-3190691D01*
X26454500Y-3309309D01*
X26479708Y-3403387D01*
X26485202Y-3423890D01*
X26544507Y-3526608D01*
X26544509Y-3526610D01*
X26544511Y-3526613D01*
X26628387Y-3610489D01*
X26628389Y-3610490D01*
X26628391Y-3610492D01*
X26731110Y-3669797D01*
X26731111Y-3669797D01*
X26731114Y-3669799D01*
X26845691Y-3700500D01*
X26845693Y-3700500D01*
X26964307Y-3700500D01*
X26964309Y-3700500D01*
X27078886Y-3669799D01*
X27078888Y-3669797D01*
X27078890Y-3669797D01*
X27181608Y-3610492D01*
X27181608Y-3610491D01*
X27181613Y-3610489D01*
X27265489Y-3526613D01*
X27324799Y-3423886D01*
X27355500Y-3309309D01*
X27355500Y-3190691D01*
X27724500Y-3190691D01*
X27724500Y-3309309D01*
X27749708Y-3403387D01*
X27755202Y-3423890D01*
X27814507Y-3526608D01*
X27814509Y-3526610D01*
X27814511Y-3526613D01*
X27898387Y-3610489D01*
X27898389Y-3610490D01*
X27898391Y-3610492D01*
X28001110Y-3669797D01*
X28001111Y-3669797D01*
X28001114Y-3669799D01*
X28115691Y-3700500D01*
X28115693Y-3700500D01*
X28234307Y-3700500D01*
X28234309Y-3700500D01*
X28348886Y-3669799D01*
X28348888Y-3669797D01*
X28348890Y-3669797D01*
X28451608Y-3610492D01*
X28451608Y-3610491D01*
X28451613Y-3610489D01*
X28535489Y-3526613D01*
X28594799Y-3423886D01*
X28625500Y-3309309D01*
X28625500Y-3190691D01*
X28994500Y-3190691D01*
X28994500Y-3309309D01*
X29019708Y-3403387D01*
X29025202Y-3423890D01*
X29084507Y-3526608D01*
X29084509Y-3526610D01*
X29084511Y-3526613D01*
X29168387Y-3610489D01*
X29168389Y-3610490D01*
X29168391Y-3610492D01*
X29271110Y-3669797D01*
X29271111Y-3669797D01*
X29271114Y-3669799D01*
X29385691Y-3700500D01*
X29385693Y-3700500D01*
X29504307Y-3700500D01*
X29504309Y-3700500D01*
X29618886Y-3669799D01*
X29618888Y-3669797D01*
X29618890Y-3669797D01*
X29721608Y-3610492D01*
X29721608Y-3610491D01*
X29721613Y-3610489D01*
X29805489Y-3526613D01*
X29864799Y-3423886D01*
X29895500Y-3309309D01*
X29895500Y-3190691D01*
X30264500Y-3190691D01*
X30264500Y-3309309D01*
X30289708Y-3403387D01*
X30295202Y-3423890D01*
X30354507Y-3526608D01*
X30354509Y-3526610D01*
X30354511Y-3526613D01*
X30438387Y-3610489D01*
X30438389Y-3610490D01*
X30438391Y-3610492D01*
X30541110Y-3669797D01*
X30541111Y-3669797D01*
X30541114Y-3669799D01*
X30655691Y-3700500D01*
X30655693Y-3700500D01*
X30774307Y-3700500D01*
X30774309Y-3700500D01*
X30888886Y-3669799D01*
X30888888Y-3669797D01*
X30888890Y-3669797D01*
X30991608Y-3610492D01*
X30991608Y-3610491D01*
X30991613Y-3610489D01*
X31075489Y-3526613D01*
X31134799Y-3423886D01*
X31165500Y-3309309D01*
X31165500Y-3190691D01*
X31134799Y-3076114D01*
X31134797Y-3076111D01*
X31134797Y-3076109D01*
X31075492Y-2973391D01*
X31075490Y-2973389D01*
X31075489Y-2973387D01*
X30991613Y-2889511D01*
X30991610Y-2889509D01*
X30991608Y-2889507D01*
X30888889Y-2830202D01*
X30888890Y-2830202D01*
X30875351Y-2826574D01*
X30774309Y-2799500D01*
X30655691Y-2799500D01*
X30585567Y-2818289D01*
X30541109Y-2830202D01*
X30438391Y-2889507D01*
X30354507Y-2973391D01*
X30295202Y-3076109D01*
X30280763Y-3129996D01*
X30264500Y-3190691D01*
X29895500Y-3190691D01*
X29864799Y-3076114D01*
X29864797Y-3076111D01*
X29864797Y-3076109D01*
X29805492Y-2973391D01*
X29805490Y-2973389D01*
X29805489Y-2973387D01*
X29721613Y-2889511D01*
X29721610Y-2889509D01*
X29721608Y-2889507D01*
X29618889Y-2830202D01*
X29618890Y-2830202D01*
X29605351Y-2826574D01*
X29504309Y-2799500D01*
X29385691Y-2799500D01*
X29315567Y-2818289D01*
X29271109Y-2830202D01*
X29168391Y-2889507D01*
X29084507Y-2973391D01*
X29025202Y-3076109D01*
X29010763Y-3129996D01*
X28994500Y-3190691D01*
X28625500Y-3190691D01*
X28594799Y-3076114D01*
X28594797Y-3076111D01*
X28594797Y-3076109D01*
X28535492Y-2973391D01*
X28535490Y-2973389D01*
X28535489Y-2973387D01*
X28451613Y-2889511D01*
X28451610Y-2889509D01*
X28451608Y-2889507D01*
X28348889Y-2830202D01*
X28348890Y-2830202D01*
X28335351Y-2826574D01*
X28234309Y-2799500D01*
X28115691Y-2799500D01*
X28045567Y-2818289D01*
X28001109Y-2830202D01*
X27898391Y-2889507D01*
X27814507Y-2973391D01*
X27755202Y-3076109D01*
X27740763Y-3129996D01*
X27724500Y-3190691D01*
X27355500Y-3190691D01*
X27324799Y-3076114D01*
X27324797Y-3076111D01*
X27324797Y-3076109D01*
X27265492Y-2973391D01*
X27265490Y-2973389D01*
X27265489Y-2973387D01*
X27181613Y-2889511D01*
X27181610Y-2889509D01*
X27181608Y-2889507D01*
X27078889Y-2830202D01*
X27078890Y-2830202D01*
X27065351Y-2826574D01*
X26964309Y-2799500D01*
X26845691Y-2799500D01*
X26775567Y-2818289D01*
X26731109Y-2830202D01*
X26628391Y-2889507D01*
X26544507Y-2973391D01*
X26485202Y-3076109D01*
X26470763Y-3129996D01*
X26454500Y-3190691D01*
X26085500Y-3190691D01*
X26054799Y-3076114D01*
X26054797Y-3076111D01*
X26054797Y-3076109D01*
X25995492Y-2973391D01*
X25995490Y-2973389D01*
X25995489Y-2973387D01*
X25911613Y-2889511D01*
X25911610Y-2889509D01*
X25911608Y-2889507D01*
X25808889Y-2830202D01*
X25808890Y-2830202D01*
X25795351Y-2826574D01*
X25694309Y-2799500D01*
X25575691Y-2799500D01*
X25505567Y-2818289D01*
X25461109Y-2830202D01*
X25358391Y-2889507D01*
X25274507Y-2973391D01*
X25215202Y-3076109D01*
X25200763Y-3129996D01*
X25184500Y-3190691D01*
X23545500Y-3190691D01*
X23514799Y-3076114D01*
X23514797Y-3076111D01*
X23514797Y-3076109D01*
X23455492Y-2973391D01*
X23455490Y-2973389D01*
X23455489Y-2973387D01*
X23371613Y-2889511D01*
X23371610Y-2889509D01*
X23371608Y-2889507D01*
X23268889Y-2830202D01*
X23268890Y-2830202D01*
X23255351Y-2826574D01*
X23154309Y-2799500D01*
X23035691Y-2799500D01*
X22965567Y-2818289D01*
X22921109Y-2830202D01*
X22818391Y-2889507D01*
X22734507Y-2973391D01*
X22675202Y-3076109D01*
X22660763Y-3129996D01*
X22644500Y-3190691D01*
X22275500Y-3190691D01*
X22244799Y-3076114D01*
X22244797Y-3076111D01*
X22244797Y-3076109D01*
X22185492Y-2973391D01*
X22185490Y-2973389D01*
X22185489Y-2973387D01*
X22101613Y-2889511D01*
X22101610Y-2889509D01*
X22101608Y-2889507D01*
X21998889Y-2830202D01*
X21998890Y-2830202D01*
X21985351Y-2826574D01*
X21884309Y-2799500D01*
X21765691Y-2799500D01*
X21695567Y-2818289D01*
X21651109Y-2830202D01*
X21548391Y-2889507D01*
X21464507Y-2973391D01*
X21405202Y-3076109D01*
X21390763Y-3129996D01*
X21374500Y-3190691D01*
X21005500Y-3190691D01*
X20974799Y-3076114D01*
X20974797Y-3076111D01*
X20974797Y-3076109D01*
X20915492Y-2973391D01*
X20915490Y-2973389D01*
X20915489Y-2973387D01*
X20831613Y-2889511D01*
X20831610Y-2889509D01*
X20831608Y-2889507D01*
X20728889Y-2830202D01*
X20728890Y-2830202D01*
X20715351Y-2826574D01*
X20614309Y-2799500D01*
X20495691Y-2799500D01*
X20425567Y-2818289D01*
X20381109Y-2830202D01*
X20278391Y-2889507D01*
X20194507Y-2973391D01*
X20135202Y-3076109D01*
X20120763Y-3129996D01*
X20104500Y-3190691D01*
X19735500Y-3190691D01*
X19704799Y-3076114D01*
X19704797Y-3076111D01*
X19704797Y-3076109D01*
X19645492Y-2973391D01*
X19645490Y-2973389D01*
X19645489Y-2973387D01*
X19561613Y-2889511D01*
X19561610Y-2889509D01*
X19561608Y-2889507D01*
X19458889Y-2830202D01*
X19458890Y-2830202D01*
X19445351Y-2826574D01*
X19344309Y-2799500D01*
X19225691Y-2799500D01*
X19155567Y-2818289D01*
X19111109Y-2830202D01*
X19008391Y-2889507D01*
X18924507Y-2973391D01*
X18865202Y-3076109D01*
X18850763Y-3129996D01*
X18834500Y-3190691D01*
X17067793Y-3190691D01*
X17066613Y-3189511D01*
X17066610Y-3189509D01*
X17066608Y-3189507D01*
X16963889Y-3130202D01*
X16963890Y-3130202D01*
X16950351Y-3126574D01*
X16849309Y-3099500D01*
X16730691Y-3099500D01*
X16660567Y-3118289D01*
X16616109Y-3130202D01*
X16513391Y-3189507D01*
X16429507Y-3273391D01*
X16370202Y-3376109D01*
X16370201Y-3376114D01*
X16339500Y-3490691D01*
X16339500Y-3609309D01*
X16360982Y-3689480D01*
X16370202Y-3723890D01*
X16429507Y-3826608D01*
X16429509Y-3826610D01*
X16429511Y-3826613D01*
X16433896Y-3830998D01*
X16461672Y-3885513D01*
X16452101Y-3945945D01*
X16408836Y-3989210D01*
X16363891Y-4000000D01*
X11560725Y-4000000D01*
X11502534Y-3981093D01*
X11466570Y-3931593D01*
X11466570Y-3870407D01*
X11474989Y-3851500D01*
X11519797Y-3773890D01*
X11519797Y-3773888D01*
X11519799Y-3773886D01*
X11550500Y-3659309D01*
X11550500Y-3540691D01*
X11519799Y-3426114D01*
X11519797Y-3426111D01*
X11519797Y-3426109D01*
X11460492Y-3323391D01*
X11460490Y-3323389D01*
X11460489Y-3323387D01*
X11376613Y-3239511D01*
X11376610Y-3239509D01*
X11376608Y-3239507D01*
X11273889Y-3180202D01*
X11273890Y-3180202D01*
X11260351Y-3176574D01*
X11159309Y-3149500D01*
X11040691Y-3149500D01*
X10970567Y-3168289D01*
X10926109Y-3180202D01*
X10823391Y-3239507D01*
X10739507Y-3323391D01*
X10680202Y-3426109D01*
X10680201Y-3426114D01*
X10649500Y-3540691D01*
X10649500Y-3659309D01*
X10666805Y-3723890D01*
X10680202Y-3773890D01*
X10725011Y-3851500D01*
X10737733Y-3911348D01*
X10712847Y-3967244D01*
X10659859Y-3997837D01*
X10639275Y-4000000D01*
X5125412Y-4000000D01*
X5067221Y-3981093D01*
X5031257Y-3931593D01*
X5031257Y-3870407D01*
X5035922Y-3859929D01*
X5035814Y-3859884D01*
X5038296Y-3853890D01*
X5038296Y-3853888D01*
X5038298Y-3853886D01*
X5068999Y-3739309D01*
X5068999Y-3620691D01*
X5038298Y-3506114D01*
X5038296Y-3506111D01*
X5038296Y-3506109D01*
X4978991Y-3403391D01*
X4978989Y-3403389D01*
X4978988Y-3403387D01*
X4959527Y-3383926D01*
X4931752Y-3329412D01*
X4941323Y-3268980D01*
X4984588Y-3225715D01*
X5045020Y-3216144D01*
X5055154Y-3218298D01*
X5100691Y-3230500D01*
X5100692Y-3230500D01*
X5219307Y-3230500D01*
X5219309Y-3230500D01*
X5333886Y-3199799D01*
X5333888Y-3199797D01*
X5333890Y-3199797D01*
X5436608Y-3140492D01*
X5436608Y-3140491D01*
X5436613Y-3140489D01*
X5520489Y-3056613D01*
X5520492Y-3056608D01*
X5579797Y-2953890D01*
X5579797Y-2953888D01*
X5579799Y-2953886D01*
X5610500Y-2839309D01*
X5610500Y-2720691D01*
X5579799Y-2606114D01*
X5579797Y-2606111D01*
X5579797Y-2606109D01*
X5520492Y-2503391D01*
X5520490Y-2503389D01*
X5520489Y-2503387D01*
X5436613Y-2419511D01*
X5436610Y-2419509D01*
X5436608Y-2419507D01*
X5333889Y-2360202D01*
X5333890Y-2360202D01*
X5314681Y-2355055D01*
X5219309Y-2329500D01*
X5100691Y-2329500D01*
X5100690Y-2329500D01*
X5094259Y-2330347D01*
X5093913Y-2327722D01*
X5044015Y-2325085D01*
X4996482Y-2286559D01*
X4980672Y-2227452D01*
X4993797Y-2183176D01*
X5045350Y-2093886D01*
X5064963Y-2020691D01*
X8582943Y-2020691D01*
X8582943Y-2139309D01*
X8592208Y-2173886D01*
X8613644Y-2253887D01*
X8669424Y-2350500D01*
X8682145Y-2410348D01*
X8669424Y-2449500D01*
X8613644Y-2546112D01*
X8597568Y-2606109D01*
X8582943Y-2660691D01*
X8582943Y-2779309D01*
X8596580Y-2830201D01*
X8613645Y-2893890D01*
X8672950Y-2996608D01*
X8672952Y-2996610D01*
X8672954Y-2996613D01*
X8756830Y-3080489D01*
X8756832Y-3080490D01*
X8756834Y-3080492D01*
X8859553Y-3139797D01*
X8859554Y-3139797D01*
X8859557Y-3139799D01*
X8974134Y-3170500D01*
X8974136Y-3170500D01*
X9092750Y-3170500D01*
X9092752Y-3170500D01*
X9207329Y-3139799D01*
X9207331Y-3139797D01*
X9207333Y-3139797D01*
X9310051Y-3080492D01*
X9310051Y-3080491D01*
X9310056Y-3080489D01*
X9393932Y-2996613D01*
X9407054Y-2973886D01*
X9453240Y-2893890D01*
X9453240Y-2893888D01*
X9453242Y-2893886D01*
X9483943Y-2779309D01*
X9483943Y-2660691D01*
X9453242Y-2546114D01*
X9453240Y-2546111D01*
X9453240Y-2546109D01*
X9397462Y-2449500D01*
X9384740Y-2389652D01*
X9397462Y-2350500D01*
X9453240Y-2253890D01*
X9453241Y-2253887D01*
X9453242Y-2253886D01*
X9483943Y-2139309D01*
X9483943Y-2020691D01*
X9453242Y-1906114D01*
X9453240Y-1906111D01*
X9453240Y-1906109D01*
X9393935Y-1803391D01*
X9393933Y-1803389D01*
X9393932Y-1803387D01*
X9310056Y-1719511D01*
X9310053Y-1719509D01*
X9310051Y-1719507D01*
X9207332Y-1660202D01*
X9207333Y-1660202D01*
X9193794Y-1656574D01*
X9092752Y-1629500D01*
X8974134Y-1629500D01*
X8916493Y-1644945D01*
X8859552Y-1660202D01*
X8756834Y-1719507D01*
X8672950Y-1803391D01*
X8613645Y-1906109D01*
X8613644Y-1906114D01*
X8582943Y-2020691D01*
X5064963Y-2020691D01*
X5076051Y-1979309D01*
X5076051Y-1860691D01*
X5045350Y-1746114D01*
X5045348Y-1746111D01*
X5045348Y-1746109D01*
X4989570Y-1649500D01*
X4976848Y-1589652D01*
X4989570Y-1550500D01*
X5045348Y-1453890D01*
X5045349Y-1453887D01*
X5045350Y-1453886D01*
X5076051Y-1339309D01*
X5076051Y-1220691D01*
X5054615Y-1140691D01*
X10249500Y-1140691D01*
X10249500Y-1259309D01*
X10264124Y-1313886D01*
X10280202Y-1373890D01*
X10339507Y-1476608D01*
X10339509Y-1476610D01*
X10339511Y-1476613D01*
X10423387Y-1560489D01*
X10423389Y-1560490D01*
X10423391Y-1560492D01*
X10526110Y-1619797D01*
X10526111Y-1619797D01*
X10526114Y-1619799D01*
X10640691Y-1650500D01*
X10640693Y-1650500D01*
X10759307Y-1650500D01*
X10759309Y-1650500D01*
X10873886Y-1619799D01*
X10873888Y-1619797D01*
X10873890Y-1619797D01*
X10976608Y-1560492D01*
X10976608Y-1560491D01*
X10976613Y-1560489D01*
X11060489Y-1476613D01*
X11073611Y-1453886D01*
X11119797Y-1373890D01*
X11119797Y-1373888D01*
X11119799Y-1373886D01*
X11150500Y-1259309D01*
X11150500Y-1140691D01*
X11119799Y-1026114D01*
X11119797Y-1026111D01*
X11119797Y-1026109D01*
X11060492Y-923391D01*
X11060490Y-923389D01*
X11060489Y-923387D01*
X10976613Y-839511D01*
X10976610Y-839509D01*
X10976608Y-839507D01*
X10873889Y-780202D01*
X10873890Y-780202D01*
X10860351Y-776574D01*
X10759309Y-749500D01*
X10640691Y-749500D01*
X10576825Y-766613D01*
X10526109Y-780202D01*
X10423391Y-839507D01*
X10339507Y-923391D01*
X10280202Y-1026109D01*
X10265577Y-1080691D01*
X10249500Y-1140691D01*
X5054615Y-1140691D01*
X5045350Y-1106114D01*
X5045348Y-1106111D01*
X5045348Y-1106109D01*
X4986043Y-1003391D01*
X4986041Y-1003389D01*
X4986040Y-1003387D01*
X4902164Y-919511D01*
X4902161Y-919509D01*
X4902159Y-919507D01*
X4799440Y-860202D01*
X4799441Y-860202D01*
X4785902Y-856574D01*
X4684860Y-829500D01*
X4566242Y-829500D01*
X4508601Y-844945D01*
X4451660Y-860202D01*
X4348942Y-919507D01*
X4265058Y-1003391D01*
X4205753Y-1106109D01*
X4205752Y-1106114D01*
X4175051Y-1220691D01*
X4175051Y-1339309D01*
X4184316Y-1373886D01*
X4205752Y-1453887D01*
X4261532Y-1550500D01*
X4274253Y-1610348D01*
X4261532Y-1649500D01*
X4205752Y-1746112D01*
X4185284Y-1822498D01*
X4175051Y-1860691D01*
X4175051Y-1979309D01*
X4186140Y-2020692D01*
X4205753Y-2093890D01*
X4265058Y-2196608D01*
X4265060Y-2196610D01*
X4265062Y-2196613D01*
X4348938Y-2280489D01*
X4348940Y-2280490D01*
X4348942Y-2280492D01*
X4451661Y-2339797D01*
X4451662Y-2339797D01*
X4451665Y-2339799D01*
X4566242Y-2370500D01*
X4566244Y-2370500D01*
X4684859Y-2370500D01*
X4684860Y-2370500D01*
X4684860Y-2370499D01*
X4691292Y-2369653D01*
X4691639Y-2372290D01*
X4741474Y-2374891D01*
X4789033Y-2413386D01*
X4804881Y-2472483D01*
X4791753Y-2516823D01*
X4740201Y-2606112D01*
X4734843Y-2626109D01*
X4709500Y-2720691D01*
X4709500Y-2839309D01*
X4714859Y-2859309D01*
X4740202Y-2953890D01*
X4799507Y-3056608D01*
X4799509Y-3056610D01*
X4799511Y-3056613D01*
X4818970Y-3076072D01*
X4846746Y-3130587D01*
X4837175Y-3191019D01*
X4793910Y-3234284D01*
X4733478Y-3243855D01*
X4723342Y-3241701D01*
X4715154Y-3239507D01*
X4677808Y-3229500D01*
X4559190Y-3229500D01*
X4513656Y-3241701D01*
X4444608Y-3260202D01*
X4341890Y-3319507D01*
X4258006Y-3403391D01*
X4198701Y-3506109D01*
X4193207Y-3526613D01*
X4167999Y-3620691D01*
X4167999Y-3739309D01*
X4177264Y-3773886D01*
X4198701Y-3853890D01*
X4201184Y-3859884D01*
X4199271Y-3860676D01*
X4210045Y-3911339D01*
X4185164Y-3967237D01*
X4132179Y-3997835D01*
X4111586Y-4000000D01*
X99000Y-4000000D01*
X40809Y-3981093D01*
X4845Y-3931593D01*
X0Y-3901000D01*
X0Y-320691D01*
X6969500Y-320691D01*
X6969500Y-439309D01*
X6977919Y-470728D01*
X7000202Y-553890D01*
X7059507Y-656608D01*
X7059509Y-656610D01*
X7059511Y-656613D01*
X7143387Y-740489D01*
X7143389Y-740490D01*
X7143391Y-740492D01*
X7246110Y-799797D01*
X7246111Y-799797D01*
X7246114Y-799799D01*
X7360691Y-830500D01*
X7360693Y-830500D01*
X7479307Y-830500D01*
X7479309Y-830500D01*
X7593886Y-799799D01*
X7593888Y-799797D01*
X7593890Y-799797D01*
X7696608Y-740492D01*
X7696608Y-740491D01*
X7696613Y-740489D01*
X7780489Y-656613D01*
X7780492Y-656608D01*
X7839797Y-553890D01*
X7839797Y-553888D01*
X7839799Y-553886D01*
X7870500Y-439309D01*
X7870500Y-430691D01*
X46019500Y-430691D01*
X46019500Y-549309D01*
X46041785Y-632477D01*
X46050202Y-663890D01*
X46109507Y-766608D01*
X46109509Y-766610D01*
X46109511Y-766613D01*
X46193387Y-850489D01*
X46193389Y-850490D01*
X46193391Y-850492D01*
X46296110Y-909797D01*
X46296111Y-909797D01*
X46296114Y-909799D01*
X46410691Y-940500D01*
X46410693Y-940500D01*
X46529307Y-940500D01*
X46529309Y-940500D01*
X46643886Y-909799D01*
X46643888Y-909797D01*
X46643890Y-909797D01*
X46746608Y-850492D01*
X46746608Y-850491D01*
X46746613Y-850489D01*
X46830489Y-766613D01*
X46878251Y-683888D01*
X46889797Y-663890D01*
X46889797Y-663888D01*
X46889799Y-663886D01*
X46920500Y-549309D01*
X46920500Y-430691D01*
X46889799Y-316114D01*
X46889796Y-316109D01*
X46887195Y-311603D01*
X46887194Y-311601D01*
X46862361Y-268590D01*
X47629500Y-268590D01*
X47629500Y-371410D01*
X47656112Y-470728D01*
X47707522Y-559773D01*
X47780227Y-632478D01*
X47869272Y-683888D01*
X47968590Y-710500D01*
X47968592Y-710500D01*
X48071408Y-710500D01*
X48071410Y-710500D01*
X48170728Y-683888D01*
X48259773Y-632478D01*
X48332478Y-559773D01*
X48383888Y-470728D01*
X48410500Y-371410D01*
X48410500Y-268590D01*
X48383888Y-169272D01*
X48332478Y-80227D01*
X48259773Y-7522D01*
X48170728Y43888D01*
X48071410Y70500D01*
X47968590Y70500D01*
X47869272Y43888D01*
X47780227Y-7522D01*
X47707522Y-80227D01*
X47656112Y-169272D01*
X47629500Y-268590D01*
X46862361Y-268590D01*
X46830492Y-213391D01*
X46830490Y-213389D01*
X46830489Y-213387D01*
X46746613Y-129511D01*
X46746610Y-129509D01*
X46746608Y-129507D01*
X46643889Y-70202D01*
X46643890Y-70202D01*
X46630351Y-66574D01*
X46529309Y-39500D01*
X46410691Y-39500D01*
X46340567Y-58289D01*
X46296109Y-70202D01*
X46193391Y-129507D01*
X46109507Y-213391D01*
X46050202Y-316109D01*
X46043615Y-340692D01*
X46019500Y-430691D01*
X7870500Y-430691D01*
X7870500Y-320691D01*
X7839799Y-206114D01*
X7839797Y-206111D01*
X7839797Y-206109D01*
X7780492Y-103391D01*
X7780490Y-103389D01*
X7780489Y-103387D01*
X7696613Y-19511D01*
X7696610Y-19509D01*
X7696608Y-19507D01*
X7593889Y39798D01*
X7593890Y39798D01*
X7574681Y44945D01*
X7479309Y70500D01*
X7360691Y70500D01*
X7290567Y51711D01*
X7246109Y39798D01*
X7143391Y-19507D01*
X7059507Y-103391D01*
X7000202Y-206109D01*
X6983460Y-268591D01*
X6969500Y-320691D01*
X0Y-320691D01*
X0Y1259309D01*
X10649500Y1259309D01*
X10649500Y1140691D01*
X10673667Y1050500D01*
X10680202Y1026110D01*
X10739507Y923392D01*
X10739509Y923390D01*
X10739511Y923387D01*
X10823387Y839511D01*
X10823389Y839510D01*
X10823391Y839508D01*
X10926110Y780203D01*
X10926111Y780203D01*
X10926114Y780201D01*
X11040691Y749500D01*
X11040693Y749500D01*
X11159307Y749500D01*
X11159309Y749500D01*
X11273886Y780201D01*
X11273888Y780203D01*
X11273890Y780203D01*
X11376608Y839508D01*
X11376608Y839509D01*
X11376613Y839511D01*
X11460489Y923387D01*
X11474423Y947521D01*
X11519797Y1026110D01*
X11519797Y1026112D01*
X11519799Y1026114D01*
X11550500Y1140691D01*
X11550500Y1230574D01*
X12467386Y1230574D01*
X12467386Y1111956D01*
X12490389Y1026110D01*
X12498088Y997375D01*
X12557393Y894657D01*
X12557395Y894655D01*
X12557397Y894652D01*
X12641273Y810776D01*
X12641275Y810775D01*
X12641277Y810773D01*
X12743996Y751468D01*
X12743997Y751468D01*
X12744000Y751466D01*
X12858577Y720765D01*
X12858579Y720765D01*
X12977193Y720765D01*
X12977195Y720765D01*
X13091772Y751466D01*
X13091774Y751468D01*
X13091776Y751468D01*
X13188386Y807246D01*
X13248234Y819968D01*
X13287386Y807246D01*
X13383996Y751468D01*
X13383997Y751468D01*
X13384000Y751466D01*
X13498577Y720765D01*
X13498579Y720765D01*
X13617193Y720765D01*
X13617195Y720765D01*
X13731772Y751466D01*
X13731774Y751468D01*
X13731776Y751468D01*
X13834494Y810773D01*
X13834494Y810774D01*
X13834499Y810776D01*
X13855133Y831410D01*
X47469500Y831410D01*
X47469500Y728590D01*
X47496112Y629272D01*
X47547522Y540227D01*
X47620227Y467522D01*
X47709272Y416112D01*
X47808590Y389500D01*
X47808592Y389500D01*
X47911408Y389500D01*
X47911410Y389500D01*
X48010728Y416112D01*
X48085548Y459309D01*
X51549500Y459309D01*
X51549500Y340691D01*
X51567236Y274500D01*
X51580202Y226110D01*
X51639507Y123392D01*
X51639509Y123390D01*
X51639511Y123387D01*
X51723387Y39511D01*
X51723389Y39510D01*
X51723391Y39508D01*
X51826110Y-19797D01*
X51826111Y-19797D01*
X51826114Y-19799D01*
X51940691Y-50500D01*
X51940693Y-50500D01*
X52059307Y-50500D01*
X52059309Y-50500D01*
X52173886Y-19799D01*
X52173888Y-19797D01*
X52173890Y-19797D01*
X52276608Y39508D01*
X52276608Y39509D01*
X52276613Y39511D01*
X52360489Y123387D01*
X52360492Y123392D01*
X52419797Y226110D01*
X52419797Y226112D01*
X52419799Y226114D01*
X52450500Y340691D01*
X52450500Y459309D01*
X53549500Y459309D01*
X53549500Y340691D01*
X53567236Y274500D01*
X53580202Y226110D01*
X53639507Y123392D01*
X53639509Y123390D01*
X53639511Y123387D01*
X53692896Y70002D01*
X53720672Y15487D01*
X53711101Y-44945D01*
X53692897Y-70000D01*
X53659511Y-103387D01*
X53639508Y-123390D01*
X53639507Y-123391D01*
X53580202Y-226109D01*
X53568819Y-268591D01*
X53549500Y-340691D01*
X53549500Y-459309D01*
X53552560Y-470728D01*
X53580202Y-573890D01*
X53639507Y-676608D01*
X53639509Y-676610D01*
X53639511Y-676613D01*
X53723387Y-760489D01*
X53723389Y-760490D01*
X53723391Y-760492D01*
X53826110Y-819797D01*
X53826111Y-819797D01*
X53826114Y-819799D01*
X53940691Y-850500D01*
X53940693Y-850500D01*
X54059307Y-850500D01*
X54059309Y-850500D01*
X54173886Y-819799D01*
X54173888Y-819797D01*
X54173890Y-819797D01*
X54276608Y-760492D01*
X54276608Y-760491D01*
X54276613Y-760489D01*
X54360489Y-676613D01*
X54385971Y-632477D01*
X54419797Y-573890D01*
X54419797Y-573888D01*
X54419799Y-573886D01*
X54450500Y-459309D01*
X54450500Y-340691D01*
X54419799Y-226114D01*
X54419797Y-226111D01*
X54419797Y-226109D01*
X54360492Y-123391D01*
X54360490Y-123389D01*
X54360489Y-123387D01*
X54307103Y-70001D01*
X54279328Y-15487D01*
X54288899Y44945D01*
X54307102Y70001D01*
X54360489Y123387D01*
X54360492Y123392D01*
X54419797Y226110D01*
X54419797Y226112D01*
X54419799Y226114D01*
X54450500Y340691D01*
X54450500Y459309D01*
X54419799Y573886D01*
X54419797Y573889D01*
X54419797Y573891D01*
X54360492Y676609D01*
X54360490Y676611D01*
X54360489Y676613D01*
X54276613Y760489D01*
X54276610Y760491D01*
X54276608Y760493D01*
X54173889Y819798D01*
X54173890Y819798D01*
X54130553Y831410D01*
X54059309Y850500D01*
X53940691Y850500D01*
X53899669Y839508D01*
X53826109Y819798D01*
X53723391Y760493D01*
X53639507Y676609D01*
X53580202Y573891D01*
X53580201Y573886D01*
X53549500Y459309D01*
X52450500Y459309D01*
X52419799Y573886D01*
X52419797Y573889D01*
X52419797Y573891D01*
X52360492Y676609D01*
X52360490Y676611D01*
X52360489Y676613D01*
X52276613Y760489D01*
X52276610Y760491D01*
X52276608Y760493D01*
X52173889Y819798D01*
X52173890Y819798D01*
X52130553Y831410D01*
X52059309Y850500D01*
X51940691Y850500D01*
X51899669Y839508D01*
X51826109Y819798D01*
X51723391Y760493D01*
X51639507Y676609D01*
X51580202Y573891D01*
X51580201Y573886D01*
X51549500Y459309D01*
X48085548Y459309D01*
X48099773Y467522D01*
X48172478Y540227D01*
X48223888Y629272D01*
X48250500Y728590D01*
X48250500Y831410D01*
X48223888Y930728D01*
X48172478Y1019773D01*
X48099773Y1092478D01*
X48010728Y1143888D01*
X47911410Y1170500D01*
X47808590Y1170500D01*
X47709272Y1143888D01*
X47620227Y1092478D01*
X47547522Y1019773D01*
X47496112Y930728D01*
X47469500Y831410D01*
X13855133Y831410D01*
X13918375Y894652D01*
X13948900Y947522D01*
X13977683Y997375D01*
X13977683Y997377D01*
X13977685Y997379D01*
X14008386Y1111956D01*
X14008386Y1230574D01*
X13986726Y1311410D01*
X46109500Y1311410D01*
X46109500Y1208590D01*
X46136112Y1109272D01*
X46187522Y1020227D01*
X46260227Y947522D01*
X46349272Y896112D01*
X46448590Y869500D01*
X46448592Y869500D01*
X46551408Y869500D01*
X46551410Y869500D01*
X46650728Y896112D01*
X46739773Y947522D01*
X46812478Y1020227D01*
X46863888Y1109272D01*
X46890500Y1208590D01*
X46890500Y1311410D01*
X46863888Y1410728D01*
X46812478Y1499773D01*
X46739773Y1572478D01*
X46650728Y1623888D01*
X46551410Y1650500D01*
X46448590Y1650500D01*
X46349272Y1623888D01*
X46260227Y1572478D01*
X46187522Y1499773D01*
X46136112Y1410728D01*
X46109500Y1311410D01*
X13986726Y1311410D01*
X13977685Y1345151D01*
X13977683Y1345154D01*
X13977683Y1345156D01*
X13918378Y1447874D01*
X13918376Y1447876D01*
X13918375Y1447878D01*
X13834499Y1531754D01*
X13834496Y1531756D01*
X13834494Y1531758D01*
X13731775Y1591063D01*
X13731776Y1591063D01*
X13714814Y1595608D01*
X13617195Y1621765D01*
X13498577Y1621765D01*
X13441288Y1606415D01*
X13383998Y1591064D01*
X13287386Y1535284D01*
X13227538Y1522563D01*
X13188386Y1535284D01*
X13091773Y1591064D01*
X13052649Y1601547D01*
X12977195Y1621765D01*
X12858577Y1621765D01*
X12788453Y1602976D01*
X12743995Y1591063D01*
X12641277Y1531758D01*
X12557393Y1447874D01*
X12498088Y1345156D01*
X12489046Y1311410D01*
X12467386Y1230574D01*
X11550500Y1230574D01*
X11550500Y1259309D01*
X11519799Y1373886D01*
X11519797Y1373889D01*
X11519797Y1373891D01*
X11460492Y1476609D01*
X11460490Y1476611D01*
X11460489Y1476613D01*
X11376613Y1560489D01*
X11376610Y1560491D01*
X11376608Y1560493D01*
X11273889Y1619798D01*
X11273890Y1619798D01*
X11213464Y1635989D01*
X11159309Y1650500D01*
X11040691Y1650500D01*
X10986536Y1635989D01*
X10926109Y1619798D01*
X10823391Y1560493D01*
X10739507Y1476609D01*
X10680202Y1373891D01*
X10663460Y1311409D01*
X10649500Y1259309D01*
X0Y1259309D01*
X0Y4459309D01*
X3849500Y4459309D01*
X3849500Y4340691D01*
X3866000Y4279112D01*
X3880202Y4226110D01*
X3939507Y4123392D01*
X3939509Y4123390D01*
X3939511Y4123387D01*
X4023387Y4039511D01*
X4023389Y4039510D01*
X4023391Y4039508D01*
X4126110Y3980203D01*
X4126111Y3980203D01*
X4126114Y3980201D01*
X4240691Y3949500D01*
X4240693Y3949500D01*
X4359307Y3949500D01*
X4359309Y3949500D01*
X4473886Y3980201D01*
X4473888Y3980203D01*
X4473890Y3980203D01*
X4576608Y4039508D01*
X4576608Y4039509D01*
X4576613Y4039511D01*
X4660489Y4123387D01*
X4719799Y4226114D01*
X4750500Y4340691D01*
X4750500Y4459309D01*
X4719799Y4573886D01*
X4719797Y4573889D01*
X4719797Y4573891D01*
X4660492Y4676609D01*
X4660490Y4676611D01*
X4660489Y4676613D01*
X4576613Y4760489D01*
X4576610Y4760491D01*
X4576608Y4760493D01*
X4473889Y4819798D01*
X4473890Y4819798D01*
X4456745Y4824392D01*
X4359309Y4850500D01*
X4240691Y4850500D01*
X4185950Y4835832D01*
X4126109Y4819798D01*
X4023391Y4760493D01*
X3939507Y4676609D01*
X3880202Y4573891D01*
X3868987Y4532036D01*
X3849500Y4459309D01*
X0Y4459309D01*
X0Y9259309D01*
X10649500Y9259309D01*
X10649500Y9140691D01*
X10667420Y9073814D01*
X10680202Y9026110D01*
X10739507Y8923392D01*
X10739509Y8923390D01*
X10739511Y8923387D01*
X10823387Y8839511D01*
X10823389Y8839510D01*
X10823391Y8839508D01*
X10926110Y8780203D01*
X10926111Y8780203D01*
X10926114Y8780201D01*
X11040691Y8749500D01*
X11040693Y8749500D01*
X11159307Y8749500D01*
X11159309Y8749500D01*
X11273886Y8780201D01*
X11273888Y8780203D01*
X11273890Y8780203D01*
X11376608Y8839508D01*
X11376608Y8839509D01*
X11376613Y8839511D01*
X11460489Y8923387D01*
X11519799Y9026114D01*
X11550500Y9140691D01*
X11550500Y9259309D01*
X11519799Y9373886D01*
X11519797Y9373889D01*
X11519797Y9373891D01*
X11460492Y9476609D01*
X11460490Y9476611D01*
X11460489Y9476613D01*
X11376613Y9560489D01*
X11376610Y9560491D01*
X11376608Y9560493D01*
X11273889Y9619798D01*
X11273890Y9619798D01*
X11260351Y9623426D01*
X11159309Y9650500D01*
X11040691Y9650500D01*
X10999669Y9639508D01*
X10926109Y9619798D01*
X10823391Y9560493D01*
X10739507Y9476609D01*
X10680202Y9373891D01*
X10680201Y9373886D01*
X10649500Y9259309D01*
X0Y9259309D01*
X0Y10205519D01*
X2055710Y10205519D01*
X2055710Y10086901D01*
X2063104Y10059308D01*
X2086412Y9972320D01*
X2145717Y9869602D01*
X2145719Y9869600D01*
X2145721Y9869597D01*
X2229597Y9785721D01*
X2229599Y9785720D01*
X2229601Y9785718D01*
X2332320Y9726413D01*
X2332321Y9726413D01*
X2332324Y9726411D01*
X2446901Y9695710D01*
X2446903Y9695710D01*
X2565517Y9695710D01*
X2565519Y9695710D01*
X2680096Y9726411D01*
X2680098Y9726413D01*
X2680100Y9726413D01*
X2782818Y9785718D01*
X2782818Y9785719D01*
X2782823Y9785721D01*
X2866699Y9869597D01*
X2926009Y9972324D01*
X2949317Y10059309D01*
X6249500Y10059309D01*
X6249500Y9940691D01*
X6268550Y9869597D01*
X6280202Y9826110D01*
X6339507Y9723392D01*
X6339509Y9723390D01*
X6339511Y9723387D01*
X6423387Y9639511D01*
X6423389Y9639510D01*
X6423391Y9639508D01*
X6526110Y9580203D01*
X6526111Y9580203D01*
X6526114Y9580201D01*
X6640691Y9549500D01*
X6640693Y9549500D01*
X6759307Y9549500D01*
X6759309Y9549500D01*
X6873886Y9580201D01*
X6873888Y9580203D01*
X6873890Y9580203D01*
X6976608Y9639508D01*
X6976608Y9639509D01*
X6976613Y9639511D01*
X7060489Y9723387D01*
X7096478Y9785721D01*
X7119797Y9826110D01*
X7119797Y9826112D01*
X7119799Y9826114D01*
X7150500Y9940691D01*
X7150500Y10059309D01*
X7119799Y10173886D01*
X7119797Y10173889D01*
X7119797Y10173891D01*
X7060492Y10276609D01*
X7060490Y10276611D01*
X7060489Y10276613D01*
X6976613Y10360489D01*
X6976610Y10360491D01*
X6976608Y10360493D01*
X6873889Y10419798D01*
X6873890Y10419798D01*
X6860351Y10423426D01*
X6759309Y10450500D01*
X6640691Y10450500D01*
X6570567Y10431711D01*
X6526109Y10419798D01*
X6423391Y10360493D01*
X6339507Y10276609D01*
X6280202Y10173891D01*
X6280201Y10173886D01*
X6249500Y10059309D01*
X2949317Y10059309D01*
X2956710Y10086901D01*
X2956710Y10205519D01*
X2926009Y10320096D01*
X2926007Y10320099D01*
X2926007Y10320101D01*
X2866702Y10422819D01*
X2866700Y10422821D01*
X2866699Y10422823D01*
X2782823Y10506699D01*
X2782820Y10506701D01*
X2782818Y10506703D01*
X2680099Y10566008D01*
X2680100Y10566008D01*
X2643634Y10575779D01*
X2565519Y10596710D01*
X2446901Y10596710D01*
X2376777Y10577921D01*
X2332319Y10566008D01*
X2229601Y10506703D01*
X2145717Y10422819D01*
X2086412Y10320101D01*
X2086411Y10320096D01*
X2055710Y10205519D01*
X0Y10205519D01*
X0Y13259309D01*
X10649500Y13259309D01*
X10649500Y13140691D01*
X10672605Y13054464D01*
X10680202Y13026110D01*
X10739507Y12923392D01*
X10739509Y12923390D01*
X10739511Y12923387D01*
X10823387Y12839511D01*
X10823389Y12839510D01*
X10823391Y12839508D01*
X10926110Y12780203D01*
X10926111Y12780203D01*
X10926114Y12780201D01*
X11040691Y12749500D01*
X11040693Y12749500D01*
X11159307Y12749500D01*
X11159309Y12749500D01*
X11273886Y12780201D01*
X11273888Y12780203D01*
X11273890Y12780203D01*
X11376608Y12839508D01*
X11376608Y12839509D01*
X11376613Y12839511D01*
X11460489Y12923387D01*
X11519799Y13026114D01*
X11550500Y13140691D01*
X11550500Y13259309D01*
X11519799Y13373886D01*
X11519797Y13373889D01*
X11519797Y13373891D01*
X11460492Y13476609D01*
X11460490Y13476611D01*
X11460489Y13476613D01*
X11376613Y13560489D01*
X11376610Y13560491D01*
X11376608Y13560493D01*
X11273889Y13619798D01*
X11273890Y13619798D01*
X11251568Y13625779D01*
X11159309Y13650500D01*
X11040691Y13650500D01*
X10970567Y13631711D01*
X10926109Y13619798D01*
X10823391Y13560493D01*
X10739507Y13476609D01*
X10680202Y13373891D01*
X10680201Y13373886D01*
X10649500Y13259309D01*
X0Y13259309D01*
X0Y14519309D01*
X38159500Y14519309D01*
X38159500Y14400691D01*
X38174374Y14345182D01*
X38190202Y14286110D01*
X38249507Y14183392D01*
X38249509Y14183390D01*
X38249511Y14183387D01*
X38333387Y14099511D01*
X38367244Y14079963D01*
X38408185Y14034494D01*
X38414581Y13973644D01*
X38383988Y13920656D01*
X38367247Y13908492D01*
X38353389Y13900491D01*
X38269507Y13816609D01*
X38210202Y13713891D01*
X38210201Y13713886D01*
X38179500Y13599309D01*
X38179500Y13480691D01*
X38180593Y13476613D01*
X38210202Y13366110D01*
X38269507Y13263392D01*
X38269509Y13263390D01*
X38269511Y13263387D01*
X38353387Y13179511D01*
X38353389Y13179510D01*
X38353391Y13179508D01*
X38456110Y13120203D01*
X38456111Y13120203D01*
X38456114Y13120201D01*
X38570691Y13089500D01*
X38570693Y13089500D01*
X38689307Y13089500D01*
X38689309Y13089500D01*
X38803886Y13120201D01*
X38803888Y13120203D01*
X38803890Y13120203D01*
X38906608Y13179508D01*
X38906608Y13179509D01*
X38906613Y13179511D01*
X38990489Y13263387D01*
X38996263Y13273387D01*
X39049797Y13366110D01*
X39049797Y13366112D01*
X39049799Y13366114D01*
X39080500Y13480691D01*
X39080500Y13599309D01*
X39049799Y13713886D01*
X39049797Y13713889D01*
X39049797Y13713891D01*
X38990492Y13816609D01*
X38990490Y13816611D01*
X38990489Y13816613D01*
X38906613Y13900489D01*
X38892752Y13908492D01*
X38872754Y13920038D01*
X38865673Y13927903D01*
X38856006Y13932207D01*
X38845659Y13950130D01*
X38831814Y13965508D01*
X38830707Y13976033D01*
X38825417Y13985198D01*
X38827581Y14005780D01*
X38825419Y14026358D01*
X38830710Y14035523D01*
X38831817Y14046047D01*
X38845665Y14061425D01*
X38856012Y14079346D01*
X38872757Y14091512D01*
X38880948Y14096240D01*
X38930442Y14109500D01*
X39293810Y14109500D01*
X39352001Y14090593D01*
X39363814Y14080504D01*
X39915572Y13528747D01*
X39941195Y13484366D01*
X39970202Y13376110D01*
X40029507Y13273392D01*
X40029509Y13273390D01*
X40029511Y13273387D01*
X40113387Y13189511D01*
X40113389Y13189510D01*
X40113391Y13189508D01*
X40216110Y13130203D01*
X40216111Y13130203D01*
X40216114Y13130201D01*
X40330691Y13099500D01*
X40330693Y13099500D01*
X40449307Y13099500D01*
X40449309Y13099500D01*
X40563886Y13130201D01*
X40563888Y13130203D01*
X40563890Y13130203D01*
X40660942Y13186236D01*
X40710442Y13199500D01*
X41103810Y13199500D01*
X41162001Y13180593D01*
X41173814Y13170504D01*
X48559531Y5784788D01*
X48559530Y5784788D01*
X48624787Y5719532D01*
X48624789Y5719530D01*
X48665347Y5696114D01*
X48704712Y5673386D01*
X48793856Y5649500D01*
X49173391Y5649500D01*
X49231582Y5630593D01*
X49267546Y5581093D01*
X49267546Y5519907D01*
X49243396Y5480499D01*
X49239511Y5476613D01*
X49239508Y5476610D01*
X49239507Y5476609D01*
X49180202Y5373891D01*
X49180201Y5373886D01*
X49149500Y5259309D01*
X49149500Y5140691D01*
X49175986Y5041845D01*
X49180202Y5026110D01*
X49239507Y4923392D01*
X49239509Y4923390D01*
X49239511Y4923387D01*
X49292896Y4870002D01*
X49320672Y4815487D01*
X49311101Y4755055D01*
X49292897Y4730000D01*
X49265898Y4703000D01*
X49239508Y4676610D01*
X49239507Y4676609D01*
X49180202Y4573891D01*
X49168987Y4532036D01*
X49149500Y4459309D01*
X49149500Y4340691D01*
X49166000Y4279112D01*
X49180202Y4226110D01*
X49239507Y4123392D01*
X49239509Y4123390D01*
X49239511Y4123387D01*
X49292896Y4070002D01*
X49320672Y4015487D01*
X49311101Y3955055D01*
X49292897Y3930000D01*
X49253099Y3890201D01*
X49239508Y3876610D01*
X49239507Y3876609D01*
X49180202Y3773891D01*
X49180201Y3773886D01*
X49149500Y3659309D01*
X49149500Y3540691D01*
X49172252Y3455779D01*
X49180202Y3426110D01*
X49239507Y3323392D01*
X49239509Y3323390D01*
X49239511Y3323387D01*
X49292896Y3270002D01*
X49320672Y3215487D01*
X49311101Y3155055D01*
X49292897Y3130000D01*
X49239511Y3076613D01*
X49239508Y3076610D01*
X49239507Y3076609D01*
X49180202Y2973891D01*
X49180201Y2973886D01*
X49149500Y2859309D01*
X49149500Y2740691D01*
X49167638Y2673000D01*
X49180202Y2626110D01*
X49239507Y2523392D01*
X49239509Y2523390D01*
X49239511Y2523387D01*
X49292896Y2470002D01*
X49320672Y2415487D01*
X49311101Y2355055D01*
X49292897Y2330000D01*
X49239511Y2276613D01*
X49239508Y2276610D01*
X49239507Y2276609D01*
X49180202Y2173891D01*
X49180201Y2173886D01*
X49149500Y2059309D01*
X49149500Y1940691D01*
X49167246Y1874464D01*
X49180202Y1826110D01*
X49239507Y1723392D01*
X49239509Y1723390D01*
X49239511Y1723387D01*
X49292896Y1670002D01*
X49320672Y1615487D01*
X49311101Y1555055D01*
X49292897Y1530000D01*
X49262671Y1499773D01*
X49239508Y1476610D01*
X49239507Y1476609D01*
X49180202Y1373891D01*
X49163460Y1311409D01*
X49149500Y1259309D01*
X49149500Y1140691D01*
X49173667Y1050500D01*
X49180202Y1026110D01*
X49239507Y923392D01*
X49239509Y923390D01*
X49239511Y923387D01*
X49323387Y839511D01*
X49323389Y839510D01*
X49323391Y839508D01*
X49426110Y780203D01*
X49426111Y780203D01*
X49426114Y780201D01*
X49540691Y749500D01*
X49540693Y749500D01*
X49659307Y749500D01*
X49659309Y749500D01*
X49773886Y780201D01*
X49773888Y780203D01*
X49773890Y780203D01*
X49876608Y839508D01*
X49876608Y839509D01*
X49876613Y839511D01*
X49960489Y923387D01*
X49974423Y947521D01*
X50019797Y1026110D01*
X50019797Y1026112D01*
X50019799Y1026114D01*
X50050500Y1140691D01*
X50050500Y1259309D01*
X50019799Y1373886D01*
X50019797Y1373889D01*
X50019797Y1373891D01*
X49960492Y1476609D01*
X49960490Y1476611D01*
X49960489Y1476613D01*
X49907103Y1529999D01*
X49879328Y1584513D01*
X49888899Y1644945D01*
X49907102Y1670001D01*
X49960489Y1723387D01*
X49975297Y1749035D01*
X50019797Y1826110D01*
X50019797Y1826112D01*
X50019799Y1826114D01*
X50050500Y1940691D01*
X50050500Y2059309D01*
X50019799Y2173886D01*
X50019797Y2173889D01*
X50019797Y2173891D01*
X49960492Y2276609D01*
X49960490Y2276611D01*
X49960489Y2276613D01*
X49907103Y2329999D01*
X49879328Y2384513D01*
X49888899Y2444945D01*
X49907102Y2470001D01*
X49960489Y2523387D01*
X49982933Y2562261D01*
X50019797Y2626110D01*
X50019797Y2626112D01*
X50019799Y2626114D01*
X50050500Y2740691D01*
X50050500Y2859309D01*
X50019799Y2973886D01*
X50019797Y2973889D01*
X50019797Y2973891D01*
X49960492Y3076609D01*
X49960490Y3076611D01*
X49960489Y3076613D01*
X49907103Y3129999D01*
X49879328Y3184513D01*
X49888899Y3244945D01*
X49907102Y3270001D01*
X49960489Y3323387D01*
X50019799Y3426114D01*
X50050500Y3540691D01*
X50050500Y3659309D01*
X50019799Y3773886D01*
X50019797Y3773889D01*
X50019797Y3773891D01*
X49960492Y3876609D01*
X49960490Y3876611D01*
X49960489Y3876613D01*
X49907103Y3929999D01*
X49879328Y3984513D01*
X49888899Y4044945D01*
X49907102Y4070001D01*
X49960489Y4123387D01*
X50019799Y4226114D01*
X50050500Y4340691D01*
X50050500Y4459309D01*
X50019799Y4573886D01*
X50019797Y4573889D01*
X50019797Y4573891D01*
X49960492Y4676609D01*
X49960490Y4676611D01*
X49960489Y4676613D01*
X49907103Y4729999D01*
X49879328Y4784513D01*
X49888899Y4844945D01*
X49907102Y4870001D01*
X49960489Y4923387D01*
X50019799Y5026114D01*
X50050500Y5140691D01*
X50050500Y5259309D01*
X50019799Y5373886D01*
X50019797Y5373889D01*
X50019797Y5373891D01*
X49960492Y5476609D01*
X49960490Y5476611D01*
X49960489Y5476613D01*
X49956603Y5480499D01*
X49928828Y5535013D01*
X49938399Y5595445D01*
X49981664Y5638710D01*
X50026609Y5649500D01*
X51859558Y5649500D01*
X51909058Y5636236D01*
X52006110Y5580203D01*
X52006111Y5580203D01*
X52006114Y5580201D01*
X52120691Y5549500D01*
X52120693Y5549500D01*
X52239307Y5549500D01*
X52239309Y5549500D01*
X52353886Y5580201D01*
X52353888Y5580203D01*
X52353890Y5580203D01*
X52450942Y5636236D01*
X52500442Y5649500D01*
X53629558Y5649500D01*
X53679058Y5636236D01*
X53776110Y5580203D01*
X53776111Y5580203D01*
X53776114Y5580201D01*
X53890691Y5549500D01*
X53890693Y5549500D01*
X54009307Y5549500D01*
X54009309Y5549500D01*
X54123886Y5580201D01*
X54123888Y5580203D01*
X54123890Y5580203D01*
X54226608Y5639508D01*
X54226608Y5639509D01*
X54226613Y5639511D01*
X54310489Y5723387D01*
X54345939Y5784788D01*
X54369797Y5826110D01*
X54369797Y5826112D01*
X54369799Y5826114D01*
X54400500Y5940691D01*
X54400500Y6059309D01*
X54369799Y6173886D01*
X54369797Y6173889D01*
X54369797Y6173891D01*
X54310492Y6276609D01*
X54310491Y6276610D01*
X54310490Y6276611D01*
X54310489Y6276613D01*
X54282104Y6304998D01*
X54254328Y6359515D01*
X54263900Y6419947D01*
X54282103Y6445002D01*
X54360489Y6523387D01*
X54360492Y6523392D01*
X54419797Y6626110D01*
X54419797Y6626112D01*
X54419799Y6626114D01*
X54450500Y6740691D01*
X54450500Y6859309D01*
X54419799Y6973886D01*
X54419797Y6973889D01*
X54419797Y6973891D01*
X54360492Y7076609D01*
X54360490Y7076611D01*
X54360489Y7076613D01*
X54347103Y7089999D01*
X54319328Y7144513D01*
X54328899Y7204945D01*
X54347102Y7230001D01*
X54410489Y7293387D01*
X54469799Y7396114D01*
X54500500Y7510691D01*
X54500500Y7629309D01*
X54469799Y7743886D01*
X54469797Y7743889D01*
X54469797Y7743891D01*
X54410492Y7846609D01*
X54410490Y7846611D01*
X54410489Y7846613D01*
X54326613Y7930489D01*
X54326610Y7930491D01*
X54326608Y7930493D01*
X54223889Y7989798D01*
X54223890Y7989798D01*
X54210351Y7993426D01*
X54109309Y8020500D01*
X53990691Y8020500D01*
X53920567Y8001711D01*
X53876109Y7989798D01*
X53773391Y7930493D01*
X53689507Y7846609D01*
X53630202Y7743891D01*
X53630201Y7743886D01*
X53599500Y7629309D01*
X53599500Y7510691D01*
X53622164Y7426110D01*
X53630202Y7396110D01*
X53689507Y7293392D01*
X53689509Y7293390D01*
X53689511Y7293387D01*
X53702896Y7280002D01*
X53730672Y7225487D01*
X53721101Y7165055D01*
X53702897Y7140000D01*
X53652894Y7089996D01*
X53639508Y7076610D01*
X53639507Y7076609D01*
X53580202Y6973891D01*
X53580201Y6973886D01*
X53549500Y6859309D01*
X53549500Y6740691D01*
X53576574Y6639649D01*
X53580202Y6626110D01*
X53639507Y6523392D01*
X53639509Y6523390D01*
X53639511Y6523387D01*
X53643396Y6519502D01*
X53671172Y6464987D01*
X53661601Y6404555D01*
X53618336Y6361290D01*
X53573391Y6350500D01*
X52500442Y6350500D01*
X52450942Y6363764D01*
X52353889Y6419798D01*
X52353890Y6419798D01*
X52340351Y6423426D01*
X52239309Y6450500D01*
X52120691Y6450500D01*
X52050567Y6431711D01*
X52006109Y6419798D01*
X51909058Y6363764D01*
X51859558Y6350500D01*
X50026609Y6350500D01*
X49968418Y6369407D01*
X49932454Y6418907D01*
X49932454Y6480093D01*
X49956603Y6519502D01*
X49960489Y6523387D01*
X49960492Y6523392D01*
X50019797Y6626110D01*
X50019797Y6626112D01*
X50019799Y6626114D01*
X50050500Y6740691D01*
X50050500Y6859309D01*
X50019799Y6973886D01*
X50019797Y6973889D01*
X50019797Y6973891D01*
X49960492Y7076609D01*
X49960490Y7076611D01*
X49960489Y7076613D01*
X49907103Y7129999D01*
X49879328Y7184513D01*
X49888899Y7244945D01*
X49907102Y7270001D01*
X49960489Y7323387D01*
X50002476Y7396110D01*
X50019797Y7426110D01*
X50019797Y7426112D01*
X50019799Y7426114D01*
X50050500Y7540691D01*
X50050500Y7659309D01*
X50019799Y7773886D01*
X50019797Y7773889D01*
X50019797Y7773891D01*
X49960492Y7876609D01*
X49960490Y7876611D01*
X49960489Y7876613D01*
X49907103Y7929999D01*
X49879328Y7984513D01*
X49888899Y8044945D01*
X49907102Y8070001D01*
X49960489Y8123387D01*
X49960492Y8123392D01*
X50019797Y8226110D01*
X50019797Y8226112D01*
X50019799Y8226114D01*
X50050500Y8340691D01*
X50050500Y8459309D01*
X50019799Y8573886D01*
X50019797Y8573889D01*
X50019797Y8573891D01*
X49960492Y8676609D01*
X49960490Y8676611D01*
X49960489Y8676613D01*
X49907103Y8729999D01*
X49879328Y8784513D01*
X49888899Y8844945D01*
X49907102Y8870001D01*
X49960489Y8923387D01*
X50019799Y9026114D01*
X50050500Y9140691D01*
X50050500Y9259309D01*
X50019799Y9373886D01*
X50019797Y9373889D01*
X50019797Y9373891D01*
X49960492Y9476609D01*
X49960490Y9476611D01*
X49960489Y9476613D01*
X49876613Y9560489D01*
X49876610Y9560491D01*
X49876608Y9560493D01*
X49773889Y9619798D01*
X49773890Y9619798D01*
X49760351Y9623426D01*
X49659309Y9650500D01*
X49540691Y9650500D01*
X49499669Y9639508D01*
X49426109Y9619798D01*
X49323391Y9560493D01*
X49239507Y9476609D01*
X49180202Y9373891D01*
X49180201Y9373886D01*
X49149500Y9259309D01*
X49149500Y9140691D01*
X49167420Y9073814D01*
X49180202Y9026110D01*
X49239507Y8923392D01*
X49239509Y8923390D01*
X49239511Y8923387D01*
X49292896Y8870002D01*
X49320672Y8815487D01*
X49311101Y8755055D01*
X49292897Y8730000D01*
X49257066Y8694168D01*
X49239508Y8676610D01*
X49239507Y8676609D01*
X49180202Y8573891D01*
X49180201Y8573886D01*
X49149500Y8459309D01*
X49149500Y8340691D01*
X49152603Y8329112D01*
X49180202Y8226110D01*
X49239507Y8123392D01*
X49239509Y8123390D01*
X49239511Y8123387D01*
X49292896Y8070002D01*
X49320672Y8015487D01*
X49311101Y7955055D01*
X49292897Y7930000D01*
X49248730Y7885832D01*
X49239508Y7876610D01*
X49239507Y7876609D01*
X49180202Y7773891D01*
X49180201Y7773886D01*
X49149500Y7659309D01*
X49149500Y7540691D01*
X49157538Y7510693D01*
X49180202Y7426110D01*
X49239507Y7323392D01*
X49239509Y7323390D01*
X49239511Y7323387D01*
X49292896Y7270002D01*
X49320672Y7215487D01*
X49311101Y7155055D01*
X49292897Y7130000D01*
X49252894Y7089996D01*
X49239508Y7076610D01*
X49239507Y7076609D01*
X49180202Y6973891D01*
X49180201Y6973886D01*
X49149500Y6859309D01*
X49149500Y6740691D01*
X49176574Y6639649D01*
X49180202Y6626110D01*
X49239507Y6523392D01*
X49239509Y6523390D01*
X49239511Y6523387D01*
X49243396Y6519502D01*
X49253919Y6498849D01*
X49267546Y6480093D01*
X49267546Y6472104D01*
X49271172Y6464987D01*
X49267546Y6442093D01*
X49267546Y6418907D01*
X49262850Y6412445D01*
X49261601Y6404555D01*
X49245209Y6388164D01*
X49231582Y6369407D01*
X49223984Y6366939D01*
X49218336Y6361290D01*
X49173391Y6350500D01*
X49026189Y6350500D01*
X48967998Y6369407D01*
X48956185Y6379496D01*
X45248778Y10086903D01*
X42876373Y12459309D01*
X51549500Y12459309D01*
X51549500Y12340691D01*
X51557486Y12310888D01*
X51580202Y12226110D01*
X51639507Y12123392D01*
X51639509Y12123390D01*
X51639511Y12123387D01*
X51723387Y12039511D01*
X51723389Y12039510D01*
X51723391Y12039508D01*
X51826110Y11980203D01*
X51826111Y11980203D01*
X51826114Y11980201D01*
X51940691Y11949500D01*
X51940693Y11949500D01*
X52059307Y11949500D01*
X52059309Y11949500D01*
X52173886Y11980201D01*
X52173888Y11980203D01*
X52173890Y11980203D01*
X52276608Y12039508D01*
X52276608Y12039509D01*
X52276613Y12039511D01*
X52360489Y12123387D01*
X52419799Y12226114D01*
X52450500Y12340691D01*
X52450500Y12459309D01*
X53549500Y12459309D01*
X53549500Y12340691D01*
X53557486Y12310888D01*
X53580202Y12226110D01*
X53639507Y12123392D01*
X53639509Y12123390D01*
X53639511Y12123387D01*
X53723387Y12039511D01*
X53723389Y12039510D01*
X53723391Y12039508D01*
X53826110Y11980203D01*
X53826111Y11980203D01*
X53826114Y11980201D01*
X53940691Y11949500D01*
X53940693Y11949500D01*
X54059307Y11949500D01*
X54059309Y11949500D01*
X54173886Y11980201D01*
X54173888Y11980203D01*
X54173890Y11980203D01*
X54276608Y12039508D01*
X54276608Y12039509D01*
X54276613Y12039511D01*
X54360489Y12123387D01*
X54419799Y12226114D01*
X54450500Y12340691D01*
X54450500Y12459309D01*
X54419799Y12573886D01*
X54419797Y12573889D01*
X54419797Y12573891D01*
X54360492Y12676609D01*
X54360490Y12676611D01*
X54360489Y12676613D01*
X54276613Y12760489D01*
X54276610Y12760491D01*
X54276608Y12760493D01*
X54173889Y12819798D01*
X54173890Y12819798D01*
X54160351Y12823426D01*
X54059309Y12850500D01*
X53940691Y12850500D01*
X53899669Y12839508D01*
X53826109Y12819798D01*
X53723391Y12760493D01*
X53639507Y12676609D01*
X53580202Y12573891D01*
X53580201Y12573886D01*
X53549500Y12459309D01*
X52450500Y12459309D01*
X52419799Y12573886D01*
X52419797Y12573889D01*
X52419797Y12573891D01*
X52360492Y12676609D01*
X52360490Y12676611D01*
X52360489Y12676613D01*
X52276613Y12760489D01*
X52276610Y12760491D01*
X52276608Y12760493D01*
X52173889Y12819798D01*
X52173890Y12819798D01*
X52160351Y12823426D01*
X52059309Y12850500D01*
X51940691Y12850500D01*
X51899669Y12839508D01*
X51826109Y12819798D01*
X51723391Y12760493D01*
X51639507Y12676609D01*
X51580202Y12573891D01*
X51580201Y12573886D01*
X51549500Y12459309D01*
X42876373Y12459309D01*
X41505212Y13830470D01*
X41425288Y13876614D01*
X41336144Y13900500D01*
X41336142Y13900500D01*
X40890500Y13900500D01*
X40832309Y13919407D01*
X40796345Y13968907D01*
X40791500Y13999500D01*
X40791500Y18059309D01*
X51549500Y18059309D01*
X51549500Y17940691D01*
X51562949Y17890500D01*
X51580202Y17826110D01*
X51639507Y17723392D01*
X51639509Y17723390D01*
X51639511Y17723387D01*
X51723387Y17639511D01*
X51723389Y17639510D01*
X51723391Y17639508D01*
X51826110Y17580203D01*
X51826111Y17580203D01*
X51826114Y17580201D01*
X51940691Y17549500D01*
X51940693Y17549500D01*
X52059307Y17549500D01*
X52059309Y17549500D01*
X52173886Y17580201D01*
X52173888Y17580203D01*
X52173890Y17580203D01*
X52276608Y17639508D01*
X52276608Y17639509D01*
X52276613Y17639511D01*
X52360489Y17723387D01*
X52360492Y17723392D01*
X52419797Y17826110D01*
X52419797Y17826112D01*
X52419799Y17826114D01*
X52450500Y17940691D01*
X52450500Y18059309D01*
X53549500Y18059309D01*
X53549500Y17940691D01*
X53562949Y17890500D01*
X53580202Y17826110D01*
X53639507Y17723392D01*
X53639509Y17723390D01*
X53639511Y17723387D01*
X53723387Y17639511D01*
X53723389Y17639510D01*
X53723391Y17639508D01*
X53826110Y17580203D01*
X53826111Y17580203D01*
X53826114Y17580201D01*
X53940691Y17549500D01*
X53940693Y17549500D01*
X54059307Y17549500D01*
X54059309Y17549500D01*
X54173886Y17580201D01*
X54173888Y17580203D01*
X54173890Y17580203D01*
X54276608Y17639508D01*
X54276608Y17639509D01*
X54276613Y17639511D01*
X54360489Y17723387D01*
X54360492Y17723392D01*
X54419797Y17826110D01*
X54419797Y17826112D01*
X54419799Y17826114D01*
X54450500Y17940691D01*
X54450500Y18059309D01*
X54419799Y18173886D01*
X54419797Y18173889D01*
X54419797Y18173891D01*
X54360492Y18276609D01*
X54360490Y18276611D01*
X54360489Y18276613D01*
X54276613Y18360489D01*
X54276610Y18360491D01*
X54276608Y18360493D01*
X54173889Y18419798D01*
X54173890Y18419798D01*
X54160351Y18423426D01*
X54059309Y18450500D01*
X53940691Y18450500D01*
X53870567Y18431711D01*
X53826109Y18419798D01*
X53723391Y18360493D01*
X53639507Y18276609D01*
X53580202Y18173891D01*
X53580201Y18173886D01*
X53549500Y18059309D01*
X52450500Y18059309D01*
X52419799Y18173886D01*
X52419797Y18173889D01*
X52419797Y18173891D01*
X52360492Y18276609D01*
X52360490Y18276611D01*
X52360489Y18276613D01*
X52276613Y18360489D01*
X52276610Y18360491D01*
X52276608Y18360493D01*
X52173889Y18419798D01*
X52173890Y18419798D01*
X52160351Y18423426D01*
X52059309Y18450500D01*
X51940691Y18450500D01*
X51870567Y18431711D01*
X51826109Y18419798D01*
X51723391Y18360493D01*
X51639507Y18276609D01*
X51580202Y18173891D01*
X51580201Y18173886D01*
X51549500Y18059309D01*
X40791500Y18059309D01*
X40791500Y19307893D01*
X40804766Y19357397D01*
X40809799Y19366114D01*
X40840500Y19480691D01*
X40840500Y19599309D01*
X40809799Y19713886D01*
X40809797Y19713889D01*
X40809797Y19713891D01*
X40750492Y19816609D01*
X40750490Y19816611D01*
X40750489Y19816613D01*
X40666613Y19900489D01*
X40666610Y19900491D01*
X40665072Y19901379D01*
X40664220Y19902325D01*
X40661464Y19904440D01*
X40661856Y19904951D01*
X40624133Y19946850D01*
X40617739Y20007701D01*
X40648334Y20060688D01*
X40665070Y20072848D01*
X40676613Y20079511D01*
X40760489Y20163387D01*
X40819799Y20266114D01*
X40850500Y20380691D01*
X40850500Y20499309D01*
X40819799Y20613886D01*
X40819797Y20613890D01*
X40819797Y20613891D01*
X40760492Y20716609D01*
X40760490Y20716611D01*
X40760489Y20716613D01*
X40676613Y20800489D01*
X40676610Y20800491D01*
X40676608Y20800493D01*
X40573889Y20859798D01*
X40573890Y20859798D01*
X40560351Y20863426D01*
X40459309Y20890500D01*
X40340691Y20890500D01*
X40270567Y20871711D01*
X40226109Y20859798D01*
X40123391Y20800493D01*
X40039507Y20716609D01*
X39980202Y20613890D01*
X39980200Y20613885D01*
X39978425Y20607261D01*
X39945099Y20555949D01*
X39887976Y20534024D01*
X39828877Y20549863D01*
X39812801Y20562881D01*
X39615212Y20760470D01*
X39535288Y20806614D01*
X39446144Y20830500D01*
X39446142Y20830500D01*
X38960442Y20830500D01*
X38910942Y20843764D01*
X38813889Y20899798D01*
X38813890Y20899798D01*
X38800351Y20903426D01*
X38699309Y20930500D01*
X38580691Y20930500D01*
X38510567Y20911711D01*
X38466109Y20899798D01*
X38363391Y20840493D01*
X38279507Y20756609D01*
X38220202Y20653891D01*
X38220201Y20653886D01*
X38189500Y20539309D01*
X38189500Y20420691D01*
X38200218Y20380691D01*
X38220202Y20306110D01*
X38279507Y20203392D01*
X38279509Y20203390D01*
X38279511Y20203387D01*
X38363387Y20119511D01*
X38363389Y20119510D01*
X38363391Y20119508D01*
X38466110Y20060203D01*
X38466111Y20060203D01*
X38466114Y20060201D01*
X38580691Y20029500D01*
X38580693Y20029500D01*
X38699307Y20029500D01*
X38699309Y20029500D01*
X38813886Y20060201D01*
X38813888Y20060203D01*
X38813890Y20060203D01*
X38910942Y20116236D01*
X38960442Y20129500D01*
X39213810Y20129500D01*
X39272001Y20110593D01*
X39283814Y20100504D01*
X39933874Y19450444D01*
X39959495Y19406065D01*
X39960589Y19401987D01*
X39970202Y19366110D01*
X40029507Y19263392D01*
X40029509Y19263390D01*
X40029511Y19263387D01*
X40061505Y19231393D01*
X40089281Y19176878D01*
X40090500Y19161391D01*
X40090500Y15464367D01*
X40071593Y15406176D01*
X40022093Y15370212D01*
X39965880Y15368740D01*
X39959313Y15370500D01*
X39959309Y15370500D01*
X39840691Y15370500D01*
X39776825Y15353387D01*
X39726109Y15339798D01*
X39623391Y15280493D01*
X39539507Y15196609D01*
X39480202Y15093891D01*
X39449500Y14979308D01*
X39449500Y14909500D01*
X39430593Y14851309D01*
X39381093Y14815345D01*
X39350500Y14810500D01*
X38930442Y14810500D01*
X38880942Y14823764D01*
X38783889Y14879798D01*
X38783890Y14879798D01*
X38770351Y14883426D01*
X38669309Y14910500D01*
X38550691Y14910500D01*
X38480567Y14891711D01*
X38436109Y14879798D01*
X38333391Y14820493D01*
X38249507Y14736609D01*
X38190202Y14633891D01*
X38190201Y14633886D01*
X38159500Y14519309D01*
X0Y14519309D01*
X0Y16459309D01*
X6249500Y16459309D01*
X6249500Y16340691D01*
X6276574Y16239649D01*
X6280202Y16226110D01*
X6339507Y16123392D01*
X6339509Y16123390D01*
X6339511Y16123387D01*
X6423387Y16039511D01*
X6423389Y16039510D01*
X6423391Y16039508D01*
X6526110Y15980203D01*
X6526111Y15980203D01*
X6526114Y15980201D01*
X6640691Y15949500D01*
X6640693Y15949500D01*
X6759307Y15949500D01*
X6759309Y15949500D01*
X6873886Y15980201D01*
X6873888Y15980203D01*
X6873890Y15980203D01*
X6976608Y16039508D01*
X6976608Y16039509D01*
X6976613Y16039511D01*
X7060489Y16123387D01*
X7119799Y16226114D01*
X7150500Y16340691D01*
X7150500Y16459309D01*
X8249500Y16459309D01*
X8249500Y16340691D01*
X8276574Y16239649D01*
X8280202Y16226110D01*
X8339507Y16123392D01*
X8339509Y16123390D01*
X8339511Y16123387D01*
X8423387Y16039511D01*
X8423389Y16039510D01*
X8423391Y16039508D01*
X8526110Y15980203D01*
X8526111Y15980203D01*
X8526114Y15980201D01*
X8640691Y15949500D01*
X8640693Y15949500D01*
X8759307Y15949500D01*
X8759309Y15949500D01*
X8873886Y15980201D01*
X8873888Y15980203D01*
X8873890Y15980203D01*
X8976608Y16039508D01*
X8976608Y16039509D01*
X8976613Y16039511D01*
X9060489Y16123387D01*
X9119799Y16226114D01*
X9150500Y16340691D01*
X9150500Y16459309D01*
X9119799Y16573886D01*
X9119797Y16573889D01*
X9119797Y16573891D01*
X9060492Y16676609D01*
X9060490Y16676611D01*
X9060489Y16676613D01*
X8976613Y16760489D01*
X8976610Y16760491D01*
X8976608Y16760493D01*
X8873889Y16819798D01*
X8873890Y16819798D01*
X8860351Y16823426D01*
X8759309Y16850500D01*
X8640691Y16850500D01*
X8570567Y16831711D01*
X8526109Y16819798D01*
X8423391Y16760493D01*
X8339507Y16676609D01*
X8280202Y16573891D01*
X8280201Y16573886D01*
X8249500Y16459309D01*
X7150500Y16459309D01*
X7119799Y16573886D01*
X7119797Y16573889D01*
X7119797Y16573891D01*
X7060492Y16676609D01*
X7060490Y16676611D01*
X7060489Y16676613D01*
X6976613Y16760489D01*
X6976610Y16760491D01*
X6976608Y16760493D01*
X6873889Y16819798D01*
X6873890Y16819798D01*
X6860351Y16823426D01*
X6759309Y16850500D01*
X6640691Y16850500D01*
X6570567Y16831711D01*
X6526109Y16819798D01*
X6423391Y16760493D01*
X6339507Y16676609D01*
X6280202Y16573891D01*
X6280201Y16573886D01*
X6249500Y16459309D01*
X0Y16459309D01*
X0Y16999999D01*
X0Y17000000D01*
X-1Y17000000D01*
X-14901000Y17000000D01*
X-14959191Y17018907D01*
X-14995155Y17068407D01*
X-15000000Y17099000D01*
X-15000000Y19119309D01*
X38629500Y19119309D01*
X38629500Y19000691D01*
X38643217Y18949500D01*
X38660202Y18886110D01*
X38719507Y18783392D01*
X38719509Y18783390D01*
X38719511Y18783387D01*
X38803387Y18699511D01*
X38803389Y18699510D01*
X38803391Y18699508D01*
X38906110Y18640203D01*
X38906111Y18640203D01*
X38906114Y18640201D01*
X39020691Y18609500D01*
X39020693Y18609500D01*
X39139307Y18609500D01*
X39139309Y18609500D01*
X39253886Y18640201D01*
X39253888Y18640203D01*
X39253890Y18640203D01*
X39356608Y18699508D01*
X39356608Y18699509D01*
X39356613Y18699511D01*
X39440489Y18783387D01*
X39499799Y18886114D01*
X39530500Y19000691D01*
X39530500Y19119309D01*
X39499799Y19233886D01*
X39499797Y19233889D01*
X39499797Y19233891D01*
X39440492Y19336609D01*
X39440490Y19336611D01*
X39440489Y19336613D01*
X39356613Y19420489D01*
X39356610Y19420491D01*
X39356608Y19420493D01*
X39253889Y19479798D01*
X39253890Y19479798D01*
X39240351Y19483426D01*
X39139309Y19510500D01*
X39020691Y19510500D01*
X38950567Y19491711D01*
X38906109Y19479798D01*
X38803391Y19420493D01*
X38719507Y19336609D01*
X38660202Y19233891D01*
X38658118Y19226114D01*
X38629500Y19119309D01*
X-15000000Y19119309D01*
X-15000000Y22059309D01*
X6249500Y22059309D01*
X6249500Y21940691D01*
X6276574Y21839649D01*
X6280202Y21826110D01*
X6339507Y21723392D01*
X6339509Y21723390D01*
X6339511Y21723387D01*
X6423387Y21639511D01*
X6423389Y21639510D01*
X6423391Y21639508D01*
X6526110Y21580203D01*
X6526111Y21580203D01*
X6526114Y21580201D01*
X6640691Y21549500D01*
X6640693Y21549500D01*
X6759307Y21549500D01*
X6759309Y21549500D01*
X6873886Y21580201D01*
X6873888Y21580203D01*
X6873890Y21580203D01*
X6976608Y21639508D01*
X6976608Y21639509D01*
X6976613Y21639511D01*
X7060489Y21723387D01*
X7119799Y21826114D01*
X7150500Y21940691D01*
X7150500Y22059309D01*
X8249500Y22059309D01*
X8249500Y21940691D01*
X8276574Y21839649D01*
X8280202Y21826110D01*
X8339507Y21723392D01*
X8339509Y21723390D01*
X8339511Y21723387D01*
X8423387Y21639511D01*
X8423389Y21639510D01*
X8423391Y21639508D01*
X8526110Y21580203D01*
X8526111Y21580203D01*
X8526114Y21580201D01*
X8640691Y21549500D01*
X8640693Y21549500D01*
X8759307Y21549500D01*
X8759309Y21549500D01*
X8873886Y21580201D01*
X8873888Y21580203D01*
X8873890Y21580203D01*
X8976608Y21639508D01*
X8976608Y21639509D01*
X8976613Y21639511D01*
X9060489Y21723387D01*
X9119799Y21826114D01*
X9150500Y21940691D01*
X9150500Y22059309D01*
X9119799Y22173886D01*
X9119797Y22173889D01*
X9119797Y22173891D01*
X9060492Y22276609D01*
X9060490Y22276611D01*
X9060489Y22276613D01*
X8976613Y22360489D01*
X8976610Y22360491D01*
X8976608Y22360493D01*
X8873889Y22419798D01*
X8873890Y22419798D01*
X8860351Y22423426D01*
X8759309Y22450500D01*
X8640691Y22450500D01*
X8570567Y22431711D01*
X8526109Y22419798D01*
X8423391Y22360493D01*
X8339507Y22276609D01*
X8280202Y22173891D01*
X8280201Y22173886D01*
X8249500Y22059309D01*
X7150500Y22059309D01*
X7119799Y22173886D01*
X7119797Y22173889D01*
X7119797Y22173891D01*
X7060492Y22276609D01*
X7060490Y22276611D01*
X7060489Y22276613D01*
X6976613Y22360489D01*
X6976610Y22360491D01*
X6976608Y22360493D01*
X6873889Y22419798D01*
X6873890Y22419798D01*
X6860351Y22423426D01*
X6759309Y22450500D01*
X6640691Y22450500D01*
X6570567Y22431711D01*
X6526109Y22419798D01*
X6423391Y22360493D01*
X6339507Y22276609D01*
X6280202Y22173891D01*
X6280201Y22173886D01*
X6249500Y22059309D01*
X-15000000Y22059309D01*
X-15000000Y23659309D01*
X51449500Y23659309D01*
X51449500Y23540691D01*
X51476574Y23439649D01*
X51480202Y23426110D01*
X51539507Y23323392D01*
X51539509Y23323390D01*
X51539511Y23323387D01*
X51623387Y23239511D01*
X51623389Y23239510D01*
X51623391Y23239508D01*
X51726110Y23180203D01*
X51726111Y23180203D01*
X51726114Y23180201D01*
X51840691Y23149500D01*
X51840693Y23149500D01*
X51959307Y23149500D01*
X51959309Y23149500D01*
X52073886Y23180201D01*
X52073888Y23180203D01*
X52073890Y23180203D01*
X52176608Y23239508D01*
X52176608Y23239509D01*
X52176613Y23239511D01*
X52260489Y23323387D01*
X52319799Y23426114D01*
X52350500Y23540691D01*
X52350500Y23659309D01*
X53549500Y23659309D01*
X53549500Y23540691D01*
X53576574Y23439649D01*
X53580202Y23426110D01*
X53639507Y23323392D01*
X53639509Y23323390D01*
X53639511Y23323387D01*
X53723387Y23239511D01*
X53723389Y23239510D01*
X53723391Y23239508D01*
X53826110Y23180203D01*
X53826111Y23180203D01*
X53826114Y23180201D01*
X53940691Y23149500D01*
X53940693Y23149500D01*
X54059307Y23149500D01*
X54059309Y23149500D01*
X54173886Y23180201D01*
X54173888Y23180203D01*
X54173890Y23180203D01*
X54276608Y23239508D01*
X54276608Y23239509D01*
X54276613Y23239511D01*
X54360489Y23323387D01*
X54419799Y23426114D01*
X54450500Y23540691D01*
X54450500Y23659309D01*
X54419799Y23773886D01*
X54419797Y23773889D01*
X54419797Y23773891D01*
X54360492Y23876609D01*
X54360490Y23876611D01*
X54360489Y23876613D01*
X54276613Y23960489D01*
X54276610Y23960491D01*
X54276608Y23960493D01*
X54173889Y24019798D01*
X54173890Y24019798D01*
X54160351Y24023426D01*
X54059309Y24050500D01*
X53940691Y24050500D01*
X53899669Y24039508D01*
X53826109Y24019798D01*
X53723391Y23960493D01*
X53639507Y23876609D01*
X53580202Y23773891D01*
X53580201Y23773886D01*
X53549500Y23659309D01*
X52350500Y23659309D01*
X52319799Y23773886D01*
X52319797Y23773889D01*
X52319797Y23773891D01*
X52260492Y23876609D01*
X52260490Y23876611D01*
X52260489Y23876613D01*
X52176613Y23960489D01*
X52176610Y23960491D01*
X52176608Y23960493D01*
X52073889Y24019798D01*
X52073890Y24019798D01*
X52060351Y24023426D01*
X51959309Y24050500D01*
X51840691Y24050500D01*
X51799669Y24039508D01*
X51726109Y24019798D01*
X51623391Y23960493D01*
X51539507Y23876609D01*
X51480202Y23773891D01*
X51480201Y23773886D01*
X51449500Y23659309D01*
X-15000000Y23659309D01*
X-15000000Y25249309D01*
X-7160500Y25249309D01*
X-7160500Y25130691D01*
X-7149438Y25089407D01*
X-7129798Y25016110D01*
X-7070493Y24913392D01*
X-7070491Y24913390D01*
X-7070489Y24913387D01*
X-6986613Y24829511D01*
X-6986611Y24829510D01*
X-6986609Y24829508D01*
X-6883890Y24770203D01*
X-6883889Y24770203D01*
X-6883886Y24770201D01*
X-6769309Y24739500D01*
X-6769307Y24739500D01*
X-6650693Y24739500D01*
X-6650691Y24739500D01*
X-6536114Y24770201D01*
X-6536112Y24770203D01*
X-6536110Y24770203D01*
X-6433392Y24829508D01*
X-6433392Y24829509D01*
X-6433387Y24829511D01*
X-6349511Y24913387D01*
X-6343734Y24923392D01*
X-6293389Y25010593D01*
X-6290201Y25016114D01*
X-6277670Y25062883D01*
X-6244348Y25114195D01*
X-6187226Y25136122D01*
X-6132917Y25121571D01*
X-6132233Y25122755D01*
X-6023890Y25060203D01*
X-6023889Y25060203D01*
X-6023886Y25060201D01*
X-5909309Y25029500D01*
X-5909307Y25029500D01*
X-5865240Y25029500D01*
X-5807049Y25010593D01*
X-5771085Y24961093D01*
X-5771085Y24899907D01*
X-5779504Y24881000D01*
X-5829798Y24793891D01*
X-5838825Y24760201D01*
X-5860500Y24679309D01*
X-5860500Y24560691D01*
X-5833426Y24459649D01*
X-5829798Y24446110D01*
X-5770493Y24343392D01*
X-5770491Y24343390D01*
X-5770489Y24343387D01*
X-5686613Y24259511D01*
X-5686611Y24259510D01*
X-5686609Y24259508D01*
X-5583890Y24200203D01*
X-5583889Y24200203D01*
X-5583886Y24200201D01*
X-5469309Y24169500D01*
X-5469307Y24169500D01*
X-5350693Y24169500D01*
X-5350691Y24169500D01*
X-5236114Y24200201D01*
X-5236112Y24200203D01*
X-5236110Y24200203D01*
X-5133392Y24259508D01*
X-5133392Y24259509D01*
X-5133387Y24259511D01*
X-5049511Y24343387D01*
X-4990201Y24446114D01*
X-4986665Y24459309D01*
X8249500Y24459309D01*
X8249500Y24340691D01*
X8271252Y24259511D01*
X8280202Y24226110D01*
X8339507Y24123392D01*
X8339509Y24123390D01*
X8339511Y24123387D01*
X8423387Y24039511D01*
X8423389Y24039510D01*
X8423391Y24039508D01*
X8526110Y23980203D01*
X8526111Y23980203D01*
X8526114Y23980201D01*
X8640691Y23949500D01*
X8640693Y23949500D01*
X8759307Y23949500D01*
X8759309Y23949500D01*
X8873886Y23980201D01*
X8873888Y23980203D01*
X8873890Y23980203D01*
X8976608Y24039508D01*
X8976608Y24039509D01*
X8976613Y24039511D01*
X9060489Y24123387D01*
X9119799Y24226114D01*
X9150500Y24340691D01*
X9150500Y24459309D01*
X9119799Y24573886D01*
X9119797Y24573889D01*
X9119797Y24573891D01*
X9060492Y24676609D01*
X9060490Y24676611D01*
X9060489Y24676613D01*
X8976613Y24760489D01*
X8976610Y24760491D01*
X8976608Y24760493D01*
X8873889Y24819798D01*
X8873890Y24819798D01*
X8860351Y24823426D01*
X8759309Y24850500D01*
X8640691Y24850500D01*
X8599669Y24839508D01*
X8526109Y24819798D01*
X8423391Y24760493D01*
X8339507Y24676609D01*
X8280202Y24573891D01*
X8280201Y24573886D01*
X8249500Y24459309D01*
X-4986665Y24459309D01*
X-4959500Y24560691D01*
X-4959500Y24679309D01*
X-4990201Y24793886D01*
X-4990203Y24793889D01*
X-4990203Y24793891D01*
X-5049508Y24896609D01*
X-5049510Y24896611D01*
X-5049511Y24896613D01*
X-5133387Y24980489D01*
X-5133390Y24980491D01*
X-5133392Y24980493D01*
X-5236111Y25039798D01*
X-5236110Y25039798D01*
X-5249649Y25043426D01*
X-5350691Y25070500D01*
X-5394760Y25070500D01*
X-5452951Y25089407D01*
X-5488915Y25138907D01*
X-5488915Y25200093D01*
X-5480496Y25219000D01*
X-5430203Y25306110D01*
X-5430203Y25306112D01*
X-5430201Y25306114D01*
X-5399500Y25420691D01*
X-5399500Y25539309D01*
X-5430201Y25653886D01*
X-5430203Y25653890D01*
X-5430203Y25653891D01*
X-5477780Y25736296D01*
X-5477781Y25736297D01*
X-5489510Y25756611D01*
X-5489511Y25756613D01*
X-5512207Y25779309D01*
X-4460500Y25779309D01*
X-4460500Y25660691D01*
X-4440088Y25584513D01*
X-4429798Y25546110D01*
X-4370493Y25443392D01*
X-4370491Y25443390D01*
X-4370489Y25443387D01*
X-4286613Y25359511D01*
X-4286611Y25359510D01*
X-4286609Y25359508D01*
X-4183890Y25300203D01*
X-4183889Y25300203D01*
X-4183886Y25300201D01*
X-4069309Y25269500D01*
X-4069307Y25269500D01*
X-3950693Y25269500D01*
X-3950691Y25269500D01*
X-3836114Y25300201D01*
X-3836112Y25300203D01*
X-3836110Y25300203D01*
X-3733392Y25359508D01*
X-3733392Y25359509D01*
X-3733387Y25359511D01*
X-3649511Y25443387D01*
X-3641875Y25456613D01*
X-3590203Y25546110D01*
X-3590203Y25546112D01*
X-3590201Y25546114D01*
X-3559500Y25660691D01*
X-3559500Y25779309D01*
X-3590201Y25893886D01*
X-3590203Y25893889D01*
X-3590203Y25893891D01*
X-3649508Y25996609D01*
X-3649510Y25996611D01*
X-3649511Y25996613D01*
X-3716412Y26063514D01*
X-3744187Y26118028D01*
X-3734616Y26178460D01*
X-3691351Y26221725D01*
X-3672029Y26229142D01*
X-3670693Y26229500D01*
X-3670691Y26229500D01*
X-3556114Y26260201D01*
X-3556112Y26260203D01*
X-3556110Y26260203D01*
X-3453392Y26319508D01*
X-3453392Y26319509D01*
X-3453387Y26319511D01*
X-3369511Y26403387D01*
X-3348656Y26439508D01*
X-3310203Y26506110D01*
X-3310203Y26506112D01*
X-3310201Y26506114D01*
X-3279500Y26620691D01*
X-3279500Y26739309D01*
X-3310201Y26853886D01*
X-3310203Y26853889D01*
X-3310203Y26853891D01*
X-3369508Y26956609D01*
X-3369510Y26956611D01*
X-3369511Y26956613D01*
X-3453387Y27040489D01*
X-3453390Y27040491D01*
X-3453392Y27040493D01*
X-3556111Y27099798D01*
X-3556110Y27099798D01*
X-3569649Y27103426D01*
X-3670691Y27130500D01*
X-3789309Y27130500D01*
X-3859433Y27111711D01*
X-3903891Y27099798D01*
X-4006609Y27040493D01*
X-4090493Y26956609D01*
X-4149798Y26853891D01*
X-4166963Y26789831D01*
X-4180500Y26739309D01*
X-4180500Y26620691D01*
X-4164722Y26561808D01*
X-4149798Y26506110D01*
X-4090493Y26403392D01*
X-4090491Y26403390D01*
X-4090489Y26403387D01*
X-4023590Y26336488D01*
X-3995814Y26281973D01*
X-4005385Y26221541D01*
X-4048650Y26178276D01*
X-4067971Y26170860D01*
X-4183886Y26139800D01*
X-4183890Y26139798D01*
X-4286609Y26080493D01*
X-4370493Y25996609D01*
X-4429798Y25893891D01*
X-4429799Y25893886D01*
X-4460500Y25779309D01*
X-5512207Y25779309D01*
X-5573387Y25840489D01*
X-5573390Y25840491D01*
X-5573392Y25840493D01*
X-5676111Y25899798D01*
X-5676110Y25899798D01*
X-5689649Y25903426D01*
X-5790691Y25930500D01*
X-5909309Y25930500D01*
X-5979433Y25911711D01*
X-6023891Y25899798D01*
X-6126609Y25840493D01*
X-6210493Y25756609D01*
X-6269798Y25653890D01*
X-6269800Y25653886D01*
X-6282331Y25607119D01*
X-6315655Y25555805D01*
X-6372777Y25533879D01*
X-6427083Y25548431D01*
X-6427767Y25547245D01*
X-6536111Y25609798D01*
X-6536110Y25609798D01*
X-6557342Y25615487D01*
X-6650691Y25640500D01*
X-6769309Y25640500D01*
X-6839433Y25621711D01*
X-6883891Y25609798D01*
X-6986609Y25550493D01*
X-7070493Y25466609D01*
X-7129798Y25363891D01*
X-7130972Y25359508D01*
X-7160500Y25249309D01*
X-15000000Y25249309D01*
X-15000000Y26849309D01*
X-5840500Y26849309D01*
X-5840500Y26730691D01*
X-5813426Y26629649D01*
X-5809798Y26616110D01*
X-5750493Y26513392D01*
X-5750491Y26513390D01*
X-5750489Y26513387D01*
X-5666613Y26429511D01*
X-5666611Y26429510D01*
X-5666609Y26429508D01*
X-5563890Y26370203D01*
X-5563889Y26370203D01*
X-5563886Y26370201D01*
X-5449309Y26339500D01*
X-5449307Y26339500D01*
X-5330693Y26339500D01*
X-5330691Y26339500D01*
X-5216114Y26370201D01*
X-5216112Y26370203D01*
X-5216110Y26370203D01*
X-5113392Y26429508D01*
X-5113392Y26429509D01*
X-5113387Y26429511D01*
X-5029511Y26513387D01*
X-5023735Y26523391D01*
X-4970203Y26616110D01*
X-4970203Y26616112D01*
X-4970201Y26616114D01*
X-4939500Y26730691D01*
X-4939500Y26849309D01*
X-4970201Y26963886D01*
X-4970203Y26963889D01*
X-4970203Y26963891D01*
X-5029508Y27066609D01*
X-5029510Y27066611D01*
X-5029511Y27066613D01*
X-5113387Y27150489D01*
X-5113390Y27150491D01*
X-5113392Y27150493D01*
X-5216111Y27209798D01*
X-5216110Y27209798D01*
X-5253431Y27219798D01*
X-5330691Y27240500D01*
X-5449309Y27240500D01*
X-5519433Y27221711D01*
X-5563891Y27209798D01*
X-5666609Y27150493D01*
X-5750493Y27066609D01*
X-5809798Y26963891D01*
X-5809799Y26963886D01*
X-5840500Y26849309D01*
X-15000000Y26849309D01*
X-15000000Y27659309D01*
X2609500Y27659309D01*
X2609500Y27540691D01*
X2625278Y27481808D01*
X2640202Y27426110D01*
X2699507Y27323392D01*
X2699509Y27323390D01*
X2699511Y27323387D01*
X2783387Y27239511D01*
X2783389Y27239510D01*
X2783391Y27239508D01*
X2886110Y27180203D01*
X2886111Y27180202D01*
X2886113Y27180202D01*
X2886114Y27180201D01*
X2911488Y27173402D01*
X2962802Y27140080D01*
X2984730Y27082959D01*
X2971603Y27028276D01*
X2940201Y26973888D01*
X2934604Y26952999D01*
X2909500Y26859309D01*
X2909500Y26740691D01*
X2909871Y26739308D01*
X2940202Y26626110D01*
X2999507Y26523392D01*
X2999509Y26523390D01*
X2999511Y26523387D01*
X3083387Y26439511D01*
X3083389Y26439510D01*
X3083391Y26439508D01*
X3186110Y26380203D01*
X3186111Y26380203D01*
X3186114Y26380201D01*
X3300691Y26349500D01*
X3300693Y26349500D01*
X3370119Y26349500D01*
X3428310Y26330593D01*
X3464274Y26281093D01*
X3464274Y26219907D01*
X3455855Y26200999D01*
X3440202Y26173889D01*
X3440201Y26173887D01*
X3440201Y26173886D01*
X3409500Y26059309D01*
X3409500Y25940691D01*
X3426000Y25879112D01*
X3440202Y25826110D01*
X3499507Y25723392D01*
X3499509Y25723390D01*
X3499511Y25723387D01*
X3583387Y25639511D01*
X3583389Y25639510D01*
X3583391Y25639508D01*
X3686110Y25580203D01*
X3686111Y25580203D01*
X3686114Y25580201D01*
X3800691Y25549500D01*
X3800693Y25549500D01*
X3919307Y25549500D01*
X3919309Y25549500D01*
X4033886Y25580201D01*
X4033888Y25580203D01*
X4033890Y25580203D01*
X4136608Y25639508D01*
X4136608Y25639509D01*
X4136613Y25639511D01*
X4220489Y25723387D01*
X4251088Y25776385D01*
X4279797Y25826110D01*
X4279797Y25826112D01*
X4279799Y25826114D01*
X4310500Y25940691D01*
X4310500Y26059309D01*
X4279799Y26173886D01*
X4279797Y26173889D01*
X4279797Y26173891D01*
X4220492Y26276609D01*
X4220490Y26276611D01*
X4220489Y26276613D01*
X4136613Y26360489D01*
X4136610Y26360491D01*
X4136608Y26360493D01*
X4033889Y26419798D01*
X4033890Y26419798D01*
X4020351Y26423426D01*
X3919309Y26450500D01*
X3849881Y26450500D01*
X3791690Y26469407D01*
X3755726Y26518907D01*
X3755726Y26580093D01*
X3764145Y26599001D01*
X3774025Y26616114D01*
X3779799Y26626114D01*
X3810500Y26740691D01*
X3810500Y26859309D01*
X3779799Y26973886D01*
X3779797Y26973889D01*
X3779797Y26973891D01*
X3720492Y27076609D01*
X3720490Y27076611D01*
X3720489Y27076613D01*
X3636613Y27160489D01*
X3636610Y27160491D01*
X3636608Y27160493D01*
X3533889Y27219798D01*
X3533891Y27219798D01*
X3523858Y27222486D01*
X3508508Y27226599D01*
X3457196Y27259922D01*
X3435269Y27317044D01*
X3448396Y27371724D01*
X3479799Y27426114D01*
X3510500Y27540691D01*
X3510500Y27659309D01*
X3479799Y27773886D01*
X3479797Y27773889D01*
X3479797Y27773891D01*
X3420492Y27876609D01*
X3420490Y27876611D01*
X3420489Y27876613D01*
X3336613Y27960489D01*
X3336610Y27960491D01*
X3336608Y27960493D01*
X3233889Y28019798D01*
X3233890Y28019798D01*
X3220351Y28023426D01*
X3119309Y28050500D01*
X3000691Y28050500D01*
X2959669Y28039508D01*
X2886109Y28019798D01*
X2783391Y27960493D01*
X2699507Y27876609D01*
X2640202Y27773891D01*
X2640201Y27773886D01*
X2609500Y27659309D01*
X-15000000Y27659309D01*
X-15000000Y28459309D01*
X6249500Y28459309D01*
X6249500Y28340691D01*
X6276574Y28239649D01*
X6280202Y28226110D01*
X6339507Y28123392D01*
X6339509Y28123390D01*
X6339511Y28123387D01*
X6423387Y28039511D01*
X6423389Y28039510D01*
X6423391Y28039508D01*
X6526110Y27980203D01*
X6526111Y27980203D01*
X6526114Y27980201D01*
X6640691Y27949500D01*
X6640693Y27949500D01*
X6759307Y27949500D01*
X6759309Y27949500D01*
X6873886Y27980201D01*
X6873888Y27980203D01*
X6873890Y27980203D01*
X6976608Y28039508D01*
X6976608Y28039509D01*
X6976613Y28039511D01*
X7060489Y28123387D01*
X7119799Y28226114D01*
X7150500Y28340691D01*
X7150500Y28459309D01*
X8249500Y28459309D01*
X8249500Y28340691D01*
X8276574Y28239649D01*
X8280202Y28226110D01*
X8339507Y28123392D01*
X8339509Y28123390D01*
X8339511Y28123387D01*
X8423387Y28039511D01*
X8423389Y28039510D01*
X8423391Y28039508D01*
X8526110Y27980203D01*
X8526111Y27980203D01*
X8526114Y27980201D01*
X8640691Y27949500D01*
X8640693Y27949500D01*
X8759307Y27949500D01*
X8759309Y27949500D01*
X8873886Y27980201D01*
X8873888Y27980203D01*
X8873890Y27980203D01*
X8976608Y28039508D01*
X8976608Y28039509D01*
X8976613Y28039511D01*
X9060489Y28123387D01*
X9119799Y28226114D01*
X9150500Y28340691D01*
X9150500Y28459309D01*
X9119799Y28573886D01*
X9119797Y28573889D01*
X9119797Y28573891D01*
X9060492Y28676609D01*
X9060490Y28676611D01*
X9060489Y28676613D01*
X8976613Y28760489D01*
X8976610Y28760491D01*
X8976608Y28760493D01*
X8873889Y28819798D01*
X8873890Y28819798D01*
X8860351Y28823426D01*
X8759309Y28850500D01*
X8640691Y28850500D01*
X8570567Y28831711D01*
X8526109Y28819798D01*
X8423391Y28760493D01*
X8339507Y28676609D01*
X8280202Y28573891D01*
X8280201Y28573886D01*
X8249500Y28459309D01*
X7150500Y28459309D01*
X7119799Y28573886D01*
X7119797Y28573889D01*
X7119797Y28573891D01*
X7060492Y28676609D01*
X7060490Y28676611D01*
X7060489Y28676613D01*
X6976613Y28760489D01*
X6976610Y28760491D01*
X6976608Y28760493D01*
X6873889Y28819798D01*
X6873890Y28819798D01*
X6860351Y28823426D01*
X6759309Y28850500D01*
X6640691Y28850500D01*
X6570567Y28831711D01*
X6526109Y28819798D01*
X6423391Y28760493D01*
X6339507Y28676609D01*
X6280202Y28573891D01*
X6280201Y28573886D01*
X6249500Y28459309D01*
X-15000000Y28459309D01*
X-15000000Y28999999D01*
X-15000000Y29000000D01*
X-15000001Y29000000D01*
X-21901000Y29000000D01*
X-21959191Y29018907D01*
X-21995155Y29068407D01*
X-22000000Y29099000D01*
X-22000000Y29809057D01*
X-3575500Y29809057D01*
X-3575500Y29650943D01*
X-3534577Y29498216D01*
X-3455520Y29361284D01*
X-3343716Y29249480D01*
X-3206784Y29170423D01*
X-3054057Y29129500D01*
X-3054055Y29129500D01*
X-2895945Y29129500D01*
X-2895943Y29129500D01*
X-2743216Y29170423D01*
X-2606284Y29249480D01*
X-2494480Y29361284D01*
X-2449433Y29439309D01*
X4329500Y29439309D01*
X4329500Y29320691D01*
X4345948Y29259308D01*
X4360202Y29206110D01*
X4419507Y29103392D01*
X4419509Y29103390D01*
X4419511Y29103387D01*
X4503387Y29019511D01*
X4503389Y29019510D01*
X4503391Y29019508D01*
X4606110Y28960203D01*
X4606111Y28960203D01*
X4606114Y28960201D01*
X4720691Y28929500D01*
X4720693Y28929500D01*
X4839307Y28929500D01*
X4839309Y28929500D01*
X4953886Y28960201D01*
X4953888Y28960203D01*
X4953890Y28960203D01*
X5056608Y29019508D01*
X5056608Y29019509D01*
X5056613Y29019511D01*
X5140489Y29103387D01*
X5140492Y29103392D01*
X5199797Y29206110D01*
X5199797Y29206112D01*
X5199799Y29206114D01*
X5230500Y29320691D01*
X5230500Y29439309D01*
X5199799Y29553886D01*
X5199797Y29553889D01*
X5199797Y29553891D01*
X5140492Y29656609D01*
X5140490Y29656611D01*
X5140489Y29656613D01*
X5056613Y29740489D01*
X5056610Y29740491D01*
X5056608Y29740493D01*
X4953889Y29799798D01*
X4953890Y29799798D01*
X4940351Y29803426D01*
X4839309Y29830500D01*
X4720691Y29830500D01*
X4650567Y29811711D01*
X4606109Y29799798D01*
X4503391Y29740493D01*
X4419507Y29656609D01*
X4360202Y29553891D01*
X4345284Y29498217D01*
X4329500Y29439309D01*
X-2449433Y29439309D01*
X-2415423Y29498216D01*
X-2374500Y29650943D01*
X-2374500Y29809057D01*
X-2415423Y29961784D01*
X-2477502Y30069309D01*
X179500Y30069309D01*
X179500Y29950691D01*
X182179Y29940693D01*
X210202Y29836110D01*
X269507Y29733392D01*
X269509Y29733390D01*
X269511Y29733387D01*
X353387Y29649511D01*
X353389Y29649510D01*
X353391Y29649508D01*
X456110Y29590203D01*
X456111Y29590203D01*
X456114Y29590201D01*
X570691Y29559500D01*
X570693Y29559500D01*
X689307Y29559500D01*
X689309Y29559500D01*
X803886Y29590201D01*
X803888Y29590203D01*
X803890Y29590203D01*
X906608Y29649508D01*
X906608Y29649509D01*
X906613Y29649511D01*
X990489Y29733387D01*
X990492Y29733392D01*
X1049797Y29836110D01*
X1049797Y29836112D01*
X1049799Y29836114D01*
X1080500Y29950691D01*
X1080500Y30059309D01*
X49149500Y30059309D01*
X49149500Y29940691D01*
X49176574Y29839649D01*
X49180202Y29826110D01*
X49239507Y29723392D01*
X49239509Y29723390D01*
X49239511Y29723387D01*
X49292896Y29670002D01*
X49320672Y29615487D01*
X49311101Y29555055D01*
X49292897Y29530000D01*
X49261115Y29498217D01*
X49239508Y29476610D01*
X49239507Y29476609D01*
X49180202Y29373891D01*
X49176824Y29361284D01*
X49149500Y29259309D01*
X49149500Y29140691D01*
X49159496Y29103387D01*
X49180202Y29026110D01*
X49239507Y28923392D01*
X49239509Y28923390D01*
X49239511Y28923387D01*
X49292896Y28870002D01*
X49320672Y28815487D01*
X49311101Y28755055D01*
X49292897Y28730000D01*
X49239511Y28676613D01*
X49239508Y28676610D01*
X49239507Y28676609D01*
X49180202Y28573891D01*
X49180201Y28573886D01*
X49149500Y28459309D01*
X49149500Y28340691D01*
X49176574Y28239649D01*
X49180202Y28226110D01*
X49239507Y28123392D01*
X49239509Y28123390D01*
X49239511Y28123387D01*
X49292896Y28070002D01*
X49320672Y28015487D01*
X49311101Y27955055D01*
X49292897Y27930000D01*
X49239511Y27876613D01*
X49239508Y27876610D01*
X49239507Y27876609D01*
X49180202Y27773891D01*
X49180201Y27773886D01*
X49149500Y27659309D01*
X49149500Y27540691D01*
X49165278Y27481808D01*
X49180202Y27426110D01*
X49239507Y27323392D01*
X49239509Y27323390D01*
X49239511Y27323387D01*
X49292896Y27270002D01*
X49320672Y27215487D01*
X49311101Y27155055D01*
X49292897Y27130000D01*
X49262697Y27099799D01*
X49239508Y27076610D01*
X49239507Y27076609D01*
X49180202Y26973891D01*
X49174604Y26952999D01*
X49149500Y26859309D01*
X49149500Y26740691D01*
X49149871Y26739308D01*
X49180202Y26626110D01*
X49239507Y26523392D01*
X49239509Y26523390D01*
X49239511Y26523387D01*
X49292896Y26470002D01*
X49320672Y26415487D01*
X49311101Y26355055D01*
X49292897Y26330000D01*
X49244871Y26281973D01*
X49239508Y26276610D01*
X49239507Y26276609D01*
X49180202Y26173891D01*
X49171067Y26139799D01*
X49149500Y26059309D01*
X49149500Y25940691D01*
X49166000Y25879112D01*
X49180202Y25826110D01*
X49239507Y25723392D01*
X49239509Y25723390D01*
X49239511Y25723387D01*
X49292896Y25670002D01*
X49320672Y25615487D01*
X49311101Y25555055D01*
X49292897Y25530000D01*
X49239511Y25476613D01*
X49239508Y25476610D01*
X49239507Y25476609D01*
X49180202Y25373891D01*
X49180201Y25373886D01*
X49149500Y25259309D01*
X49149500Y25140691D01*
X49156600Y25114195D01*
X49180202Y25026110D01*
X49239507Y24923392D01*
X49239509Y24923390D01*
X49239511Y24923387D01*
X49323387Y24839511D01*
X49323389Y24839510D01*
X49323391Y24839508D01*
X49426110Y24780203D01*
X49426111Y24780203D01*
X49426114Y24780201D01*
X49540691Y24749500D01*
X49540693Y24749500D01*
X49659307Y24749500D01*
X49659309Y24749500D01*
X49773886Y24780201D01*
X49773888Y24780203D01*
X49773890Y24780203D01*
X49876608Y24839508D01*
X49876608Y24839509D01*
X49876613Y24839511D01*
X49960489Y24923387D01*
X49993457Y24980489D01*
X50019797Y25026110D01*
X50019797Y25026112D01*
X50019799Y25026114D01*
X50050500Y25140691D01*
X50050500Y25239309D01*
X53579500Y25239309D01*
X53579500Y25120691D01*
X53601175Y25039799D01*
X53610202Y25006110D01*
X53669507Y24903392D01*
X53669509Y24903390D01*
X53669511Y24903387D01*
X53753387Y24819511D01*
X53753389Y24819510D01*
X53753391Y24819508D01*
X53856110Y24760203D01*
X53856111Y24760203D01*
X53856114Y24760201D01*
X53970691Y24729500D01*
X53970693Y24729500D01*
X54089307Y24729500D01*
X54089309Y24729500D01*
X54203886Y24760201D01*
X54203888Y24760203D01*
X54203890Y24760203D01*
X54306608Y24819508D01*
X54306608Y24819509D01*
X54306613Y24819511D01*
X54390489Y24903387D01*
X54396263Y24913387D01*
X54449797Y25006110D01*
X54449797Y25006112D01*
X54449799Y25006114D01*
X54480500Y25120691D01*
X54480500Y25239309D01*
X54449799Y25353886D01*
X54449797Y25353889D01*
X54449797Y25353891D01*
X54390492Y25456609D01*
X54390490Y25456611D01*
X54390489Y25456613D01*
X54306613Y25540489D01*
X54306610Y25540491D01*
X54306608Y25540493D01*
X54203889Y25599798D01*
X54203890Y25599798D01*
X54190351Y25603426D01*
X54089309Y25630500D01*
X53970691Y25630500D01*
X53914662Y25615487D01*
X53856109Y25599798D01*
X53753391Y25540493D01*
X53669507Y25456609D01*
X53610202Y25353891D01*
X53610201Y25353886D01*
X53579500Y25239309D01*
X50050500Y25239309D01*
X50050500Y25259309D01*
X50019799Y25373886D01*
X50019797Y25373889D01*
X50019797Y25373891D01*
X49960492Y25476609D01*
X49960490Y25476611D01*
X49960489Y25476613D01*
X49907103Y25529999D01*
X49879328Y25584513D01*
X49888899Y25644945D01*
X49907102Y25670001D01*
X49960489Y25723387D01*
X49991088Y25776385D01*
X50019797Y25826110D01*
X50019797Y25826112D01*
X50019799Y25826114D01*
X50050500Y25940691D01*
X50050500Y26059309D01*
X50019799Y26173886D01*
X50019797Y26173889D01*
X50019797Y26173891D01*
X49960492Y26276609D01*
X49960490Y26276611D01*
X49960489Y26276613D01*
X49907103Y26329999D01*
X49879328Y26384513D01*
X49888899Y26444945D01*
X49907102Y26470001D01*
X49960489Y26523387D01*
X50014023Y26616110D01*
X50019797Y26626110D01*
X50019797Y26626112D01*
X50019799Y26626114D01*
X50050500Y26740691D01*
X50050500Y26859309D01*
X50019799Y26973886D01*
X50019797Y26973889D01*
X50019797Y26973891D01*
X49960492Y27076609D01*
X49960490Y27076611D01*
X49960489Y27076613D01*
X49907103Y27129999D01*
X49879328Y27184513D01*
X49888899Y27244945D01*
X49907102Y27270001D01*
X49960489Y27323387D01*
X49960492Y27323392D01*
X50019797Y27426110D01*
X50019797Y27426112D01*
X50019799Y27426114D01*
X50050500Y27540691D01*
X50050500Y27659309D01*
X50019799Y27773886D01*
X50019797Y27773889D01*
X50019797Y27773891D01*
X49960492Y27876609D01*
X49960490Y27876611D01*
X49960489Y27876613D01*
X49907103Y27929999D01*
X49879328Y27984513D01*
X49888899Y28044945D01*
X49907102Y28070001D01*
X49960489Y28123387D01*
X50019799Y28226114D01*
X50050500Y28340691D01*
X50050500Y28459309D01*
X50019799Y28573886D01*
X50019797Y28573889D01*
X50019797Y28573891D01*
X49960492Y28676609D01*
X49960490Y28676611D01*
X49960489Y28676613D01*
X49907103Y28729999D01*
X49879328Y28784513D01*
X49888899Y28844945D01*
X49907102Y28870001D01*
X49960489Y28923387D01*
X49981745Y28960203D01*
X50019797Y29026110D01*
X50019797Y29026112D01*
X50019799Y29026114D01*
X50050500Y29140691D01*
X50050500Y29259309D01*
X50019799Y29373886D01*
X50019797Y29373889D01*
X50019797Y29373891D01*
X49960492Y29476609D01*
X49960490Y29476611D01*
X49960489Y29476613D01*
X49907103Y29529999D01*
X49879328Y29584513D01*
X49888899Y29644945D01*
X49907102Y29670001D01*
X49960489Y29723387D01*
X49966263Y29733387D01*
X50019797Y29826110D01*
X50019797Y29826112D01*
X50019799Y29826114D01*
X50050500Y29940691D01*
X50050500Y30059309D01*
X53549500Y30059309D01*
X53549500Y29940691D01*
X53576574Y29839649D01*
X53580202Y29826110D01*
X53639507Y29723392D01*
X53639509Y29723390D01*
X53639511Y29723387D01*
X53723387Y29639511D01*
X53723389Y29639510D01*
X53723391Y29639508D01*
X53826110Y29580203D01*
X53826111Y29580203D01*
X53826114Y29580201D01*
X53940691Y29549500D01*
X53940693Y29549500D01*
X54059307Y29549500D01*
X54059309Y29549500D01*
X54173886Y29580201D01*
X54173888Y29580203D01*
X54173890Y29580203D01*
X54276608Y29639508D01*
X54276608Y29639509D01*
X54276613Y29639511D01*
X54360489Y29723387D01*
X54366263Y29733387D01*
X54419797Y29826110D01*
X54419797Y29826112D01*
X54419799Y29826114D01*
X54450500Y29940691D01*
X54450500Y30059309D01*
X54419799Y30173886D01*
X54419797Y30173889D01*
X54419797Y30173891D01*
X54360492Y30276609D01*
X54360490Y30276611D01*
X54360489Y30276613D01*
X54276613Y30360489D01*
X54276610Y30360491D01*
X54276608Y30360493D01*
X54173889Y30419798D01*
X54173890Y30419798D01*
X54136569Y30429798D01*
X54059309Y30450500D01*
X53940691Y30450500D01*
X53899669Y30439508D01*
X53826109Y30419798D01*
X53723391Y30360493D01*
X53639507Y30276609D01*
X53580202Y30173891D01*
X53563037Y30109831D01*
X53549500Y30059309D01*
X50050500Y30059309D01*
X50019799Y30173886D01*
X50019797Y30173889D01*
X50019797Y30173891D01*
X49960492Y30276609D01*
X49960490Y30276611D01*
X49960489Y30276613D01*
X49876613Y30360489D01*
X49876610Y30360491D01*
X49876608Y30360493D01*
X49773889Y30419798D01*
X49773890Y30419798D01*
X49736569Y30429798D01*
X49659309Y30450500D01*
X49540691Y30450500D01*
X49499669Y30439508D01*
X49426109Y30419798D01*
X49323391Y30360493D01*
X49239507Y30276609D01*
X49180202Y30173891D01*
X49163037Y30109831D01*
X49149500Y30059309D01*
X1080500Y30059309D01*
X1080500Y30069309D01*
X1049799Y30183886D01*
X1049797Y30183889D01*
X1049797Y30183891D01*
X990492Y30286609D01*
X990490Y30286611D01*
X990489Y30286613D01*
X906613Y30370489D01*
X906610Y30370491D01*
X906608Y30370493D01*
X803889Y30429798D01*
X803890Y30429798D01*
X790351Y30433426D01*
X689309Y30460500D01*
X570691Y30460500D01*
X500567Y30441711D01*
X456109Y30429798D01*
X353391Y30370493D01*
X269507Y30286609D01*
X210202Y30183891D01*
X210201Y30183886D01*
X179500Y30069309D01*
X-2477502Y30069309D01*
X-2494480Y30098716D01*
X-2606284Y30210520D01*
X-2743216Y30289577D01*
X-2895943Y30330500D01*
X-3054057Y30330500D01*
X-3206784Y30289577D01*
X-3343716Y30210520D01*
X-3455520Y30098716D01*
X-3534577Y29961784D01*
X-3575500Y29809057D01*
X-22000000Y29809057D01*
X-22000000Y31389309D01*
X-1870500Y31389309D01*
X-1870500Y31270691D01*
X-1862145Y31239511D01*
X-1839798Y31156110D01*
X-1780493Y31053392D01*
X-1780491Y31053390D01*
X-1780489Y31053387D01*
X-1751179Y31024077D01*
X-1723403Y30969562D01*
X-1732974Y30909130D01*
X-1737305Y30902268D01*
X-1737245Y30902233D01*
X-1799798Y30793891D01*
X-1799799Y30793886D01*
X-1830500Y30679309D01*
X-1830500Y30560691D01*
X-1820504Y30523387D01*
X-1799798Y30446110D01*
X-1740493Y30343392D01*
X-1740491Y30343390D01*
X-1740489Y30343387D01*
X-1656613Y30259511D01*
X-1656611Y30259510D01*
X-1656609Y30259508D01*
X-1553890Y30200203D01*
X-1553889Y30200203D01*
X-1553886Y30200201D01*
X-1439309Y30169500D01*
X-1439307Y30169500D01*
X-1320694Y30169500D01*
X-1320691Y30169500D01*
X-1206114Y30200201D01*
X-1206112Y30200203D01*
X-1206110Y30200203D01*
X-1103392Y30259508D01*
X-1103392Y30259509D01*
X-1103387Y30259511D01*
X-1019511Y30343387D01*
X-1009635Y30360493D01*
X-960203Y30446110D01*
X-960203Y30446112D01*
X-960201Y30446114D01*
X-929500Y30560691D01*
X-929500Y30679309D01*
X-960201Y30793886D01*
X-997973Y30859309D01*
X51549500Y30859309D01*
X51549500Y30740691D01*
X51565948Y30679308D01*
X51580202Y30626110D01*
X51639507Y30523392D01*
X51639509Y30523390D01*
X51639511Y30523387D01*
X51723387Y30439511D01*
X51723389Y30439510D01*
X51723391Y30439508D01*
X51826110Y30380203D01*
X51826111Y30380203D01*
X51826114Y30380201D01*
X51940691Y30349500D01*
X51940693Y30349500D01*
X52059307Y30349500D01*
X52059309Y30349500D01*
X52173886Y30380201D01*
X52173888Y30380203D01*
X52173890Y30380203D01*
X52276608Y30439508D01*
X52276608Y30439509D01*
X52276613Y30439511D01*
X52360489Y30523387D01*
X52419799Y30626114D01*
X52450500Y30740691D01*
X52450500Y30859309D01*
X52419799Y30973886D01*
X52419797Y30973889D01*
X52419797Y30973891D01*
X52360492Y31076609D01*
X52360490Y31076611D01*
X52360489Y31076613D01*
X52276613Y31160489D01*
X52276610Y31160491D01*
X52276608Y31160493D01*
X52173889Y31219798D01*
X52173890Y31219798D01*
X52160351Y31223426D01*
X52059309Y31250500D01*
X51940691Y31250500D01*
X51899669Y31239508D01*
X51826109Y31219798D01*
X51723391Y31160493D01*
X51639507Y31076609D01*
X51580202Y30973891D01*
X51570858Y30939018D01*
X51549500Y30859309D01*
X-997973Y30859309D01*
X-1019511Y30896613D01*
X-1054892Y30931994D01*
X-1059826Y30939018D01*
X-1066416Y30960454D01*
X-1076598Y30980439D01*
X-1075225Y30989112D01*
X-1077804Y30997503D01*
X-1070536Y31018718D01*
X-1067027Y31040871D01*
X-1062696Y31047733D01*
X-1062755Y31047767D01*
X-1000203Y31156110D01*
X-1000203Y31156112D01*
X-1000201Y31156114D01*
X-969500Y31270691D01*
X-969500Y31389309D01*
X-969500Y31394760D01*
X-950593Y31452951D01*
X-901093Y31488915D01*
X-839907Y31488915D01*
X-821000Y31480496D01*
X-733890Y31430203D01*
X-733889Y31430203D01*
X-733886Y31430201D01*
X-619309Y31399500D01*
X-619307Y31399500D01*
X-500693Y31399500D01*
X-500691Y31399500D01*
X-386114Y31430201D01*
X-386112Y31430203D01*
X-386110Y31430203D01*
X-283392Y31489508D01*
X-283392Y31489509D01*
X-283387Y31489511D01*
X-199511Y31573387D01*
X-141775Y31673387D01*
X-140203Y31676110D01*
X-140203Y31676112D01*
X-140201Y31676114D01*
X-109500Y31790691D01*
X-109500Y31909309D01*
X-140201Y32023886D01*
X-199511Y32126613D01*
X-212207Y32139309D01*
X179500Y32139309D01*
X179500Y32020691D01*
X191877Y31974500D01*
X210202Y31906110D01*
X269507Y31803392D01*
X269509Y31803390D01*
X269511Y31803387D01*
X353387Y31719511D01*
X353389Y31719510D01*
X353391Y31719508D01*
X456110Y31660203D01*
X456111Y31660203D01*
X456114Y31660201D01*
X570691Y31629500D01*
X570693Y31629500D01*
X689307Y31629500D01*
X689309Y31629500D01*
X803886Y31660201D01*
X803888Y31660203D01*
X803890Y31660203D01*
X906608Y31719508D01*
X906608Y31719509D01*
X906613Y31719511D01*
X990489Y31803387D01*
X999792Y31819500D01*
X1049797Y31906110D01*
X1049797Y31906112D01*
X1049799Y31906114D01*
X1080500Y32020691D01*
X1080500Y32139309D01*
X1049799Y32253886D01*
X1049797Y32253889D01*
X1049797Y32253891D01*
X990492Y32356609D01*
X990490Y32356611D01*
X990489Y32356613D01*
X906613Y32440489D01*
X906610Y32440491D01*
X906608Y32440493D01*
X874018Y32459309D01*
X6249500Y32459309D01*
X6249500Y32340691D01*
X6276574Y32239649D01*
X6280202Y32226110D01*
X6339507Y32123392D01*
X6339509Y32123390D01*
X6339511Y32123387D01*
X6423387Y32039511D01*
X6423389Y32039510D01*
X6423391Y32039508D01*
X6526110Y31980203D01*
X6526111Y31980203D01*
X6526114Y31980201D01*
X6640691Y31949500D01*
X6640693Y31949500D01*
X6759307Y31949500D01*
X6759309Y31949500D01*
X6873886Y31980201D01*
X6873888Y31980203D01*
X6873890Y31980203D01*
X6976608Y32039508D01*
X6976608Y32039509D01*
X6976613Y32039511D01*
X7060489Y32123387D01*
X7110780Y32210493D01*
X7119797Y32226110D01*
X7119797Y32226112D01*
X7119799Y32226114D01*
X7150500Y32340691D01*
X7150500Y32459309D01*
X7119799Y32573886D01*
X7119797Y32573889D01*
X7119797Y32573891D01*
X7060492Y32676609D01*
X7060490Y32676611D01*
X7060489Y32676613D01*
X6976613Y32760489D01*
X6976610Y32760491D01*
X6976608Y32760493D01*
X6873889Y32819798D01*
X6873890Y32819798D01*
X6850318Y32826114D01*
X6759309Y32850500D01*
X6640691Y32850500D01*
X6599669Y32839508D01*
X6526109Y32819798D01*
X6423391Y32760493D01*
X6339507Y32676609D01*
X6280202Y32573891D01*
X6280201Y32573886D01*
X6249500Y32459309D01*
X874018Y32459309D01*
X803889Y32499798D01*
X803890Y32499798D01*
X780318Y32506114D01*
X689309Y32530500D01*
X570691Y32530500D01*
X500567Y32511711D01*
X456109Y32499798D01*
X353391Y32440493D01*
X269507Y32356609D01*
X210202Y32253891D01*
X210201Y32253886D01*
X179500Y32139309D01*
X-212207Y32139309D01*
X-283387Y32210489D01*
X-283390Y32210491D01*
X-283392Y32210493D01*
X-386111Y32269798D01*
X-386110Y32269798D01*
X-399649Y32273426D01*
X-500691Y32300500D01*
X-619309Y32300500D01*
X-689433Y32281711D01*
X-733891Y32269798D01*
X-836609Y32210493D01*
X-920493Y32126609D01*
X-979798Y32023891D01*
X-993032Y31974500D01*
X-1010446Y31909508D01*
X-1010500Y31909308D01*
X-1010500Y31785241D01*
X-1029407Y31727050D01*
X-1078907Y31691086D01*
X-1140093Y31691086D01*
X-1159000Y31699504D01*
X-1246113Y31749799D01*
X-1284307Y31760033D01*
X-1360691Y31780500D01*
X-1479309Y31780500D01*
X-1549433Y31761711D01*
X-1593891Y31749798D01*
X-1696609Y31690493D01*
X-1780493Y31606609D01*
X-1839798Y31503891D01*
X-1853447Y31452951D01*
X-1870500Y31389309D01*
X-22000000Y31389309D01*
X-22000000Y32329309D01*
X-8475500Y32329309D01*
X-8475500Y32210691D01*
X-8452108Y32123392D01*
X-8444798Y32096110D01*
X-8385493Y31993392D01*
X-8385491Y31993390D01*
X-8385489Y31993387D01*
X-8301613Y31909511D01*
X-8301611Y31909510D01*
X-8301609Y31909508D01*
X-8198890Y31850203D01*
X-8198889Y31850203D01*
X-8198886Y31850201D01*
X-8084309Y31819500D01*
X-8084307Y31819500D01*
X-7965693Y31819500D01*
X-7965691Y31819500D01*
X-7851114Y31850201D01*
X-7851112Y31850203D01*
X-7851110Y31850203D01*
X-7748392Y31909508D01*
X-7748392Y31909509D01*
X-7748387Y31909511D01*
X-7664511Y31993387D01*
X-7646902Y32023886D01*
X-7605203Y32096110D01*
X-7605203Y32096112D01*
X-7605201Y32096114D01*
X-7574500Y32210691D01*
X-7574500Y32329309D01*
X-7605201Y32443886D01*
X-7605203Y32443889D01*
X-7605203Y32443891D01*
X-7664508Y32546609D01*
X-7664510Y32546611D01*
X-7664511Y32546613D01*
X-7748387Y32630489D01*
X-7748390Y32630491D01*
X-7748392Y32630493D01*
X-7799607Y32660062D01*
X-7851111Y32689798D01*
X-7851110Y32689798D01*
X-7864649Y32693426D01*
X-7965691Y32720500D01*
X-8084309Y32720500D01*
X-8154433Y32701711D01*
X-8198891Y32689798D01*
X-8301609Y32630493D01*
X-8385493Y32546609D01*
X-8444798Y32443891D01*
X-8455651Y32403387D01*
X-8475500Y32329309D01*
X-22000000Y32329309D01*
X-22000000Y32739309D01*
X-6270500Y32739309D01*
X-6270500Y32620691D01*
X-6252897Y32554996D01*
X-6239798Y32506110D01*
X-6180493Y32403392D01*
X-6180488Y32403386D01*
X-6147106Y32370003D01*
X-6119329Y32315486D01*
X-6128901Y32255054D01*
X-6147102Y32230001D01*
X-6150487Y32226617D01*
X-6150493Y32226609D01*
X-6209798Y32123891D01*
X-6217241Y32096114D01*
X-6240500Y32009309D01*
X-6240500Y31890691D01*
X-6221424Y31819500D01*
X-6209798Y31776110D01*
X-6150493Y31673392D01*
X-6150491Y31673390D01*
X-6150489Y31673387D01*
X-6066613Y31589511D01*
X-6066611Y31589510D01*
X-6066609Y31589508D01*
X-5963890Y31530203D01*
X-5963889Y31530203D01*
X-5963886Y31530201D01*
X-5849309Y31499500D01*
X-5849307Y31499500D01*
X-5730693Y31499500D01*
X-5730691Y31499500D01*
X-5616114Y31530201D01*
X-5616112Y31530203D01*
X-5616110Y31530203D01*
X-5513392Y31589508D01*
X-5513392Y31589509D01*
X-5513387Y31589511D01*
X-5429511Y31673387D01*
X-5427939Y31676110D01*
X-5370203Y31776110D01*
X-5370203Y31776112D01*
X-5370201Y31776114D01*
X-5339500Y31890691D01*
X-5339500Y32009309D01*
X-5370201Y32123886D01*
X-5370203Y32123889D01*
X-5370203Y32123891D01*
X-5429508Y32226609D01*
X-5429510Y32226611D01*
X-5429511Y32226613D01*
X-5462898Y32260000D01*
X-5490673Y32314514D01*
X-5481102Y32374946D01*
X-5462893Y32400006D01*
X-5459511Y32403387D01*
X-5459508Y32403392D01*
X-5400203Y32506110D01*
X-5400203Y32506112D01*
X-5400201Y32506114D01*
X-5369500Y32620691D01*
X-5369500Y32739309D01*
X-5400201Y32853886D01*
X-5400203Y32853889D01*
X-5400203Y32853891D01*
X-5459508Y32956609D01*
X-5459510Y32956611D01*
X-5459511Y32956613D01*
X-5543387Y33040489D01*
X-5543390Y33040491D01*
X-5543392Y33040493D01*
X-5646111Y33099798D01*
X-5646110Y33099798D01*
X-5659649Y33103426D01*
X-5760691Y33130500D01*
X-5879309Y33130500D01*
X-5949433Y33111711D01*
X-5993891Y33099798D01*
X-6096609Y33040493D01*
X-6180493Y32956609D01*
X-6239798Y32853891D01*
X-6243651Y32839511D01*
X-6270500Y32739309D01*
X-22000000Y32739309D01*
X-22000000Y33569309D01*
X-4290500Y33569309D01*
X-4290500Y33450691D01*
X-4282222Y33419799D01*
X-4259798Y33336110D01*
X-4200493Y33233392D01*
X-4200491Y33233390D01*
X-4200489Y33233387D01*
X-4116613Y33149511D01*
X-4116611Y33149510D01*
X-4116609Y33149508D01*
X-4013890Y33090203D01*
X-4013889Y33090203D01*
X-4013886Y33090201D01*
X-3899309Y33059500D01*
X-3899307Y33059500D01*
X-3780693Y33059500D01*
X-3780691Y33059500D01*
X-3666114Y33090201D01*
X-3666112Y33090203D01*
X-3666110Y33090203D01*
X-3563392Y33149508D01*
X-3563392Y33149509D01*
X-3563387Y33149511D01*
X-3479511Y33233387D01*
X-3464545Y33259309D01*
X-3420203Y33336110D01*
X-3420203Y33336112D01*
X-3420201Y33336114D01*
X-3389500Y33450691D01*
X-3389500Y33569309D01*
X-3420201Y33683886D01*
X-3420203Y33683889D01*
X-3420203Y33683891D01*
X-3479508Y33786609D01*
X-3479510Y33786611D01*
X-3479511Y33786613D01*
X-3563387Y33870489D01*
X-3563390Y33870491D01*
X-3563392Y33870493D01*
X-3666111Y33929798D01*
X-3666110Y33929798D01*
X-3679649Y33933426D01*
X-3780691Y33960500D01*
X-3899309Y33960500D01*
X-3969433Y33941711D01*
X-4013891Y33929798D01*
X-4116609Y33870493D01*
X-4200493Y33786609D01*
X-4259798Y33683891D01*
X-4259799Y33683886D01*
X-4290500Y33569309D01*
X-22000000Y33569309D01*
X-22000000Y34109720D01*
X-21981093Y34167911D01*
X-21931593Y34203875D01*
X-21870407Y34203875D01*
X-21820907Y34167911D01*
X-21815264Y34159220D01*
X-21754164Y34053392D01*
X-21754162Y34053390D01*
X-21754160Y34053387D01*
X-21670284Y33969511D01*
X-21670282Y33969510D01*
X-21670280Y33969508D01*
X-21567561Y33910203D01*
X-21567560Y33910203D01*
X-21567557Y33910201D01*
X-21452980Y33879500D01*
X-21452978Y33879500D01*
X-21334364Y33879500D01*
X-21334362Y33879500D01*
X-21219785Y33910201D01*
X-21219783Y33910203D01*
X-21219781Y33910203D01*
X-21117063Y33969508D01*
X-21117063Y33969509D01*
X-21117058Y33969511D01*
X-21033182Y34053387D01*
X-21029763Y34059309D01*
X-21000895Y34109309D01*
X-5820500Y34109309D01*
X-5820500Y33990691D01*
X-5798933Y33910203D01*
X-5789798Y33876110D01*
X-5730493Y33773392D01*
X-5730491Y33773390D01*
X-5730489Y33773387D01*
X-5646613Y33689511D01*
X-5646611Y33689510D01*
X-5646609Y33689508D01*
X-5543890Y33630203D01*
X-5543889Y33630203D01*
X-5543886Y33630201D01*
X-5429309Y33599500D01*
X-5429307Y33599500D01*
X-5310693Y33599500D01*
X-5310691Y33599500D01*
X-5196114Y33630201D01*
X-5093387Y33689511D01*
X-5009511Y33773387D01*
X-4979069Y33826114D01*
X-4950203Y33876110D01*
X-4950203Y33876112D01*
X-4950201Y33876114D01*
X-4919500Y33990691D01*
X-4919500Y34059309D01*
X3819500Y34059309D01*
X3819500Y33940691D01*
X3836805Y33876110D01*
X3850202Y33826110D01*
X3909507Y33723392D01*
X3909509Y33723390D01*
X3909511Y33723387D01*
X3993387Y33639511D01*
X3993389Y33639510D01*
X3993391Y33639508D01*
X4096110Y33580203D01*
X4096111Y33580203D01*
X4096114Y33580201D01*
X4210691Y33549500D01*
X4210693Y33549500D01*
X4329307Y33549500D01*
X4329309Y33549500D01*
X4443886Y33580201D01*
X4443888Y33580203D01*
X4443890Y33580203D01*
X4546608Y33639508D01*
X4546608Y33639509D01*
X4546613Y33639511D01*
X4630489Y33723387D01*
X4689799Y33826114D01*
X4720500Y33940691D01*
X4720500Y34059309D01*
X8249500Y34059309D01*
X8249500Y33940691D01*
X8266805Y33876110D01*
X8280202Y33826110D01*
X8339507Y33723392D01*
X8339509Y33723390D01*
X8339511Y33723387D01*
X8423387Y33639511D01*
X8423389Y33639510D01*
X8423391Y33639508D01*
X8526110Y33580203D01*
X8526111Y33580203D01*
X8526114Y33580201D01*
X8640691Y33549500D01*
X8640693Y33549500D01*
X8759307Y33549500D01*
X8759309Y33549500D01*
X8873886Y33580201D01*
X8873888Y33580203D01*
X8873890Y33580203D01*
X8976608Y33639508D01*
X8976608Y33639509D01*
X8976613Y33639511D01*
X9060489Y33723387D01*
X9119799Y33826114D01*
X9150500Y33940691D01*
X9150500Y34059309D01*
X9119799Y34173886D01*
X9119797Y34173889D01*
X9119797Y34173891D01*
X9060492Y34276609D01*
X9060490Y34276611D01*
X9060489Y34276613D01*
X8976613Y34360489D01*
X8976610Y34360491D01*
X8976608Y34360493D01*
X8873889Y34419798D01*
X8873890Y34419798D01*
X8860351Y34423426D01*
X8759309Y34450500D01*
X8640691Y34450500D01*
X8570567Y34431711D01*
X8526109Y34419798D01*
X8423391Y34360493D01*
X8339507Y34276609D01*
X8280202Y34173891D01*
X8280201Y34173886D01*
X8249500Y34059309D01*
X4720500Y34059309D01*
X4689799Y34173886D01*
X4689797Y34173889D01*
X4689797Y34173891D01*
X4630492Y34276609D01*
X4630490Y34276611D01*
X4630489Y34276613D01*
X4546613Y34360489D01*
X4546610Y34360491D01*
X4546608Y34360493D01*
X4443889Y34419798D01*
X4443890Y34419798D01*
X4430351Y34423426D01*
X4329309Y34450500D01*
X4210691Y34450500D01*
X4140567Y34431711D01*
X4096109Y34419798D01*
X3993391Y34360493D01*
X3909507Y34276609D01*
X3850202Y34173891D01*
X3850201Y34173886D01*
X3819500Y34059309D01*
X-4919500Y34059309D01*
X-4919500Y34109309D01*
X-4950201Y34223886D01*
X-4950203Y34223889D01*
X-4950203Y34223891D01*
X-5009508Y34326609D01*
X-5009510Y34326611D01*
X-5009511Y34326613D01*
X-5093387Y34410489D01*
X-5093390Y34410491D01*
X-5093392Y34410493D01*
X-5196111Y34469798D01*
X-5196110Y34469798D01*
X-5209649Y34473426D01*
X-5310691Y34500500D01*
X-5429309Y34500500D01*
X-5499433Y34481711D01*
X-5543891Y34469798D01*
X-5646609Y34410493D01*
X-5730493Y34326609D01*
X-5789798Y34223891D01*
X-5789799Y34223886D01*
X-5820500Y34109309D01*
X-21000895Y34109309D01*
X-20973874Y34156110D01*
X-20973874Y34156112D01*
X-20973872Y34156114D01*
X-20943171Y34270691D01*
X-20943171Y34389309D01*
X-20973872Y34503886D01*
X-20973874Y34503889D01*
X-20973874Y34503891D01*
X-21029652Y34600500D01*
X-21042374Y34660348D01*
X-21029652Y34699500D01*
X-20973874Y34796110D01*
X-20973874Y34796112D01*
X-20973872Y34796114D01*
X-20948968Y34889057D01*
X-8625500Y34889057D01*
X-8625500Y34730943D01*
X-8584577Y34578216D01*
X-8505520Y34441284D01*
X-8393716Y34329480D01*
X-8256784Y34250423D01*
X-8104057Y34209500D01*
X-8104055Y34209500D01*
X-7945946Y34209500D01*
X-7945943Y34209500D01*
X-7793216Y34250423D01*
X-7656284Y34329480D01*
X-7544480Y34441284D01*
X-7465423Y34578216D01*
X-7424500Y34730943D01*
X-7424500Y34889057D01*
X-7465423Y35041784D01*
X-7544480Y35178716D01*
X-7656284Y35290520D01*
X-7793216Y35369577D01*
X-7945943Y35410500D01*
X-8104057Y35410500D01*
X-8256784Y35369577D01*
X-8393716Y35290520D01*
X-8505520Y35178716D01*
X-8584577Y35041784D01*
X-8625500Y34889057D01*
X-20948968Y34889057D01*
X-20943171Y34910691D01*
X-20943171Y35029309D01*
X-20973872Y35143886D01*
X-20973874Y35143889D01*
X-20973874Y35143891D01*
X-21033179Y35246609D01*
X-21033181Y35246611D01*
X-21033182Y35246613D01*
X-21117058Y35330489D01*
X-21117061Y35330491D01*
X-21117063Y35330493D01*
X-21219782Y35389798D01*
X-21219781Y35389798D01*
X-21233320Y35393426D01*
X-21334362Y35420500D01*
X-21452980Y35420500D01*
X-21523104Y35401711D01*
X-21567562Y35389798D01*
X-21670280Y35330493D01*
X-21754162Y35246611D01*
X-21815264Y35140780D01*
X-21860734Y35099840D01*
X-21921584Y35093445D01*
X-21974572Y35124038D01*
X-21999458Y35179933D01*
X-22000000Y35190281D01*
X-22000000Y35930910D01*
X1490361Y35930910D01*
X1490361Y35812292D01*
X1517435Y35711250D01*
X1521063Y35697711D01*
X1580368Y35594993D01*
X1580370Y35594991D01*
X1580372Y35594988D01*
X1664248Y35511112D01*
X1664250Y35511111D01*
X1664252Y35511109D01*
X1766971Y35451804D01*
X1766972Y35451804D01*
X1766975Y35451802D01*
X1881552Y35421101D01*
X1881554Y35421101D01*
X2000168Y35421101D01*
X2000170Y35421101D01*
X2114747Y35451802D01*
X2114749Y35451804D01*
X2114751Y35451804D01*
X2217469Y35511109D01*
X2217469Y35511110D01*
X2217474Y35511112D01*
X2301350Y35594988D01*
X2360660Y35697715D01*
X2391361Y35812292D01*
X2391361Y35930910D01*
X2360660Y36045487D01*
X2360658Y36045490D01*
X2360658Y36045492D01*
X2301353Y36148210D01*
X2301351Y36148212D01*
X2301350Y36148214D01*
X2217474Y36232090D01*
X2217471Y36232092D01*
X2217469Y36232094D01*
X2114750Y36291399D01*
X2114751Y36291399D01*
X2101212Y36295027D01*
X2000170Y36322101D01*
X1881552Y36322101D01*
X1811428Y36303312D01*
X1766970Y36291399D01*
X1664252Y36232094D01*
X1580368Y36148210D01*
X1521063Y36045492D01*
X1508874Y36000000D01*
X1490361Y35930910D01*
X-22000000Y35930910D01*
X-22000000Y36479309D01*
X8309500Y36479309D01*
X8309500Y36360691D01*
X8328067Y36291400D01*
X8340202Y36246110D01*
X8399507Y36143392D01*
X8399509Y36143390D01*
X8399511Y36143387D01*
X8477895Y36065003D01*
X8505671Y36010488D01*
X8496100Y35950056D01*
X8477895Y35924999D01*
X8419512Y35866615D01*
X8419507Y35866609D01*
X8360202Y35763891D01*
X8360201Y35763886D01*
X8329500Y35649309D01*
X8329500Y35530691D01*
X8334747Y35511109D01*
X8360202Y35416110D01*
X8419507Y35313392D01*
X8419509Y35313390D01*
X8419511Y35313387D01*
X8503387Y35229511D01*
X8503389Y35229510D01*
X8503391Y35229508D01*
X8606110Y35170203D01*
X8606111Y35170203D01*
X8606114Y35170201D01*
X8720691Y35139500D01*
X8720693Y35139500D01*
X8839307Y35139500D01*
X8839309Y35139500D01*
X8953886Y35170201D01*
X8953888Y35170203D01*
X8953890Y35170203D01*
X9056608Y35229508D01*
X9056608Y35229509D01*
X9056613Y35229511D01*
X9140489Y35313387D01*
X9146265Y35323391D01*
X9199797Y35416110D01*
X9199797Y35416112D01*
X9199799Y35416114D01*
X9230500Y35530691D01*
X9230500Y35649309D01*
X9199799Y35763886D01*
X9199797Y35763889D01*
X9199797Y35763891D01*
X9140492Y35866609D01*
X9140490Y35866611D01*
X9140489Y35866613D01*
X9062103Y35944999D01*
X9034328Y35999513D01*
X9043899Y36059945D01*
X9062102Y36085001D01*
X9120489Y36143387D01*
X9171702Y36232090D01*
X9179797Y36246110D01*
X9179797Y36246112D01*
X9179799Y36246114D01*
X9210500Y36360691D01*
X9210500Y36479309D01*
X9179799Y36593886D01*
X9179797Y36593889D01*
X9179797Y36593891D01*
X9120492Y36696609D01*
X9120490Y36696611D01*
X9120489Y36696613D01*
X9036613Y36780489D01*
X9036610Y36780491D01*
X9036608Y36780493D01*
X8933889Y36839798D01*
X8933890Y36839798D01*
X8920351Y36843426D01*
X8819309Y36870500D01*
X8700691Y36870500D01*
X8630567Y36851711D01*
X8586109Y36839798D01*
X8483391Y36780493D01*
X8399507Y36696609D01*
X8340202Y36593891D01*
X8340201Y36593886D01*
X8309500Y36479309D01*
X-22000000Y36479309D01*
X-22000000Y37634309D01*
X2524500Y37634309D01*
X2524500Y37515691D01*
X2551574Y37414649D01*
X2555202Y37401110D01*
X2614507Y37298392D01*
X2614509Y37298390D01*
X2614511Y37298387D01*
X2698387Y37214511D01*
X2698389Y37214510D01*
X2698391Y37214508D01*
X2801110Y37155203D01*
X2801111Y37155203D01*
X2801114Y37155201D01*
X2915691Y37124500D01*
X2915693Y37124500D01*
X3034307Y37124500D01*
X3034309Y37124500D01*
X3148886Y37155201D01*
X3148888Y37155203D01*
X3148890Y37155203D01*
X3251608Y37214508D01*
X3251608Y37214509D01*
X3251613Y37214511D01*
X3335489Y37298387D01*
X3394799Y37401114D01*
X3425500Y37515691D01*
X3425500Y37575500D01*
X3444407Y37633691D01*
X3493907Y37669655D01*
X3524500Y37674500D01*
X3584307Y37674500D01*
X3584309Y37674500D01*
X3698886Y37705201D01*
X3698888Y37705203D01*
X3698890Y37705203D01*
X3801608Y37764508D01*
X3801608Y37764509D01*
X3801613Y37764511D01*
X3885489Y37848387D01*
X3935780Y37935493D01*
X3944797Y37951110D01*
X3944797Y37951112D01*
X3944799Y37951114D01*
X3975500Y38065691D01*
X3975500Y38184309D01*
X3944799Y38298886D01*
X3944797Y38298889D01*
X3944797Y38298891D01*
X3885492Y38401609D01*
X3885490Y38401611D01*
X3885489Y38401613D01*
X3801613Y38485489D01*
X3801610Y38485491D01*
X3801608Y38485493D01*
X3698889Y38544798D01*
X3698890Y38544798D01*
X3685351Y38548426D01*
X3584309Y38575500D01*
X3465691Y38575500D01*
X3395567Y38556711D01*
X3351109Y38544798D01*
X3248391Y38485493D01*
X3164507Y38401609D01*
X3105202Y38298891D01*
X3074500Y38184308D01*
X3074500Y38124500D01*
X3055593Y38066309D01*
X3006093Y38030345D01*
X2975500Y38025500D01*
X2915691Y38025500D01*
X2845567Y38006711D01*
X2801109Y37994798D01*
X2698391Y37935493D01*
X2614507Y37851609D01*
X2555202Y37748891D01*
X2539211Y37689212D01*
X2524500Y37634309D01*
X-22000000Y37634309D01*
X-22000000Y38577741D01*
X1267932Y38577741D01*
X1267932Y38459123D01*
X1270243Y38450500D01*
X1298634Y38344542D01*
X1357939Y38241824D01*
X1357941Y38241822D01*
X1357943Y38241819D01*
X1441819Y38157943D01*
X1441821Y38157942D01*
X1441823Y38157940D01*
X1544542Y38098635D01*
X1544543Y38098635D01*
X1544546Y38098633D01*
X1659123Y38067932D01*
X1659125Y38067932D01*
X1777739Y38067932D01*
X1777741Y38067932D01*
X1892318Y38098633D01*
X1892320Y38098635D01*
X1892322Y38098635D01*
X1995040Y38157940D01*
X1995040Y38157941D01*
X1995045Y38157943D01*
X2078921Y38241819D01*
X2138231Y38344546D01*
X2168932Y38459123D01*
X2168932Y38577741D01*
X2138231Y38692318D01*
X2138229Y38692321D01*
X2138229Y38692323D01*
X2078924Y38795041D01*
X2078922Y38795043D01*
X2078921Y38795045D01*
X1995045Y38878921D01*
X1976339Y38889721D01*
X1935399Y38935190D01*
X1929003Y38996040D01*
X1959596Y39049028D01*
X2000213Y39071083D01*
X2108886Y39100201D01*
X2108888Y39100203D01*
X2108890Y39100203D01*
X2211608Y39159508D01*
X2211608Y39159509D01*
X2211613Y39159511D01*
X2295489Y39243387D01*
X2354799Y39346114D01*
X2385500Y39460691D01*
X2385500Y39579309D01*
X2361384Y39669309D01*
X6109500Y39669309D01*
X6109500Y39550691D01*
X6133615Y39460693D01*
X6140202Y39436110D01*
X6199507Y39333392D01*
X6199509Y39333390D01*
X6199511Y39333387D01*
X6283387Y39249511D01*
X6283389Y39249510D01*
X6283391Y39249508D01*
X6386110Y39190203D01*
X6386111Y39190203D01*
X6386114Y39190201D01*
X6500691Y39159500D01*
X6500693Y39159500D01*
X6619307Y39159500D01*
X6619309Y39159500D01*
X6733886Y39190201D01*
X6733888Y39190203D01*
X6733890Y39190203D01*
X6836608Y39249508D01*
X6836608Y39249509D01*
X6836613Y39249511D01*
X6920489Y39333387D01*
X6927837Y39346114D01*
X6979797Y39436110D01*
X6979797Y39436112D01*
X6979799Y39436114D01*
X7010500Y39550691D01*
X7010500Y39669309D01*
X6979799Y39783886D01*
X6979797Y39783889D01*
X6979797Y39783891D01*
X6920492Y39886609D01*
X6920490Y39886611D01*
X6920489Y39886613D01*
X6836613Y39970489D01*
X6836610Y39970491D01*
X6836608Y39970493D01*
X6733889Y40029798D01*
X6733890Y40029798D01*
X6720351Y40033426D01*
X6619309Y40060500D01*
X6500691Y40060500D01*
X6430567Y40041711D01*
X6386109Y40029798D01*
X6283391Y39970493D01*
X6199507Y39886609D01*
X6140202Y39783891D01*
X6128311Y39739511D01*
X6109500Y39669309D01*
X2361384Y39669309D01*
X2354799Y39693886D01*
X2354797Y39693889D01*
X2354797Y39693891D01*
X2295492Y39796609D01*
X2295490Y39796611D01*
X2295489Y39796613D01*
X2211613Y39880489D01*
X2211610Y39880491D01*
X2211608Y39880493D01*
X2108889Y39939798D01*
X2108890Y39939798D01*
X2095351Y39943426D01*
X1994309Y39970500D01*
X1875691Y39970500D01*
X1805567Y39951711D01*
X1761109Y39939798D01*
X1658391Y39880493D01*
X1574507Y39796609D01*
X1515202Y39693891D01*
X1503308Y39649500D01*
X1484500Y39579309D01*
X1484500Y39460691D01*
X1503627Y39389309D01*
X1515202Y39346110D01*
X1574507Y39243392D01*
X1574509Y39243390D01*
X1574511Y39243387D01*
X1658387Y39159511D01*
X1658389Y39159510D01*
X1677090Y39148713D01*
X1718031Y39103244D01*
X1724428Y39042394D01*
X1693836Y38989406D01*
X1653215Y38967350D01*
X1544546Y38938232D01*
X1544542Y38938230D01*
X1441823Y38878925D01*
X1357939Y38795041D01*
X1298634Y38692323D01*
X1298633Y38692318D01*
X1267932Y38577741D01*
X-22000000Y38577741D01*
X-22000000Y39389309D01*
X-21240500Y39389309D01*
X-21240500Y39270691D01*
X-21217836Y39186110D01*
X-21209798Y39156110D01*
X-21150493Y39053392D01*
X-21150491Y39053390D01*
X-21150489Y39053387D01*
X-21066613Y38969511D01*
X-21066611Y38969510D01*
X-21066609Y38969508D01*
X-20963890Y38910203D01*
X-20963889Y38910203D01*
X-20963886Y38910201D01*
X-20849309Y38879500D01*
X-20849307Y38879500D01*
X-20730693Y38879500D01*
X-20730691Y38879500D01*
X-20616114Y38910201D01*
X-20616112Y38910203D01*
X-20616110Y38910203D01*
X-20513392Y38969508D01*
X-20513392Y38969509D01*
X-20513387Y38969511D01*
X-20429511Y39053387D01*
X-20420208Y39069500D01*
X-20370203Y39156110D01*
X-20370203Y39156112D01*
X-20370201Y39156114D01*
X-20339500Y39270691D01*
X-20339500Y39389309D01*
X-20347539Y39419309D01*
X-20000500Y39419309D01*
X-20000500Y39300691D01*
X-19985145Y39243387D01*
X-19969798Y39186110D01*
X-19910493Y39083392D01*
X-19910491Y39083390D01*
X-19910489Y39083387D01*
X-19826613Y38999511D01*
X-19826611Y38999510D01*
X-19826609Y38999508D01*
X-19723890Y38940203D01*
X-19723889Y38940203D01*
X-19723886Y38940201D01*
X-19609309Y38909500D01*
X-19609307Y38909500D01*
X-19490693Y38909500D01*
X-19490691Y38909500D01*
X-19376114Y38940201D01*
X-19376112Y38940203D01*
X-19376110Y38940203D01*
X-19273392Y38999508D01*
X-19273392Y38999509D01*
X-19273387Y38999511D01*
X-19189511Y39083387D01*
X-19178046Y39103244D01*
X-19130203Y39186110D01*
X-19130203Y39186112D01*
X-19130201Y39186114D01*
X-19099500Y39300691D01*
X-19099500Y39419309D01*
X-19130201Y39533886D01*
X-19130203Y39533889D01*
X-19130203Y39533891D01*
X-19189508Y39636609D01*
X-19189510Y39636611D01*
X-19189511Y39636613D01*
X-19273387Y39720489D01*
X-19273390Y39720491D01*
X-19273392Y39720493D01*
X-19376111Y39779798D01*
X-19376110Y39779798D01*
X-19420070Y39791577D01*
X-19490691Y39810500D01*
X-19609309Y39810500D01*
X-19674250Y39793099D01*
X-19723891Y39779798D01*
X-19826609Y39720493D01*
X-19910493Y39636609D01*
X-19969798Y39533891D01*
X-19969799Y39533886D01*
X-20000500Y39419309D01*
X-20347539Y39419309D01*
X-20370201Y39503886D01*
X-20370203Y39503889D01*
X-20370203Y39503891D01*
X-20429508Y39606609D01*
X-20429510Y39606611D01*
X-20429511Y39606613D01*
X-20513387Y39690489D01*
X-20513390Y39690491D01*
X-20513392Y39690493D01*
X-20616111Y39749798D01*
X-20616110Y39749798D01*
X-20629777Y39753460D01*
X-20730691Y39780500D01*
X-20849309Y39780500D01*
X-20904274Y39765772D01*
X-20963891Y39749798D01*
X-21066609Y39690493D01*
X-21150493Y39606609D01*
X-21209798Y39503891D01*
X-21209799Y39503886D01*
X-21240500Y39389309D01*
X-22000000Y39389309D01*
X-22000000Y39874256D01*
X-21981093Y39932447D01*
X-21931593Y39968411D01*
X-21875379Y39969883D01*
X-21799309Y39949500D01*
X-21799307Y39949500D01*
X-21680693Y39949500D01*
X-21680691Y39949500D01*
X-21566114Y39980201D01*
X-21566112Y39980203D01*
X-21566110Y39980203D01*
X-21463392Y40039508D01*
X-21463392Y40039509D01*
X-21463387Y40039511D01*
X-21379511Y40123387D01*
X-21324130Y40219309D01*
X-18450500Y40219309D01*
X-18450500Y40100691D01*
X-18434107Y40039511D01*
X-18419798Y39986110D01*
X-18360493Y39883392D01*
X-18360491Y39883390D01*
X-18360489Y39883387D01*
X-18276613Y39799511D01*
X-18276611Y39799510D01*
X-18276609Y39799508D01*
X-18173890Y39740203D01*
X-18173889Y39740203D01*
X-18173886Y39740201D01*
X-18059309Y39709500D01*
X-18059307Y39709500D01*
X-17940693Y39709500D01*
X-17940691Y39709500D01*
X-17826114Y39740201D01*
X-17759164Y39778856D01*
X-17699315Y39791577D01*
X-17643420Y39766691D01*
X-17639679Y39763142D01*
X-17626531Y39749994D01*
X-17626529Y39749993D01*
X-17626527Y39749991D01*
X-17523808Y39690686D01*
X-17523807Y39690686D01*
X-17523804Y39690684D01*
X-17409227Y39659983D01*
X-17409225Y39659983D01*
X-17290611Y39659983D01*
X-17290609Y39659983D01*
X-17176032Y39690684D01*
X-17083212Y39744275D01*
X-17023365Y39756996D01*
X-16983253Y39740990D01*
X-16982233Y39742755D01*
X-16873890Y39680203D01*
X-16873889Y39680203D01*
X-16873886Y39680201D01*
X-16759309Y39649500D01*
X-16759307Y39649500D01*
X-16640693Y39649500D01*
X-16640691Y39649500D01*
X-16526114Y39680201D01*
X-16526112Y39680203D01*
X-16526110Y39680203D01*
X-16417767Y39742755D01*
X-16416472Y39740511D01*
X-16369236Y39757254D01*
X-16317113Y39744025D01*
X-16223890Y39690203D01*
X-16223889Y39690203D01*
X-16223886Y39690201D01*
X-16109309Y39659500D01*
X-16109307Y39659500D01*
X-15990693Y39659500D01*
X-15990691Y39659500D01*
X-15876114Y39690201D01*
X-15876112Y39690203D01*
X-15876110Y39690203D01*
X-15773392Y39749508D01*
X-15773392Y39749509D01*
X-15773387Y39749511D01*
X-15773384Y39749515D01*
X-15768241Y39753460D01*
X-15766979Y39751815D01*
X-15720844Y39775332D01*
X-15660410Y39765772D01*
X-15655854Y39763300D01*
X-15563886Y39710201D01*
X-15449309Y39679500D01*
X-15449307Y39679500D01*
X-15330693Y39679500D01*
X-15330691Y39679500D01*
X-15216114Y39710201D01*
X-15216112Y39710203D01*
X-15216110Y39710203D01*
X-15164153Y39740201D01*
X-15113387Y39769511D01*
X-15113381Y39769518D01*
X-15110603Y39771648D01*
X-15108226Y39772491D01*
X-15107767Y39772755D01*
X-15107718Y39772671D01*
X-15052930Y39792079D01*
X-15000827Y39778849D01*
X-14933890Y39740203D01*
X-14933889Y39740203D01*
X-14933886Y39740201D01*
X-14819309Y39709500D01*
X-14819307Y39709500D01*
X-14700693Y39709500D01*
X-14700691Y39709500D01*
X-14586114Y39740201D01*
X-14586112Y39740203D01*
X-14586110Y39740203D01*
X-14483392Y39799508D01*
X-14483392Y39799509D01*
X-14483387Y39799511D01*
X-14399511Y39883387D01*
X-14343615Y39980201D01*
X-14340203Y39986110D01*
X-14340203Y39986112D01*
X-14340201Y39986114D01*
X-14309500Y40100691D01*
X-14309500Y40219309D01*
X-14340201Y40333886D01*
X-14340203Y40333889D01*
X-14340203Y40333891D01*
X-14399508Y40436609D01*
X-14399510Y40436611D01*
X-14399511Y40436613D01*
X-14422207Y40459309D01*
X4399500Y40459309D01*
X4399500Y40340691D01*
X4423419Y40251423D01*
X4430202Y40226110D01*
X4489507Y40123392D01*
X4489509Y40123390D01*
X4489511Y40123387D01*
X4573387Y40039511D01*
X4573389Y40039510D01*
X4573391Y40039508D01*
X4676110Y39980203D01*
X4676111Y39980203D01*
X4676114Y39980201D01*
X4790691Y39949500D01*
X4790693Y39949500D01*
X4909307Y39949500D01*
X4909309Y39949500D01*
X5023886Y39980201D01*
X5023888Y39980203D01*
X5023890Y39980203D01*
X5126608Y40039508D01*
X5126608Y40039509D01*
X5126613Y40039511D01*
X5210489Y40123387D01*
X5269799Y40226114D01*
X5300500Y40340691D01*
X5300500Y40459309D01*
X5269799Y40573886D01*
X5269797Y40573889D01*
X5269797Y40573891D01*
X5267315Y40579884D01*
X5269193Y40580662D01*
X5258392Y40631441D01*
X5283270Y40687340D01*
X5307349Y40706843D01*
X5346613Y40729511D01*
X5430489Y40813387D01*
X5430492Y40813392D01*
X5489797Y40916110D01*
X5489797Y40916112D01*
X5489799Y40916114D01*
X5520500Y41030691D01*
X5520500Y41149309D01*
X5489799Y41263886D01*
X5489797Y41263889D01*
X5489797Y41263891D01*
X5430492Y41366609D01*
X5430490Y41366611D01*
X5430489Y41366613D01*
X5346613Y41450489D01*
X5346610Y41450491D01*
X5346608Y41450493D01*
X5243889Y41509798D01*
X5243890Y41509798D01*
X5230351Y41513426D01*
X5129309Y41540500D01*
X5010691Y41540500D01*
X4940567Y41521711D01*
X4896109Y41509798D01*
X4793391Y41450493D01*
X4709507Y41366609D01*
X4650202Y41263891D01*
X4637534Y41216613D01*
X4619500Y41149309D01*
X4619500Y41030691D01*
X4627909Y40999309D01*
X4650202Y40916110D01*
X4652685Y40910116D01*
X4650808Y40909339D01*
X4661606Y40858551D01*
X4636723Y40802654D01*
X4612649Y40783158D01*
X4573389Y40760491D01*
X4489507Y40676609D01*
X4430202Y40573891D01*
X4415894Y40520493D01*
X4399500Y40459309D01*
X-14422207Y40459309D01*
X-14483387Y40520489D01*
X-14483390Y40520491D01*
X-14483392Y40520493D01*
X-14586111Y40579798D01*
X-14586110Y40579798D01*
X-14599649Y40583426D01*
X-14700691Y40610500D01*
X-14819309Y40610500D01*
X-14889433Y40591711D01*
X-14933891Y40579798D01*
X-15036611Y40520492D01*
X-15039409Y40518344D01*
X-15041790Y40517502D01*
X-15042233Y40517245D01*
X-15042281Y40517328D01*
X-15097085Y40497922D01*
X-15149174Y40511152D01*
X-15216111Y40549798D01*
X-15216110Y40549798D01*
X-15229649Y40553426D01*
X-15330691Y40580500D01*
X-15449309Y40580500D01*
X-15519433Y40561711D01*
X-15563891Y40549798D01*
X-15666609Y40490493D01*
X-15671759Y40486540D01*
X-15673018Y40488181D01*
X-15719195Y40464663D01*
X-15779625Y40474246D01*
X-15784164Y40476711D01*
X-15787968Y40478907D01*
X-15854815Y40517502D01*
X-15876112Y40529798D01*
X-15876113Y40529799D01*
X-15876114Y40529799D01*
X-15990691Y40560500D01*
X-16109309Y40560500D01*
X-16179433Y40541711D01*
X-16223891Y40529798D01*
X-16332233Y40467245D01*
X-16333523Y40469480D01*
X-16380831Y40452745D01*
X-16432888Y40465975D01*
X-16526113Y40519799D01*
X-16565237Y40530282D01*
X-16640691Y40550500D01*
X-16759309Y40550500D01*
X-16829433Y40531711D01*
X-16873891Y40519798D01*
X-16966706Y40466210D01*
X-17026554Y40453488D01*
X-17066669Y40469489D01*
X-17067685Y40467728D01*
X-17176029Y40530281D01*
X-17176028Y40530281D01*
X-17189567Y40533909D01*
X-17290609Y40560983D01*
X-17409227Y40560983D01*
X-17466516Y40545633D01*
X-17523806Y40530282D01*
X-17590755Y40491628D01*
X-17650604Y40478907D01*
X-17706499Y40503794D01*
X-17710257Y40507359D01*
X-17714050Y40511152D01*
X-17723387Y40520489D01*
X-17723390Y40520491D01*
X-17723392Y40520493D01*
X-17826111Y40579798D01*
X-17826110Y40579798D01*
X-17839649Y40583426D01*
X-17940691Y40610500D01*
X-18059309Y40610500D01*
X-18129433Y40591711D01*
X-18173891Y40579798D01*
X-18276609Y40520493D01*
X-18360493Y40436609D01*
X-18419798Y40333891D01*
X-18419799Y40333886D01*
X-18450500Y40219309D01*
X-21324130Y40219309D01*
X-21320201Y40226114D01*
X-21289500Y40340691D01*
X-21289500Y40459309D01*
X-21320201Y40573886D01*
X-21320203Y40573889D01*
X-21320203Y40573891D01*
X-21379508Y40676609D01*
X-21379510Y40676611D01*
X-21379511Y40676613D01*
X-21463387Y40760489D01*
X-21463390Y40760491D01*
X-21463392Y40760493D01*
X-21566111Y40819798D01*
X-21566110Y40819798D01*
X-21579649Y40823426D01*
X-21680691Y40850500D01*
X-21799309Y40850500D01*
X-21819328Y40845136D01*
X-21875378Y40830118D01*
X-21936479Y40833321D01*
X-21984029Y40871827D01*
X-22000000Y40925745D01*
X-22000000Y41193502D01*
X-21981093Y41251693D01*
X-21931593Y41287657D01*
X-21870407Y41287657D01*
X-21851501Y41279239D01*
X-21783886Y41240201D01*
X-21669309Y41209500D01*
X-21669307Y41209500D01*
X-21550693Y41209500D01*
X-21550691Y41209500D01*
X-21436114Y41240201D01*
X-21436112Y41240203D01*
X-21436110Y41240203D01*
X-21333392Y41299508D01*
X-21333392Y41299509D01*
X-21333387Y41299511D01*
X-21249511Y41383387D01*
X-21245404Y41390500D01*
X-21190203Y41486110D01*
X-21190203Y41486112D01*
X-21190201Y41486114D01*
X-21159500Y41600691D01*
X-21159500Y41719309D01*
X-21190201Y41833886D01*
X-21200371Y41851500D01*
X-21213092Y41911347D01*
X-21188206Y41967243D01*
X-21135219Y41997836D01*
X-21114634Y42000000D01*
X-19155036Y42000000D01*
X-19096845Y41981093D01*
X-19060881Y41931593D01*
X-19059420Y41926658D01*
X-19039280Y41851499D01*
X-19029798Y41816110D01*
X-18970493Y41713392D01*
X-18970491Y41713390D01*
X-18970489Y41713387D01*
X-18886613Y41629511D01*
X-18886611Y41629510D01*
X-18886609Y41629508D01*
X-18783890Y41570203D01*
X-18783889Y41570203D01*
X-18783886Y41570201D01*
X-18669309Y41539500D01*
X-18669307Y41539500D01*
X-18550693Y41539500D01*
X-18550691Y41539500D01*
X-18436114Y41570201D01*
X-18436112Y41570203D01*
X-18436110Y41570203D01*
X-18333392Y41629508D01*
X-18333392Y41629509D01*
X-18333387Y41629511D01*
X-18249511Y41713387D01*
X-18190201Y41816114D01*
X-18184211Y41838468D01*
X-5285500Y41838468D01*
X-5285500Y41631533D01*
X-5245131Y41428582D01*
X-5165942Y41237403D01*
X-5083414Y41113891D01*
X-5050977Y41065345D01*
X-4904655Y40919023D01*
X-4732598Y40804059D01*
X-4541420Y40724870D01*
X-4338465Y40684500D01*
X-4338464Y40684500D01*
X-4131536Y40684500D01*
X-4131535Y40684500D01*
X-3928580Y40724870D01*
X-3737402Y40804059D01*
X-3565345Y40919023D01*
X-3485059Y40999309D01*
X-1920500Y40999309D01*
X-1920500Y40880691D01*
X-1902467Y40813392D01*
X-1889798Y40766110D01*
X-1830493Y40663392D01*
X-1830491Y40663390D01*
X-1830489Y40663387D01*
X-1746613Y40579511D01*
X-1746611Y40579510D01*
X-1746609Y40579508D01*
X-1643890Y40520203D01*
X-1643889Y40520203D01*
X-1643886Y40520201D01*
X-1529309Y40489500D01*
X-1529307Y40489500D01*
X-1410693Y40489500D01*
X-1410691Y40489500D01*
X-1296114Y40520201D01*
X-1193387Y40579511D01*
X-1109511Y40663387D01*
X-1097321Y40684501D01*
X-1050203Y40766110D01*
X-1050203Y40766112D01*
X-1050201Y40766114D01*
X-1019500Y40880691D01*
X-1019500Y40999309D01*
X-1050201Y41113886D01*
X-1050203Y41113889D01*
X-1050203Y41113891D01*
X-1109508Y41216609D01*
X-1109510Y41216611D01*
X-1109511Y41216613D01*
X-1193387Y41300489D01*
X-1193390Y41300491D01*
X-1193392Y41300493D01*
X-1296111Y41359798D01*
X-1296110Y41359798D01*
X-1321544Y41366613D01*
X-1410691Y41390500D01*
X-1529309Y41390500D01*
X-1591313Y41373886D01*
X-1643891Y41359798D01*
X-1746609Y41300493D01*
X-1830493Y41216609D01*
X-1889798Y41113891D01*
X-1889799Y41113886D01*
X-1920500Y40999309D01*
X-3485059Y40999309D01*
X-3419023Y41065345D01*
X-3304059Y41237402D01*
X-3224870Y41428580D01*
X-3184500Y41631535D01*
X-3184500Y41838465D01*
X-3224870Y42041420D01*
X-3304059Y42232598D01*
X-3419023Y42404655D01*
X-3565345Y42550977D01*
X-3737402Y42665941D01*
X-3737401Y42665941D01*
X-3737403Y42665942D01*
X-3928582Y42745131D01*
X-4131533Y42785500D01*
X-4131535Y42785500D01*
X-4338465Y42785500D01*
X-4338468Y42785500D01*
X-4541419Y42745131D01*
X-4732598Y42665942D01*
X-4904652Y42550980D01*
X-5050980Y42404652D01*
X-5165942Y42232598D01*
X-5245131Y42041419D01*
X-5285500Y41838468D01*
X-18184211Y41838468D01*
X-18160590Y41926626D01*
X-18127267Y41977938D01*
X-18070145Y41999864D01*
X-18064964Y42000000D01*
X-9000001Y42000000D01*
X-9000000Y42000000D01*
X-9000000Y44378468D01*
X-5285500Y44378468D01*
X-5285500Y44171533D01*
X-5245131Y43968582D01*
X-5165942Y43777403D01*
X-5073806Y43639511D01*
X-5050977Y43605345D01*
X-4904655Y43459023D01*
X-4732598Y43344059D01*
X-4541420Y43264870D01*
X-4338465Y43224500D01*
X-4338464Y43224500D01*
X-4131536Y43224500D01*
X-4131535Y43224500D01*
X-3928580Y43264870D01*
X-3737402Y43344059D01*
X-3565345Y43459023D01*
X-3555059Y43469309D01*
X-2010500Y43469309D01*
X-2010500Y43350691D01*
X-1989786Y43273387D01*
X-1979798Y43236110D01*
X-1920493Y43133392D01*
X-1920491Y43133390D01*
X-1920489Y43133387D01*
X-1836613Y43049511D01*
X-1836611Y43049510D01*
X-1836609Y43049508D01*
X-1733890Y42990203D01*
X-1733889Y42990203D01*
X-1733886Y42990201D01*
X-1619309Y42959500D01*
X-1619307Y42959500D01*
X-1500693Y42959500D01*
X-1500691Y42959500D01*
X-1386114Y42990201D01*
X-1386112Y42990203D01*
X-1386110Y42990203D01*
X-1283392Y43049508D01*
X-1283392Y43049509D01*
X-1283387Y43049511D01*
X-1199511Y43133387D01*
X-1190208Y43149500D01*
X-1140203Y43236110D01*
X-1140203Y43236112D01*
X-1140201Y43236114D01*
X-1109500Y43350691D01*
X-1109500Y43469309D01*
X-1140201Y43583886D01*
X-1160751Y43619480D01*
X-1183747Y43659309D01*
X8279500Y43659309D01*
X8279500Y43540691D01*
X8285184Y43519480D01*
X8310202Y43426110D01*
X8369507Y43323392D01*
X8369509Y43323390D01*
X8369511Y43323387D01*
X8453387Y43239511D01*
X8453389Y43239510D01*
X8453391Y43239508D01*
X8556110Y43180203D01*
X8556111Y43180203D01*
X8556114Y43180201D01*
X8670691Y43149500D01*
X8670693Y43149500D01*
X8789307Y43149500D01*
X8789309Y43149500D01*
X8903886Y43180201D01*
X8903888Y43180203D01*
X8903890Y43180203D01*
X9006608Y43239508D01*
X9006608Y43239509D01*
X9006613Y43239511D01*
X9090489Y43323387D01*
X9120931Y43376114D01*
X9149797Y43426110D01*
X9149797Y43426112D01*
X9149799Y43426114D01*
X9180500Y43540691D01*
X9180500Y43659309D01*
X9149799Y43773886D01*
X9149797Y43773889D01*
X9149797Y43773891D01*
X9090492Y43876609D01*
X9090490Y43876611D01*
X9090489Y43876613D01*
X9006613Y43960489D01*
X9006610Y43960491D01*
X9006608Y43960493D01*
X8903889Y44019798D01*
X8903890Y44019798D01*
X8890351Y44023426D01*
X8789309Y44050500D01*
X8670691Y44050500D01*
X8600567Y44031711D01*
X8556109Y44019798D01*
X8453391Y43960493D01*
X8369507Y43876609D01*
X8310202Y43773891D01*
X8300581Y43737985D01*
X8279500Y43659309D01*
X-1183747Y43659309D01*
X-1194617Y43678137D01*
X-1207339Y43737985D01*
X-1182453Y43793881D01*
X-1129465Y43824474D01*
X-1068614Y43818078D01*
X-1059379Y43813372D01*
X-1053890Y43810203D01*
X-1053889Y43810203D01*
X-1053886Y43810201D01*
X-939309Y43779500D01*
X-939307Y43779500D01*
X-820693Y43779500D01*
X-820691Y43779500D01*
X-706114Y43810201D01*
X-706112Y43810203D01*
X-706110Y43810203D01*
X-603392Y43869508D01*
X-603392Y43869509D01*
X-603387Y43869511D01*
X-519511Y43953387D01*
X-519508Y43953392D01*
X-460203Y44056110D01*
X-460203Y44056112D01*
X-460201Y44056114D01*
X-429500Y44170691D01*
X-429500Y44289309D01*
X-460201Y44403886D01*
X-460203Y44403889D01*
X-460203Y44403891D01*
X-519508Y44506609D01*
X-519510Y44506611D01*
X-519511Y44506613D01*
X-603387Y44590489D01*
X-603390Y44590491D01*
X-603392Y44590493D01*
X-706111Y44649798D01*
X-706110Y44649798D01*
X-742606Y44659577D01*
X-820691Y44680500D01*
X-939309Y44680500D01*
X-1009433Y44661711D01*
X-1053891Y44649798D01*
X-1156609Y44590493D01*
X-1240493Y44506609D01*
X-1299798Y44403891D01*
X-1299799Y44403886D01*
X-1330500Y44289309D01*
X-1330500Y44170691D01*
X-1305947Y44079057D01*
X-1299798Y44056110D01*
X-1245384Y43961864D01*
X-1232662Y43902016D01*
X-1257548Y43846120D01*
X-1310536Y43815527D01*
X-1371387Y43821923D01*
X-1380619Y43826627D01*
X-1386111Y43829798D01*
X-1386114Y43829799D01*
X-1500691Y43860500D01*
X-1619309Y43860500D01*
X-1689433Y43841711D01*
X-1733891Y43829798D01*
X-1836609Y43770493D01*
X-1920493Y43686609D01*
X-1979798Y43583891D01*
X-1986068Y43560489D01*
X-2010500Y43469309D01*
X-3555059Y43469309D01*
X-3419023Y43605345D01*
X-3304059Y43777402D01*
X-3224870Y43968580D01*
X-3184500Y44171535D01*
X-3184500Y44378465D01*
X-3224870Y44581420D01*
X-3304059Y44772598D01*
X-3419023Y44944655D01*
X-3565345Y45090977D01*
X-3737402Y45205941D01*
X-3737404Y45205942D01*
X-3866243Y45259309D01*
X5049500Y45259309D01*
X5049500Y45140691D01*
X5062820Y45090980D01*
X5080202Y45026110D01*
X5139507Y44923392D01*
X5139509Y44923390D01*
X5139511Y44923387D01*
X5223387Y44839511D01*
X5223389Y44839510D01*
X5223391Y44839508D01*
X5326110Y44780203D01*
X5326111Y44780203D01*
X5326114Y44780201D01*
X5440691Y44749500D01*
X5440693Y44749500D01*
X5559307Y44749500D01*
X5559309Y44749500D01*
X5673886Y44780201D01*
X5673888Y44780203D01*
X5673890Y44780203D01*
X5776608Y44839508D01*
X5776608Y44839509D01*
X5776613Y44839511D01*
X5860489Y44923387D01*
X5860492Y44923392D01*
X5919797Y45026110D01*
X5919797Y45026112D01*
X5919799Y45026114D01*
X5950500Y45140691D01*
X5950500Y45259309D01*
X5919799Y45373886D01*
X5919797Y45373889D01*
X5919797Y45373891D01*
X5860492Y45476609D01*
X5860490Y45476611D01*
X5860489Y45476613D01*
X5776613Y45560489D01*
X5776610Y45560491D01*
X5776608Y45560493D01*
X5673889Y45619798D01*
X5673890Y45619798D01*
X5654912Y45624883D01*
X5559309Y45650500D01*
X5440691Y45650500D01*
X5370567Y45631711D01*
X5326109Y45619798D01*
X5223391Y45560493D01*
X5139507Y45476609D01*
X5080202Y45373891D01*
X5080201Y45373886D01*
X5049500Y45259309D01*
X-3866243Y45259309D01*
X-3928582Y45285131D01*
X-4131533Y45325500D01*
X-4131535Y45325500D01*
X-4338465Y45325500D01*
X-4338468Y45325500D01*
X-4541419Y45285131D01*
X-4732598Y45205942D01*
X-4904652Y45090980D01*
X-5050980Y44944652D01*
X-5165942Y44772598D01*
X-5245131Y44581419D01*
X-5285500Y44378468D01*
X-9000000Y44378468D01*
X-9000000Y48629309D01*
X-1670500Y48629309D01*
X-1670500Y48510691D01*
X-1667769Y48500500D01*
X-1639798Y48396110D01*
X-1580493Y48293392D01*
X-1580491Y48293390D01*
X-1580489Y48293387D01*
X-1496613Y48209511D01*
X-1496611Y48209510D01*
X-1496609Y48209508D01*
X-1388267Y48146956D01*
X-1389802Y48144298D01*
X-1352850Y48112746D01*
X-1338559Y48053253D01*
X-1361967Y47996722D01*
X-1367251Y47991005D01*
X-1451293Y47906963D01*
X-1451297Y47906958D01*
X-1510602Y47804240D01*
X-1525001Y47750500D01*
X-1541304Y47689658D01*
X-1541304Y47571040D01*
X-1519143Y47488335D01*
X-1510602Y47456459D01*
X-1451297Y47353741D01*
X-1451295Y47353739D01*
X-1451293Y47353736D01*
X-1367417Y47269860D01*
X-1367415Y47269859D01*
X-1367413Y47269857D01*
X-1264694Y47210552D01*
X-1264693Y47210552D01*
X-1264690Y47210550D01*
X-1150113Y47179849D01*
X-1150111Y47179849D01*
X-1031497Y47179849D01*
X-1031495Y47179849D01*
X-916918Y47210550D01*
X-916916Y47210552D01*
X-916914Y47210552D01*
X-832465Y47259309D01*
X2549500Y47259309D01*
X2549500Y47140691D01*
X2562949Y47090500D01*
X2580202Y47026110D01*
X2639507Y46923392D01*
X2639509Y46923390D01*
X2639511Y46923387D01*
X2723387Y46839511D01*
X2723389Y46839510D01*
X2723391Y46839508D01*
X2826110Y46780203D01*
X2826111Y46780203D01*
X2826114Y46780201D01*
X2940691Y46749500D01*
X2940693Y46749500D01*
X3059307Y46749500D01*
X3059309Y46749500D01*
X3173886Y46780201D01*
X3173888Y46780203D01*
X3173890Y46780203D01*
X3276608Y46839508D01*
X3276608Y46839509D01*
X3276613Y46839511D01*
X3360489Y46923387D01*
X3405516Y47001375D01*
X3419797Y47026110D01*
X3419797Y47026112D01*
X3419799Y47026114D01*
X3450500Y47140691D01*
X3450500Y47259309D01*
X3444646Y47281158D01*
X3919500Y47281158D01*
X3919500Y47138842D01*
X3956334Y47001375D01*
X4027492Y46878125D01*
X4128125Y46777492D01*
X4251375Y46706334D01*
X4388842Y46669500D01*
X4388844Y46669500D01*
X4531156Y46669500D01*
X4531158Y46669500D01*
X4668625Y46706334D01*
X4791875Y46777492D01*
X4892508Y46878125D01*
X4963666Y47001375D01*
X5000500Y47138842D01*
X5000500Y47281158D01*
X4963666Y47418625D01*
X4892508Y47541875D01*
X4791875Y47642508D01*
X4745454Y47669309D01*
X6209500Y47669309D01*
X6209500Y47550691D01*
X6234750Y47456459D01*
X6240202Y47436110D01*
X6299507Y47333392D01*
X6299509Y47333390D01*
X6299511Y47333387D01*
X6383387Y47249511D01*
X6383389Y47249510D01*
X6383391Y47249508D01*
X6486110Y47190203D01*
X6486111Y47190203D01*
X6486114Y47190201D01*
X6600691Y47159500D01*
X6600693Y47159500D01*
X6719307Y47159500D01*
X6719309Y47159500D01*
X6833886Y47190201D01*
X6861844Y47206344D01*
X6921692Y47219065D01*
X6977588Y47194179D01*
X7008181Y47141192D01*
X7002810Y47082722D01*
X6982419Y47033494D01*
X6951657Y46878845D01*
X6951657Y46721156D01*
X6982420Y46566504D01*
X6982420Y46566502D01*
X7042760Y46420826D01*
X7042766Y46420815D01*
X7087524Y46353831D01*
X7130368Y46289711D01*
X7241868Y46178211D01*
X7298754Y46140201D01*
X7372971Y46090610D01*
X7372982Y46090604D01*
X7386222Y46085120D01*
X7518660Y46030263D01*
X7673315Y45999500D01*
X7673316Y45999500D01*
X7830998Y45999500D01*
X7830999Y45999500D01*
X7985654Y46030263D01*
X8131336Y46090606D01*
X8262446Y46178211D01*
X8373946Y46289711D01*
X8461551Y46420821D01*
X8521894Y46566503D01*
X8552657Y46721158D01*
X8552657Y46878842D01*
X8521894Y47033497D01*
X8477493Y47140691D01*
X8461553Y47179175D01*
X8461547Y47179186D01*
X8421238Y47239511D01*
X8373946Y47310289D01*
X8262446Y47421789D01*
X8210216Y47456688D01*
X8131342Y47509391D01*
X8131331Y47509397D01*
X7985654Y47569737D01*
X7831001Y47600500D01*
X7830999Y47600500D01*
X7673315Y47600500D01*
X7673312Y47600500D01*
X7518660Y47569737D01*
X7518658Y47569737D01*
X7372982Y47509397D01*
X7372970Y47509391D01*
X7258486Y47432893D01*
X7199598Y47416284D01*
X7142194Y47437461D01*
X7108201Y47488335D01*
X7107858Y47540832D01*
X7110500Y47550691D01*
X7110500Y47669309D01*
X7079799Y47783886D01*
X7079797Y47783889D01*
X7079797Y47783891D01*
X7020492Y47886609D01*
X7020490Y47886611D01*
X7020489Y47886613D01*
X6936613Y47970489D01*
X6936610Y47970491D01*
X6936608Y47970493D01*
X6833889Y48029798D01*
X6833890Y48029798D01*
X6820351Y48033426D01*
X6719309Y48060500D01*
X6600691Y48060500D01*
X6560755Y48049799D01*
X6486109Y48029798D01*
X6383391Y47970493D01*
X6299507Y47886609D01*
X6240202Y47783891D01*
X6237521Y47773886D01*
X6209500Y47669309D01*
X4745454Y47669309D01*
X4668625Y47713666D01*
X4531158Y47750500D01*
X4388842Y47750500D01*
X4251375Y47713666D01*
X4128125Y47642508D01*
X4027492Y47541875D01*
X3956334Y47418625D01*
X3919500Y47281158D01*
X3444646Y47281158D01*
X3419799Y47373886D01*
X3419797Y47373889D01*
X3419797Y47373891D01*
X3360492Y47476609D01*
X3360490Y47476611D01*
X3360489Y47476613D01*
X3276613Y47560489D01*
X3276610Y47560491D01*
X3276608Y47560493D01*
X3173889Y47619798D01*
X3173890Y47619798D01*
X3160351Y47623426D01*
X3059309Y47650500D01*
X2940691Y47650500D01*
X2870567Y47631711D01*
X2826109Y47619798D01*
X2723391Y47560493D01*
X2639507Y47476609D01*
X2580202Y47373891D01*
X2569349Y47333387D01*
X2549500Y47259309D01*
X-832465Y47259309D01*
X-814196Y47269857D01*
X-814196Y47269858D01*
X-814191Y47269860D01*
X-730315Y47353736D01*
X-707422Y47393387D01*
X-671007Y47456459D01*
X-671007Y47456461D01*
X-671005Y47456463D01*
X-640304Y47571040D01*
X-640304Y47689658D01*
X-671005Y47804235D01*
X-671007Y47804238D01*
X-671007Y47804240D01*
X-730312Y47906958D01*
X-730314Y47906960D01*
X-730315Y47906962D01*
X-814191Y47990838D01*
X-814194Y47990840D01*
X-814196Y47990842D01*
X-922537Y48053393D01*
X-921012Y48056037D01*
X-958005Y48087686D01*
X-972238Y48147193D01*
X-948776Y48203701D01*
X-943553Y48209346D01*
X-943390Y48209510D01*
X-943387Y48209511D01*
X-859511Y48293387D01*
X-800329Y48395892D01*
X1639500Y48395892D01*
X1639500Y48264108D01*
X1654183Y48209309D01*
X1673609Y48136810D01*
X1739496Y48022691D01*
X1739498Y48022689D01*
X1739500Y48022686D01*
X1832686Y47929500D01*
X1832688Y47929499D01*
X1832690Y47929497D01*
X1946810Y47863610D01*
X1946808Y47863610D01*
X1946812Y47863609D01*
X1946814Y47863608D01*
X2074108Y47829500D01*
X2074110Y47829500D01*
X2205890Y47829500D01*
X2205892Y47829500D01*
X2333186Y47863608D01*
X2333188Y47863610D01*
X2333190Y47863610D01*
X2447309Y47929497D01*
X2447309Y47929498D01*
X2447314Y47929500D01*
X2540500Y48022686D01*
X2556355Y48050148D01*
X2606390Y48136810D01*
X2606390Y48136812D01*
X2606392Y48136814D01*
X2640500Y48264108D01*
X2640500Y48395892D01*
X2606392Y48523186D01*
X2606390Y48523189D01*
X2606390Y48523191D01*
X2540503Y48637310D01*
X2540501Y48637312D01*
X2540500Y48637314D01*
X2447314Y48730500D01*
X2447311Y48730502D01*
X2447309Y48730504D01*
X2333189Y48796391D01*
X2333191Y48796391D01*
X2280575Y48810489D01*
X2205892Y48830500D01*
X2074108Y48830500D01*
X1999425Y48810489D01*
X1946809Y48796391D01*
X1832690Y48730504D01*
X1739496Y48637310D01*
X1673609Y48523191D01*
X1657190Y48461914D01*
X1639500Y48395892D01*
X-800329Y48395892D01*
X-800201Y48396114D01*
X-769500Y48510691D01*
X-769500Y48629309D01*
X-800201Y48743886D01*
X-800203Y48743889D01*
X-800203Y48743891D01*
X-859508Y48846609D01*
X-859510Y48846611D01*
X-859511Y48846613D01*
X-943387Y48930489D01*
X-943390Y48930491D01*
X-943392Y48930493D01*
X-1046111Y48989798D01*
X-1046109Y48989798D01*
X-1074566Y48997423D01*
X-1160691Y49020500D01*
X-1279309Y49020500D01*
X-1349433Y49001711D01*
X-1393891Y48989798D01*
X-1496609Y48930493D01*
X-1580493Y48846609D01*
X-1639798Y48743891D01*
X-1647372Y48715624D01*
X-1670500Y48629309D01*
X-9000000Y48629309D01*
X-9000000Y49099309D01*
X4079500Y49099309D01*
X4079500Y48980691D01*
X4092951Y48930493D01*
X4110202Y48866110D01*
X4169507Y48763392D01*
X4169509Y48763390D01*
X4169511Y48763387D01*
X4253387Y48679511D01*
X4253389Y48679510D01*
X4253391Y48679508D01*
X4356110Y48620203D01*
X4356111Y48620203D01*
X4356114Y48620201D01*
X4470691Y48589500D01*
X4470693Y48589500D01*
X4589307Y48589500D01*
X4589309Y48589500D01*
X4703886Y48620201D01*
X4703888Y48620203D01*
X4703890Y48620203D01*
X4806608Y48679508D01*
X4806608Y48679509D01*
X4806613Y48679511D01*
X4890489Y48763387D01*
X4910921Y48798776D01*
X4949797Y48866110D01*
X4949797Y48866112D01*
X4949799Y48866114D01*
X4980500Y48980691D01*
X4980500Y49099309D01*
X4949799Y49213886D01*
X4949797Y49213889D01*
X4949218Y49216051D01*
X4952420Y49277152D01*
X4990925Y49324702D01*
X5050026Y49340538D01*
X5094345Y49327410D01*
X5176110Y49280203D01*
X5176111Y49280203D01*
X5176114Y49280201D01*
X5290691Y49249500D01*
X5290693Y49249500D01*
X5409307Y49249500D01*
X5409309Y49249500D01*
X5523886Y49280201D01*
X5523888Y49280203D01*
X5523890Y49280203D01*
X5626608Y49339508D01*
X5626608Y49339509D01*
X5626613Y49339511D01*
X5710489Y49423387D01*
X5769799Y49526114D01*
X5800500Y49640691D01*
X5800500Y49759309D01*
X5769799Y49873886D01*
X5769797Y49873889D01*
X5769797Y49873891D01*
X5710492Y49976609D01*
X5710490Y49976611D01*
X5710489Y49976613D01*
X5626613Y50060489D01*
X5626610Y50060491D01*
X5554871Y50101910D01*
X5554869Y50101912D01*
X5523889Y50119798D01*
X5523890Y50119798D01*
X5510351Y50123426D01*
X5409309Y50150500D01*
X5290691Y50150500D01*
X5220567Y50131711D01*
X5176109Y50119798D01*
X5073391Y50060493D01*
X4989507Y49976609D01*
X4930202Y49873891D01*
X4925096Y49854835D01*
X4899500Y49759309D01*
X4899500Y49640691D01*
X4930201Y49526114D01*
X4930781Y49523950D01*
X4927578Y49462848D01*
X4889073Y49415299D01*
X4829973Y49399463D01*
X4785654Y49412591D01*
X4703889Y49459798D01*
X4703890Y49459798D01*
X4690351Y49463426D01*
X4589309Y49490500D01*
X4470691Y49490500D01*
X4400567Y49471711D01*
X4356109Y49459798D01*
X4253391Y49400493D01*
X4169507Y49316609D01*
X4110202Y49213891D01*
X4110201Y49213886D01*
X4079500Y49099309D01*
X-9000000Y49099309D01*
X-9000000Y50419309D01*
X2099500Y50419309D01*
X2099500Y50300691D01*
X2126574Y50199649D01*
X2130202Y50186110D01*
X2189507Y50083392D01*
X2189509Y50083390D01*
X2189511Y50083387D01*
X2273387Y49999511D01*
X2273389Y49999510D01*
X2273391Y49999508D01*
X2376110Y49940203D01*
X2376111Y49940203D01*
X2376114Y49940201D01*
X2490691Y49909500D01*
X2490693Y49909500D01*
X2609307Y49909500D01*
X2609309Y49909500D01*
X2723886Y49940201D01*
X2723888Y49940203D01*
X2723890Y49940203D01*
X2826608Y49999508D01*
X2826608Y49999509D01*
X2826613Y49999511D01*
X2910489Y50083387D01*
X2910492Y50083392D01*
X2967877Y50182785D01*
X7659500Y50182785D01*
X7659500Y50017216D01*
X7691800Y49854836D01*
X7691800Y49854834D01*
X7755155Y49701879D01*
X7755161Y49701868D01*
X7796038Y49640693D01*
X7847141Y49564212D01*
X7964212Y49447141D01*
X8011867Y49415299D01*
X8101867Y49355162D01*
X8101878Y49355156D01*
X8158380Y49331753D01*
X8254835Y49291800D01*
X8417218Y49259500D01*
X8417219Y49259500D01*
X8582781Y49259500D01*
X8582782Y49259500D01*
X8745165Y49291800D01*
X8898126Y49355158D01*
X9035788Y49447141D01*
X9152859Y49564212D01*
X9244842Y49701874D01*
X9308200Y49854835D01*
X9340500Y50017218D01*
X9340500Y50182782D01*
X9308200Y50345165D01*
X9244842Y50498126D01*
X9244841Y50498128D01*
X9244838Y50498133D01*
X9182592Y50591289D01*
X9152859Y50635788D01*
X9035788Y50752859D01*
X8980935Y50789511D01*
X8898132Y50844839D01*
X8898121Y50844845D01*
X8745165Y50908200D01*
X8582784Y50940500D01*
X8582782Y50940500D01*
X8417218Y50940500D01*
X8417215Y50940500D01*
X8254835Y50908200D01*
X8254833Y50908200D01*
X8101878Y50844845D01*
X8101867Y50844839D01*
X7964212Y50752859D01*
X7964208Y50752856D01*
X7847144Y50635792D01*
X7847141Y50635788D01*
X7755161Y50498133D01*
X7755155Y50498122D01*
X7691800Y50345167D01*
X7691800Y50345165D01*
X7659500Y50182785D01*
X2967877Y50182785D01*
X2969797Y50186110D01*
X2969797Y50186112D01*
X2969799Y50186114D01*
X3000500Y50300691D01*
X3000500Y50419309D01*
X2969799Y50533886D01*
X2969797Y50533889D01*
X2969797Y50533891D01*
X2910492Y50636609D01*
X2910490Y50636611D01*
X2910489Y50636613D01*
X2826613Y50720489D01*
X2826610Y50720491D01*
X2826608Y50720493D01*
X2723889Y50779798D01*
X2723890Y50779798D01*
X2710351Y50783426D01*
X2609309Y50810500D01*
X2490691Y50810500D01*
X2420567Y50791711D01*
X2376109Y50779798D01*
X2273391Y50720493D01*
X2189507Y50636609D01*
X2130202Y50533891D01*
X2130201Y50533886D01*
X2099500Y50419309D01*
X-9000000Y50419309D01*
X-9000000Y51209309D01*
X3419500Y51209309D01*
X3419500Y51090691D01*
X3443801Y51000000D01*
X3450202Y50976110D01*
X3509507Y50873392D01*
X3509509Y50873390D01*
X3509511Y50873387D01*
X3593387Y50789511D01*
X3593389Y50789510D01*
X3593391Y50789508D01*
X3696110Y50730203D01*
X3696111Y50730203D01*
X3696114Y50730201D01*
X3810691Y50699500D01*
X3810693Y50699500D01*
X3929307Y50699500D01*
X3929309Y50699500D01*
X4043886Y50730201D01*
X4043888Y50730203D01*
X4043890Y50730203D01*
X4146608Y50789508D01*
X4146608Y50789509D01*
X4146613Y50789511D01*
X4230489Y50873387D01*
X4235561Y50882172D01*
X4289797Y50976110D01*
X4289797Y50976112D01*
X4289799Y50976114D01*
X4320500Y51090691D01*
X4320500Y51209309D01*
X4289799Y51323886D01*
X4289797Y51323889D01*
X4289797Y51323891D01*
X4230492Y51426609D01*
X4230490Y51426611D01*
X4230489Y51426613D01*
X4146613Y51510489D01*
X4146610Y51510491D01*
X4146608Y51510493D01*
X4043889Y51569798D01*
X4043890Y51569798D01*
X4030351Y51573426D01*
X3929309Y51600500D01*
X3810691Y51600500D01*
X3740567Y51581711D01*
X3696109Y51569798D01*
X3593391Y51510493D01*
X3509507Y51426609D01*
X3450202Y51323891D01*
X3450201Y51323886D01*
X3419500Y51209309D01*
X-9000000Y51209309D01*
X-9000000Y53099309D01*
X3349500Y53099309D01*
X3349500Y52980691D01*
X3358566Y52946856D01*
X3380202Y52866110D01*
X3439507Y52763392D01*
X3439509Y52763390D01*
X3439511Y52763387D01*
X3523387Y52679511D01*
X3523389Y52679510D01*
X3523391Y52679508D01*
X3626110Y52620203D01*
X3626111Y52620203D01*
X3626114Y52620201D01*
X3740691Y52589500D01*
X3740693Y52589500D01*
X3859307Y52589500D01*
X3859309Y52589500D01*
X3973886Y52620201D01*
X3973888Y52620203D01*
X3973890Y52620203D01*
X4076608Y52679508D01*
X4076608Y52679509D01*
X4076613Y52679511D01*
X4160489Y52763387D01*
X4160492Y52763392D01*
X4219797Y52866110D01*
X4219797Y52866112D01*
X4219799Y52866114D01*
X4250500Y52980691D01*
X4250500Y53099309D01*
X4219799Y53213886D01*
X4219797Y53213889D01*
X4219797Y53213891D01*
X4160492Y53316609D01*
X4160490Y53316611D01*
X4160489Y53316613D01*
X4076613Y53400489D01*
X4076610Y53400491D01*
X4076608Y53400493D01*
X3973889Y53459798D01*
X3973890Y53459798D01*
X3960351Y53463426D01*
X3859309Y53490500D01*
X3740691Y53490500D01*
X3670567Y53471711D01*
X3626109Y53459798D01*
X3523391Y53400493D01*
X3439507Y53316609D01*
X3380202Y53213891D01*
X3380201Y53213886D01*
X3349500Y53099309D01*
X-9000000Y53099309D01*
X-9000000Y53814309D01*
X-3535500Y53814309D01*
X-3535500Y53695691D01*
X-3533736Y53689108D01*
X-3504798Y53581110D01*
X-3445493Y53478392D01*
X-3445491Y53478390D01*
X-3445489Y53478387D01*
X-3361613Y53394511D01*
X-3361611Y53394510D01*
X-3361609Y53394508D01*
X-3258890Y53335203D01*
X-3258889Y53335203D01*
X-3258886Y53335201D01*
X-3144309Y53304500D01*
X-3144307Y53304500D01*
X-3025693Y53304500D01*
X-3025691Y53304500D01*
X-2911114Y53335201D01*
X-2911112Y53335203D01*
X-2911110Y53335203D01*
X-2808392Y53394508D01*
X-2808392Y53394509D01*
X-2808387Y53394511D01*
X-2724511Y53478387D01*
X-2665201Y53581114D01*
X-2634500Y53695691D01*
X-2634500Y53814309D01*
X-2435500Y53814309D01*
X-2435500Y53695691D01*
X-2433736Y53689108D01*
X-2404798Y53581110D01*
X-2345493Y53478392D01*
X-2345491Y53478390D01*
X-2345489Y53478387D01*
X-2261613Y53394511D01*
X-2261611Y53394510D01*
X-2261609Y53394508D01*
X-2158890Y53335203D01*
X-2158889Y53335203D01*
X-2158886Y53335201D01*
X-2044309Y53304500D01*
X-2044307Y53304500D01*
X-1925693Y53304500D01*
X-1925691Y53304500D01*
X-1811114Y53335201D01*
X-1811112Y53335203D01*
X-1811110Y53335203D01*
X-1708392Y53394508D01*
X-1708392Y53394509D01*
X-1708387Y53394511D01*
X-1624511Y53478387D01*
X-1565201Y53581114D01*
X-1534500Y53695691D01*
X-1534500Y53814309D01*
X-1536264Y53820892D01*
X-285500Y53820892D01*
X-285500Y53689108D01*
X-260581Y53596110D01*
X-251391Y53561810D01*
X-185504Y53447691D01*
X-185502Y53447689D01*
X-185500Y53447686D01*
X-92314Y53354500D01*
X-92312Y53354499D01*
X-92310Y53354497D01*
X21810Y53288610D01*
X21808Y53288610D01*
X21812Y53288609D01*
X21814Y53288608D01*
X149108Y53254500D01*
X149110Y53254500D01*
X280890Y53254500D01*
X280892Y53254500D01*
X408186Y53288608D01*
X408188Y53288610D01*
X408190Y53288610D01*
X522309Y53354497D01*
X522309Y53354498D01*
X522314Y53354500D01*
X615500Y53447686D01*
X622493Y53459798D01*
X681390Y53561810D01*
X681390Y53561812D01*
X681392Y53561814D01*
X715500Y53689108D01*
X715500Y53820892D01*
X713245Y53829309D01*
X4419500Y53829309D01*
X4419500Y53710691D01*
X4442629Y53624372D01*
X4450202Y53596110D01*
X4509507Y53493392D01*
X4509509Y53493390D01*
X4509511Y53493387D01*
X4593387Y53409511D01*
X4593389Y53409510D01*
X4593391Y53409508D01*
X4696110Y53350203D01*
X4696111Y53350203D01*
X4696114Y53350201D01*
X4810691Y53319500D01*
X4810693Y53319500D01*
X4929307Y53319500D01*
X4929309Y53319500D01*
X5043886Y53350201D01*
X5043888Y53350203D01*
X5043890Y53350203D01*
X5146608Y53409508D01*
X5146608Y53409509D01*
X5146613Y53409511D01*
X5230489Y53493387D01*
X5258941Y53542666D01*
X5289797Y53596110D01*
X5289797Y53596112D01*
X5289799Y53596114D01*
X5320500Y53710691D01*
X5320500Y53829309D01*
X5289799Y53943886D01*
X5289797Y53943889D01*
X5289797Y53943891D01*
X5230492Y54046609D01*
X5230490Y54046611D01*
X5230489Y54046613D01*
X5146613Y54130489D01*
X5146610Y54130491D01*
X5146608Y54130493D01*
X5043889Y54189798D01*
X5043890Y54189798D01*
X5005065Y54200201D01*
X4929309Y54220500D01*
X4810691Y54220500D01*
X4754711Y54205500D01*
X4696109Y54189798D01*
X4593391Y54130493D01*
X4509507Y54046609D01*
X4450202Y53943891D01*
X4438706Y53900986D01*
X4419500Y53829309D01*
X713245Y53829309D01*
X681392Y53948186D01*
X681390Y53948189D01*
X681390Y53948191D01*
X615503Y54062310D01*
X615501Y54062312D01*
X615500Y54062314D01*
X522314Y54155500D01*
X522311Y54155502D01*
X522309Y54155504D01*
X408189Y54221391D01*
X408191Y54221391D01*
X358799Y54234625D01*
X280892Y54255500D01*
X149108Y54255500D01*
X71200Y54234625D01*
X21809Y54221391D01*
X-92310Y54155504D01*
X-185504Y54062310D01*
X-251391Y53948191D01*
X-264039Y53900986D01*
X-285500Y53820892D01*
X-1536264Y53820892D01*
X-1565201Y53928886D01*
X-1565203Y53928889D01*
X-1565203Y53928891D01*
X-1624508Y54031609D01*
X-1624510Y54031611D01*
X-1624511Y54031613D01*
X-1708387Y54115489D01*
X-1708390Y54115491D01*
X-1708392Y54115493D01*
X-1811111Y54174798D01*
X-1811110Y54174798D01*
X-1832390Y54180500D01*
X-1925691Y54205500D01*
X-2044309Y54205500D01*
X-2102909Y54189798D01*
X-2158891Y54174798D01*
X-2261609Y54115493D01*
X-2345493Y54031609D01*
X-2404798Y53928891D01*
X-2404799Y53928886D01*
X-2435500Y53814309D01*
X-2634500Y53814309D01*
X-2665201Y53928886D01*
X-2665203Y53928889D01*
X-2665203Y53928891D01*
X-2724508Y54031609D01*
X-2724510Y54031611D01*
X-2724511Y54031613D01*
X-2808387Y54115489D01*
X-2808390Y54115491D01*
X-2808392Y54115493D01*
X-2911111Y54174798D01*
X-2911110Y54174798D01*
X-2932390Y54180500D01*
X-3025691Y54205500D01*
X-3144309Y54205500D01*
X-3202909Y54189798D01*
X-3258891Y54174798D01*
X-3361609Y54115493D01*
X-3445493Y54031609D01*
X-3504798Y53928891D01*
X-3504799Y53928886D01*
X-3535500Y53814309D01*
X-9000000Y53814309D01*
X-9000000Y54679309D01*
X6919500Y54679309D01*
X6919500Y54560691D01*
X6928964Y54525372D01*
X6950202Y54446110D01*
X7009507Y54343392D01*
X7009509Y54343390D01*
X7009511Y54343387D01*
X7093387Y54259511D01*
X7093389Y54259510D01*
X7093391Y54259508D01*
X7196110Y54200203D01*
X7196111Y54200203D01*
X7196114Y54200201D01*
X7310691Y54169500D01*
X7310693Y54169500D01*
X7429307Y54169500D01*
X7429309Y54169500D01*
X7543886Y54200201D01*
X7543888Y54200203D01*
X7543890Y54200203D01*
X7646608Y54259508D01*
X7646608Y54259509D01*
X7646613Y54259511D01*
X7730489Y54343387D01*
X7730492Y54343392D01*
X7789797Y54446110D01*
X7789797Y54446112D01*
X7789799Y54446114D01*
X7820500Y54560691D01*
X7820500Y54679309D01*
X7789799Y54793886D01*
X7789797Y54793889D01*
X7789797Y54793891D01*
X7730492Y54896609D01*
X7730490Y54896611D01*
X7730489Y54896613D01*
X7646613Y54980489D01*
X7646610Y54980491D01*
X7646608Y54980493D01*
X7543889Y55039798D01*
X7543890Y55039798D01*
X7530351Y55043426D01*
X7429309Y55070500D01*
X7310691Y55070500D01*
X7269669Y55059508D01*
X7196109Y55039798D01*
X7093391Y54980493D01*
X7009507Y54896609D01*
X6950202Y54793891D01*
X6950201Y54793886D01*
X6919500Y54679309D01*
X-9000000Y54679309D01*
X-9000000Y55479309D01*
X-8340500Y55479309D01*
X-8340500Y55360691D01*
X-8330504Y55323387D01*
X-8309798Y55246110D01*
X-8250493Y55143392D01*
X-8250491Y55143390D01*
X-8250489Y55143387D01*
X-8166613Y55059511D01*
X-8166611Y55059510D01*
X-8166609Y55059508D01*
X-8063890Y55000203D01*
X-8063889Y55000203D01*
X-8063886Y55000201D01*
X-7949309Y54969500D01*
X-7949307Y54969500D01*
X-7830693Y54969500D01*
X-7830691Y54969500D01*
X-7716114Y55000201D01*
X-7716112Y55000203D01*
X-7716110Y55000203D01*
X-7613392Y55059508D01*
X-7613392Y55059509D01*
X-7613387Y55059511D01*
X-7529511Y55143387D01*
X-7508256Y55180201D01*
X-7470203Y55246110D01*
X-7470203Y55246112D01*
X-7470201Y55246114D01*
X-7439500Y55360691D01*
X-7439500Y55479309D01*
X-7470201Y55593886D01*
X-7470203Y55593889D01*
X-7470203Y55593891D01*
X-7529508Y55696609D01*
X-7529510Y55696611D01*
X-7529511Y55696613D01*
X-7613387Y55780489D01*
X-7613390Y55780491D01*
X-7613392Y55780493D01*
X-7716111Y55839798D01*
X-7716110Y55839798D01*
X-7729649Y55843426D01*
X-7830691Y55870500D01*
X-7949309Y55870500D01*
X-7985916Y55860691D01*
X-8063891Y55839798D01*
X-8166609Y55780493D01*
X-8250493Y55696609D01*
X-8309798Y55593891D01*
X-8319011Y55559508D01*
X-8340500Y55479309D01*
X-9000000Y55479309D01*
X-9000000Y56294309D01*
X-6885500Y56294309D01*
X-6885500Y56175691D01*
X-6872130Y56125795D01*
X-6854798Y56061110D01*
X-6795493Y55958392D01*
X-6795491Y55958390D01*
X-6795489Y55958387D01*
X-6711613Y55874511D01*
X-6711611Y55874510D01*
X-6711609Y55874508D01*
X-6608890Y55815203D01*
X-6608889Y55815203D01*
X-6608886Y55815201D01*
X-6494309Y55784500D01*
X-6494307Y55784500D01*
X-6375693Y55784500D01*
X-6375691Y55784500D01*
X-6261114Y55815201D01*
X-6261112Y55815203D01*
X-6261110Y55815203D01*
X-6158392Y55874508D01*
X-6158392Y55874509D01*
X-6158387Y55874511D01*
X-6074511Y55958387D01*
X-6062432Y55979308D01*
X-6056658Y55989309D01*
X-1770500Y55989309D01*
X-1770500Y55870691D01*
X-1745114Y55775948D01*
X-1739798Y55756110D01*
X-1680493Y55653392D01*
X-1680491Y55653390D01*
X-1680489Y55653387D01*
X-1596613Y55569511D01*
X-1596611Y55569510D01*
X-1596609Y55569508D01*
X-1493890Y55510203D01*
X-1493889Y55510203D01*
X-1493886Y55510201D01*
X-1379309Y55479500D01*
X-1379307Y55479500D01*
X-1260693Y55479500D01*
X-1260691Y55479500D01*
X-1146114Y55510201D01*
X-1146112Y55510203D01*
X-1146110Y55510203D01*
X-1043392Y55569508D01*
X-1043392Y55569509D01*
X-1043387Y55569511D01*
X-959511Y55653387D01*
X-918623Y55724208D01*
X-873154Y55765147D01*
X-812304Y55771543D01*
X-759316Y55740950D01*
X-747151Y55724206D01*
X-700493Y55643392D01*
X-700491Y55643390D01*
X-700489Y55643387D01*
X-616613Y55559511D01*
X-616611Y55559510D01*
X-616609Y55559508D01*
X-513890Y55500203D01*
X-513889Y55500203D01*
X-513886Y55500201D01*
X-399309Y55469500D01*
X-399307Y55469500D01*
X-280693Y55469500D01*
X-280691Y55469500D01*
X-166114Y55500201D01*
X-166112Y55500203D01*
X-166110Y55500203D01*
X-98377Y55539309D01*
X3589500Y55539309D01*
X3589500Y55420691D01*
X3602952Y55370489D01*
X3620202Y55306110D01*
X3679507Y55203392D01*
X3679509Y55203390D01*
X3679511Y55203387D01*
X3763387Y55119511D01*
X3763389Y55119510D01*
X3763391Y55119508D01*
X3866110Y55060203D01*
X3866111Y55060203D01*
X3866114Y55060201D01*
X3980691Y55029500D01*
X3980693Y55029500D01*
X4099307Y55029500D01*
X4099309Y55029500D01*
X4213886Y55060201D01*
X4213888Y55060203D01*
X4213890Y55060203D01*
X4316608Y55119508D01*
X4316608Y55119509D01*
X4316613Y55119511D01*
X4400489Y55203387D01*
X4413899Y55226613D01*
X4459797Y55306110D01*
X4459797Y55306112D01*
X4459799Y55306114D01*
X4490500Y55420691D01*
X4490500Y55539309D01*
X4459799Y55653886D01*
X4459797Y55653889D01*
X4459797Y55653891D01*
X4400492Y55756609D01*
X4400490Y55756611D01*
X4400489Y55756613D01*
X4316613Y55840489D01*
X4316610Y55840491D01*
X4316608Y55840493D01*
X4213889Y55899798D01*
X4213890Y55899798D01*
X4200351Y55903426D01*
X4099309Y55930500D01*
X3980691Y55930500D01*
X3918351Y55913796D01*
X3866109Y55899798D01*
X3763391Y55840493D01*
X3679507Y55756609D01*
X3620202Y55653891D01*
X3620067Y55653387D01*
X3589500Y55539309D01*
X-98377Y55539309D01*
X-63392Y55559508D01*
X-63392Y55559509D01*
X-63387Y55559511D01*
X20489Y55643387D01*
X26264Y55653389D01*
X79797Y55746110D01*
X79797Y55746112D01*
X79799Y55746114D01*
X110500Y55860691D01*
X110500Y55979309D01*
X79799Y56093886D01*
X79797Y56093889D01*
X79797Y56093891D01*
X20492Y56196609D01*
X20490Y56196611D01*
X20489Y56196613D01*
X-63387Y56280489D01*
X-63390Y56280491D01*
X-63392Y56280493D01*
X-166111Y56339798D01*
X-166110Y56339798D01*
X-203431Y56349798D01*
X-280691Y56370500D01*
X-399309Y56370500D01*
X-469433Y56351711D01*
X-513891Y56339798D01*
X-616609Y56280493D01*
X-700491Y56196611D01*
X-741378Y56125794D01*
X-786848Y56084853D01*
X-847699Y56078459D01*
X-900686Y56109052D01*
X-912850Y56125794D01*
X-959511Y56206613D01*
X-1043387Y56290489D01*
X-1043390Y56290491D01*
X-1043392Y56290493D01*
X-1146111Y56349798D01*
X-1146110Y56349798D01*
X-1159649Y56353426D01*
X-1260691Y56380500D01*
X-1379309Y56380500D01*
X-1449433Y56361711D01*
X-1493891Y56349798D01*
X-1596609Y56290493D01*
X-1680493Y56206609D01*
X-1739798Y56103891D01*
X-1739799Y56103886D01*
X-1770500Y55989309D01*
X-6056658Y55989309D01*
X-6024332Y56045298D01*
X-6024332Y56045299D01*
X-6021329Y56050500D01*
X-6015201Y56061114D01*
X-5984500Y56175691D01*
X-5984500Y56294309D01*
X-6015201Y56408886D01*
X-6015203Y56408889D01*
X-6015203Y56408891D01*
X-6074508Y56511609D01*
X-6074510Y56511611D01*
X-6074511Y56511613D01*
X-6158387Y56595489D01*
X-6158390Y56595491D01*
X-6158392Y56595493D01*
X-6261111Y56654798D01*
X-6261110Y56654798D01*
X-6274649Y56658426D01*
X-6375691Y56685500D01*
X-6494309Y56685500D01*
X-6564433Y56666711D01*
X-6608891Y56654798D01*
X-6711609Y56595493D01*
X-6795493Y56511609D01*
X-6854798Y56408891D01*
X-6854799Y56408886D01*
X-6885500Y56294309D01*
X-9000000Y56294309D01*
X-9000000Y57509309D01*
X-8400500Y57509309D01*
X-8400500Y57390691D01*
X-8396594Y57376115D01*
X-8369798Y57276110D01*
X-8310493Y57173392D01*
X-8310491Y57173390D01*
X-8310489Y57173387D01*
X-8226613Y57089511D01*
X-8226611Y57089510D01*
X-8226609Y57089508D01*
X-8123890Y57030203D01*
X-8123889Y57030203D01*
X-8123886Y57030201D01*
X-8009309Y56999500D01*
X-8009307Y56999500D01*
X-7890693Y56999500D01*
X-7890691Y56999500D01*
X-7776114Y57030201D01*
X-7776112Y57030203D01*
X-7776110Y57030203D01*
X-7673392Y57089508D01*
X-7673392Y57089509D01*
X-7673387Y57089511D01*
X-7589511Y57173387D01*
X-7530201Y57276114D01*
X-7499500Y57390691D01*
X-7499500Y57509309D01*
X-7530201Y57623886D01*
X-7530203Y57623889D01*
X-7530203Y57623891D01*
X-7589508Y57726609D01*
X-7589510Y57726611D01*
X-7589511Y57726613D01*
X-7673387Y57810489D01*
X-7673390Y57810491D01*
X-7673392Y57810493D01*
X-7776111Y57869798D01*
X-7776110Y57869798D01*
X-7789649Y57873426D01*
X-7890691Y57900500D01*
X-8009309Y57900500D01*
X-8079433Y57881711D01*
X-8123891Y57869798D01*
X-8226609Y57810493D01*
X-8310493Y57726609D01*
X-8369798Y57623891D01*
X-8386963Y57559831D01*
X-8400500Y57509309D01*
X-9000000Y57509309D01*
X-9000000Y58773500D01*
X-8981093Y58831691D01*
X-8931593Y58867655D01*
X-8901000Y58872500D01*
X12901000Y58872500D01*
X12959191Y58853593D01*
G37*
%TD.AperFunction*%
%TD*%
%TA.AperFunction,Conductor*%
%TO.N,3V3_MIC*%
G36*
X30759191Y54381093D02*
G01*
X30795155Y54331593D01*
X30800000Y54301000D01*
X30800000Y53461880D01*
X30781093Y53403689D01*
X30750501Y53376144D01*
X30723389Y53360491D01*
X30639507Y53276609D01*
X30580202Y53173891D01*
X30549500Y53059308D01*
X30549500Y52940692D01*
X30553977Y52923983D01*
X30550774Y52862881D01*
X30528354Y52828357D01*
X30000000Y52300001D01*
X30000000Y49059184D01*
X29981093Y49000993D01*
X29931593Y48965029D01*
X29870407Y48965029D01*
X29820907Y49000993D01*
X29815264Y49009683D01*
X29805490Y49026611D01*
X29805489Y49026613D01*
X29721613Y49110489D01*
X29721610Y49110491D01*
X29721608Y49110493D01*
X29618889Y49169798D01*
X29618890Y49169798D01*
X29605351Y49173426D01*
X29504309Y49200500D01*
X29385691Y49200500D01*
X29315567Y49181711D01*
X29271109Y49169798D01*
X29168391Y49110493D01*
X29084507Y49026609D01*
X29025202Y48923891D01*
X29025201Y48923886D01*
X28994500Y48809309D01*
X28994500Y48690691D01*
X29021574Y48589649D01*
X29025202Y48576110D01*
X29084507Y48473392D01*
X29084509Y48473390D01*
X29084511Y48473387D01*
X29168387Y48389511D01*
X29168389Y48389510D01*
X29168391Y48389508D01*
X29271110Y48330203D01*
X29271111Y48330203D01*
X29271114Y48330201D01*
X29385691Y48299500D01*
X29385693Y48299500D01*
X29504307Y48299500D01*
X29504309Y48299500D01*
X29618886Y48330201D01*
X29618888Y48330203D01*
X29618890Y48330203D01*
X29721608Y48389508D01*
X29721608Y48389509D01*
X29721613Y48389511D01*
X29805489Y48473387D01*
X29815263Y48490317D01*
X29860732Y48531258D01*
X29921582Y48537654D01*
X29974571Y48507062D01*
X29999458Y48451166D01*
X30000000Y48440817D01*
X30000000Y46000000D01*
X31171005Y44828995D01*
X31198781Y44774480D01*
X31200000Y44758993D01*
X31200000Y42887498D01*
X31181093Y42829307D01*
X31131593Y42793343D01*
X31101000Y42788498D01*
X30960943Y42788498D01*
X30884579Y42768037D01*
X30808214Y42747575D01*
X30748785Y42713263D01*
X30699286Y42700000D01*
X30141008Y42700000D01*
X30133410Y42702469D01*
X30125521Y42701219D01*
X30104865Y42711744D01*
X30082817Y42718907D01*
X30071004Y42728996D01*
X30028996Y42771004D01*
X30001219Y42825521D01*
X30000000Y42841008D01*
X30000000Y43707781D01*
X30013265Y43757283D01*
X30019575Y43768213D01*
X30019574Y43768213D01*
X30019577Y43768216D01*
X30060500Y43920943D01*
X30060500Y44079057D01*
X30019577Y44231784D01*
X29940520Y44368716D01*
X29828716Y44480520D01*
X29691784Y44559577D01*
X29691781Y44559578D01*
X29647245Y44571512D01*
X29602866Y44597134D01*
X28628996Y45571004D01*
X28601219Y45625521D01*
X28600000Y45641008D01*
X28600000Y47699669D01*
X28618907Y47757860D01*
X28649499Y47785405D01*
X28656613Y47789511D01*
X28740489Y47873387D01*
X28799799Y47976114D01*
X28830500Y48090691D01*
X28830500Y48209309D01*
X28799799Y48323886D01*
X28799797Y48323889D01*
X28799797Y48323891D01*
X28740492Y48426609D01*
X28740490Y48426611D01*
X28740489Y48426613D01*
X28656613Y48510489D01*
X28656610Y48510491D01*
X28649497Y48514598D01*
X28608558Y48560069D01*
X28600000Y48600333D01*
X28600000Y51821891D01*
X28618907Y51880082D01*
X28628990Y51891889D01*
X28660489Y51923387D01*
X28660492Y51923392D01*
X28719797Y52026110D01*
X28719797Y52026112D01*
X28719799Y52026114D01*
X28750500Y52140691D01*
X28750500Y52259309D01*
X28719799Y52373886D01*
X28719797Y52373889D01*
X28719797Y52373891D01*
X28660492Y52476609D01*
X28660491Y52476610D01*
X28660490Y52476611D01*
X28660489Y52476613D01*
X28628995Y52508107D01*
X28601219Y52562624D01*
X28600000Y52578110D01*
X28600000Y52849999D01*
X28600000Y52850000D01*
X28570000Y52880000D01*
X28569999Y52880000D01*
X27699000Y52880000D01*
X27640809Y52898907D01*
X27604845Y52948407D01*
X27600000Y52979000D01*
X27600000Y54258992D01*
X27602468Y54266590D01*
X27601219Y54274479D01*
X27611743Y54295135D01*
X27618907Y54317183D01*
X27628996Y54328996D01*
X27671004Y54371004D01*
X27725521Y54398781D01*
X27741008Y54400000D01*
X30701000Y54400000D01*
X30759191Y54381093D01*
G37*
%TD.AperFunction*%
%TD*%
M02*
