%TF.GenerationSoftware,KiCad,Pcbnew,9.0.3*%
%TF.CreationDate,2025-08-25T11:29:22-05:00*%
%TF.ProjectId,controller,636f6e74-726f-46c6-9c65-722e6b696361,rev?*%
%TF.SameCoordinates,Original*%
%TF.FileFunction,Copper,L1,Top*%
%TF.FilePolarity,Positive*%
%FSLAX46Y46*%
G04 Gerber Fmt 4.6, Leading zero omitted, Abs format (unit mm)*
G04 Created by KiCad (PCBNEW 9.0.3) date 2025-08-25 11:29:22*
%MOMM*%
%LPD*%
G01*
G04 APERTURE LIST*
G04 Aperture macros list*
%AMRoundRect*
0 Rectangle with rounded corners*
0 $1 Rounding radius*
0 $2 $3 $4 $5 $6 $7 $8 $9 X,Y pos of 4 corners*
0 Add a 4 corners polygon primitive as box body*
4,1,4,$2,$3,$4,$5,$6,$7,$8,$9,$2,$3,0*
0 Add four circle primitives for the rounded corners*
1,1,$1+$1,$2,$3*
1,1,$1+$1,$4,$5*
1,1,$1+$1,$6,$7*
1,1,$1+$1,$8,$9*
0 Add four rect primitives between the rounded corners*
20,1,$1+$1,$2,$3,$4,$5,0*
20,1,$1+$1,$4,$5,$6,$7,0*
20,1,$1+$1,$6,$7,$8,$9,0*
20,1,$1+$1,$8,$9,$2,$3,0*%
G04 Aperture macros list end*
%TA.AperFunction,SMDPad,CuDef*%
%ADD10R,0.558800X0.203200*%
%TD*%
%TA.AperFunction,SMDPad,CuDef*%
%ADD11R,0.450000X0.200000*%
%TD*%
%TA.AperFunction,SMDPad,CuDef*%
%ADD12RoundRect,0.100000X0.100000X-0.130000X0.100000X0.130000X-0.100000X0.130000X-0.100000X-0.130000X0*%
%TD*%
%TA.AperFunction,SMDPad,CuDef*%
%ADD13R,0.400000X0.650000*%
%TD*%
%TA.AperFunction,SMDPad,CuDef*%
%ADD14RoundRect,0.100000X0.130000X0.100000X-0.130000X0.100000X-0.130000X-0.100000X0.130000X-0.100000X0*%
%TD*%
%TA.AperFunction,SMDPad,CuDef*%
%ADD15R,0.320000X0.360000*%
%TD*%
%TA.AperFunction,SMDPad,CuDef*%
%ADD16RoundRect,0.225000X-0.250000X0.225000X-0.250000X-0.225000X0.250000X-0.225000X0.250000X0.225000X0*%
%TD*%
%TA.AperFunction,SMDPad,CuDef*%
%ADD17RoundRect,0.250000X0.325000X0.650000X-0.325000X0.650000X-0.325000X-0.650000X0.325000X-0.650000X0*%
%TD*%
%TA.AperFunction,SMDPad,CuDef*%
%ADD18RoundRect,0.218750X-0.218750X-0.256250X0.218750X-0.256250X0.218750X0.256250X-0.218750X0.256250X0*%
%TD*%
%TA.AperFunction,SMDPad,CuDef*%
%ADD19RoundRect,0.140000X-0.140000X-0.170000X0.140000X-0.170000X0.140000X0.170000X-0.140000X0.170000X0*%
%TD*%
%TA.AperFunction,SMDPad,CuDef*%
%ADD20RoundRect,0.250000X-0.250000X-0.475000X0.250000X-0.475000X0.250000X0.475000X-0.250000X0.475000X0*%
%TD*%
%TA.AperFunction,SMDPad,CuDef*%
%ADD21RoundRect,0.225000X0.225000X0.250000X-0.225000X0.250000X-0.225000X-0.250000X0.225000X-0.250000X0*%
%TD*%
%TA.AperFunction,SMDPad,CuDef*%
%ADD22RoundRect,0.100000X0.100000X-0.105500X0.100000X0.105500X-0.100000X0.105500X-0.100000X-0.105500X0*%
%TD*%
%TA.AperFunction,SMDPad,CuDef*%
%ADD23RoundRect,0.218750X0.218750X0.381250X-0.218750X0.381250X-0.218750X-0.381250X0.218750X-0.381250X0*%
%TD*%
%TA.AperFunction,SMDPad,CuDef*%
%ADD24RoundRect,0.218750X-0.218750X-0.381250X0.218750X-0.381250X0.218750X0.381250X-0.218750X0.381250X0*%
%TD*%
%TA.AperFunction,SMDPad,CuDef*%
%ADD25C,0.500000*%
%TD*%
%TA.AperFunction,SMDPad,CuDef*%
%ADD26RoundRect,0.225000X0.250000X-0.225000X0.250000X0.225000X-0.250000X0.225000X-0.250000X-0.225000X0*%
%TD*%
%TA.AperFunction,SMDPad,CuDef*%
%ADD27RoundRect,0.100000X-0.100000X0.225000X-0.100000X-0.225000X0.100000X-0.225000X0.100000X0.225000X0*%
%TD*%
%TA.AperFunction,SMDPad,CuDef*%
%ADD28RoundRect,0.100000X0.105500X0.100000X-0.105500X0.100000X-0.105500X-0.100000X0.105500X-0.100000X0*%
%TD*%
%TA.AperFunction,SMDPad,CuDef*%
%ADD29R,0.500000X0.500000*%
%TD*%
%TA.AperFunction,SMDPad,CuDef*%
%ADD30R,1.375000X1.015000*%
%TD*%
%TA.AperFunction,SMDPad,CuDef*%
%ADD31R,1.225000X1.980000*%
%TD*%
%TA.AperFunction,SMDPad,CuDef*%
%ADD32R,0.500000X0.650000*%
%TD*%
%TA.AperFunction,SMDPad,CuDef*%
%ADD33R,1.175000X0.715000*%
%TD*%
%TA.AperFunction,SMDPad,CuDef*%
%ADD34RoundRect,0.135000X0.135000X0.185000X-0.135000X0.185000X-0.135000X-0.185000X0.135000X-0.185000X0*%
%TD*%
%TA.AperFunction,SMDPad,CuDef*%
%ADD35RoundRect,0.200000X0.275000X-0.200000X0.275000X0.200000X-0.275000X0.200000X-0.275000X-0.200000X0*%
%TD*%
%TA.AperFunction,SMDPad,CuDef*%
%ADD36R,0.700000X0.200000*%
%TD*%
%TA.AperFunction,SMDPad,CuDef*%
%ADD37R,1.500000X3.500000*%
%TD*%
%TA.AperFunction,SMDPad,CuDef*%
%ADD38RoundRect,0.100000X-0.105500X-0.100000X0.105500X-0.100000X0.105500X0.100000X-0.105500X0.100000X0*%
%TD*%
%TA.AperFunction,SMDPad,CuDef*%
%ADD39RoundRect,0.250000X-0.475000X0.250000X-0.475000X-0.250000X0.475000X-0.250000X0.475000X0.250000X0*%
%TD*%
%TA.AperFunction,SMDPad,CuDef*%
%ADD40RoundRect,0.250000X0.250000X0.475000X-0.250000X0.475000X-0.250000X-0.475000X0.250000X-0.475000X0*%
%TD*%
%TA.AperFunction,SMDPad,CuDef*%
%ADD41RoundRect,0.135000X-0.185000X0.135000X-0.185000X-0.135000X0.185000X-0.135000X0.185000X0.135000X0*%
%TD*%
%TA.AperFunction,SMDPad,CuDef*%
%ADD42R,0.800000X1.100000*%
%TD*%
%TA.AperFunction,SMDPad,CuDef*%
%ADD43RoundRect,0.250000X-0.350000X-1.100000X0.350000X-1.100000X0.350000X1.100000X-0.350000X1.100000X0*%
%TD*%
%TA.AperFunction,SMDPad,CuDef*%
%ADD44R,1.100000X3.700000*%
%TD*%
%TA.AperFunction,SMDPad,CuDef*%
%ADD45RoundRect,0.200000X-0.275000X0.200000X-0.275000X-0.200000X0.275000X-0.200000X0.275000X0.200000X0*%
%TD*%
%TA.AperFunction,SMDPad,CuDef*%
%ADD46RoundRect,0.250000X-1.000000X-0.650000X1.000000X-0.650000X1.000000X0.650000X-1.000000X0.650000X0*%
%TD*%
%TA.AperFunction,SMDPad,CuDef*%
%ADD47R,0.939800X1.244600*%
%TD*%
%TA.AperFunction,SMDPad,CuDef*%
%ADD48R,0.360000X0.320000*%
%TD*%
%TA.AperFunction,SMDPad,CuDef*%
%ADD49RoundRect,0.250000X-0.650000X0.325000X-0.650000X-0.325000X0.650000X-0.325000X0.650000X0.325000X0*%
%TD*%
%TA.AperFunction,SMDPad,CuDef*%
%ADD50RoundRect,0.040000X-0.140000X-0.120000X0.140000X-0.120000X0.140000X0.120000X-0.140000X0.120000X0*%
%TD*%
%TA.AperFunction,SMDPad,CuDef*%
%ADD51RoundRect,0.135000X0.185000X-0.135000X0.185000X0.135000X-0.185000X0.135000X-0.185000X-0.135000X0*%
%TD*%
%TA.AperFunction,SMDPad,CuDef*%
%ADD52RoundRect,0.225000X-0.225000X-0.250000X0.225000X-0.250000X0.225000X0.250000X-0.225000X0.250000X0*%
%TD*%
%TA.AperFunction,SMDPad,CuDef*%
%ADD53RoundRect,0.250000X-0.325000X-0.650000X0.325000X-0.650000X0.325000X0.650000X-0.325000X0.650000X0*%
%TD*%
%TA.AperFunction,SMDPad,CuDef*%
%ADD54R,0.609600X0.254000*%
%TD*%
%TA.AperFunction,SMDPad,CuDef*%
%ADD55R,1.016000X1.549400*%
%TD*%
%TA.AperFunction,ComponentPad*%
%ADD56C,1.545000*%
%TD*%
%TA.AperFunction,ComponentPad*%
%ADD57C,1.400000*%
%TD*%
%TA.AperFunction,ComponentPad*%
%ADD58C,2.400000*%
%TD*%
%TA.AperFunction,ComponentPad*%
%ADD59R,1.428000X1.428000*%
%TD*%
%TA.AperFunction,ComponentPad*%
%ADD60C,1.428000*%
%TD*%
%TA.AperFunction,ComponentPad*%
%ADD61O,2.216000X1.108000*%
%TD*%
%TA.AperFunction,ComponentPad*%
%ADD62R,1.700000X1.700000*%
%TD*%
%TA.AperFunction,ComponentPad*%
%ADD63C,1.700000*%
%TD*%
%TA.AperFunction,ComponentPad*%
%ADD64C,0.700000*%
%TD*%
%TA.AperFunction,ComponentPad*%
%ADD65O,1.700000X0.900000*%
%TD*%
%TA.AperFunction,ComponentPad*%
%ADD66O,2.400000X0.900000*%
%TD*%
%TA.AperFunction,ViaPad*%
%ADD67C,0.800000*%
%TD*%
%TA.AperFunction,ViaPad*%
%ADD68C,0.500000*%
%TD*%
%TA.AperFunction,ViaPad*%
%ADD69C,1.400000*%
%TD*%
%TA.AperFunction,ViaPad*%
%ADD70C,0.600000*%
%TD*%
%TA.AperFunction,ViaPad*%
%ADD71C,1.200000*%
%TD*%
%TA.AperFunction,Conductor*%
%ADD72C,0.300000*%
%TD*%
%TA.AperFunction,Conductor*%
%ADD73C,0.450000*%
%TD*%
%TA.AperFunction,Conductor*%
%ADD74C,0.200000*%
%TD*%
%TA.AperFunction,Conductor*%
%ADD75C,1.000000*%
%TD*%
%TA.AperFunction,Conductor*%
%ADD76C,0.150000*%
%TD*%
%TA.AperFunction,Conductor*%
%ADD77C,0.218186*%
%TD*%
%TA.AperFunction,Conductor*%
%ADD78C,0.156500*%
%TD*%
%TA.AperFunction,Conductor*%
%ADD79C,0.800000*%
%TD*%
%TA.AperFunction,Conductor*%
%ADD80C,0.700000*%
%TD*%
%TA.AperFunction,Conductor*%
%ADD81C,0.500000*%
%TD*%
%TA.AperFunction,Conductor*%
%ADD82C,0.400000*%
%TD*%
%TA.AperFunction,Conductor*%
%ADD83C,0.110000*%
%TD*%
%TA.AperFunction,Conductor*%
%ADD84C,0.136400*%
%TD*%
%TA.AperFunction,Conductor*%
%ADD85C,0.250000*%
%TD*%
G04 APERTURE END LIST*
D10*
%TO.P,U4,1*%
%TO.N,/SOM/FPGA_DONE*%
X-5385000Y33800001D03*
%TO.P,U4,2*%
%TO.N,/SOM/JTAG_TCK*%
X-5385000Y33399999D03*
D11*
%TO.P,U4,3*%
%TO.N,GND*%
X-5260000Y33000000D03*
D10*
%TO.P,U4,4*%
%TO.N,/SOM/EXT_RST_IN*%
X-5385000Y32600001D03*
%TO.P,U4,5*%
%TO.N,/SOM/JTAG_TDO*%
X-5385000Y32199999D03*
%TO.P,U4,6,NC*%
%TO.N,unconnected-(U4-NC-Pad6)*%
X-4615000Y32199999D03*
%TO.P,U4,7,INTERNALLY*%
%TO.N,unconnected-(U4-INTERNALLY-Pad7)*%
X-4615000Y32600001D03*
D11*
%TO.P,U4,8*%
%TO.N,GND*%
X-4740000Y33000000D03*
D10*
%TO.P,U4,9,NC*%
%TO.N,unconnected-(U4-NC-Pad9)*%
X-4615000Y33399999D03*
%TO.P,U4,10,INTERNALLY*%
%TO.N,unconnected-(U4-INTERNALLY-Pad10)*%
X-4615000Y33800001D03*
%TD*%
%TO.P,U3,1*%
%TO.N,/SOM/JTAG_TDI*%
X-5385000Y26530000D03*
%TO.P,U3,2*%
%TO.N,/SOM/JTAG_TMS*%
X-5385000Y26129998D03*
D11*
%TO.P,U3,3*%
%TO.N,GND*%
X-5260000Y25729999D03*
D10*
%TO.P,U3,4*%
%TO.N,/SOM/UART_TX_3V3*%
X-5385000Y25330000D03*
%TO.P,U3,5*%
%TO.N,/SOM/UART_RX_3V3*%
X-5385000Y24929998D03*
%TO.P,U3,6,NC*%
%TO.N,unconnected-(U3-NC-Pad6)*%
X-4615000Y24929998D03*
%TO.P,U3,7,INTERNALLY*%
%TO.N,unconnected-(U3-INTERNALLY-Pad7)*%
X-4615000Y25330000D03*
D11*
%TO.P,U3,8*%
%TO.N,GND*%
X-4740000Y25729999D03*
D10*
%TO.P,U3,9,NC*%
%TO.N,unconnected-(U3-NC-Pad9)*%
X-4615000Y26129998D03*
%TO.P,U3,10,INTERNALLY*%
%TO.N,unconnected-(U3-INTERNALLY-Pad10)*%
X-4615000Y26530000D03*
%TD*%
D12*
%TO.P,C1,1*%
%TO.N,+3V3*%
X-350000Y54800000D03*
%TO.P,C1,2*%
%TO.N,GND*%
X-350000Y55440000D03*
%TD*%
D13*
%TO.P,U2,1*%
%TO.N,N/C*%
X5480000Y53050000D03*
%TO.P,U2,2*%
%TO.N,Net-(J3-DET)*%
X4830000Y53049999D03*
%TO.P,U2,3,GND*%
%TO.N,GND*%
X4180000Y53050000D03*
%TO.P,U2,4*%
%TO.N,/SD/SD_CD*%
X4180000Y51150000D03*
%TO.P,U2,5,VCC*%
%TO.N,+1V8*%
X5480000Y51150000D03*
%TD*%
D14*
%TO.P,R2,1*%
%TO.N,+1V8*%
X5150000Y50070000D03*
%TO.P,R2,2*%
%TO.N,Net-(J3-DET)*%
X4510000Y50070000D03*
%TD*%
D15*
%TO.P,C13,1*%
%TO.N,+5V*%
X20200000Y53880000D03*
%TO.P,C13,2*%
%TO.N,GND*%
X20200000Y53320000D03*
%TD*%
D16*
%TO.P,C31,1*%
%TO.N,/PSU/VBUS_TVS*%
X-22900000Y24265000D03*
%TO.P,C31,2*%
%TO.N,GNDPWR*%
X-22900000Y22715000D03*
%TD*%
D17*
%TO.P,C10,1*%
%TO.N,Net-(C10-Pad1)*%
X-29474999Y6662500D03*
%TO.P,C10,2*%
%TO.N,Earth_Clean*%
X-32425001Y6662500D03*
%TD*%
D18*
%TO.P,FB2,1*%
%TO.N,/Sensors/3V3_LDO*%
X26475000Y54374999D03*
%TO.P,FB2,2*%
%TO.N,3V3_MIC*%
X28050000Y54374999D03*
%TD*%
D19*
%TO.P,C14,1*%
%TO.N,Net-(J4-TRCT3)*%
X-8480000Y11940001D03*
%TO.P,C14,2*%
%TO.N,GND*%
X-7520000Y11939999D03*
%TD*%
D20*
%TO.P,C11,1*%
%TO.N,/Ethernet/POE_PR12*%
X-21039999Y7740000D03*
%TO.P,C11,2*%
%TO.N,Net-(C11-Pad2)*%
X-19140001Y7740000D03*
%TD*%
D12*
%TO.P,C33,1*%
%TO.N,+3V3*%
X-1290000Y54800000D03*
%TO.P,C33,2*%
%TO.N,GND*%
X-1290000Y55440000D03*
%TD*%
D19*
%TO.P,C34,1*%
%TO.N,Net-(J4-TRCT4)*%
X-8480000Y13240001D03*
%TO.P,C34,2*%
%TO.N,GND*%
X-7520000Y13239999D03*
%TD*%
D18*
%TO.P,FB4,1*%
%TO.N,+1V8*%
X5212500Y46500000D03*
%TO.P,FB4,2*%
%TO.N,VDDIO_501_PS*%
X6787500Y46500000D03*
%TD*%
D21*
%TO.P,C27,1*%
%TO.N,Net-(U10-CAPM)*%
X-18505000Y45750000D03*
%TO.P,C27,2*%
%TO.N,Net-(U10-CAPP)*%
X-20055000Y45750000D03*
%TD*%
D15*
%TO.P,C15,1*%
%TO.N,/Sensors/3V3_LDO*%
X26300000Y53180000D03*
%TO.P,C15,2*%
%TO.N,GND*%
X26300000Y52620000D03*
%TD*%
D22*
%TO.P,R6,1*%
%TO.N,+3V3*%
X-18460000Y40850000D03*
%TO.P,R6,2*%
%TO.N,Net-(U10-XSMT)*%
X-18460000Y41490000D03*
%TD*%
D23*
%TO.P,L5,1*%
%TO.N,Net-(L4-Pad2)*%
X-17400000Y-6700001D03*
%TO.P,L5,2*%
%TO.N,/PSU/PoE_VIN+*%
X-19525000Y-6700001D03*
%TD*%
D24*
%TO.P,L8,1*%
%TO.N,Net-(L7-Pad2)*%
X-8587500Y-6700001D03*
%TO.P,L8,2*%
%TO.N,/PSU/PoE_VIN-*%
X-6462500Y-6700001D03*
%TD*%
D25*
%TO.P,FID1,*%
%TO.N,*%
X37820000Y-11230000D03*
%TD*%
D20*
%TO.P,C9,1*%
%TO.N,/Ethernet/POE_PR36*%
X-21039999Y5740000D03*
%TO.P,C9,2*%
%TO.N,Net-(C9-Pad2)*%
X-19140001Y5740000D03*
%TD*%
D25*
%TO.P,FID9,*%
%TO.N,*%
X45000000Y20000000D03*
%TD*%
D26*
%TO.P,C21,1*%
%TO.N,/PSU/PoE_VDC+*%
X-24160000Y-12885000D03*
%TO.P,C21,2*%
%TO.N,GND*%
X-24160000Y-11335000D03*
%TD*%
D27*
%TO.P,Q2,1*%
%TO.N,VCCIN*%
X-20820000Y19890000D03*
%TO.P,Q2,2*%
%TO.N,Net-(Q2-Pad2)*%
X-21470000Y19889999D03*
%TO.P,Q2,3*%
%TO.N,Net-(Q1-G)*%
X-22120000Y19890000D03*
%TO.P,Q2,4*%
%TO.N,+5V*%
X-22120000Y17990000D03*
%TO.P,Q2,5*%
%TO.N,Net-(Q2-Pad2)*%
X-21470000Y17990001D03*
%TO.P,Q2,6*%
X-20820000Y17990000D03*
%TD*%
D28*
%TO.P,R18,1*%
%TO.N,GND*%
X-180000Y41500000D03*
%TO.P,R18,2*%
%TO.N,/SOM/S_JTAG_H*%
X-820000Y41500000D03*
%TD*%
D25*
%TO.P,FID2,*%
%TO.N,*%
X40000000Y48000000D03*
%TD*%
D26*
%TO.P,C28,1*%
%TO.N,VCCIN*%
X-30530000Y-14135000D03*
%TO.P,C28,2*%
%TO.N,GND*%
X-30530000Y-12585000D03*
%TD*%
D24*
%TO.P,L6,1*%
%TO.N,Net-(D1-A2)*%
X-8587500Y-3200000D03*
%TO.P,L6,2*%
%TO.N,Net-(L6-Pad2)*%
X-6462500Y-3200000D03*
%TD*%
D28*
%TO.P,R4,1*%
%TO.N,GND*%
X-180000Y43000000D03*
%TO.P,R4,2*%
%TO.N,/SOM/SD_BOOT_CONF_H*%
X-820000Y43000000D03*
%TD*%
D29*
%TO.P,D3,1*%
%TO.N,Net-(D1-A2)*%
X-10525000Y-2900001D03*
D30*
X-10525000Y-3657501D03*
D29*
%TO.P,D3,2,+*%
%TO.N,/Ethernet/POE_PR36*%
X-11825000Y-2900001D03*
D31*
X-11937500Y-4140001D03*
D32*
%TO.P,D3,3*%
%TO.N,Net-(D1-A1)*%
X-11825000Y-5625001D03*
%TO.P,D3,4,-*%
%TO.N,/Ethernet/POE_PR12*%
X-10525000Y-5625001D03*
D33*
%TO.P,D3,DNC*%
%TO.N,N/C*%
X-10487500Y-4772501D03*
%TD*%
D34*
%TO.P,R13,1*%
%TO.N,Net-(C7-Pad2)*%
X-25730001Y6110000D03*
%TO.P,R13,2*%
%TO.N,Net-(C10-Pad1)*%
X-26749999Y6110000D03*
%TD*%
D24*
%TO.P,L4,1*%
%TO.N,Net-(L3-Pad2)*%
X-19525000Y-4950000D03*
%TO.P,L4,2*%
%TO.N,Net-(L4-Pad2)*%
X-17400000Y-4950000D03*
%TD*%
D35*
%TO.P,R1,1*%
%TO.N,GND*%
X-15400000Y43190000D03*
%TO.P,R1,2*%
%TO.N,GNDA*%
X-15400000Y44840000D03*
%TD*%
D36*
%TO.P,U5,1,VCCA*%
%TO.N,+1V8*%
X620000Y30290000D03*
%TO.P,U5,2,A1*%
%TO.N,/SOM/UART_RX*%
X620000Y30690001D03*
%TO.P,U5,3,A2*%
%TO.N,/SOM/UART_TX*%
X620000Y31089999D03*
%TO.P,U5,4,GND*%
%TO.N,GND*%
X620000Y31490000D03*
%TO.P,U5,5,OE*%
%TO.N,+1V8*%
X-280000Y31490000D03*
%TO.P,U5,6,B2*%
%TO.N,/SOM/UART_TX_3V3*%
X-280000Y31089999D03*
%TO.P,U5,7,B1*%
%TO.N,/SOM/UART_RX_3V3*%
X-280000Y30690001D03*
%TO.P,U5,8,VCCB*%
%TO.N,+3V3*%
X-280000Y30290000D03*
%TD*%
D37*
%TO.P,J8,1,In*%
%TO.N,/SOM/SYNC_OUT_5V*%
X36500000Y56777500D03*
%TO.P,J8,2,Ext*%
%TO.N,GND*%
X39200000Y56777500D03*
X33800000Y56777500D03*
%TD*%
D38*
%TO.P,R10,1*%
%TO.N,Net-(Q2-Pad2)*%
X-19590000Y17830000D03*
%TO.P,R10,2*%
%TO.N,GND*%
X-18950000Y17830000D03*
%TD*%
D25*
%TO.P,FID8,*%
%TO.N,*%
X13000000Y47000000D03*
%TD*%
D19*
%TO.P,C5,1*%
%TO.N,Net-(J4-TRCT1)*%
X-8480000Y-669999D03*
%TO.P,C5,2*%
%TO.N,GND*%
X-7520000Y-670001D03*
%TD*%
D29*
%TO.P,D4,1*%
%TO.N,Net-(D1-A2)*%
X-14125000Y-2900001D03*
D30*
X-14125000Y-3657501D03*
D29*
%TO.P,D4,2,+*%
%TO.N,/Ethernet/POE_PR78*%
X-15425000Y-2900001D03*
D31*
X-15537500Y-4140001D03*
D32*
%TO.P,D4,3*%
%TO.N,Net-(D1-A1)*%
X-15425000Y-5625001D03*
%TO.P,D4,4,-*%
%TO.N,/Ethernet/POE_PR45*%
X-14125000Y-5625001D03*
D33*
%TO.P,D4,DNC*%
%TO.N,N/C*%
X-14087500Y-4772501D03*
%TD*%
D37*
%TO.P,J6,1,In*%
%TO.N,/SOM/SYNC_IN_5V*%
X36500000Y-17027500D03*
%TO.P,J6,2,Ext*%
%TO.N,GND*%
X33800000Y-17027500D03*
X39200000Y-17027500D03*
%TD*%
D39*
%TO.P,C16,1*%
%TO.N,3V3_MIC*%
X30100000Y54449999D03*
%TO.P,C16,2*%
%TO.N,GND*%
X30100000Y52550001D03*
%TD*%
D40*
%TO.P,C7,1*%
%TO.N,/Ethernet/POE_PR78*%
X-22540001Y5740000D03*
%TO.P,C7,2*%
%TO.N,Net-(C7-Pad2)*%
X-24439999Y5740000D03*
%TD*%
D41*
%TO.P,R33,1*%
%TO.N,Net-(C11-Pad2)*%
X-17780000Y8219999D03*
%TO.P,R33,2*%
%TO.N,Net-(C10-Pad1)*%
X-17780000Y7200001D03*
%TD*%
D34*
%TO.P,R31,1*%
%TO.N,Net-(C8-Pad2)*%
X-25730001Y7320000D03*
%TO.P,R31,2*%
%TO.N,Net-(C10-Pad1)*%
X-26749999Y7320000D03*
%TD*%
D42*
%TO.P,JM2,A1,A1*%
%TO.N,/SOM/MCLK2*%
X19285000Y-8750000D03*
%TO.P,JM2,A2,A2*%
%TO.N,/SOM/MCLK1*%
X20555000Y-8750000D03*
%TO.P,JM2,A3,A3*%
%TO.N,GND*%
X21825000Y-8750000D03*
%TO.P,JM2,A4,A4*%
%TO.N,/SOM/D16*%
X23095000Y-8750000D03*
%TO.P,JM2,A5,A5*%
%TO.N,/SOM/D32*%
X24365000Y-8750000D03*
%TO.P,JM2,A6,A6*%
%TO.N,/SOM/D54*%
X25635000Y-8750000D03*
%TO.P,JM2,A7,A7*%
%TO.N,/SOM/D56*%
X26905000Y-8750000D03*
%TO.P,JM2,A8,A8*%
%TO.N,/SOM/D34*%
X28175000Y-8750000D03*
%TO.P,JM2,A9,A9*%
%TO.N,/SOM/D58*%
X29445000Y-8750000D03*
%TO.P,JM2,A10,A10*%
%TO.N,/SOM/D36*%
X30715000Y-8750000D03*
%TO.P,JM2,B1,B1*%
%TO.N,/SOM/D52*%
X19285000Y-3250000D03*
%TO.P,JM2,B2,B2*%
%TO.N,/SOM/D30*%
X20555000Y-3250000D03*
%TO.P,JM2,B3,B3*%
%TO.N,/SOM/D14*%
X21825000Y-3250000D03*
%TO.P,JM2,B4,B4*%
%TO.N,/SOM/D4*%
X23095000Y-3250000D03*
%TO.P,JM2,B5,B5*%
%TO.N,/SOM/LED_CTRL*%
X24365000Y-3250000D03*
%TO.P,JM2,B6,B6*%
%TO.N,/SOM/D0*%
X25635000Y-3250000D03*
%TO.P,JM2,B7,B7*%
%TO.N,/SOM/D6*%
X26905000Y-3250000D03*
%TO.P,JM2,B8,B8*%
%TO.N,/SOM/D20*%
X28175000Y-3250000D03*
%TO.P,JM2,B9,B9*%
%TO.N,/SOM/D18*%
X29445000Y-3250000D03*
%TO.P,JM2,B10,B10*%
%TO.N,/SOM/D38*%
X30715000Y-3250000D03*
D43*
%TO.P,JM2,MP1,MP1*%
%TO.N,GND*%
X16790000Y-8450000D03*
%TO.P,JM2,MP2,MP2*%
X16790000Y-3550000D03*
%TO.P,JM2,MP3,MP3*%
X33210000Y-8450000D03*
%TO.P,JM2,MP4,MP4*%
X33210000Y-3550000D03*
%TD*%
D44*
%TO.P,L2,1*%
%TO.N,/PSU/PoE_VDC+*%
X-25910000Y-12910000D03*
%TO.P,L2,2*%
%TO.N,VCCIN*%
X-28910000Y-12910000D03*
%TD*%
D23*
%TO.P,L7,1*%
%TO.N,Net-(L6-Pad2)*%
X-6462500Y-4950000D03*
%TO.P,L7,2*%
%TO.N,Net-(L7-Pad2)*%
X-8587500Y-4950000D03*
%TD*%
D16*
%TO.P,C12,1*%
%TO.N,+5V*%
X21300000Y54475000D03*
%TO.P,C12,2*%
%TO.N,GND*%
X21300000Y52925000D03*
%TD*%
D45*
%TO.P,R8,1*%
%TO.N,Net-(D1-A2)*%
X-4725000Y-3175000D03*
%TO.P,R8,2*%
%TO.N,/PSU/PoE_VIN-*%
X-4725000Y-4825000D03*
%TD*%
D38*
%TO.P,R17,1*%
%TO.N,Net-(J2-CC1)*%
X-28837500Y17252499D03*
%TO.P,R17,2*%
%TO.N,GNDPWR*%
X-28197500Y17252499D03*
%TD*%
D46*
%TO.P,D1,1,A1*%
%TO.N,Net-(D1-A1)*%
X-15000001Y-8200000D03*
%TO.P,D1,2,A2*%
%TO.N,Net-(D1-A2)*%
X-10999999Y-8200000D03*
%TD*%
D47*
%TO.P,FL1,1,1*%
%TO.N,GNDPWR*%
X-25652500Y23502499D03*
%TO.P,FL1,2,2*%
%TO.N,/PSU/VBUS_TVS*%
X-27652502Y23502499D03*
%TO.P,FL1,3,3*%
%TO.N,+5V*%
X-27652502Y18752493D03*
%TO.P,FL1,4,4*%
%TO.N,GND*%
X-25652500Y18752493D03*
%TD*%
D45*
%TO.P,R7,1*%
%TO.N,Net-(D1-A1)*%
X-21200000Y-3175000D03*
%TO.P,R7,2*%
%TO.N,/PSU/PoE_VIN+*%
X-21200000Y-4825000D03*
%TD*%
D48*
%TO.P,C3,1*%
%TO.N,+1V8*%
X5120000Y49360000D03*
%TO.P,C3,2*%
%TO.N,GND*%
X4560000Y49360000D03*
%TD*%
D49*
%TO.P,C29,1*%
%TO.N,/PSU/PoE_VIN+*%
X-21800000Y-7124999D03*
%TO.P,C29,2*%
%TO.N,GND*%
X-21800000Y-10075001D03*
%TD*%
D40*
%TO.P,C8,1*%
%TO.N,/Ethernet/POE_PR45*%
X-22540001Y7740000D03*
%TO.P,C8,2*%
%TO.N,Net-(C8-Pad2)*%
X-24439999Y7740000D03*
%TD*%
D38*
%TO.P,R9,1*%
%TO.N,Net-(Q1-G)*%
X-19590000Y18670000D03*
%TO.P,R9,2*%
%TO.N,GND*%
X-18950000Y18670000D03*
%TD*%
D50*
%TO.P,C36,1*%
%TO.N,+5V*%
X-27182500Y17252499D03*
%TO.P,C36,2*%
%TO.N,GND*%
X-26622500Y17252499D03*
%TD*%
D42*
%TO.P,JM1,A1,A1*%
%TO.N,GND*%
X19285000Y43250000D03*
%TO.P,JM1,A2,A2*%
%TO.N,/SOM/D10*%
X20555000Y43250000D03*
%TO.P,JM1,A3,A3*%
%TO.N,/SOM/D50*%
X21825000Y43250000D03*
%TO.P,JM1,A4,A4*%
%TO.N,/SOM/D28*%
X23095000Y43250000D03*
%TO.P,JM1,A5,A5*%
%TO.N,/SOM/D12*%
X24365000Y43250000D03*
%TO.P,JM1,A6,A6*%
%TO.N,/SOM/D2*%
X25635000Y43250000D03*
%TO.P,JM1,A7,A7*%
%TO.N,/SOM/D8*%
X26905000Y43250000D03*
%TO.P,JM1,A8,A8*%
%TO.N,GND*%
X28175000Y43250000D03*
%TO.P,JM1,A9,A9*%
%TO.N,+5V*%
X29445000Y43250000D03*
%TO.P,JM1,A10,A10*%
%TO.N,3V3_MIC*%
X30715000Y43250000D03*
%TO.P,JM1,B1,B1*%
%TO.N,/SOM/MCLK0*%
X19285000Y48750000D03*
%TO.P,JM1,B2,B2*%
%TO.N,GND*%
X20555000Y48750000D03*
%TO.P,JM1,B3,B3*%
%TO.N,/SOM/D48*%
X21825000Y48750000D03*
%TO.P,JM1,B4,B4*%
%TO.N,/SOM/D26*%
X23095000Y48750000D03*
%TO.P,JM1,B5,B5*%
%TO.N,/SOM/D46*%
X24365000Y48750000D03*
%TO.P,JM1,B6,B6*%
%TO.N,/SOM/D24*%
X25635000Y48750000D03*
%TO.P,JM1,B7,B7*%
%TO.N,/SOM/D44*%
X26905000Y48750000D03*
%TO.P,JM1,B8,B8*%
%TO.N,/SOM/D22*%
X28175000Y48750000D03*
%TO.P,JM1,B9,B9*%
%TO.N,/SOM/D42*%
X29445000Y48750000D03*
%TO.P,JM1,B10,B10*%
%TO.N,/SOM/D40*%
X30715000Y48750000D03*
D43*
%TO.P,JM1,MP1,MP1*%
%TO.N,GND*%
X16790000Y43550000D03*
%TO.P,JM1,MP2,MP2*%
X16790000Y48450000D03*
%TO.P,JM1,MP3,MP3*%
X33210000Y43550000D03*
%TO.P,JM1,MP4,MP4*%
X33210000Y48450000D03*
%TD*%
D51*
%TO.P,R32,1*%
%TO.N,Net-(C9-Pad2)*%
X-17780000Y5200001D03*
%TO.P,R32,2*%
%TO.N,Net-(C10-Pad1)*%
X-17780000Y6219999D03*
%TD*%
D49*
%TO.P,C30,1*%
%TO.N,/PSU/PoE_VIN-*%
X-4200000Y-7124999D03*
%TO.P,C30,2*%
%TO.N,GND*%
X-4200000Y-10075001D03*
%TD*%
D52*
%TO.P,C37,1*%
%TO.N,Net-(U10-VNEG)*%
X-18275000Y47500000D03*
%TO.P,C37,2*%
%TO.N,GNDA*%
X-16725000Y47500000D03*
%TD*%
D53*
%TO.P,C43,1*%
%TO.N,/Ethernet/POE_PR45*%
X-23275000Y9880000D03*
%TO.P,C43,2*%
%TO.N,/Ethernet/POE_PR12*%
X-20325000Y9880000D03*
%TD*%
D54*
%TO.P,U7,1,GND*%
%TO.N,GND*%
X24800000Y53574748D03*
%TO.P,U7,2,ADJ/sense*%
%TO.N,/Sensors/3V3_LDO*%
X24800000Y54074874D03*
%TO.P,U7,3,VOUT*%
X24800000Y54575000D03*
%TO.P,U7,4,VIN*%
%TO.N,+5V*%
X22793400Y54575000D03*
%TO.P,U7,5,NC*%
%TO.N,unconnected-(U7-NC-Pad5)*%
X22793400Y54074874D03*
%TO.P,U7,6,EN*%
%TO.N,+5V*%
X22793400Y53574748D03*
D55*
%TO.P,U7,7,EPAD*%
%TO.N,GND*%
X23796700Y54074874D03*
%TD*%
D23*
%TO.P,L3,1*%
%TO.N,Net-(D1-A1)*%
X-17400000Y-3200000D03*
%TO.P,L3,2*%
%TO.N,Net-(L3-Pad2)*%
X-19525000Y-3200000D03*
%TD*%
D25*
%TO.P,FID5,*%
%TO.N,*%
X3600000Y-7500000D03*
%TD*%
D53*
%TO.P,C44,1*%
%TO.N,/Ethernet/POE_PR78*%
X-23275001Y3590000D03*
%TO.P,C44,2*%
%TO.N,/Ethernet/POE_PR36*%
X-20324999Y3590000D03*
%TD*%
D38*
%TO.P,R11,1*%
%TO.N,Net-(J2-CC2)*%
X-28590000Y25090000D03*
%TO.P,R11,2*%
%TO.N,GNDPWR*%
X-27950000Y25090000D03*
%TD*%
D15*
%TO.P,C17,1*%
%TO.N,3V3_MIC*%
X28300000Y53160000D03*
%TO.P,C17,2*%
%TO.N,GND*%
X28300000Y52600000D03*
%TD*%
D36*
%TO.P,U11,1,VCCA*%
%TO.N,VDDIO_34_3V3*%
X47390000Y-210000D03*
%TO.P,U11,2,A1*%
%TO.N,/SOM/LED_DI*%
X47390000Y190001D03*
%TO.P,U11,3,A2*%
%TO.N,GND*%
X47390000Y589999D03*
%TO.P,U11,4,GND*%
X47390000Y990000D03*
%TO.P,U11,5,OE*%
%TO.N,VDDIO_34_3V3*%
X46490000Y990000D03*
%TO.P,U11,6,B2*%
%TO.N,unconnected-(U11-B2-Pad6)*%
X46490000Y589999D03*
%TO.P,U11,7,B1*%
%TO.N,/SOM/LED_CTRL*%
X46490000Y190001D03*
%TO.P,U11,8,VCCB*%
%TO.N,+5V*%
X46490000Y-210000D03*
%TD*%
D52*
%TO.P,C22,1*%
%TO.N,/DAC/LDOO*%
X-21165000Y41190000D03*
%TO.P,C22,2*%
%TO.N,GND*%
X-19615000Y41190000D03*
%TD*%
D19*
%TO.P,C6,1*%
%TO.N,Net-(J4-TRCT2)*%
X-8480000Y610001D03*
%TO.P,C6,2*%
%TO.N,GND*%
X-7520000Y609999D03*
%TD*%
D21*
%TO.P,C23,1*%
%TO.N,+3.3VA*%
X-20225000Y47500000D03*
%TO.P,C23,2*%
%TO.N,GNDA*%
X-21775000Y47500000D03*
%TD*%
D56*
%TO.P,J4,1,TRCT3*%
%TO.N,Net-(J4-TRCT3)*%
X-13800000Y11850000D03*
%TO.P,J4,2,TRD3-*%
%TO.N,/Ethernet/RGMII0_TRN2*%
X-13800000Y9820000D03*
%TO.P,J4,3,TRD3+*%
%TO.N,/Ethernet/RGMII0_TRP2*%
X-13800000Y7790000D03*
%TO.P,J4,4,TRD2+*%
%TO.N,/Ethernet/RGMII0_TRP1*%
X-13800000Y5760000D03*
%TO.P,J4,5,TRD2-*%
%TO.N,/Ethernet/RGMII0_TRN1*%
X-13800000Y3730000D03*
%TO.P,J4,6,TRCT2*%
%TO.N,Net-(J4-TRCT2)*%
X-13800000Y1700000D03*
%TO.P,J4,7,TRCT4*%
%TO.N,Net-(J4-TRCT4)*%
X-11260000Y12870000D03*
%TO.P,J4,8,TRD4+*%
%TO.N,/Ethernet/RGMII0_TRP3*%
X-11260000Y10830000D03*
%TO.P,J4,9,TRD4-*%
%TO.N,/Ethernet/RGMII0_TRN3*%
X-11260000Y8790000D03*
%TO.P,J4,10,TRD1-*%
%TO.N,/Ethernet/RGMII0_TRN0*%
X-11260000Y4740000D03*
%TO.P,J4,11,TRD1+*%
%TO.N,/Ethernet/RGMII0_TRP0*%
X-11260000Y2700000D03*
%TO.P,J4,12,TRCT1*%
%TO.N,Net-(J4-TRCT1)*%
X-11260000Y660000D03*
D57*
%TO.P,J4,13,VCC+_12*%
%TO.N,/Ethernet/POE_PR12*%
X-20910000Y12355000D03*
%TO.P,J4,14,VCC-_36*%
%TO.N,/Ethernet/POE_PR36*%
X-20910000Y1175000D03*
%TO.P,J4,15,VCC+_45*%
%TO.N,/Ethernet/POE_PR45*%
X-22460000Y12355000D03*
%TO.P,J4,16,VCC-_78*%
%TO.N,/Ethernet/POE_PR78*%
X-22460000Y1175000D03*
D58*
%TO.P,J4,S1,S1*%
%TO.N,Earth_Clean*%
X-32220000Y-1410000D03*
%TO.P,J4,S2,S2*%
X-32220000Y14940000D03*
%TD*%
D59*
%TO.P,J1,1,VCC*%
%TO.N,VDD_5V*%
X-29427500Y31170000D03*
D60*
%TO.P,J1,2,D-*%
%TO.N,/SOM/USB_D-*%
X-29427500Y33670000D03*
%TO.P,J1,3,D+*%
%TO.N,/SOM/USB_D+*%
X-29427500Y35670000D03*
%TO.P,J1,4,GND*%
%TO.N,GND*%
X-29427500Y38170000D03*
D61*
%TO.P,J1,S1,SHIELD*%
%TO.N,Earth_Clean*%
X-30627500Y28270000D03*
%TO.P,J1,S2,SHIELD__1*%
X-30627500Y41070000D03*
%TD*%
D62*
%TO.P,J9,1,Pin_1*%
%TO.N,+3V3*%
X-6775000Y44275000D03*
D63*
%TO.P,J9,2,Pin_2*%
X-6775000Y41735000D03*
%TO.P,J9,3,Pin_3*%
%TO.N,/SOM/SD_BOOT_CONF_H*%
X-4235000Y44275000D03*
%TO.P,J9,4,Pin_4*%
%TO.N,/SOM/S_JTAG_H*%
X-4235000Y41735000D03*
%TD*%
D64*
%TO.P,J2,A1,GND*%
%TO.N,GNDPWR*%
X-30542500Y19102499D03*
%TO.P,J2,A4,VBUS*%
%TO.N,/PSU/VBUS*%
X-30542500Y19952499D03*
%TO.P,J2,A5,CC1*%
%TO.N,Net-(J2-CC1)*%
X-30542500Y20802500D03*
%TO.P,J2,A6,D+*%
%TO.N,unconnected-(J2-D+-PadA6)*%
X-30542500Y21652499D03*
%TO.P,J2,A7,D-*%
%TO.N,unconnected-(J2-D--PadA7)*%
X-30542500Y22502499D03*
%TO.P,J2,A8,SBU1*%
%TO.N,unconnected-(J2-SBU1-PadA8)*%
X-30542500Y23352499D03*
%TO.P,J2,A9,VBUS*%
%TO.N,/PSU/VBUS*%
X-30542500Y24202500D03*
%TO.P,J2,A12,GND*%
%TO.N,GNDPWR*%
X-30542500Y25052499D03*
%TO.P,J2,B1,GND*%
X-31892500Y25052499D03*
%TO.P,J2,B4,VBUS*%
%TO.N,/PSU/VBUS*%
X-31892500Y24202499D03*
%TO.P,J2,B5,CC2*%
%TO.N,Net-(J2-CC2)*%
X-31892500Y23352499D03*
%TO.P,J2,B6,D+*%
%TO.N,unconnected-(J2-D+-PadB6)*%
X-31892500Y22502499D03*
%TO.P,J2,B7,D-*%
%TO.N,unconnected-(J2-D--PadB7)*%
X-31892500Y21652499D03*
%TO.P,J2,B8,SBU2*%
%TO.N,unconnected-(J2-SBU2-PadB8)*%
X-31892500Y20802499D03*
%TO.P,J2,B9,VBUS*%
%TO.N,/PSU/VBUS*%
X-31892500Y19952499D03*
%TO.P,J2,B12,GND*%
%TO.N,GNDPWR*%
X-31892500Y19102499D03*
D65*
%TO.P,J2,S1,SHIELD*%
%TO.N,Earth_Clean*%
X-34902500Y17752499D03*
D66*
X-31522500Y17752499D03*
D65*
X-34902500Y26402499D03*
D66*
X-31522500Y26402499D03*
%TD*%
D67*
%TO.N,+5V*%
X9430000Y-6820000D03*
D68*
X40400000Y20440000D03*
X49680000Y-7580000D03*
X49500000Y-6800000D03*
D67*
X11950000Y-6780000D03*
D68*
X20790000Y54260000D03*
X51830000Y-6810000D03*
X56270000Y-7620000D03*
D67*
X9970000Y-8240000D03*
D69*
X19000000Y53280000D03*
D68*
X38630000Y13540000D03*
D67*
X29460000Y44000000D03*
X5096483Y-6743517D03*
D69*
X-23310000Y18440000D03*
D68*
X56370000Y-6800000D03*
X46470000Y-490000D03*
D67*
X11240000Y-8250000D03*
X7563422Y-6762000D03*
D68*
X54110000Y-7620000D03*
D67*
X5820000Y-8260000D03*
D68*
X21800000Y55010000D03*
X21790000Y54260000D03*
X51830000Y-7580000D03*
X20800000Y55010000D03*
X54160000Y-6790000D03*
D67*
X6940000Y-8240000D03*
D68*
%TO.N,/SOM/D10*%
X49600000Y25200000D03*
X20555000Y43250000D03*
%TO.N,/SOM/D50*%
X21825000Y43250000D03*
X49600000Y26000000D03*
%TO.N,/SOM/D28*%
X49600000Y26800000D03*
X23095000Y43250000D03*
%TO.N,/SOM/D12*%
X49600000Y28400000D03*
X24365000Y43250000D03*
%TO.N,/SOM/D2*%
X49600000Y30000000D03*
X25635000Y43250000D03*
%TO.N,/SOM/D8*%
X49600000Y32249997D03*
X26905000Y43200000D03*
%TO.N,/SOM/D48*%
X49600000Y27600000D03*
X21825000Y48750000D03*
%TO.N,/SOM/D26*%
X49600000Y29200000D03*
X23095000Y48750000D03*
%TO.N,/SOM/D46*%
X49600000Y31600000D03*
X24365000Y48750000D03*
%TO.N,/SOM/D24*%
X25635000Y48750000D03*
X49600000Y33000000D03*
%TO.N,/SOM/D44*%
X26750000Y48140000D03*
X54000000Y33200000D03*
%TO.N,/SOM/D22*%
X49600000Y34000000D03*
X28380000Y48150000D03*
%TO.N,/SOM/D42*%
X49600000Y34800000D03*
X29445000Y48750000D03*
%TO.N,/SOM/D40*%
X30715000Y48750000D03*
X49600000Y35600000D03*
%TO.N,/SOM/D16*%
X23095000Y-8750000D03*
X49600000Y3600000D03*
%TO.N,/SOM/D32*%
X24365000Y-8750000D03*
X49600000Y2000000D03*
%TO.N,/SOM/D54*%
X49600000Y-400000D03*
X25635000Y-8665000D03*
D67*
%TO.N,+3V3*%
X-2974999Y37350000D03*
D68*
X230000Y10150000D03*
D69*
X8480000Y15120000D03*
D68*
X2620000Y49460000D03*
D67*
X-8025001Y37350000D03*
D68*
X-860000Y54580000D03*
X-800000Y30070000D03*
X-19080000Y39900000D03*
%TO.N,/SOM/MCLK0*%
X19285000Y48750000D03*
X54030000Y25180000D03*
%TO.N,/SOM/MCLK1*%
X49600000Y4400000D03*
X20555000Y-8750000D03*
%TO.N,/SD/CLK*%
X-1220000Y48570000D03*
X-1985000Y53755000D03*
D70*
%TO.N,/SD/CMD*%
X215000Y53755000D03*
X2140000Y48330000D03*
D68*
%TO.N,+1V8*%
X5350000Y49700000D03*
D71*
X4460000Y47210000D03*
D68*
X-560000Y31850000D03*
X630000Y30010000D03*
X-20790000Y39330000D03*
X3000000Y47200000D03*
%TO.N,GND*%
X7420000Y-380000D03*
X21810000Y-9040000D03*
X11100000Y1200000D03*
D67*
X-24150000Y-10490000D03*
X12762743Y-6366240D03*
D68*
X6700000Y16400000D03*
X8700000Y34000000D03*
X6660000Y47610000D03*
X54000000Y6800000D03*
X2506210Y10146210D03*
X-4010000Y25720000D03*
X52000000Y36400000D03*
X23796700Y53071574D03*
D67*
X-4190000Y-11030000D03*
D68*
X-7890000Y55420000D03*
X-25020000Y18730000D03*
D67*
X33800000Y-17027500D03*
D68*
X39080000Y19060000D03*
X-19550000Y39360000D03*
X-15390000Y40130000D03*
X-1470000Y40940000D03*
D67*
X8500000Y-6500000D03*
D68*
X54000000Y47600000D03*
X54000000Y12400000D03*
X52000000Y30800000D03*
X33210000Y43550000D03*
X6560000Y39610000D03*
D67*
X-17080000Y-16460000D03*
D68*
X52000000Y46000000D03*
X630000Y32080000D03*
X47860000Y780000D03*
D67*
X39200000Y57527500D03*
D68*
X11100000Y13200000D03*
D67*
X-30520000Y-11810000D03*
D68*
X39900000Y14920000D03*
X28300000Y52200000D03*
X33210000Y-8450000D03*
X-1560000Y43410000D03*
D67*
X-21810000Y-11020000D03*
D68*
X54000000Y-6000000D03*
X23796700Y54074872D03*
X-14760000Y40160000D03*
D67*
X20600000Y47900000D03*
D68*
X20200000Y52300000D03*
X54000000Y42800000D03*
X13275000Y55600000D03*
X54000000Y18000000D03*
X20180000Y52990000D03*
X54000000Y400000D03*
D67*
X-26760000Y-9490000D03*
D68*
X-7030000Y600000D03*
X15620000Y52730000D03*
X6700000Y22000000D03*
X-26200000Y17230000D03*
X54000000Y23600000D03*
X-6435000Y56235000D03*
X-1320000Y55930000D03*
X52000000Y38800000D03*
X4300000Y4400000D03*
D67*
X-8025000Y34810000D03*
X31040000Y42187998D03*
D68*
X28200000Y44000000D03*
X2550000Y50360000D03*
X52000000Y400000D03*
X-21740000Y40400000D03*
X-3840000Y33510000D03*
X23796700Y55078174D03*
X16790000Y43550000D03*
X6700000Y32400000D03*
X49600000Y6800000D03*
D67*
X39200000Y-17027500D03*
X-16990000Y-14210000D03*
D68*
X-3085000Y53755000D03*
X52000000Y41200000D03*
X-18930000Y17440000D03*
X54000000Y38000000D03*
X-1140000Y4310000D03*
X31000000Y52100000D03*
X54000000Y40400000D03*
X4530000Y49040000D03*
X-7030000Y-670000D03*
X5160000Y-2780000D03*
X52000000Y-6000000D03*
X8700000Y22000000D03*
X4040000Y55480000D03*
X21000000Y52300000D03*
X-7060000Y13230000D03*
X10700000Y-1200000D03*
X52000000Y12400000D03*
D67*
X-2975000Y29730000D03*
D68*
X21580000Y52290000D03*
X54000000Y30000000D03*
D67*
X33800000Y57527500D03*
D68*
X54000000Y45200000D03*
X8700000Y24400000D03*
X16790000Y48450000D03*
X33210000Y48450000D03*
X6700000Y28400000D03*
X52000000Y18000000D03*
X11100000Y-3600000D03*
X-3710000Y-1140000D03*
X31000000Y53000000D03*
X-7050000Y11930000D03*
X8700000Y28400000D03*
X16350000Y57550001D03*
X16790000Y-8450000D03*
X11100000Y9200000D03*
X52000000Y43600000D03*
X33210000Y-3550000D03*
X3800000Y53040000D03*
D67*
X29710000Y42187998D03*
D68*
X15725000Y55600000D03*
X54000000Y35600000D03*
X8730000Y43600000D03*
X-3360000Y15630000D03*
X26300000Y52200000D03*
X-18000000Y40160000D03*
X-1090804Y47630349D03*
X-340000Y55920000D03*
X16790000Y-3550000D03*
X6700000Y10000000D03*
D67*
X19300000Y44100000D03*
D68*
X8700000Y16400000D03*
X12650000Y57550001D03*
X51900000Y23600000D03*
%TO.N,/SD/SD_D0*%
X1940861Y35871601D03*
X1718432Y38518432D03*
%TO.N,/SD/SD_CMD*%
X4270000Y34000000D03*
X3525000Y38125000D03*
%TO.N,/SD/SD_D3*%
X2975000Y37575000D03*
X1935000Y39520000D03*
%TO.N,/SD/SD_CD*%
X3870000Y51150000D03*
D71*
%TO.N,VDDIO_501_PS*%
X7752157Y46800000D03*
D68*
%TO.N,/SOM/JTAG_TMS*%
X-6710000Y25190000D03*
%TO.N,/SOM/JTAG_TDO*%
X-5790000Y31950000D03*
%TO.N,/SOM/JTAG_TDI*%
X-5390000Y26790000D03*
%TO.N,/SOM/JTAG_TCK*%
X-8025000Y32270000D03*
X4780000Y29380000D03*
%TO.N,/SOM/UART_TX*%
X4850000Y40400000D03*
%TO.N,/SOM/UART_RX*%
X5070000Y41090000D03*
%TO.N,/SOM/EXT_RST_IN*%
X-5820000Y32680000D03*
%TO.N,Net-(J3-DET)*%
X4870000Y53770000D03*
%TO.N,3V3_MIC*%
X28800000Y53500000D03*
D67*
X30719458Y44121819D03*
D68*
X29800000Y53500000D03*
X27900000Y53500000D03*
%TO.N,/SOM/UART_TX_3V3*%
X-3730000Y26680000D03*
X-1420000Y31330000D03*
X-5850000Y25480000D03*
%TO.N,/SOM/UART_RX_3V3*%
X-1380000Y30620000D03*
X-5410000Y24620000D03*
%TO.N,/SOM/D56*%
X49600000Y-2000000D03*
X26952500Y-8702500D03*
%TO.N,/SOM/D34*%
X28175000Y-8750000D03*
X49600000Y-4400000D03*
%TO.N,/SOM/D58*%
X29445000Y-8750000D03*
X53900000Y-5200000D03*
%TO.N,/SOM/D36*%
X30715000Y-8750000D03*
X49175000Y-5625000D03*
%TO.N,/SOM/D52*%
X19285000Y-3250000D03*
X49600000Y9200000D03*
%TO.N,/SOM/D30*%
X49600000Y8400000D03*
X20555000Y-3250000D03*
%TO.N,/SOM/D14*%
X21825000Y-3250000D03*
X49600000Y7600000D03*
%TO.N,/SOM/D4*%
X49600000Y5200000D03*
X23095000Y-3250000D03*
%TO.N,/SOM/D0*%
X49600000Y2800000D03*
X25635000Y-3250000D03*
%TO.N,/SOM/D6*%
X49600000Y1200000D03*
X26905000Y-3250000D03*
%TO.N,/SOM/D20*%
X28175000Y-3250000D03*
X49600000Y-1200000D03*
%TO.N,/SOM/D18*%
X49600000Y-2800000D03*
X29445000Y-3250000D03*
%TO.N,/SOM/D38*%
X30715000Y-3250000D03*
X49600000Y-3600000D03*
%TO.N,/SOM/LED_DI*%
X54000000Y-400000D03*
%TO.N,/SOM/LED0*%
X-7950000Y57450000D03*
X7370000Y54620000D03*
%TO.N,/SOM/MCLK2*%
X19292500Y-8742500D03*
X54050000Y7570000D03*
%TO.N,/SOM/SD_BOOT_CONF_H*%
X8760000Y36420000D03*
%TO.N,VDDIO_34_3V3*%
X53950000Y6000000D03*
X52180000Y6000000D03*
X40390000Y13550000D03*
X38610000Y14460000D03*
X40390000Y19540000D03*
X38640000Y20480000D03*
X46500000Y1260000D03*
X48020000Y-320000D03*
%TO.N,GNDPWR*%
X-26902500Y22002499D03*
X-25402500Y22002499D03*
X-23902500Y22002499D03*
X-19582500Y27422499D03*
X-25402500Y21002499D03*
X-26902500Y21002499D03*
X-20520000Y22650000D03*
X-19602500Y25602499D03*
D69*
%TO.N,VCCIN*%
X-19250000Y20200000D03*
X-28030000Y-13380000D03*
D67*
%TO.N,/Ethernet/POE_PR78*%
X-15550000Y-4170000D03*
%TO.N,/Ethernet/POE_PR45*%
X-14180000Y-6400000D03*
%TO.N,/Ethernet/POE_PR36*%
X-11960000Y-4060000D03*
%TO.N,/Ethernet/POE_PR12*%
X-10470000Y-6410000D03*
D68*
%TO.N,Net-(C10-Pad1)*%
X-26749999Y6710000D03*
X-17780000Y6790000D03*
%TO.N,/Ethernet/RGMII0_TRP3*%
X-10120000Y9460000D03*
X4625551Y-1920000D03*
X-3183112Y4529988D03*
%TO.N,/Ethernet/RGMII0_TRN2*%
X-1458270Y6231941D03*
X9033443Y-2080000D03*
%TO.N,/Ethernet/RGMII0_TRN1*%
X-2540945Y2184916D03*
X-12530000Y5870000D03*
X4618499Y-3680000D03*
%TO.N,/Ethernet/RGMII0_TRN0*%
X-3741369Y853917D03*
X9009609Y-4480000D03*
%TO.N,/Ethernet/RGMII0_TRP2*%
X9033443Y-2720000D03*
X-1910818Y5779393D03*
%TO.N,/Ethernet/RGMII0_TRN3*%
X4625551Y-1280000D03*
X-2730564Y4982536D03*
%TO.N,/Ethernet/RGMII0_TRP1*%
X4618499Y-4320000D03*
X-2993493Y1732368D03*
%TO.N,/Ethernet/RGMII0_TRP0*%
X9009609Y-5120000D03*
X-4193917Y401369D03*
%TO.N,/PSU/PoE_VIN+*%
X-19000000Y-11000000D03*
X-10000000Y-11000000D03*
X-18000000Y-9000000D03*
X-17000000Y-9000000D03*
X-10000000Y-10000000D03*
X-20000000Y-9000000D03*
X-13000000Y-10000000D03*
X-17000000Y-10000000D03*
X-11000000Y-10000000D03*
X-18000000Y-11000000D03*
X-18000000Y-10000000D03*
X-17000000Y-8000000D03*
X-15000000Y-10000000D03*
X-19000000Y-8000000D03*
X-15000000Y-11000000D03*
X-20000000Y-10000000D03*
X-18000000Y-8000000D03*
X-13000000Y-11000000D03*
X-12000000Y-10000000D03*
X-20000000Y-11000000D03*
X-12000000Y-11000000D03*
X-16000000Y-10000000D03*
X-16000000Y-11000000D03*
X-14000000Y-11000000D03*
X-11000000Y-11000000D03*
X-19000000Y-10000000D03*
X-17000000Y-11000000D03*
D71*
X-21820000Y-5980000D03*
D68*
X-14000000Y-10000000D03*
X-20000000Y-8000000D03*
X-19000000Y-9000000D03*
%TO.N,/PSU/PoE_VIN-*%
X-6000000Y-9000000D03*
X-1000000Y-10000000D03*
X-1000000Y-11000000D03*
X-2000000Y-6000000D03*
X-8000000Y-11000000D03*
X-9000000Y-9000000D03*
X-2000000Y-10000000D03*
X-8000000Y-8000000D03*
X-2000000Y-11000000D03*
X-9000000Y-11000000D03*
X-9000000Y-10000000D03*
X-7000000Y-11000000D03*
X-6000000Y-8000000D03*
X-9000000Y-8000000D03*
X-8000000Y-9000000D03*
X-7000000Y-10000000D03*
X-2000000Y-8000000D03*
X-1000000Y-8000000D03*
X-1000000Y-9000000D03*
X-6000000Y-11000000D03*
X-7000000Y-8000000D03*
D71*
X-5240000Y-5840000D03*
D68*
X-6000000Y-10000000D03*
X-7000000Y-9000000D03*
X-1000000Y-6000000D03*
X-2000000Y-7000000D03*
X-8000000Y-10000000D03*
X-1000000Y-7000000D03*
X-2000000Y-9000000D03*
%TO.N,/SOM/FPGA_DONE*%
X-5370000Y34050000D03*
X-880000Y44230000D03*
X5500000Y45200000D03*
D67*
%TO.N,/PSU/PoE_VDC+*%
X-25360000Y-14940000D03*
D68*
%TO.N,/SOM/FPGA_USB_D+*%
X13557886Y1171265D03*
X-21393671Y34970000D03*
%TO.N,/SOM/FPGA_USB_D-*%
X12917886Y1171265D03*
X-21393671Y34330000D03*
%TO.N,Net-(Q1-G)*%
X-22130000Y19400000D03*
X-19970000Y18630000D03*
%TO.N,/PSU/VBUS_TVS*%
X-21152500Y26502499D03*
X-21802500Y26502499D03*
X-22402500Y26502499D03*
X-23002500Y26502499D03*
X-24702500Y24602499D03*
%TO.N,/PSU/VBUS*%
X-29152500Y23002499D03*
X-29152500Y22252499D03*
X-29152500Y23752499D03*
%TO.N,/SOM/S_JTAG_H*%
X8780000Y35590000D03*
%TO.N,GNDA*%
X-21190000Y47540000D03*
X-23470000Y49460000D03*
X-21690000Y45930000D03*
X-17980000Y54950000D03*
X-19310000Y47670000D03*
X-33170000Y56610000D03*
X-15990000Y48090000D03*
X-15390000Y47630000D03*
D67*
%TO.N,Net-(C2-Pad1)*%
X-23190000Y54750000D03*
X-31980000Y51570000D03*
D68*
%TO.N,/DAC/LDOO*%
X-21610000Y41660000D03*
%TO.N,+3.3VA*%
X-16010000Y45810000D03*
X-22250000Y46560000D03*
X-20600000Y46760000D03*
%TO.N,Net-(U10-CAPM)*%
X-18505000Y45450000D03*
%TO.N,Net-(U10-CAPP)*%
X-20055000Y45450000D03*
%TO.N,Net-(U10-VNEG)*%
X-18060000Y47710000D03*
%TO.N,Net-(U10-XSMT)*%
X-18610000Y41990000D03*
%TO.N,/DAC/I2S_LRCK*%
X3860000Y26000000D03*
X-17349918Y40110483D03*
%TO.N,/DAC/I2S_BCK*%
X-16050000Y40110000D03*
X3060000Y27600000D03*
%TO.N,/DAC/I2S_DIN*%
X3360000Y26800000D03*
X-16700000Y40100000D03*
%TO.N,/SOM/SYNC_IN_5V*%
X36500000Y-15440000D03*
%TO.N,/SOM/SYNC_OUT_5V*%
X36500000Y55010000D03*
%TD*%
D72*
%TO.N,+5V*%
X-27222500Y18322491D02*
X-27652502Y18752493D01*
D73*
X-22860000Y17990000D02*
X-23310000Y18440000D01*
D74*
X46490000Y-470000D02*
X46470000Y-490000D01*
D75*
X-23310000Y18440000D02*
X-23310000Y19060000D01*
D73*
X22793400Y53574748D02*
X22185726Y53574748D01*
X22150600Y53609874D02*
X22150600Y54539874D01*
X-22120000Y17990000D02*
X-22860000Y17990000D01*
D74*
X46490000Y-210000D02*
X46490000Y-470000D01*
D75*
X-26750000Y20080000D02*
X-27652502Y19177498D01*
X-27652502Y19177498D02*
X-27652502Y18752493D01*
X-24330000Y20080000D02*
X-26750000Y20080000D01*
D73*
X22150600Y54539874D02*
X22185726Y54575000D01*
X22185726Y53574748D02*
X22150600Y53609874D01*
D75*
X-23310000Y19060000D02*
X-24330000Y20080000D01*
D73*
X22185726Y54575000D02*
X22793400Y54575000D01*
D72*
X-27222500Y17252499D02*
X-27222500Y18322491D01*
D76*
%TO.N,+3V3*%
X-1290000Y54800000D02*
X-1080000Y54800000D01*
X-640000Y54800000D02*
X-860000Y54580000D01*
X-1080000Y54800000D02*
X-860000Y54580000D01*
D77*
X-580000Y30290000D02*
X-800000Y30070000D01*
D76*
X-350000Y54800000D02*
X-640000Y54800000D01*
X-18460000Y40850000D02*
X-18460000Y40520000D01*
X-18460000Y40520000D02*
X-19080000Y39900000D01*
D77*
X-280000Y30290000D02*
X-580000Y30290000D01*
D78*
%TO.N,/SD/CLK*%
X-1220000Y52990000D02*
X-1985000Y53755000D01*
X-1220000Y48570000D02*
X-1220000Y52990000D01*
%TO.N,/SD/CMD*%
X215000Y50255000D02*
X215000Y53755000D01*
X2140000Y48330000D02*
X215000Y50255000D01*
D72*
%TO.N,+1V8*%
X620000Y30020000D02*
X630000Y30010000D01*
D76*
X5480000Y50400000D02*
X5150000Y50070000D01*
X5120000Y49360000D02*
X5120000Y49690000D01*
X5480000Y51150000D02*
X5480000Y50400000D01*
D79*
X5212500Y46500000D02*
X5170000Y46500000D01*
D76*
X5340000Y49690000D02*
X5350000Y49700000D01*
X5120000Y49690000D02*
X5340000Y49690000D01*
D79*
X5170000Y46500000D02*
X4460000Y47210000D01*
D72*
X620000Y30290000D02*
X620000Y30020000D01*
X-560000Y31770000D02*
X-280000Y31490000D01*
D76*
X5120000Y49690000D02*
X5120000Y50040000D01*
D72*
X-560000Y31850000D02*
X-560000Y31770000D01*
D76*
%TO.N,GND*%
X-180000Y43000000D02*
X-590000Y43410000D01*
D80*
X-24160000Y-10500000D02*
X-24150000Y-10490000D01*
D73*
X-25652500Y18752493D02*
X-25042493Y18752493D01*
D72*
X24296826Y53574748D02*
X23796700Y54074874D01*
D76*
X-180000Y41500000D02*
X-180000Y41180000D01*
D80*
X-21800000Y-10075001D02*
X-21800000Y-11010000D01*
D74*
X620000Y31490000D02*
X620000Y32070000D01*
D76*
X-1290000Y55440000D02*
X-1290000Y55900000D01*
X-350000Y55910000D02*
X-340000Y55920000D01*
D81*
X30549999Y53000000D02*
X30100000Y52550001D01*
D80*
X-4200000Y-11020000D02*
X-4190000Y-11030000D01*
D76*
X3810000Y53050000D02*
X3800000Y53040000D01*
D80*
X-24160000Y-11335000D02*
X-24160000Y-10500000D01*
D74*
X-19615000Y40455000D02*
X-19615000Y41190000D01*
D76*
X-420000Y40940000D02*
X-1470000Y40940000D01*
X-590000Y43410000D02*
X-1560000Y43410000D01*
X-4350000Y33000000D02*
X-3840000Y33510000D01*
D77*
X-18950000Y17830000D02*
X-18950000Y17460000D01*
D76*
X4560000Y49170000D02*
X4560000Y49360000D01*
X-5260000Y25729999D02*
X-4019999Y25729999D01*
D81*
X19285000Y43250000D02*
X19285000Y44085000D01*
D74*
X47860000Y780000D02*
X47850000Y790000D01*
D81*
X31000000Y53000000D02*
X31000000Y52100000D01*
D76*
X-180000Y41180000D02*
X-190000Y41170000D01*
D74*
X-19880000Y39690000D02*
X-19880000Y40190000D01*
D76*
X-5260000Y33000000D02*
X-4740000Y33000000D01*
D74*
X-19880000Y40190000D02*
X-19615000Y40455000D01*
X620000Y32070000D02*
X630000Y32080000D01*
D73*
X-25042493Y18752493D02*
X-25020000Y18730000D01*
D76*
X-7520000Y610000D02*
X-7040000Y610000D01*
D74*
X47390000Y589999D02*
X47390000Y790000D01*
D76*
X4530000Y49040000D02*
X4530000Y49140000D01*
D72*
X24800000Y53574748D02*
X24296826Y53574748D01*
D76*
X4530000Y49140000D02*
X4560000Y49170000D01*
X-26582500Y17252499D02*
X-26222499Y17252499D01*
X-4740000Y33000000D02*
X-4350000Y33000000D01*
D81*
X20555000Y47945000D02*
X20600000Y47900000D01*
X19285000Y44085000D02*
X19300000Y44100000D01*
D76*
X-7060000Y11940000D02*
X-7050000Y11930000D01*
D81*
X28175000Y43250000D02*
X28175000Y43975000D01*
D77*
X-18950000Y18670000D02*
X-18950000Y17830000D01*
D82*
X-15400000Y40140000D02*
X-15400000Y43190000D01*
D80*
X-30530000Y-12585000D02*
X-30530000Y-11820000D01*
D81*
X28175000Y43975000D02*
X28200000Y44000000D01*
D74*
X-19550000Y39360000D02*
X-19880000Y39690000D01*
D81*
X31000000Y52100000D02*
X30550001Y52100000D01*
D76*
X-26222499Y17252499D02*
X-26200000Y17230000D01*
X-7070000Y13240000D02*
X-7060000Y13230000D01*
D81*
X31000000Y53000000D02*
X30549999Y53000000D01*
D74*
X-15390000Y40130000D02*
X-15400000Y40140000D01*
X47390000Y790000D02*
X47390000Y990000D01*
D76*
X4180000Y53050000D02*
X3810000Y53050000D01*
D77*
X-18950000Y17460000D02*
X-18930000Y17440000D01*
D76*
X-4019999Y25729999D02*
X-4010000Y25720000D01*
D80*
X-21800000Y-11010000D02*
X-21810000Y-11020000D01*
D76*
X-7520000Y-670000D02*
X-7030000Y-670000D01*
D81*
X30550001Y52100000D02*
X30100000Y52550001D01*
D76*
X-190000Y41170000D02*
X-420000Y40940000D01*
X-1290000Y55900000D02*
X-1320000Y55930000D01*
D80*
X-30530000Y-11820000D02*
X-30520000Y-11810000D01*
D76*
X-7520000Y11940000D02*
X-7060000Y11940000D01*
X-5260000Y25729999D02*
X-4740000Y25729999D01*
D74*
X47850000Y790000D02*
X47390000Y790000D01*
D76*
X-7040000Y610000D02*
X-7030000Y600000D01*
X-350000Y55440000D02*
X-350000Y55910000D01*
D80*
X-4200000Y-10075001D02*
X-4200000Y-11020000D01*
D81*
X20555000Y48750000D02*
X20555000Y47945000D01*
D76*
X-7520000Y13240000D02*
X-7070000Y13240000D01*
D78*
%TO.N,/SD/SD_D0*%
X1700000Y38500000D02*
X1700000Y36112462D01*
X1718432Y38518432D02*
X1700000Y38500000D01*
X1700000Y36112462D02*
X1940861Y35871601D01*
%TO.N,/SD/SD_CMD*%
X3525000Y38125000D02*
X3525000Y34805000D01*
X3525000Y34805000D02*
X4270000Y34060000D01*
X4270000Y34060000D02*
X4270000Y34000000D01*
%TO.N,/SD/SD_D3*%
X2975000Y37575000D02*
X2800000Y37750000D01*
X2800000Y38655000D02*
X1935000Y39520000D01*
X2800000Y37750000D02*
X2800000Y38655000D01*
D79*
%TO.N,VDDIO_501_PS*%
X6787500Y46500000D02*
X7452157Y46500000D01*
X7452157Y46500000D02*
X7752157Y46800000D01*
D76*
%TO.N,/SOM/JTAG_TMS*%
X-6710000Y25279024D02*
X-6710000Y25190000D01*
X-5859026Y26129998D02*
X-6710000Y25279024D01*
X-5385000Y26129998D02*
X-5859026Y26129998D01*
%TO.N,/SOM/JTAG_TDO*%
X-5540001Y32199999D02*
X-5790000Y31950000D01*
%TO.N,/SOM/JTAG_TDI*%
X-5385000Y26785000D02*
X-5390000Y26790000D01*
X-5385000Y26530000D02*
X-5385000Y26785000D01*
%TO.N,/SOM/JTAG_TCK*%
X4780000Y29380000D02*
X4740000Y29420000D01*
X4740000Y29420000D02*
X-1030000Y29420000D01*
X-1030000Y29420000D02*
X-2040000Y30430000D01*
X-5850001Y33399999D02*
X-5385000Y33399999D01*
X-5850001Y33399999D02*
X-6980000Y32270000D01*
X-2040000Y30430000D02*
X-5140000Y30430000D01*
X-5140000Y30430000D02*
X-6980000Y32270000D01*
X-6980000Y32270000D02*
X-8025000Y32270000D01*
%TO.N,/SOM/UART_TX*%
X4850000Y40000000D02*
X4940000Y39910000D01*
X2299999Y31089999D02*
X620000Y31089999D01*
X4940000Y39910000D02*
X4940000Y33730000D01*
X4850000Y40400000D02*
X4850000Y40000000D01*
X4940000Y33730000D02*
X2299999Y31089999D01*
%TO.N,/SOM/UART_RX*%
X5070000Y41090000D02*
X5330000Y40830000D01*
X2520001Y30690001D02*
X620000Y30690001D01*
X5330000Y33500000D02*
X2520001Y30690001D01*
X5330000Y40830000D02*
X5330000Y33500000D01*
%TO.N,/SOM/EXT_RST_IN*%
X-5385000Y32600001D02*
X-5740001Y32600001D01*
X-5740001Y32600001D02*
X-5820000Y32680000D01*
%TO.N,Net-(J3-DET)*%
X4510000Y50070000D02*
X4830000Y50390000D01*
X4870000Y53770000D02*
X4870000Y53089999D01*
X4830000Y50390000D02*
X4830000Y53049999D01*
D72*
%TO.N,3V3_MIC*%
X30715000Y43250000D02*
X30715000Y44117361D01*
X30715000Y44117361D02*
X30719458Y44121819D01*
D76*
%TO.N,/SOM/UART_TX_3V3*%
X-5700000Y25330000D02*
X-5850000Y25480000D01*
X-5385000Y25330000D02*
X-5700000Y25330000D01*
X-1179999Y31089999D02*
X-280000Y31089999D01*
X-1420000Y31330000D02*
X-1179999Y31089999D01*
%TO.N,/SOM/UART_RX_3V3*%
X-1309999Y30690001D02*
X-1380000Y30620000D01*
X-5385000Y24929998D02*
X-5385000Y24645000D01*
X-5385000Y24645000D02*
X-5410000Y24620000D01*
X-280000Y30690001D02*
X-1309999Y30690001D01*
D74*
%TO.N,/SOM/LED_DI*%
X47390000Y190001D02*
X50539999Y190001D01*
X51130000Y-400000D02*
X54000000Y-400000D01*
X50539999Y190001D02*
X51130000Y-400000D01*
%TO.N,/SOM/LED_CTRL*%
X24365000Y-2515000D02*
X24365000Y-3250000D01*
X27070001Y190001D02*
X24365000Y-2515000D01*
X46490000Y190001D02*
X27070001Y190001D01*
D76*
%TO.N,/SOM/LED0*%
X-7240000Y56740000D02*
X-7950000Y57450000D01*
X7370000Y54620000D02*
X5250000Y56740000D01*
X5250000Y56740000D02*
X-7240000Y56740000D01*
%TO.N,/SOM/SD_BOOT_CONF_H*%
X1090000Y42350000D02*
X870000Y42350000D01*
X-2310000Y42350000D02*
X-4235000Y44275000D01*
X870000Y42350000D02*
X760000Y42350000D01*
X-820000Y43000000D02*
X-820000Y42370000D01*
X-820000Y42370000D02*
X-800000Y42350000D01*
X8760000Y39620000D02*
X6030000Y42350000D01*
X8760000Y36420000D02*
X8760000Y39620000D01*
X-800000Y42350000D02*
X-2310000Y42350000D01*
X6030000Y42350000D02*
X1090000Y42350000D01*
X1090000Y42350000D02*
X-800000Y42350000D01*
D74*
%TO.N,VDDIO_34_3V3*%
X46490000Y1250000D02*
X46500000Y1260000D01*
X46490000Y990000D02*
X46490000Y1250000D01*
X47390000Y-210000D02*
X47910000Y-210000D01*
X47910000Y-210000D02*
X48020000Y-320000D01*
D81*
%TO.N,GNDPWR*%
X-26902500Y21002499D02*
X-25402500Y21002499D01*
D74*
X-30050000Y17660000D02*
X-29190000Y16800000D01*
X-28170001Y24670000D02*
X-29030000Y24670000D01*
D81*
X-25652500Y22252499D02*
X-25402500Y22002499D01*
D74*
X-29190000Y16800000D02*
X-28580000Y16800000D01*
X-30050000Y18609999D02*
X-30050000Y17660000D01*
D81*
X-25402500Y22002499D02*
X-23902500Y22002499D01*
X-25402500Y22002499D02*
X-26902500Y22002499D01*
D74*
X-28580000Y16800000D02*
X-28197500Y17182500D01*
X-27950000Y24890001D02*
X-28170001Y24670000D01*
X-29030000Y24670000D02*
X-29412499Y25052499D01*
X-30542500Y19102499D02*
X-30050000Y18609999D01*
D81*
X-26902500Y22002499D02*
X-26902500Y21002499D01*
X-25402500Y22002499D02*
X-25402500Y21002499D01*
D74*
X-29412499Y25052499D02*
X-30542500Y25052499D01*
D81*
X-23869880Y22002499D02*
X-23902500Y22002499D01*
X-25652500Y23502499D02*
X-25652500Y22252499D01*
D74*
X-27950000Y25090000D02*
X-27950000Y24890001D01*
D81*
X-23372079Y22500300D02*
X-23869880Y22002499D01*
D80*
%TO.N,VCCIN*%
X-29645000Y-14135000D02*
X-29620000Y-14160000D01*
X-29620000Y-14160000D02*
X-28910000Y-13450000D01*
D77*
X-19250000Y20200000D02*
X-19538735Y20488735D01*
X-20472499Y19890000D02*
X-20820000Y19890000D01*
X-19538735Y20488735D02*
X-19873764Y20488735D01*
D80*
X-30530000Y-14135000D02*
X-29645000Y-14135000D01*
X-28500000Y-12910000D02*
X-28910000Y-12910000D01*
D77*
X-19873764Y20488735D02*
X-20472499Y19890000D01*
D80*
X-28030000Y-13380000D02*
X-28500000Y-12910000D01*
D76*
%TO.N,Net-(J4-TRCT1)*%
X-10130000Y660000D02*
X-8800000Y-670000D01*
X-11260000Y660000D02*
X-10130000Y660000D01*
X-8800000Y-670000D02*
X-8480000Y-670000D01*
%TO.N,Net-(J4-TRCT2)*%
X-10292500Y1652500D02*
X-9250000Y610000D01*
X-13752500Y1652500D02*
X-10292500Y1652500D01*
X-9250000Y610000D02*
X-8480000Y610000D01*
D81*
%TO.N,/Ethernet/POE_PR78*%
X-22540001Y5740000D02*
X-22540001Y4215000D01*
X-22540001Y4215000D02*
X-23165001Y3590000D01*
X-22540001Y5740000D02*
X-22540001Y1255001D01*
%TO.N,Net-(C7-Pad2)*%
X-25730001Y6110000D02*
X-24809999Y6110000D01*
X-24809999Y6110000D02*
X-24439999Y5740000D01*
%TO.N,Net-(C8-Pad2)*%
X-24859999Y7320000D02*
X-24439999Y7740000D01*
X-25730001Y7320000D02*
X-24859999Y7320000D01*
%TO.N,/Ethernet/POE_PR45*%
X-14180000Y-5680001D02*
X-14125000Y-5625001D01*
X-22540001Y9255001D02*
X-23165000Y9880000D01*
X-22460000Y12355000D02*
X-22460000Y7820001D01*
X-22540001Y7740000D02*
X-22540001Y9255001D01*
X-14180000Y-6400000D02*
X-14180000Y-5680001D01*
%TO.N,/Ethernet/POE_PR36*%
X-21039999Y5740000D02*
X-21039999Y1304999D01*
%TO.N,Net-(C9-Pad2)*%
X-18600002Y5200001D02*
X-19140001Y5740000D01*
X-17780000Y5200001D02*
X-18600002Y5200001D01*
%TO.N,Net-(C11-Pad2)*%
X-17780000Y8219999D02*
X-18660002Y8219999D01*
X-18660002Y8219999D02*
X-19140001Y7740000D01*
%TO.N,/Ethernet/POE_PR12*%
X-20820000Y9880000D02*
X-20910000Y9790000D01*
X-10470000Y-5680001D02*
X-10525000Y-5625001D01*
X-20910000Y12355000D02*
X-20910000Y9790000D01*
X-20215000Y9880000D02*
X-20820000Y9880000D01*
X-10470000Y-6410000D02*
X-10470000Y-5680001D01*
X-20910000Y9790000D02*
X-20910000Y7869999D01*
D76*
%TO.N,Net-(J4-TRCT3)*%
X-13772500Y11877500D02*
X-8542500Y11877500D01*
%TO.N,Net-(J4-TRCT4)*%
X-8850000Y12870000D02*
X-8480000Y13240000D01*
X-11260000Y12870000D02*
X-8850000Y12870000D01*
D81*
%TO.N,Net-(C10-Pad1)*%
X-26749999Y7320000D02*
X-26749999Y6710000D01*
X-17780000Y7200001D02*
X-17780000Y6219999D01*
X-26749999Y6710000D02*
X-26797499Y6662500D01*
X-26749999Y6710000D02*
X-26749999Y6110000D01*
X-26797499Y6662500D02*
X-29474999Y6662500D01*
%TO.N,Earth_Clean*%
X-34902500Y17752499D02*
X-31522500Y17752499D01*
X-31730000Y39967500D02*
X-30627500Y41070000D01*
X-31522500Y15637500D02*
X-32220000Y14940000D01*
X-31730000Y29360000D02*
X-31730000Y39967500D01*
X-31522500Y26402499D02*
X-31522500Y27375000D01*
X-34902500Y26402499D02*
X-34902500Y17752499D01*
X-31522500Y17752499D02*
X-31522500Y15637500D01*
X-31522500Y26402499D02*
X-34902500Y26402499D01*
X-32220000Y14940000D02*
X-32220000Y-1410000D01*
X-31522500Y27375000D02*
X-30627500Y28270000D01*
X-30640000Y28270000D02*
X-31730000Y29360000D01*
D83*
%TO.N,/Ethernet/RGMII0_TRP3*%
X4625551Y-1920000D02*
X4430551Y-1725000D01*
X1617878Y-709408D02*
X1533025Y-624555D01*
X-65048Y1687695D02*
X23341Y1776084D01*
X1285533Y139125D02*
X1472916Y326508D01*
X-79188Y987658D02*
X-164041Y1072511D01*
X23341Y1776084D02*
X23339Y1776085D01*
X871872Y927552D02*
X960261Y1015940D01*
X2738644Y-599809D02*
X2756321Y-582131D01*
X23339Y1776085D02*
X111728Y1864473D01*
X-1012574Y2437232D02*
X-994898Y2454911D01*
X-8032353Y9655000D02*
X-9925000Y9655000D01*
X871874Y927551D02*
X871872Y927552D01*
X2321449Y-522026D02*
X2321449Y-522025D01*
X684492Y740166D02*
X783485Y839162D01*
X1907788Y429037D02*
X1822935Y513890D01*
X2756321Y-419496D02*
X2671468Y-334643D01*
X1808794Y167407D02*
X1907788Y266402D01*
X1533025Y-108367D02*
X1632018Y-9371D01*
X624383Y1175040D02*
X624383Y1175041D01*
X-927721Y1836191D02*
X-1012574Y1921044D01*
X-3183112Y4529988D02*
X-3183112Y4805759D01*
X-2907341Y4529988D02*
X-3183112Y4529988D01*
X960261Y1015940D02*
X1059255Y1114935D01*
X1632018Y-9371D02*
X1720407Y79018D01*
X4430551Y-1725000D02*
X3347647Y-1725000D01*
X3347647Y-1725000D02*
X2738644Y-1115997D01*
X-2907341Y4529988D02*
X-994897Y2617545D01*
X1720407Y79018D02*
X1720405Y79019D01*
X624383Y1175040D02*
X811767Y1362423D01*
X1472916Y326507D02*
X1660300Y513890D01*
X769345Y139125D02*
X684492Y223978D01*
X-3183112Y4805759D02*
X-8032353Y9655000D01*
X-411533Y1836191D02*
X-224150Y2023574D01*
X210722Y2126103D02*
X125869Y2210956D01*
X2321449Y-522026D02*
X2508833Y-334643D01*
X437000Y987658D02*
X624383Y1175041D01*
X2134066Y-709408D02*
X2321449Y-522025D01*
X783485Y839162D02*
X871874Y927551D01*
X-9925000Y9655000D02*
X-10120000Y9460000D01*
X111728Y1864473D02*
X210722Y1963468D01*
X-224150Y2023573D02*
X-36766Y2210956D01*
X1472916Y326507D02*
X1472916Y326508D01*
X-224150Y2023573D02*
X-224150Y2023574D01*
X-164041Y1588699D02*
X-65048Y1687695D01*
X1059255Y1277570D02*
X974402Y1362423D01*
X1720405Y79019D02*
X1808794Y167407D01*
X1059255Y1114935D02*
G75*
G03*
X1059303Y1277617I-81355J81365D01*
G01*
X125869Y2210956D02*
G75*
G03*
X-36767Y2210957I-81318J-81317D01*
G01*
X974402Y1362423D02*
G75*
G03*
X811768Y1362423I-81317J-81317D01*
G01*
X1822935Y513890D02*
G75*
G03*
X1660301Y513890I-81317J-81317D01*
G01*
X-994898Y2454911D02*
G75*
G03*
X-994925Y2617516I-81302J81289D01*
G01*
X2756321Y-582131D02*
G75*
G03*
X2756335Y-419483I-81321J81331D01*
G01*
X2738644Y-1115997D02*
G75*
G02*
X2738641Y-599806I258056J258097D01*
G01*
X-1012574Y1921044D02*
G75*
G02*
X-1012536Y2437194I258074J258056D01*
G01*
X684492Y223978D02*
G75*
G02*
X684464Y740194I258108J258122D01*
G01*
X2134066Y-709408D02*
G75*
G02*
X1617878Y-709408I-258094J258094D01*
G01*
X437000Y987658D02*
G75*
G02*
X-79188Y987658I-258094J258094D01*
G01*
X1533025Y-624555D02*
G75*
G02*
X1533064Y-108406I258075J258055D01*
G01*
X-411533Y1836191D02*
G75*
G02*
X-927721Y1836191I-258094J258094D01*
G01*
X210722Y1963468D02*
G75*
G03*
X210737Y2126117I-81322J81332D01*
G01*
X1907788Y266402D02*
G75*
G03*
X1907769Y429017I-81288J81298D01*
G01*
X-164041Y1072511D02*
G75*
G02*
X-164036Y1588694I258141J258089D01*
G01*
X1285533Y139125D02*
G75*
G02*
X769345Y139125I-258094J258094D01*
G01*
X2671468Y-334643D02*
G75*
G03*
X2508834Y-334643I-81317J-81317D01*
G01*
%TO.N,/Ethernet/RGMII0_TRN2*%
X9033443Y-2080000D02*
X8838443Y-2275000D01*
X8838443Y-2275000D02*
X7611778Y-2275000D01*
X5451778Y-115000D02*
X4612900Y-115000D01*
X-1458270Y5956170D02*
X-1458270Y6231941D01*
X4612900Y-115000D02*
X-1458270Y5956170D01*
X7611778Y-2275000D02*
X5451778Y-115000D01*
%TO.N,/Ethernet/RGMII0_TRN1*%
X1025087Y-2182791D02*
X1199651Y-2008228D01*
X-2540945Y1909145D02*
X-1338876Y707076D01*
X-497416Y-311161D02*
X-322855Y-136601D01*
X-919473Y-238237D02*
X-744906Y-63671D01*
X-570338Y627083D02*
X-655192Y711937D01*
X351117Y-1159694D02*
X525659Y-985153D01*
X952161Y-1760738D02*
X1126702Y-1586196D01*
X2727011Y-3874999D02*
X2722163Y-3879848D01*
X1975235Y-1918541D02*
X1890380Y-1833686D01*
X1800694Y-2609271D02*
X1975235Y-2434729D01*
X2823787Y-2767056D02*
X2738932Y-2682201D01*
X103628Y-912205D02*
X278188Y-737644D01*
X-497415Y-311162D02*
X-585804Y-399550D01*
X262729Y-1248083D02*
X176551Y-1334262D01*
X1626126Y-2783836D02*
X1800693Y-2609270D01*
X3243199Y-3874999D02*
X4423499Y-3875000D01*
X351118Y-1159695D02*
X262729Y-1248083D01*
X-744905Y-63672D02*
X-570338Y110895D01*
X1199650Y-2008227D02*
X1374192Y-1833686D01*
X1800693Y-2609270D02*
X1800694Y-2609271D01*
X1126702Y-1070008D02*
X1041847Y-985153D01*
X2649227Y-3457804D02*
X2823787Y-3283244D01*
X952160Y-1760737D02*
X952161Y-1760738D01*
X-2540945Y1909145D02*
X-2540945Y2184916D01*
X2479520Y-3627508D02*
X2649226Y-3457802D01*
X-11791778Y6305000D02*
X-12226778Y5870000D01*
X-12226778Y5870000D02*
X-12530000Y5870000D01*
X-70940Y-1086770D02*
X103627Y-912204D01*
X4618499Y-3680000D02*
X4423499Y-3875000D01*
X351117Y-1159694D02*
X351118Y-1159695D01*
X2474673Y-3632358D02*
X2479520Y-3627508D01*
X13917Y-1334262D02*
X-70939Y-1249406D01*
X777596Y-1935300D02*
X952160Y-1760737D01*
X-6936800Y6305000D02*
X-2816716Y2184916D01*
X1710983Y-3031328D02*
X1626127Y-2946472D01*
X-744906Y-63671D02*
X-744905Y-63672D01*
X2136572Y-2768372D02*
X2048184Y-2856761D01*
X2559527Y-3879847D02*
X2474672Y-3794992D01*
X103627Y-912204D02*
X103628Y-912205D01*
X-1171380Y711937D02*
X-1176242Y707076D01*
X-834616Y-485729D02*
X-919472Y-400873D01*
X2222744Y-2682201D02*
X2136572Y-2768372D01*
X1959795Y-2945149D02*
X1873617Y-3031328D01*
X-2540945Y2184916D02*
X-2816716Y2184916D01*
X-585804Y-399550D02*
X-671982Y-485729D01*
X-497416Y-311161D02*
X-497415Y-311162D01*
X278188Y-221456D02*
X193333Y-136601D01*
X2649226Y-3457802D02*
X2649227Y-3457804D01*
X862453Y-2182792D02*
X777597Y-2097936D01*
X-6936800Y6305000D02*
X-11791778Y6305000D01*
X2048184Y-2856761D02*
X1959795Y-2945149D01*
X1199650Y-2008227D02*
X1199651Y-2008228D01*
X176551Y-1334262D02*
G75*
G02*
X13917Y-1334262I-81317J81316D01*
G01*
X2738932Y-2682201D02*
G75*
G03*
X2222744Y-2682201I-258094J-258094D01*
G01*
X-1176242Y707076D02*
G75*
G02*
X-1338876Y707076I-81317J81316D01*
G01*
X1025087Y-2182791D02*
G75*
G02*
X862484Y-2182762I-81287J81291D01*
G01*
X1041847Y-985153D02*
G75*
G03*
X525659Y-985153I-258094J-258094D01*
G01*
X278188Y-737644D02*
G75*
G03*
X278238Y-221406I-258088J258144D01*
G01*
X-70939Y-1249406D02*
G75*
G02*
X-70928Y-1086782I81339J81306D01*
G01*
X-919472Y-400873D02*
G75*
G02*
X-919428Y-238283I81272J81273D01*
G01*
X1890380Y-1833686D02*
G75*
G03*
X1374192Y-1833686I-258094J-258094D01*
G01*
X777597Y-2097936D02*
G75*
G02*
X777578Y-1935282I81303J81336D01*
G01*
X2722163Y-3879848D02*
G75*
G02*
X2559482Y-3879893I-81363J81348D01*
G01*
X1975235Y-2434729D02*
G75*
G03*
X1975270Y-1918506I-258135J258129D01*
G01*
X1626127Y-2946472D02*
G75*
G02*
X1626172Y-2783883I81273J81272D01*
G01*
X-570338Y110895D02*
G75*
G03*
X-570327Y627094I-258062J258105D01*
G01*
X2823787Y-3283244D02*
G75*
G03*
X2823737Y-2767106I-258087J258044D01*
G01*
X193333Y-136601D02*
G75*
G03*
X-322855Y-136601I-258094J-258094D01*
G01*
X2474672Y-3794992D02*
G75*
G02*
X2474697Y-3632383I81328J81292D01*
G01*
X-655192Y711937D02*
G75*
G03*
X-1171380Y711937I-258094J-258094D01*
G01*
X1873617Y-3031328D02*
G75*
G02*
X1710983Y-3031328I-81317J81316D01*
G01*
X1126702Y-1586196D02*
G75*
G03*
X1126704Y-1070006I-258102J258096D01*
G01*
X-671982Y-485729D02*
G75*
G02*
X-834616Y-485729I-81317J81316D01*
G01*
X3243199Y-3874999D02*
G75*
G03*
X2727011Y-3874999I-258094J-258094D01*
G01*
%TO.N,/Ethernet/RGMII0_TRN0*%
X3816876Y-5816658D02*
X3816876Y-5083342D01*
X-3741369Y578146D02*
X-3741369Y853917D01*
X741436Y-4599969D02*
X1259980Y-4081426D01*
X590116Y-4599970D02*
X508090Y-4517944D01*
X5718222Y-4675000D02*
X5068222Y-5325000D01*
X1846881Y-4163453D02*
X1764854Y-4081426D01*
X1410363Y-5420216D02*
X1328337Y-5338190D01*
X603306Y-3766531D02*
X521283Y-3684506D01*
X4039876Y-5923658D02*
X3923876Y-5923658D01*
X2161776Y-5324999D02*
X2879876Y-5325000D01*
X-3741369Y853917D02*
X-4017140Y853917D01*
X521283Y-3684506D02*
X-1401611Y-1761611D01*
X-1401611Y-1761611D02*
X-3741369Y578146D01*
X-10365000Y3845000D02*
X-11260000Y4740000D01*
X1587604Y-4927604D02*
X1846881Y-4668327D01*
X5068222Y-5325000D02*
X4503876Y-5325000D01*
X4146876Y-5682000D02*
X4146876Y-5816658D01*
X1656902Y-5324999D02*
X1561685Y-5420217D01*
X1423554Y-5091651D02*
X1587603Y-4927602D01*
X3459876Y-4726342D02*
X3343876Y-4726342D01*
X-7008223Y3845000D02*
X-10365000Y3845000D01*
X9009609Y-4480000D02*
X8814609Y-4675000D01*
X8814609Y-4675000D02*
X5718222Y-4675000D01*
X2986876Y-5083342D02*
X2986876Y-5218000D01*
X1587603Y-4927602D02*
X1587604Y-4927604D01*
X508090Y-4366624D02*
X603306Y-4271405D01*
X-4017140Y853917D02*
X-7008223Y3845000D01*
X1328338Y-5186870D02*
X1423554Y-5091651D01*
X1846881Y-4668327D02*
G75*
G03*
X1846871Y-4163463I-252481J252427D01*
G01*
X3343876Y-4726342D02*
G75*
G03*
X2986942Y-5083342I24J-356958D01*
G01*
X3816876Y-5083342D02*
G75*
G03*
X3459876Y-4726324I-356976J42D01*
G01*
X741436Y-4599969D02*
G75*
G02*
X590141Y-4599946I-75636J75669D01*
G01*
X508090Y-4517944D02*
G75*
G02*
X508106Y-4366640I75610J75644D01*
G01*
X1561685Y-5420217D02*
G75*
G02*
X1410338Y-5420241I-75685J75617D01*
G01*
X603306Y-4271405D02*
G75*
G03*
X603274Y-3766563I-252406J252405D01*
G01*
X4146876Y-5816658D02*
G75*
G02*
X4039876Y-5923676I-106976J-42D01*
G01*
X1764854Y-4081426D02*
G75*
G03*
X1259980Y-4081426I-252437J-252436D01*
G01*
X1328337Y-5338190D02*
G75*
G02*
X1328307Y-5186840I75663J75690D01*
G01*
X4503876Y-5325000D02*
G75*
G03*
X4146900Y-5682000I24J-357000D01*
G01*
X3923876Y-5923658D02*
G75*
G02*
X3816942Y-5816658I24J106958D01*
G01*
X2161776Y-5324999D02*
G75*
G03*
X1656902Y-5324999I-252437J-252436D01*
G01*
X2986876Y-5218000D02*
G75*
G02*
X2879876Y-5324976I-106976J0D01*
G01*
%TO.N,/Ethernet/RGMII0_TRP2*%
X-1635047Y5779393D02*
X-1910818Y5779393D01*
X9033443Y-2720000D02*
X8838443Y-2525000D01*
X8838443Y-2525000D02*
X7508222Y-2525000D01*
X5348222Y-365000D02*
X4509346Y-365000D01*
X7508222Y-2525000D02*
X5348222Y-365000D01*
X4509346Y-365000D02*
X-1635047Y5779393D01*
%TO.N,/Ethernet/RGMII0_TRN3*%
X2144673Y-345250D02*
X2332057Y-157867D01*
X2056283Y-433636D02*
X1957289Y-532631D01*
X1897183Y-97758D02*
X1897182Y-97758D01*
X-7928799Y9905000D02*
X-3006335Y4982536D01*
X1048649Y750775D02*
X1236032Y938158D01*
X2144672Y-345248D02*
X2056283Y-433636D01*
X4430551Y-1475000D02*
X3451201Y-1475000D01*
X200116Y1599308D02*
X387499Y1786691D01*
X-11260000Y9030000D02*
X-10320000Y9970000D01*
X1236032Y1454346D02*
X1151179Y1539199D01*
X-9115826Y9905000D02*
X-9055826Y9905000D01*
X1207750Y414897D02*
X1108756Y315902D01*
X2933098Y-242720D02*
X2848245Y-157867D01*
X-10030000Y9970000D02*
X-9965000Y9905000D01*
X-2730564Y4706765D02*
X-818122Y2794323D01*
X-835798Y2260456D02*
X-818122Y2278135D01*
X-400926Y2200349D02*
X-213542Y2387732D01*
X1808794Y-186147D02*
X1897183Y-97758D01*
X-9415826Y10375001D02*
X-9355826Y10375001D01*
X111728Y1510919D02*
X200117Y1599308D01*
X2144673Y-345250D02*
X2144672Y-345248D01*
X-8515826Y9905000D02*
X-7928799Y9905000D01*
X359217Y1263430D02*
X260223Y1164435D01*
X447607Y1351816D02*
X634991Y1539199D01*
X97587Y1164436D02*
X12734Y1249289D01*
X1897182Y-97758D02*
X2084565Y89625D01*
X2915421Y-776586D02*
X2933098Y-758908D01*
X387499Y2302879D02*
X302646Y2387732D01*
X1296140Y503283D02*
X1483524Y690666D01*
X447606Y1351818D02*
X359217Y1263430D01*
X3451201Y-1475000D02*
X2915421Y-939220D01*
X-8815826Y10375001D02*
X-8755826Y10375001D01*
X-9965000Y9905000D02*
X-9655826Y9905000D01*
X-9535826Y10025000D02*
X-9535826Y10255001D01*
X-750946Y2012969D02*
X-835799Y2097822D01*
X960261Y662386D02*
X1048650Y750775D01*
X-8935826Y10025000D02*
X-8935826Y10255001D01*
X-10320000Y9970000D02*
X-10030000Y9970000D01*
X200117Y1599308D02*
X200116Y1599308D01*
X-400926Y2200349D02*
X-400927Y2200351D01*
X861268Y563390D02*
X960261Y662386D01*
X-9235826Y10255001D02*
X-9235826Y10025000D01*
X1794653Y-532630D02*
X1709800Y-447777D01*
X2084565Y605813D02*
X1999712Y690666D01*
X447607Y1351816D02*
X447606Y1351818D01*
X-588310Y2012968D02*
X-400927Y2200351D01*
X946120Y315903D02*
X861267Y400756D01*
X-3006335Y4982536D02*
X-2730564Y4982536D01*
X12735Y1411923D02*
X111728Y1510919D01*
X1048650Y750775D02*
X1048649Y750775D01*
X1709801Y-285143D02*
X1808794Y-186147D01*
X-2730564Y4706765D02*
X-2730564Y4982536D01*
X4625551Y-1280000D02*
X4430551Y-1475000D01*
X1296139Y503285D02*
X1207750Y414897D01*
X1296140Y503283D02*
X1296139Y503285D01*
X-8635826Y10255001D02*
X-8635826Y10025000D01*
X387499Y1786691D02*
G75*
G03*
X387514Y2302894I-258099J258109D01*
G01*
X2848245Y-157867D02*
G75*
G03*
X2332057Y-157867I-258094J-258094D01*
G01*
X-835799Y2097822D02*
G75*
G02*
X-835760Y2260417I81299J81278D01*
G01*
X2915421Y-939220D02*
G75*
G02*
X2915418Y-776583I81279J81320D01*
G01*
X-9235826Y10025000D02*
G75*
G03*
X-9115826Y9904974I120026J0D01*
G01*
X1108756Y315902D02*
G75*
G02*
X946081Y315864I-81356J81298D01*
G01*
X1151179Y1539199D02*
G75*
G03*
X634991Y1539199I-258094J-258094D01*
G01*
X-8755826Y10375001D02*
G75*
G02*
X-8635799Y10255001I26J-120001D01*
G01*
X1957289Y-532631D02*
G75*
G02*
X1794682Y-532602I-81289J81331D01*
G01*
X1236032Y938158D02*
G75*
G03*
X1236080Y1454394I-258132J258142D01*
G01*
X1709800Y-447777D02*
G75*
G02*
X1709840Y-285183I81300J81277D01*
G01*
X260223Y1164435D02*
G75*
G02*
X97582Y1164430I-81323J81365D01*
G01*
X861267Y400756D02*
G75*
G02*
X861240Y563417I81333J81344D01*
G01*
X-9055826Y9905000D02*
G75*
G03*
X-8935800Y10025000I26J120000D01*
G01*
X302646Y2387732D02*
G75*
G03*
X-213542Y2387732I-258094J-258094D01*
G01*
X1999712Y690666D02*
G75*
G03*
X1483524Y690666I-258094J-258094D01*
G01*
X12734Y1249289D02*
G75*
G02*
X12741Y1411917I81266J81311D01*
G01*
X-818122Y2278135D02*
G75*
G03*
X-818151Y2794294I-258078J258065D01*
G01*
X2933098Y-758908D02*
G75*
G03*
X2933112Y-242706I-258098J258108D01*
G01*
X-9535826Y10255001D02*
G75*
G02*
X-9415826Y10375026I120026J-1D01*
G01*
X-9655826Y9905000D02*
G75*
G03*
X-9535800Y10025000I26J120000D01*
G01*
X-588310Y2012968D02*
G75*
G02*
X-750918Y2012996I-81290J81332D01*
G01*
X-8635826Y10025000D02*
G75*
G03*
X-8515826Y9904974I120026J0D01*
G01*
X2084565Y89625D02*
G75*
G03*
X2084546Y605794I-258065J258075D01*
G01*
X-8935826Y10255001D02*
G75*
G02*
X-8815826Y10375026I120026J-1D01*
G01*
X-9355826Y10375001D02*
G75*
G02*
X-9235799Y10255001I26J-120001D01*
G01*
%TO.N,/Ethernet/RGMII0_TRP1*%
X2224960Y-3033537D02*
X2399520Y-2858978D01*
X949926Y-1246785D02*
X865071Y-1161930D01*
X1201865Y-2359569D02*
X1376428Y-2185005D01*
X-495205Y-662506D02*
X-320638Y-487939D01*
X775383Y-1583960D02*
X775384Y-1583961D01*
X-73149Y-735428D02*
X101412Y-560868D01*
X1535527Y-2520881D02*
X1623915Y-2432493D01*
X-921682Y113105D02*
X-747115Y287672D01*
X-994604Y535160D02*
X-999466Y530299D01*
X-747115Y450306D02*
X-831969Y535160D01*
X2472450Y-3281027D02*
X2560839Y-3192639D01*
X-1096249Y-61462D02*
X-1010072Y24718D01*
X2382752Y-4056625D02*
X2297897Y-3971770D01*
X-9078000Y6055000D02*
X-9010000Y6055000D01*
X-247716Y-909995D02*
X-161539Y-823815D01*
X-1011393Y-662506D02*
X-1096249Y-577650D01*
X-320639Y-487938D02*
X-320638Y-487939D01*
X2224960Y-3033537D02*
X2224961Y-3033538D01*
X-8534000Y5624407D02*
X-8534000Y5919000D01*
X775384Y-1583961D02*
X949926Y-1409420D01*
X2472450Y-3281026D02*
X2472450Y-3281027D01*
X1623917Y-2432494D02*
X1798459Y-2257953D01*
X-7040354Y6055000D02*
X-2993493Y2008139D01*
X3139646Y-4125000D02*
X4423499Y-4125000D01*
X-9418000Y5488430D02*
X-9350000Y5488430D01*
X-11688222Y6055000D02*
X-10370000Y6055000D01*
X527894Y-1336471D02*
X702436Y-1161930D01*
X-9214000Y5624430D02*
X-9214000Y5919000D01*
X2050394Y-3208105D02*
X2224961Y-3033538D01*
X1449350Y-2607061D02*
X1535527Y-2520881D01*
X-921684Y113106D02*
X-921682Y113105D01*
X353328Y-1511039D02*
X527895Y-1336472D01*
X-161539Y-823815D02*
X-73151Y-735427D01*
X-8874000Y5919000D02*
X-8874000Y5624407D01*
X1376427Y-2185004D02*
X1550969Y-2010463D01*
X600819Y-1758523D02*
X775383Y-1583960D01*
X1798459Y-2095318D02*
X1713604Y-2010463D01*
X4618499Y-4320000D02*
X4423499Y-4125000D01*
X-320639Y-487938D02*
X-146078Y-313378D01*
X2560839Y-3192639D02*
X2647010Y-3106467D01*
X-73151Y-735427D02*
X-73149Y-735428D01*
X-8398000Y6055000D02*
X-7040354Y6055000D01*
X-1010072Y24718D02*
X-921684Y113106D01*
X2647010Y-2943833D02*
X2562155Y-2858978D01*
X-2717722Y1732368D02*
X-1515654Y530299D01*
X1534206Y-3208105D02*
X1449350Y-3123249D01*
X685675Y-2359567D02*
X600819Y-2274711D01*
X527894Y-1336471D02*
X527895Y-1336472D01*
X2302744Y-3450732D02*
X2472450Y-3281026D01*
X-10234000Y5919000D02*
X-10234000Y5624430D01*
X-9758000Y6055000D02*
X-9690000Y6055000D01*
X-2717722Y1732368D02*
X-2993493Y1732368D01*
X2903788Y-4051776D02*
X2898940Y-4056625D01*
X-13800000Y5760000D02*
X-13256489Y5216489D01*
X-10098000Y5488430D02*
X-10030000Y5488430D01*
X-9894000Y5624430D02*
X-9894000Y5919000D01*
X-8738000Y5488407D02*
X-8670000Y5488407D01*
X-162860Y-1511039D02*
X-247716Y-1426183D01*
X-2993493Y1732368D02*
X-2993493Y2008139D01*
X-13256489Y5216489D02*
X-12526733Y5216489D01*
X1376427Y-2185004D02*
X1376428Y-2185005D01*
X-12526733Y5216489D02*
X-11688222Y6055000D01*
X1623915Y-2432493D02*
X1623917Y-2432494D01*
X-9554000Y5919000D02*
X-9554000Y5624430D01*
X3139646Y-4125000D02*
X3066422Y-4051776D01*
X101412Y-398233D02*
X16557Y-313378D01*
X2297897Y-3455582D02*
X2302744Y-3450732D01*
X3066422Y-4051776D02*
G75*
G03*
X2903788Y-4051776I-81317J-81316D01*
G01*
X-10030000Y5488430D02*
G75*
G03*
X-9894030Y5624430I0J135970D01*
G01*
X600819Y-2274711D02*
G75*
G02*
X600802Y-1758506I258081J258111D01*
G01*
X2297897Y-3971770D02*
G75*
G02*
X2297921Y-3455606I258103J258070D01*
G01*
X-247716Y-1426183D02*
G75*
G02*
X-247705Y-910006I258116J258083D01*
G01*
X2050394Y-3208105D02*
G75*
G02*
X1534206Y-3208105I-258094J258094D01*
G01*
X16557Y-313378D02*
G75*
G03*
X-146077Y-313378I-81317J-81317D01*
G01*
X-9554000Y5624430D02*
G75*
G03*
X-9418000Y5488400I136000J-30D01*
G01*
X-10370000Y6055000D02*
G75*
G02*
X-10234000Y5919000I0J-136000D01*
G01*
X949926Y-1409420D02*
G75*
G03*
X949929Y-1246783I-81326J81320D01*
G01*
X-9010000Y6055000D02*
G75*
G02*
X-8874000Y5919000I0J-136000D01*
G01*
X-9214000Y5919000D02*
G75*
G02*
X-9078000Y6055000I136000J0D01*
G01*
X-8534000Y5919000D02*
G75*
G02*
X-8398000Y6055000I136000J0D01*
G01*
X-9350000Y5488430D02*
G75*
G03*
X-9214030Y5624430I0J135970D01*
G01*
X-1096249Y-577650D02*
G75*
G02*
X-1096205Y-61506I258049J258050D01*
G01*
X-8874000Y5624407D02*
G75*
G03*
X-8738000Y5488400I136000J-7D01*
G01*
X-747115Y287672D02*
G75*
G03*
X-747104Y450317I-81285J81328D01*
G01*
X2562155Y-2858978D02*
G75*
G03*
X2399519Y-2858977I-81318J-81317D01*
G01*
X-999466Y530299D02*
G75*
G02*
X-1515654Y530299I-258094J258094D01*
G01*
X-9690000Y6055000D02*
G75*
G02*
X-9554000Y5919000I0J-136000D01*
G01*
X-10234000Y5624430D02*
G75*
G03*
X-10098000Y5488400I136000J-30D01*
G01*
X1713604Y-2010463D02*
G75*
G03*
X1550970Y-2010463I-81317J-81317D01*
G01*
X1201865Y-2359569D02*
G75*
G02*
X685704Y-2359538I-258065J258069D01*
G01*
X2898940Y-4056625D02*
G75*
G02*
X2382752Y-4056625I-258094J258094D01*
G01*
X-831969Y535160D02*
G75*
G03*
X-994603Y535160I-81317J-81317D01*
G01*
X1449350Y-3123249D02*
G75*
G02*
X1449395Y-2607106I258050J258049D01*
G01*
X1798459Y-2257953D02*
G75*
G03*
X1798495Y-2095283I-81359J81353D01*
G01*
X353328Y-1511039D02*
G75*
G02*
X-162860Y-1511039I-258094J258094D01*
G01*
X-8670000Y5488407D02*
G75*
G03*
X-8534007Y5624407I0J135993D01*
G01*
X101412Y-560868D02*
G75*
G03*
X101363Y-398283I-81312J81268D01*
G01*
X-495205Y-662506D02*
G75*
G02*
X-1011393Y-662506I-258094J258094D01*
G01*
X2647010Y-3106467D02*
G75*
G03*
X2646960Y-2943883I-81310J81267D01*
G01*
X865071Y-1161930D02*
G75*
G03*
X702435Y-1161929I-81318J-81317D01*
G01*
X-9894000Y5919000D02*
G75*
G02*
X-9758000Y6055000I136000J0D01*
G01*
%TO.N,/Ethernet/RGMII0_TRP0*%
X-1578389Y-1938389D02*
X426529Y-3943306D01*
X2058222Y-5575000D02*
X1984999Y-5501776D01*
X-4193917Y677140D02*
X-7111777Y3595000D01*
X-10365000Y3595000D02*
X-11260000Y2700000D01*
X5821778Y-4925000D02*
X5171778Y-5575000D01*
X1833679Y-5501777D02*
X1738460Y-5596993D01*
X413338Y-4776745D02*
X331312Y-4694719D01*
X-1578389Y-1938389D02*
X-3918146Y401369D01*
X-3918146Y401369D02*
X-4193917Y401369D01*
X3566876Y-5816658D02*
X3566876Y-5083342D01*
X1177479Y-4517478D02*
X1436756Y-4258202D01*
X2058222Y-5575000D02*
X2879876Y-5575000D01*
X5171778Y-5575000D02*
X4503876Y-5575000D01*
X8814609Y-4925000D02*
X5821778Y-4925000D01*
X3459876Y-4976342D02*
X3343876Y-4976342D01*
X1177480Y-4517480D02*
X1101820Y-4593141D01*
X1151561Y-5010093D02*
X1246777Y-4914874D01*
X1670104Y-4340229D02*
X1588077Y-4258202D01*
X1177479Y-4517478D02*
X1177480Y-4517480D01*
X1233586Y-5596993D02*
X1151560Y-5514967D01*
X4396876Y-5682000D02*
X4396876Y-5816658D01*
X3236876Y-5083342D02*
X3236876Y-5218000D01*
X4039876Y-6173658D02*
X3923876Y-6173658D01*
X1410827Y-4750827D02*
X1670104Y-4491550D01*
X-4193917Y401369D02*
X-4193917Y677140D01*
X1101820Y-4593141D02*
X1013431Y-4681529D01*
X-7111777Y3595000D02*
X-10365000Y3595000D01*
X1246777Y-4914874D02*
X1410826Y-4750825D01*
X1410826Y-4750825D02*
X1410827Y-4750827D01*
X331312Y-4189845D02*
X426530Y-4094628D01*
X9009609Y-5120000D02*
X8814609Y-4925000D01*
X1013431Y-4681529D02*
X918214Y-4776747D01*
X3923876Y-6173658D02*
G75*
G02*
X3566942Y-5816658I24J356958D01*
G01*
X1588077Y-4258202D02*
G75*
G03*
X1436757Y-4258202I-75660J-75659D01*
G01*
X1984999Y-5501776D02*
G75*
G03*
X1833639Y-5501737I-75699J-75624D01*
G01*
X331312Y-4694719D02*
G75*
G02*
X331330Y-4189863I252388J252419D01*
G01*
X3343876Y-4976342D02*
G75*
G03*
X3236942Y-5083342I24J-106958D01*
G01*
X4396876Y-5816658D02*
G75*
G02*
X4039876Y-6173676I-356976J-42D01*
G01*
X426530Y-4094628D02*
G75*
G03*
X426497Y-3943339I-75630J75628D01*
G01*
X918214Y-4776747D02*
G75*
G02*
X413361Y-4776722I-252414J252447D01*
G01*
X1151560Y-5514967D02*
G75*
G02*
X1151530Y-5010063I252440J252467D01*
G01*
X1738460Y-5596993D02*
G75*
G02*
X1233586Y-5596993I-252437J252436D01*
G01*
X3566876Y-5083342D02*
G75*
G03*
X3459876Y-4976324I-106976J42D01*
G01*
X3236876Y-5218000D02*
G75*
G02*
X2879876Y-5574976I-356976J0D01*
G01*
X4503876Y-5575000D02*
G75*
G03*
X4396900Y-5682000I24J-107000D01*
G01*
X1670104Y-4491550D02*
G75*
G03*
X1670094Y-4340239I-75704J75650D01*
G01*
D81*
%TO.N,/PSU/PoE_VIN+*%
X-21800000Y-7124999D02*
X-21800000Y-6000000D01*
X-21800000Y-6000000D02*
X-21820000Y-5980000D01*
X-19525000Y-6700001D02*
X-21099999Y-6700001D01*
X-21200000Y-4825000D02*
X-21200000Y-5360000D01*
X-21200000Y-5360000D02*
X-21820000Y-5980000D01*
X-21099999Y-6700001D02*
X-21820000Y-5980000D01*
%TO.N,/PSU/PoE_VIN-*%
X-4725000Y-4825000D02*
X-4725000Y-5325000D01*
X-4725000Y-5325000D02*
X-5240000Y-5840000D01*
X-4200000Y-6880000D02*
X-5240000Y-5840000D01*
X-5440000Y-5800000D02*
X-5280000Y-5800000D01*
X-6340001Y-6700001D02*
X-5440000Y-5800000D01*
X-5280000Y-5800000D02*
X-5240000Y-5840000D01*
D76*
%TO.N,/SOM/FPGA_DONE*%
X80000Y45190000D02*
X-880000Y44230000D01*
X4340000Y45190000D02*
X80000Y45190000D01*
X-5385000Y33800001D02*
X-5385000Y34035000D01*
X-5385000Y34035000D02*
X-5370000Y34050000D01*
X4340000Y45190000D02*
X5490000Y45190000D01*
X5490000Y45190000D02*
X5500000Y45200000D01*
D81*
%TO.N,/PSU/PoE_VDC+*%
X-25910000Y-14390000D02*
X-25360000Y-14940000D01*
X-24160000Y-12885000D02*
X-25885000Y-12885000D01*
D84*
%TO.N,/SOM/FPGA_USB_D+*%
X-7002756Y20708200D02*
X-11972756Y20708200D01*
X-11972756Y20708200D02*
X-14951800Y23687244D01*
X-18992756Y34788200D02*
X-21211871Y34788200D01*
X-14951800Y23687244D02*
X-14951800Y30747244D01*
X5567244Y9698200D02*
X4007244Y9698200D01*
X-21211871Y34788200D02*
X-21393671Y34970000D01*
X-14951800Y30747244D02*
X-18992756Y34788200D01*
X13376086Y1889358D02*
X5567244Y9698200D01*
X13376086Y1353065D02*
X13376086Y1889358D01*
X4007244Y9698200D02*
X-7002756Y20708200D01*
X13557886Y1171265D02*
X13376086Y1353065D01*
%TO.N,/SOM/FPGA_USB_D-*%
X13099686Y1353065D02*
X13099686Y1774870D01*
X-15228200Y30632756D02*
X-19107244Y34511800D01*
X12917886Y1171265D02*
X13099686Y1353065D01*
X-19107244Y34511800D02*
X-21211871Y34511800D01*
X-12087244Y20431800D02*
X-15228200Y23572756D01*
X3892756Y9421800D02*
X-7117244Y20431800D01*
X-15228200Y23572756D02*
X-15228200Y30632756D01*
X5452756Y9421800D02*
X3892756Y9421800D01*
X-7117244Y20431800D02*
X-12087244Y20431800D01*
X13099686Y1774870D02*
X5452756Y9421800D01*
X-21211871Y34511800D02*
X-21393671Y34330000D01*
D81*
%TO.N,Net-(D1-A2)*%
X-9520000Y-6720001D02*
X-9520000Y-4195001D01*
X-9520000Y-4195001D02*
X-10057501Y-3657500D01*
X-8587500Y-2622500D02*
X-9100000Y-2110000D01*
X-9985000Y-2110000D02*
X-10525000Y-2650000D01*
X-13374999Y-2150000D02*
X-12860000Y-2150000D01*
X-12820000Y-2110000D02*
X-12860000Y-2150000D01*
X-5150000Y-2110000D02*
X-8240000Y-2110000D01*
X-4725000Y-3175000D02*
X-4725000Y-2535000D01*
X-8587500Y-3200000D02*
X-8587500Y-2457500D01*
X-12860000Y-2150000D02*
X-11025000Y-2150000D01*
X-4725000Y-2535000D02*
X-5150000Y-2110000D01*
X-8587500Y-3200000D02*
X-8587500Y-2622500D01*
X-8680000Y-2110000D02*
X-9985000Y-2110000D01*
X-8587500Y-2457500D02*
X-8240000Y-2110000D01*
X-10525000Y-2650000D02*
X-10525000Y-3657500D01*
X-8680000Y-2110000D02*
X-9100000Y-2110000D01*
X-8240000Y-2110000D02*
X-8680000Y-2110000D01*
X-13810000Y-2150000D02*
X-14125000Y-2465000D01*
X-14125000Y-2465000D02*
X-14125000Y-3657500D01*
X-10999999Y-8200000D02*
X-9520000Y-6720001D01*
X-12860000Y-2150000D02*
X-13810000Y-2150000D01*
X-9100000Y-2110000D02*
X-12820000Y-2110000D01*
X-11025000Y-2150000D02*
X-10525000Y-2650000D01*
X-10057501Y-3657500D02*
X-10525000Y-3657500D01*
%TO.N,Net-(D1-A1)*%
X-15425000Y-5625001D02*
X-15425000Y-7020000D01*
X-15425000Y-5625001D02*
X-16194999Y-5625001D01*
X-13230000Y-7180000D02*
X-15265000Y-7180000D01*
X-17400000Y-3200000D02*
X-18380000Y-2220000D01*
X-11825000Y-5775000D02*
X-13230000Y-7180000D01*
X-18380000Y-2220000D02*
X-20245000Y-2220000D01*
X-15425000Y-7020000D02*
X-15425000Y-7775001D01*
X-20245000Y-2220000D02*
X-21200000Y-3175000D01*
X-16580000Y-5240000D02*
X-16580000Y-4020000D01*
X-16194999Y-5625001D02*
X-16580000Y-5240000D01*
X-16580000Y-4020000D02*
X-17400000Y-3200000D01*
X-15265000Y-7180000D02*
X-15425000Y-7020000D01*
X-11825000Y-5625001D02*
X-11825000Y-5775000D01*
%TO.N,Net-(L3-Pad2)*%
X-19525000Y-4950000D02*
X-19525000Y-3200000D01*
%TO.N,Net-(L4-Pad2)*%
X-17400000Y-6700001D02*
X-17400000Y-4950000D01*
%TO.N,Net-(L6-Pad2)*%
X-6462500Y-4950000D02*
X-6462500Y-3200000D01*
%TO.N,Net-(L7-Pad2)*%
X-8587500Y-4950000D02*
X-8587500Y-6700001D01*
D77*
%TO.N,Net-(Q1-G)*%
X-19930000Y18670000D02*
X-19970000Y18630000D01*
X-22120000Y19890000D02*
X-22120000Y19410000D01*
X-22120000Y19410000D02*
X-22130000Y19400000D01*
X-19590000Y18670000D02*
X-19930000Y18670000D01*
%TO.N,Net-(Q2-Pad2)*%
X-21470000Y19889999D02*
X-21470000Y17990001D01*
X-21309999Y17830000D02*
X-21470000Y17990001D01*
X-20880000Y17830000D02*
X-21309999Y17830000D01*
X-19590000Y17830000D02*
X-20880000Y17830000D01*
D80*
%TO.N,/PSU/VBUS_TVS*%
X-27652502Y23877498D02*
X-27652502Y23502499D01*
X-26620000Y24910000D02*
X-27652502Y23877498D01*
X-25010001Y24910000D02*
X-26620000Y24910000D01*
X-24702500Y24602499D02*
X-25010001Y24910000D01*
D74*
%TO.N,Net-(J2-CC2)*%
X-31330500Y25149500D02*
X-30865501Y25614499D01*
X-29114499Y25614499D02*
X-28590000Y25090000D01*
X-31330500Y23914499D02*
X-31330500Y25149500D01*
X-30865501Y25614499D02*
X-29114499Y25614499D01*
X-31892500Y23352499D02*
X-31330500Y23914499D01*
%TO.N,Net-(J2-CC1)*%
X-28837500Y17252499D02*
X-28837500Y17587500D01*
X-29550000Y19810000D02*
X-30542500Y20802500D01*
X-29550000Y18300000D02*
X-29550000Y19810000D01*
X-28837500Y17587500D02*
X-29550000Y18300000D01*
D76*
%TO.N,/SOM/S_JTAG_H*%
X5692026Y41890000D02*
X-790000Y41890000D01*
X-820000Y41860000D02*
X-790000Y41890000D01*
X-820000Y41500000D02*
X-820000Y41860000D01*
X8100000Y36270000D02*
X8780000Y35590000D01*
X8100000Y39482026D02*
X8100000Y36270000D01*
X-4080000Y41890000D02*
X-4235000Y41735000D01*
X-790000Y41890000D02*
X-4080000Y41890000D01*
X5692026Y41890000D02*
X8100000Y39482026D01*
D74*
%TO.N,GNDA*%
X-15390000Y47630000D02*
X-15400000Y47620000D01*
D85*
X-16580000Y47500000D02*
X-15990000Y48090000D01*
D74*
X-21230000Y47500000D02*
X-21190000Y47540000D01*
D82*
X-15400000Y47620000D02*
X-15400000Y44840000D01*
D74*
X-21775000Y47500000D02*
X-21230000Y47500000D01*
D80*
%TO.N,Net-(C2-Pad1)*%
X-31980000Y51570000D02*
X-28350000Y51570000D01*
X-26979000Y52941000D02*
X-25170000Y54750000D01*
X-25170000Y54750000D02*
X-23190000Y54750000D01*
X-28021000Y51899000D02*
X-27682530Y51899000D01*
X-27682530Y51899000D02*
X-26979000Y52602530D01*
X-26979000Y52602530D02*
X-26979000Y52941000D01*
X-28350000Y51570000D02*
X-28021000Y51899000D01*
D74*
%TO.N,/DAC/LDOO*%
X-21165000Y41215000D02*
X-21610000Y41660000D01*
D72*
%TO.N,+3.3VA*%
X-20225000Y47500000D02*
X-20225000Y47135000D01*
X-20225000Y47135000D02*
X-20600000Y46760000D01*
%TO.N,Net-(U10-XSMT)*%
X-18460000Y41840000D02*
X-18610000Y41990000D01*
X-18460000Y41490000D02*
X-18460000Y41840000D01*
D76*
%TO.N,/DAC/I2S_LRCK*%
X3860000Y26000000D02*
X3800000Y25940000D01*
X690000Y27510000D02*
X-8090000Y27510000D01*
X-17320000Y36740000D02*
X-17320000Y40200000D01*
X-8090000Y27510000D02*
X-17320000Y36740000D01*
X2260000Y25940000D02*
X690000Y27510000D01*
X3800000Y25940000D02*
X2260000Y25940000D01*
%TO.N,/DAC/I2S_BCK*%
X2120000Y28540000D02*
X3060000Y27600000D01*
X-16050000Y40110000D02*
X-16050000Y36710000D01*
X-7880000Y28540000D02*
X2120000Y28540000D01*
X-16050000Y36710000D02*
X-7880000Y28540000D01*
%TO.N,/DAC/I2S_DIN*%
X2570000Y26800000D02*
X3360000Y26800000D01*
X1340000Y28030000D02*
X2570000Y26800000D01*
X-16700000Y36760000D02*
X-7970000Y28030000D01*
X-16700000Y40100000D02*
X-16700000Y36760000D01*
X-7970000Y28030000D02*
X1340000Y28030000D01*
%TD*%
%TA.AperFunction,Conductor*%
%TO.N,+5V*%
G36*
X23125500Y55980038D02*
G01*
X23180038Y55925500D01*
X23200000Y55851000D01*
X23200000Y55235987D01*
X23180038Y55161487D01*
X23125500Y55106949D01*
X23117701Y55102991D01*
X23115936Y55101782D01*
X23036493Y55022339D01*
X22991116Y54919569D01*
X22991115Y54919566D01*
X22991115Y54919565D01*
X22988200Y54894439D01*
X22988200Y54894438D01*
X22988200Y54894434D01*
X22988200Y54651374D01*
X22968238Y54576874D01*
X22913700Y54522336D01*
X22839200Y54502374D01*
X22443733Y54502374D01*
X22418610Y54499460D01*
X22418607Y54499459D01*
X22315835Y54454081D01*
X22236393Y54374639D01*
X22191016Y54271869D01*
X22191015Y54271866D01*
X22191015Y54271865D01*
X22188100Y54246739D01*
X22188100Y54246735D01*
X22188100Y54246734D01*
X22188100Y54149000D01*
X22168138Y54074500D01*
X22113600Y54019962D01*
X22039100Y54000000D01*
X20500000Y54000000D01*
X20500000Y53949500D01*
X20480038Y53875000D01*
X20425500Y53820462D01*
X20351000Y53800500D01*
X19995133Y53800500D01*
X19970010Y53797586D01*
X19970007Y53797585D01*
X19867235Y53752207D01*
X19787793Y53672765D01*
X19742416Y53569995D01*
X19742415Y53569992D01*
X19742415Y53569991D01*
X19739500Y53544865D01*
X19739500Y53544864D01*
X19739500Y53544860D01*
X19739500Y53367955D01*
X19719538Y53293455D01*
X19719537Y53293454D01*
X19667017Y53202489D01*
X19629500Y53062477D01*
X19629500Y52917525D01*
X19642520Y52868935D01*
X19642520Y52853726D01*
X19647329Y52839299D01*
X19642520Y52815798D01*
X19642520Y52791806D01*
X19631867Y52763736D01*
X19541182Y52582365D01*
X19490010Y52524658D01*
X19416840Y52500268D01*
X19407912Y52500000D01*
X18149000Y52500000D01*
X18074500Y52519962D01*
X18019962Y52574500D01*
X18000000Y52649000D01*
X18000000Y55851000D01*
X18019962Y55925500D01*
X18074500Y55980038D01*
X18149000Y56000000D01*
X23051000Y56000000D01*
X23125500Y55980038D01*
G37*
%TD.AperFunction*%
%TA.AperFunction,Conductor*%
G36*
X22223500Y53780823D02*
G01*
X22254359Y53757144D01*
X22315835Y53695668D01*
X22418609Y53650289D01*
X22443735Y53647374D01*
X22839201Y53647375D01*
X22913700Y53627413D01*
X22968238Y53572875D01*
X22988200Y53498376D01*
X22988200Y53255308D01*
X22991114Y53230186D01*
X22991114Y53230184D01*
X22991115Y53230183D01*
X23000387Y53209183D01*
X23012218Y53132971D01*
X22984357Y53061051D01*
X22924269Y53012696D01*
X22864083Y53000000D01*
X22224500Y53000000D01*
X22150000Y53019962D01*
X22095462Y53074500D01*
X22075500Y53149000D01*
X22075500Y53191143D01*
X22075500Y53191144D01*
X22065359Y53275590D01*
X22065359Y53275591D01*
X22065358Y53275594D01*
X22010389Y53414986D01*
X22000000Y53469647D01*
X22000000Y53651785D01*
X22019962Y53726285D01*
X22074500Y53780823D01*
X22149000Y53800785D01*
X22223500Y53780823D01*
G37*
%TD.AperFunction*%
%TD*%
%TA.AperFunction,Conductor*%
%TO.N,GND*%
G36*
X24259191Y55981093D02*
G01*
X24295155Y55931593D01*
X24300000Y55901000D01*
X24300000Y55372056D01*
X24281093Y55313865D01*
X24275152Y55307366D01*
X24275367Y55307186D01*
X24270373Y55301205D01*
X24223464Y55222693D01*
X24223462Y55222690D01*
X24204556Y55164501D01*
X24194500Y55101004D01*
X24194500Y55079946D01*
X24197699Y55043836D01*
X24197702Y55043814D01*
X24203814Y55009584D01*
X24205515Y55001093D01*
X24205517Y55001086D01*
X24214011Y54983189D01*
X24214019Y54983174D01*
X24219570Y54971480D01*
X24219207Y54971361D01*
X24223466Y54958254D01*
X24237944Y54924383D01*
X24264680Y54893780D01*
X24265925Y54891584D01*
X24278445Y54875703D01*
X24299624Y54818300D01*
X24299700Y54814412D01*
X24299700Y54756638D01*
X24297798Y54737324D01*
X24294700Y54721752D01*
X24294700Y54428254D01*
X24294701Y54428242D01*
X24297797Y54412679D01*
X24299700Y54393364D01*
X24299700Y54256512D01*
X24297798Y54237198D01*
X24294700Y54221626D01*
X24294700Y53928126D01*
X24298098Y53911044D01*
X24300000Y53891729D01*
X24300000Y53800000D01*
X24325588Y53800000D01*
X24359290Y53794087D01*
X24370593Y53789995D01*
X24416969Y53759007D01*
X24475452Y53747374D01*
X24486625Y53747374D01*
X24540698Y53729805D01*
X24540699Y53729805D01*
X24540702Y53729804D01*
X24604196Y53719748D01*
X24604200Y53719748D01*
X24806055Y53719748D01*
X24831677Y53716375D01*
X24866207Y53707123D01*
X24892572Y53701879D01*
X24892583Y53701878D01*
X24892586Y53701877D01*
X24918179Y53698508D01*
X24918184Y53698508D01*
X24918195Y53698506D01*
X24945016Y53696748D01*
X25107817Y53696748D01*
X25110354Y53696715D01*
X25113949Y53696623D01*
X25125463Y53695489D01*
X25145602Y53694500D01*
X25196750Y53694500D01*
X25198037Y53694467D01*
X25225723Y53684681D01*
X25253691Y53675593D01*
X25254472Y53674518D01*
X25255724Y53674075D01*
X25272373Y53649879D01*
X25289655Y53626093D01*
X25289928Y53624368D01*
X25290408Y53623670D01*
X25290356Y53621664D01*
X25294500Y53595500D01*
X25294500Y53099000D01*
X25295636Y53084569D01*
X25297030Y53066857D01*
X25301883Y53036207D01*
X25302646Y53031719D01*
X25302647Y53031714D01*
X25338591Y52947618D01*
X25338592Y52947617D01*
X25374556Y52898117D01*
X25398797Y52870372D01*
X25475391Y52824609D01*
X25500000Y52800000D01*
X25564272Y52800000D01*
X25586495Y52796481D01*
X25598998Y52794500D01*
X25599000Y52794500D01*
X26110315Y52794500D01*
X26111474Y52794529D01*
X26120382Y52794747D01*
X26122481Y52794851D01*
X26123116Y52794881D01*
X26127961Y52795000D01*
X26472039Y52795000D01*
X26476884Y52794881D01*
X26477569Y52794848D01*
X26479618Y52794747D01*
X26488491Y52794530D01*
X26489685Y52794500D01*
X26489689Y52794500D01*
X26900993Y52794500D01*
X26901000Y52794500D01*
X26933144Y52797030D01*
X26944200Y52798782D01*
X26959686Y52800000D01*
X27527944Y52800000D01*
X27586135Y52781093D01*
X27592634Y52775153D01*
X27592814Y52775367D01*
X27598795Y52770374D01*
X27598797Y52770372D01*
X27677307Y52723464D01*
X27735498Y52704557D01*
X27747552Y52702648D01*
X27798996Y52694500D01*
X27799000Y52694500D01*
X27929875Y52694500D01*
X27929889Y52694500D01*
X27946014Y52695134D01*
X27961501Y52696353D01*
X28038676Y52718120D01*
X28038681Y52718123D01*
X28039131Y52718299D01*
X28044738Y52720894D01*
X28048470Y52722455D01*
X28051574Y52723462D01*
X28081758Y52736366D01*
X28082033Y52736480D01*
X28084123Y52736652D01*
X28103270Y52749446D01*
X28103271Y52749445D01*
X28116546Y52758316D01*
X28171548Y52775000D01*
X28428451Y52775000D01*
X28475322Y52763202D01*
X28479502Y52760956D01*
X28493865Y52751358D01*
X28494787Y52752740D01*
X28527733Y52735031D01*
X28527844Y52734915D01*
X28529233Y52734207D01*
X28544155Y52725852D01*
X28548418Y52723464D01*
X28606609Y52704557D01*
X28606610Y52704557D01*
X28606613Y52704556D01*
X28670107Y52694500D01*
X28801000Y52694500D01*
X28859191Y52675593D01*
X28895155Y52626093D01*
X28900000Y52595500D01*
X28900000Y51699000D01*
X28881093Y51640809D01*
X28831593Y51604845D01*
X28801000Y51600000D01*
X19599000Y51600000D01*
X19540809Y51618907D01*
X19504845Y51668407D01*
X19500000Y51699000D01*
X19500000Y52134608D01*
X19518907Y52192799D01*
X19567696Y52228528D01*
X19586618Y52234835D01*
X19629930Y52253084D01*
X19718586Y52321967D01*
X19769758Y52379674D01*
X19814430Y52445742D01*
X19905115Y52627113D01*
X19917489Y52655338D01*
X19928142Y52683408D01*
X19941211Y52754678D01*
X19941818Y52754553D01*
X19946627Y52778054D01*
X19952479Y52824687D01*
X19948020Y52857044D01*
X19948020Y52868935D01*
X19937610Y52948006D01*
X19937609Y52948011D01*
X19936977Y52951191D01*
X19937560Y52951308D01*
X19935000Y52970782D01*
X19935000Y53009221D01*
X19938373Y53034843D01*
X19942009Y53048417D01*
X19948324Y53071983D01*
X19958213Y53095856D01*
X19984106Y53140701D01*
X20014627Y53214383D01*
X20034590Y53288884D01*
X20045000Y53367955D01*
X20045000Y53396000D01*
X20063907Y53454191D01*
X20113407Y53490155D01*
X20144000Y53495000D01*
X20350998Y53495000D01*
X20351000Y53495000D01*
X20430068Y53505409D01*
X20504568Y53525371D01*
X20548898Y53540992D01*
X20548898Y53540993D01*
X20548900Y53540993D01*
X20548902Y53540994D01*
X20641515Y53604437D01*
X20641514Y53604437D01*
X20641521Y53604441D01*
X20696059Y53658979D01*
X20696857Y53659910D01*
X20697004Y53660001D01*
X20697360Y53660384D01*
X20697468Y53660284D01*
X20749075Y53691800D01*
X20772039Y53694500D01*
X21595500Y53694500D01*
X21609074Y53690090D01*
X21623339Y53690505D01*
X21637443Y53680873D01*
X21653691Y53675593D01*
X21662081Y53664046D01*
X21673865Y53655997D01*
X21679118Y53640596D01*
X21689655Y53626093D01*
X21694458Y53598381D01*
X21694500Y53596939D01*
X21694500Y53469647D01*
X21699864Y53412696D01*
X21699958Y53409481D01*
X21699877Y53409207D01*
X21700000Y53406600D01*
X21700000Y53000000D01*
X21700001Y53000000D01*
X21730399Y53000000D01*
X21788590Y52981093D01*
X21810610Y52955281D01*
X21812324Y52956455D01*
X21879436Y52858485D01*
X21879438Y52858483D01*
X21879441Y52858479D01*
X21933979Y52803941D01*
X21942046Y52797030D01*
X21969673Y52773360D01*
X21969675Y52773359D01*
X22001092Y52758315D01*
X22070932Y52724871D01*
X22145432Y52704909D01*
X22224500Y52694500D01*
X22224502Y52694500D01*
X22864080Y52694500D01*
X22864083Y52694500D01*
X22927139Y52701078D01*
X22987325Y52713774D01*
X23016889Y52721574D01*
X23115800Y52774691D01*
X23175888Y52823046D01*
X23210127Y52855240D01*
X23269229Y52950695D01*
X23269467Y52951308D01*
X23281005Y52981093D01*
X23297090Y53022615D01*
X23310646Y53067617D01*
X23314102Y53179835D01*
X23302271Y53256047D01*
X23297691Y53271686D01*
X23293700Y53299511D01*
X23293700Y53393112D01*
X23295603Y53412427D01*
X23298698Y53427990D01*
X23298700Y53428002D01*
X23298700Y53721495D01*
X23298700Y53721496D01*
X23287067Y53779979D01*
X23287064Y53779983D01*
X23284190Y53786922D01*
X23279388Y53847919D01*
X23284190Y53862700D01*
X23287063Y53869638D01*
X23287067Y53869643D01*
X23298700Y53928126D01*
X23298700Y54221622D01*
X23287067Y54280105D01*
X23287064Y54280109D01*
X23284190Y54287048D01*
X23279388Y54348045D01*
X23284190Y54362826D01*
X23287063Y54369764D01*
X23287067Y54369769D01*
X23298700Y54428252D01*
X23298700Y54721748D01*
X23295602Y54737324D01*
X23293700Y54756638D01*
X23293700Y54805750D01*
X23312607Y54863941D01*
X23334579Y54885893D01*
X23341513Y54890922D01*
X23341513Y54890923D01*
X23341521Y54890928D01*
X23396059Y54945466D01*
X23426639Y54981159D01*
X23475129Y55082419D01*
X23495091Y55156919D01*
X23505500Y55235987D01*
X23505500Y55851000D01*
X23500847Y55886346D01*
X23500000Y55899267D01*
X23500000Y55901000D01*
X23518907Y55959191D01*
X23568407Y55995155D01*
X23599000Y56000000D01*
X24201000Y56000000D01*
X24259191Y55981093D01*
G37*
%TD.AperFunction*%
%TD*%
%TA.AperFunction,Conductor*%
%TO.N,/Sensors/3V3_LDO*%
G36*
X26959191Y55181093D02*
G01*
X26995155Y55131593D01*
X27000000Y55101000D01*
X27000000Y53099000D01*
X26981093Y53040809D01*
X26931593Y53004845D01*
X26901000Y53000000D01*
X26489689Y53000000D01*
X26479988Y53000476D01*
X26479751Y53000500D01*
X26479748Y53000500D01*
X26120252Y53000500D01*
X26120248Y53000500D01*
X26120012Y53000476D01*
X26110311Y53000000D01*
X25599000Y53000000D01*
X25540809Y53018907D01*
X25504845Y53068407D01*
X25500000Y53099000D01*
X25500000Y53899999D01*
X25500000Y53900000D01*
X25499999Y53900000D01*
X25145602Y53900000D01*
X25126287Y53901902D01*
X25124548Y53902248D01*
X24945016Y53902248D01*
X24919393Y53905621D01*
X24913263Y53907264D01*
X24846144Y53925248D01*
X24846142Y53925248D01*
X24604200Y53925248D01*
X24546009Y53944155D01*
X24510045Y53993655D01*
X24505200Y54024248D01*
X24505200Y54869321D01*
X24505198Y54869333D01*
X24502411Y54883343D01*
X24493567Y54927805D01*
X24449252Y54994126D01*
X24449248Y54994129D01*
X24449247Y54994130D01*
X24443997Y54997638D01*
X24433122Y55011433D01*
X24418907Y55021761D01*
X24414648Y55034868D01*
X24406118Y55045689D01*
X24400000Y55079952D01*
X24400000Y55101000D01*
X24418907Y55159191D01*
X24468407Y55195155D01*
X24499000Y55200000D01*
X26901000Y55200000D01*
X26959191Y55181093D01*
G37*
%TD.AperFunction*%
%TD*%
%TA.AperFunction,Conductor*%
%TO.N,3V3_MIC*%
G36*
X30959191Y55281093D02*
G01*
X30995155Y55231593D01*
X31000000Y55201000D01*
X31000000Y53549500D01*
X30981093Y53491309D01*
X30931593Y53455345D01*
X30901000Y53450500D01*
X30490690Y53450500D01*
X30445507Y53438394D01*
X30400324Y53426287D01*
X30400323Y53426288D01*
X30376114Y53419800D01*
X30273382Y53360488D01*
X30192391Y53279497D01*
X30137874Y53251720D01*
X30122388Y53250501D01*
X29570725Y53250501D01*
X29540305Y53247648D01*
X29540296Y53247646D01*
X29447256Y53215090D01*
X29420010Y53205556D01*
X29387314Y53200000D01*
X29100000Y53200000D01*
X29100000Y53199999D01*
X29100000Y52999000D01*
X29081093Y52940809D01*
X29031593Y52904845D01*
X29001000Y52900000D01*
X28670111Y52900000D01*
X28611920Y52918907D01*
X28608036Y52922224D01*
X28538233Y52968866D01*
X28538231Y52968867D01*
X28538228Y52968868D01*
X28538227Y52968868D01*
X28479758Y52980499D01*
X28479748Y52980500D01*
X28120252Y52980500D01*
X28120251Y52980500D01*
X28120241Y52980499D01*
X28061772Y52968868D01*
X28061766Y52968866D01*
X27989099Y52920310D01*
X27988080Y52918907D01*
X27966031Y52911744D01*
X27945376Y52901219D01*
X27929889Y52900000D01*
X27799000Y52900000D01*
X27740809Y52918907D01*
X27704845Y52968407D01*
X27700000Y52999000D01*
X27700000Y55201000D01*
X27718907Y55259191D01*
X27768407Y55295155D01*
X27799000Y55300000D01*
X30901000Y55300000D01*
X30959191Y55281093D01*
G37*
%TD.AperFunction*%
%TD*%
%TA.AperFunction,Conductor*%
%TO.N,/PSU/VBUS*%
G36*
X-32352809Y20483592D02*
G01*
X-32337750Y20468921D01*
X-32337597Y20469073D01*
X-32333011Y20464487D01*
X-32333009Y20464484D01*
X-32230515Y20361990D01*
X-32230513Y20361989D01*
X-32230511Y20361987D01*
X-32104989Y20289517D01*
X-32104988Y20289517D01*
X-32104985Y20289515D01*
X-31964975Y20251999D01*
X-31964974Y20251999D01*
X-31820026Y20251999D01*
X-31820025Y20251999D01*
X-31680015Y20289515D01*
X-31680013Y20289517D01*
X-31680011Y20289517D01*
X-31554490Y20361987D01*
X-31554490Y20361988D01*
X-31554485Y20361990D01*
X-31451991Y20464484D01*
X-31451990Y20464487D01*
X-31447403Y20469073D01*
X-31446351Y20468021D01*
X-31402121Y20498421D01*
X-31374000Y20502499D01*
X-31060999Y20502499D01*
X-31002808Y20483592D01*
X-30987750Y20468922D01*
X-30987597Y20469074D01*
X-30983011Y20464488D01*
X-30983009Y20464485D01*
X-30880515Y20361991D01*
X-30880513Y20361990D01*
X-30880511Y20361988D01*
X-30754989Y20289518D01*
X-30754988Y20289518D01*
X-30754985Y20289516D01*
X-30614975Y20252000D01*
X-30614974Y20252000D01*
X-30463536Y20252000D01*
X-30463536Y20250313D01*
X-30411397Y20240655D01*
X-30388622Y20223651D01*
X-29879496Y19714525D01*
X-29875870Y19707408D01*
X-29869407Y19702712D01*
X-29862244Y19680664D01*
X-29851719Y19660008D01*
X-29850500Y19644521D01*
X-29850500Y19601499D01*
X-29869407Y19543308D01*
X-29918907Y19507344D01*
X-29949500Y19502499D01*
X-30122969Y19502499D01*
X-30181160Y19521406D01*
X-30192967Y19531490D01*
X-30204485Y19543008D01*
X-30204488Y19543010D01*
X-30204490Y19543012D01*
X-30330012Y19615482D01*
X-30330011Y19615482D01*
X-30397098Y19633458D01*
X-30470025Y19652999D01*
X-30614975Y19652999D01*
X-30676710Y19636458D01*
X-30754990Y19615482D01*
X-30880511Y19543012D01*
X-30880512Y19543011D01*
X-30880515Y19543009D01*
X-30880515Y19543008D01*
X-30892030Y19531494D01*
X-30946544Y19503718D01*
X-30962031Y19502499D01*
X-31472969Y19502499D01*
X-31531160Y19521406D01*
X-31542967Y19531490D01*
X-31554485Y19543008D01*
X-31554488Y19543010D01*
X-31554490Y19543012D01*
X-31680012Y19615482D01*
X-31680011Y19615482D01*
X-31747098Y19633458D01*
X-31820025Y19652999D01*
X-31964975Y19652999D01*
X-32026710Y19636458D01*
X-32104990Y19615482D01*
X-32230511Y19543012D01*
X-32230512Y19543011D01*
X-32230515Y19543009D01*
X-32230515Y19543008D01*
X-32242030Y19531494D01*
X-32296544Y19503718D01*
X-32312031Y19502499D01*
X-32553500Y19502499D01*
X-32611691Y19521406D01*
X-32647655Y19570906D01*
X-32652500Y19601499D01*
X-32652500Y20403499D01*
X-32647655Y20418411D01*
X-32647655Y20434092D01*
X-32638439Y20446778D01*
X-32633593Y20461690D01*
X-32620908Y20470907D01*
X-32611691Y20483592D01*
X-32596779Y20488438D01*
X-32584093Y20497654D01*
X-32553500Y20502499D01*
X-32411000Y20502499D01*
X-32352809Y20483592D01*
G37*
%TD.AperFunction*%
%TA.AperFunction,Conductor*%
G36*
X-30614975Y24501999D02*
G01*
X-30470025Y24501999D01*
X-30468159Y24502499D01*
X-29328478Y24502499D01*
X-29270287Y24483592D01*
X-29258475Y24473503D01*
X-29214511Y24429540D01*
X-29145993Y24389981D01*
X-29145989Y24389979D01*
X-29069565Y24369501D01*
X-29069563Y24369500D01*
X-29069562Y24369500D01*
X-28990438Y24369500D01*
X-28457000Y24369500D01*
X-28398809Y24350593D01*
X-28362845Y24301093D01*
X-28358000Y24270500D01*
X-28358000Y22851499D01*
X-28355470Y22819356D01*
X-28350617Y22788706D01*
X-28349854Y22784218D01*
X-28349853Y22784213D01*
X-28313909Y22700117D01*
X-28313908Y22700116D01*
X-28277944Y22650616D01*
X-28253703Y22622871D01*
X-28175193Y22575963D01*
X-28117002Y22557056D01*
X-28104948Y22555147D01*
X-28053504Y22546999D01*
X-27229870Y22546999D01*
X-27171679Y22528092D01*
X-27135715Y22478592D01*
X-27135715Y22417406D01*
X-27171679Y22367906D01*
X-27178340Y22363582D01*
X-27179110Y22362991D01*
X-27262993Y22279108D01*
X-27322298Y22176390D01*
X-27322299Y22176385D01*
X-27348795Y22077499D01*
X-27349230Y22075876D01*
X-27382554Y22024561D01*
X-27439676Y22002635D01*
X-27444857Y22002499D01*
X-29402500Y22002499D01*
X-29402500Y22002498D01*
X-29402500Y20326479D01*
X-29421407Y20268288D01*
X-29470907Y20232324D01*
X-29532093Y20232324D01*
X-29571504Y20256475D01*
X-29963651Y20648622D01*
X-29991428Y20703139D01*
X-29991694Y20723536D01*
X-29992000Y20723536D01*
X-29992000Y20874975D01*
X-30029516Y21014985D01*
X-30029518Y21014988D01*
X-30029518Y21014990D01*
X-30101988Y21140511D01*
X-30101990Y21140513D01*
X-30101991Y21140515D01*
X-30118975Y21157499D01*
X-30146750Y21212013D01*
X-30137179Y21272445D01*
X-30118974Y21297503D01*
X-30101991Y21314484D01*
X-30101990Y21314487D01*
X-30101988Y21314488D01*
X-30029518Y21440010D01*
X-30029518Y21440012D01*
X-30029516Y21440014D01*
X-29992000Y21580024D01*
X-29992000Y21724974D01*
X-30029516Y21864984D01*
X-30029518Y21864987D01*
X-30029518Y21864989D01*
X-30101988Y21990510D01*
X-30101990Y21990512D01*
X-30101991Y21990514D01*
X-30118975Y22007498D01*
X-30146750Y22062012D01*
X-30137179Y22122444D01*
X-30118976Y22147500D01*
X-30101991Y22164484D01*
X-30040646Y22270736D01*
X-30029518Y22290010D01*
X-30029518Y22290012D01*
X-30029516Y22290014D01*
X-29992000Y22430024D01*
X-29992000Y22574974D01*
X-30029516Y22714984D01*
X-30029518Y22714987D01*
X-30029518Y22714989D01*
X-30101988Y22840510D01*
X-30101990Y22840512D01*
X-30101991Y22840514D01*
X-30118975Y22857498D01*
X-30146750Y22912012D01*
X-30137179Y22972444D01*
X-30118976Y22997500D01*
X-30101991Y23014484D01*
X-30029516Y23140014D01*
X-29992000Y23280024D01*
X-29992000Y23424974D01*
X-30029516Y23564984D01*
X-30029518Y23564987D01*
X-30029518Y23564989D01*
X-30101988Y23690510D01*
X-30101990Y23690512D01*
X-30101991Y23690514D01*
X-30204485Y23793008D01*
X-30204488Y23793010D01*
X-30204490Y23793012D01*
X-30330012Y23865482D01*
X-30330011Y23865482D01*
X-30377389Y23878177D01*
X-30470025Y23902999D01*
X-30614975Y23902999D01*
X-30661645Y23890494D01*
X-30754987Y23865483D01*
X-30881500Y23792440D01*
X-30941349Y23779719D01*
X-30997244Y23804606D01*
X-31027837Y23857594D01*
X-31030000Y23878177D01*
X-31030000Y24403499D01*
X-31011093Y24461690D01*
X-30961593Y24497654D01*
X-30931000Y24502499D01*
X-30616841Y24502499D01*
X-30614975Y24501999D01*
G37*
%TD.AperFunction*%
%TA.AperFunction,Conductor*%
G36*
X-31967634Y24501999D02*
G01*
X-31964975Y24501999D01*
X-31817366Y24501999D01*
X-31809738Y24502499D01*
X-31730000Y24502499D01*
X-31671809Y24483592D01*
X-31635845Y24434092D01*
X-31631000Y24403499D01*
X-31631000Y24079978D01*
X-31649907Y24021787D01*
X-31659997Y24009974D01*
X-31738623Y23931349D01*
X-31793140Y23903572D01*
X-31813536Y23903305D01*
X-31813536Y23902999D01*
X-31820025Y23902999D01*
X-31964975Y23902999D01*
X-32026710Y23886458D01*
X-32104990Y23865482D01*
X-32230511Y23793012D01*
X-32230512Y23793011D01*
X-32230515Y23793009D01*
X-32230515Y23793008D01*
X-32233499Y23790025D01*
X-32288013Y23762249D01*
X-32348445Y23771820D01*
X-32391710Y23815085D01*
X-32402500Y23860030D01*
X-32402500Y24403499D01*
X-32383593Y24461690D01*
X-32334093Y24497654D01*
X-32303500Y24502499D01*
X-31975262Y24502499D01*
X-31967634Y24501999D01*
G37*
%TD.AperFunction*%
%TD*%
%TA.AperFunction,Conductor*%
%TO.N,/PSU/VBUS_TVS*%
G36*
X-20443309Y26983592D02*
G01*
X-20407345Y26934092D01*
X-20402500Y26903499D01*
X-20402500Y23549299D01*
X-20421407Y23491108D01*
X-20470907Y23455144D01*
X-20501500Y23450299D01*
X-24352079Y23450299D01*
X-24225159Y22688571D01*
X-24205114Y22568270D01*
X-24214201Y22507763D01*
X-24257117Y22464153D01*
X-24302768Y22452999D01*
X-25053500Y22452999D01*
X-25068412Y22457844D01*
X-25084093Y22457844D01*
X-25096779Y22467061D01*
X-25111691Y22471906D01*
X-25120908Y22484592D01*
X-25133593Y22493808D01*
X-25138439Y22508721D01*
X-25147655Y22521406D01*
X-25152500Y22551999D01*
X-25152500Y22606256D01*
X-25133593Y22664447D01*
X-25108502Y22688571D01*
X-25104371Y22691332D01*
X-25104369Y22691332D01*
X-25038048Y22735647D01*
X-24993733Y22801968D01*
X-24982100Y22860451D01*
X-24982100Y24144547D01*
X-24993733Y24203030D01*
X-25038048Y24269351D01*
X-25065395Y24287624D01*
X-25104367Y24313665D01*
X-25104369Y24313666D01*
X-25104372Y24313667D01*
X-25104373Y24313667D01*
X-25162842Y24325298D01*
X-25162852Y24325299D01*
X-26142148Y24325299D01*
X-26142149Y24325299D01*
X-26142159Y24325298D01*
X-26200628Y24313667D01*
X-26200634Y24313665D01*
X-26267202Y24269184D01*
X-26322204Y24252499D01*
X-26652499Y24252499D01*
X-26652500Y24252499D01*
X-26652500Y24252498D01*
X-26652500Y22851499D01*
X-26671407Y22793308D01*
X-26720907Y22757344D01*
X-26751500Y22752499D01*
X-28053500Y22752499D01*
X-28111691Y22771406D01*
X-28147655Y22820906D01*
X-28152500Y22851499D01*
X-28152500Y24287624D01*
X-28133593Y24345815D01*
X-28084093Y24381779D01*
X-28079145Y24383245D01*
X-28054012Y24389979D01*
X-28054010Y24389981D01*
X-28054008Y24389981D01*
X-28030102Y24403784D01*
X-27985490Y24429540D01*
X-27957516Y24457515D01*
X-27929540Y24485489D01*
X-27784592Y24630438D01*
X-27709540Y24705490D01*
X-27709536Y24705498D01*
X-27706829Y24709024D01*
X-27678432Y24731338D01*
X-27679303Y24732610D01*
X-27671740Y24737793D01*
X-27671735Y24737794D01*
X-27592294Y24817235D01*
X-27546915Y24920009D01*
X-27544000Y24945135D01*
X-27544001Y25234864D01*
X-27546915Y25259991D01*
X-27592294Y25362765D01*
X-27671735Y25442206D01*
X-27774509Y25487585D01*
X-27774510Y25487586D01*
X-27774512Y25487586D01*
X-27799631Y25490500D01*
X-28053500Y25490500D01*
X-28111691Y25509407D01*
X-28147655Y25558907D01*
X-28152500Y25589500D01*
X-28152500Y26903499D01*
X-28133593Y26961690D01*
X-28084093Y26997654D01*
X-28053500Y27002499D01*
X-20501500Y27002499D01*
X-20443309Y26983592D01*
G37*
%TD.AperFunction*%
%TD*%
%TA.AperFunction,Conductor*%
%TO.N,/PSU/PoE_VIN-*%
G36*
X-7157461Y-3219685D02*
G01*
X-7111706Y-3272489D01*
X-7100500Y-3324000D01*
X-7100500Y-3614251D01*
X-7084953Y-3712417D01*
X-7084951Y-3712420D01*
X-7024658Y-3830751D01*
X-6949318Y-3906091D01*
X-6934612Y-3933022D01*
X-6918023Y-3958836D01*
X-6917132Y-3965035D01*
X-6915834Y-3967412D01*
X-6913000Y-3993771D01*
X-6913000Y-4156228D01*
X-6932685Y-4223267D01*
X-6949319Y-4243909D01*
X-7024654Y-4319243D01*
X-7024657Y-4319248D01*
X-7084953Y-4437582D01*
X-7100500Y-4535748D01*
X-7100500Y-5364251D01*
X-7084953Y-5462417D01*
X-7084951Y-5462420D01*
X-7024658Y-5580751D01*
X-7024656Y-5580753D01*
X-7024654Y-5580756D01*
X-6930757Y-5674653D01*
X-6930755Y-5674654D01*
X-6930751Y-5674658D01*
X-6812420Y-5734951D01*
X-6812419Y-5734951D01*
X-6812417Y-5734952D01*
X-6812418Y-5734952D01*
X-6714251Y-5750500D01*
X-6714246Y-5750500D01*
X-6210749Y-5750500D01*
X-6112583Y-5734952D01*
X-6112582Y-5734951D01*
X-6112580Y-5734951D01*
X-5994249Y-5674658D01*
X-5900342Y-5580751D01*
X-5840049Y-5462420D01*
X-5840049Y-5462418D01*
X-5840048Y-5462417D01*
X-5824500Y-5364251D01*
X-5824500Y-4535748D01*
X-5840048Y-4437582D01*
X-5840049Y-4437580D01*
X-5900342Y-4319249D01*
X-5900346Y-4319245D01*
X-5900347Y-4319243D01*
X-5975681Y-4243909D01*
X-5990385Y-4216981D01*
X-6006977Y-4191163D01*
X-6007869Y-4184962D01*
X-6009166Y-4182586D01*
X-6012000Y-4156228D01*
X-6012000Y-3993771D01*
X-5992315Y-3926732D01*
X-5975686Y-3906094D01*
X-5900342Y-3830751D01*
X-5840049Y-3712420D01*
X-5840049Y-3712418D01*
X-5840048Y-3712417D01*
X-5824500Y-3614251D01*
X-5824500Y-3324000D01*
X-5821950Y-3315314D01*
X-5823238Y-3306353D01*
X-5812260Y-3282312D01*
X-5804815Y-3256961D01*
X-5797975Y-3251033D01*
X-5794213Y-3242797D01*
X-5771979Y-3228507D01*
X-5752011Y-3211206D01*
X-5741497Y-3208918D01*
X-5735435Y-3205023D01*
X-5700500Y-3200000D01*
X-5524499Y-3200000D01*
X-5457460Y-3219685D01*
X-5411705Y-3272489D01*
X-5400500Y-3323999D01*
X-5400499Y-3406518D01*
X-5385646Y-3500304D01*
X-5328050Y-3613342D01*
X-5328048Y-3613344D01*
X-5328046Y-3613347D01*
X-5238348Y-3703045D01*
X-5238346Y-3703046D01*
X-5238342Y-3703050D01*
X-5125306Y-3760645D01*
X-5125302Y-3760647D01*
X-5031525Y-3775499D01*
X-5031519Y-3775500D01*
X-4418482Y-3775499D01*
X-4324696Y-3760646D01*
X-4211658Y-3703050D01*
X-4121950Y-3613342D01*
X-4064354Y-3500304D01*
X-4064354Y-3500302D01*
X-4064353Y-3500301D01*
X-4049500Y-3406524D01*
X-4049500Y-3324000D01*
X-4029815Y-3256961D01*
X-3977011Y-3211206D01*
X-3925500Y-3200000D01*
X-2851362Y-3200000D01*
X-2784323Y-3219685D01*
X-2763681Y-3236319D01*
X-677688Y-5322312D01*
X-644203Y-5383635D01*
X-641370Y-5409509D01*
X-600486Y-15875516D01*
X-619908Y-15942631D01*
X-672533Y-15988592D01*
X-724485Y-16000000D01*
X-9376000Y-16000000D01*
X-9443039Y-15980315D01*
X-9488794Y-15927511D01*
X-9500000Y-15876000D01*
X-9500000Y-9695731D01*
X-5300500Y-9695731D01*
X-5300500Y-10454270D01*
X-5297647Y-10484700D01*
X-5297647Y-10484702D01*
X-5252794Y-10612881D01*
X-5252793Y-10612883D01*
X-5172150Y-10722151D01*
X-5062882Y-10802794D01*
X-5020155Y-10817745D01*
X-4934701Y-10847647D01*
X-4902924Y-10850627D01*
X-4838015Y-10876484D01*
X-4797389Y-10933329D01*
X-4790500Y-10974085D01*
X-4790500Y-11109056D01*
X-4749577Y-11261783D01*
X-4749574Y-11261790D01*
X-4670525Y-11398709D01*
X-4670521Y-11398714D01*
X-4670520Y-11398716D01*
X-4558716Y-11510520D01*
X-4558714Y-11510521D01*
X-4558710Y-11510524D01*
X-4421791Y-11589573D01*
X-4421784Y-11589577D01*
X-4269057Y-11630500D01*
X-4269055Y-11630500D01*
X-4110945Y-11630500D01*
X-4110943Y-11630500D01*
X-3958216Y-11589577D01*
X-3821284Y-11510520D01*
X-3709480Y-11398716D01*
X-3630423Y-11261784D01*
X-3589500Y-11109057D01*
X-3589500Y-10972209D01*
X-3569815Y-10905170D01*
X-3517011Y-10859415D01*
X-3477078Y-10848751D01*
X-3465301Y-10847647D01*
X-3465299Y-10847646D01*
X-3465297Y-10847646D01*
X-3403763Y-10826114D01*
X-3337118Y-10802794D01*
X-3227850Y-10722151D01*
X-3147207Y-10612883D01*
X-3124781Y-10548791D01*
X-3102354Y-10484702D01*
X-3102354Y-10484700D01*
X-3099500Y-10454270D01*
X-3099500Y-9695731D01*
X-3102354Y-9665301D01*
X-3102354Y-9665299D01*
X-3147207Y-9537120D01*
X-3147208Y-9537118D01*
X-3227850Y-9427851D01*
X-3337118Y-9347208D01*
X-3337120Y-9347207D01*
X-3465300Y-9302354D01*
X-3495730Y-9299501D01*
X-3495734Y-9299501D01*
X-4904266Y-9299501D01*
X-4904270Y-9299501D01*
X-4934700Y-9302354D01*
X-4934702Y-9302354D01*
X-5062881Y-9347207D01*
X-5062883Y-9347208D01*
X-5172150Y-9427851D01*
X-5252793Y-9537118D01*
X-5252794Y-9537120D01*
X-5297647Y-9665299D01*
X-5297647Y-9665301D01*
X-5300500Y-9695731D01*
X-9500000Y-9695731D01*
X-9500000Y-7388466D01*
X-9491357Y-7359029D01*
X-9484833Y-7329040D01*
X-9481078Y-7324022D01*
X-9480315Y-7321427D01*
X-9463687Y-7300790D01*
X-9386449Y-7223552D01*
X-9325130Y-7190070D01*
X-9255438Y-7195054D01*
X-9199504Y-7236925D01*
X-9188287Y-7254940D01*
X-9149659Y-7330750D01*
X-9149654Y-7330757D01*
X-9055757Y-7424654D01*
X-9055755Y-7424655D01*
X-9055751Y-7424659D01*
X-8937420Y-7484952D01*
X-8937419Y-7484952D01*
X-8937417Y-7484953D01*
X-8937418Y-7484953D01*
X-8839251Y-7500501D01*
X-8839246Y-7500501D01*
X-8335749Y-7500501D01*
X-8237583Y-7484953D01*
X-8237582Y-7484952D01*
X-8237580Y-7484952D01*
X-8119249Y-7424659D01*
X-8025342Y-7330752D01*
X-7965049Y-7212421D01*
X-7965049Y-7212419D01*
X-7965048Y-7212418D01*
X-7949500Y-7114252D01*
X-7949500Y-6285749D01*
X-7965048Y-6187583D01*
X-7965049Y-6187581D01*
X-8025342Y-6069250D01*
X-8025346Y-6069246D01*
X-8025347Y-6069244D01*
X-8100681Y-5993910D01*
X-8115385Y-5966982D01*
X-8131977Y-5941164D01*
X-8132869Y-5934963D01*
X-8134166Y-5932587D01*
X-8137000Y-5906229D01*
X-8137000Y-5743771D01*
X-8117315Y-5676732D01*
X-8100686Y-5656094D01*
X-8025342Y-5580751D01*
X-7965049Y-5462420D01*
X-7965049Y-5462418D01*
X-7965048Y-5462417D01*
X-7949500Y-5364251D01*
X-7949500Y-4535748D01*
X-7965048Y-4437582D01*
X-7965049Y-4437580D01*
X-8025342Y-4319249D01*
X-8025346Y-4319245D01*
X-8025347Y-4319243D01*
X-8119244Y-4225346D01*
X-8119247Y-4225344D01*
X-8119249Y-4225342D01*
X-8197476Y-4185483D01*
X-8248270Y-4137510D01*
X-8265065Y-4069689D01*
X-8242528Y-4003555D01*
X-8197477Y-3964517D01*
X-8119249Y-3924658D01*
X-8025342Y-3830751D01*
X-7965049Y-3712420D01*
X-7965049Y-3712418D01*
X-7965048Y-3712417D01*
X-7949500Y-3614251D01*
X-7949500Y-3324000D01*
X-7929815Y-3256961D01*
X-7877011Y-3211206D01*
X-7825500Y-3200000D01*
X-7224500Y-3200000D01*
X-7157461Y-3219685D01*
G37*
%TD.AperFunction*%
%TD*%
%TA.AperFunction,Conductor*%
%TO.N,/PSU/PoE_VIN+*%
G36*
X-21932460Y-3219685D02*
G01*
X-21886705Y-3272489D01*
X-21875500Y-3323999D01*
X-21875499Y-3406518D01*
X-21860646Y-3500304D01*
X-21803050Y-3613342D01*
X-21803048Y-3613344D01*
X-21803046Y-3613347D01*
X-21713348Y-3703045D01*
X-21713346Y-3703046D01*
X-21713342Y-3703050D01*
X-21664388Y-3727993D01*
X-21613592Y-3775968D01*
X-21596797Y-3843789D01*
X-21619335Y-3909924D01*
X-21674050Y-3953375D01*
X-21683792Y-3956863D01*
X-21764397Y-3981981D01*
X-21909878Y-4069927D01*
X-22030073Y-4190122D01*
X-22118020Y-4335604D01*
X-22168591Y-4497893D01*
X-22175000Y-4568427D01*
X-22175000Y-4575000D01*
X-21324000Y-4575000D01*
X-21256961Y-4594685D01*
X-21211206Y-4647489D01*
X-21200000Y-4699000D01*
X-21200000Y-4825000D01*
X-21074000Y-4825000D01*
X-21006961Y-4844685D01*
X-20961206Y-4897489D01*
X-20950000Y-4949000D01*
X-20950000Y-5724999D01*
X-20868419Y-5724999D01*
X-20797898Y-5718591D01*
X-20797893Y-5718590D01*
X-20635604Y-5668018D01*
X-20490123Y-5580072D01*
X-20369930Y-5459879D01*
X-20365272Y-5452175D01*
X-20359303Y-5446708D01*
X-20356259Y-5439209D01*
X-20333910Y-5423453D01*
X-20313744Y-5404987D01*
X-20305768Y-5403615D01*
X-20299152Y-5398952D01*
X-20271832Y-5397780D01*
X-20244885Y-5393148D01*
X-20237434Y-5396306D01*
X-20229347Y-5395960D01*
X-20205732Y-5409744D01*
X-20180556Y-5420416D01*
X-20174447Y-5428005D01*
X-20169005Y-5431182D01*
X-20148669Y-5460029D01*
X-20147452Y-5462419D01*
X-20147451Y-5462420D01*
X-20098208Y-5559065D01*
X-20098207Y-5559066D01*
X-20085311Y-5627735D01*
X-20111587Y-5692476D01*
X-20143594Y-5720899D01*
X-20192579Y-5751113D01*
X-20311386Y-5869920D01*
X-20399592Y-6012923D01*
X-20399594Y-6012928D01*
X-20454573Y-6178845D01*
X-20457123Y-6178000D01*
X-20484685Y-6228809D01*
X-20545916Y-6262462D01*
X-20615621Y-6257669D01*
X-20660288Y-6229050D01*
X-20681655Y-6207683D01*
X-20830876Y-6115642D01*
X-20830881Y-6115640D01*
X-20997303Y-6060493D01*
X-20997310Y-6060492D01*
X-21100014Y-6049999D01*
X-21550000Y-6049999D01*
X-21550000Y-8199998D01*
X-21100028Y-8199998D01*
X-21100014Y-8199997D01*
X-20997303Y-8189504D01*
X-20830881Y-8134357D01*
X-20830876Y-8134355D01*
X-20681655Y-8042314D01*
X-20557685Y-7918344D01*
X-20465644Y-7769123D01*
X-20465641Y-7769116D01*
X-20430989Y-7664543D01*
X-20391217Y-7607098D01*
X-20326701Y-7580274D01*
X-20257925Y-7592589D01*
X-20225602Y-7615865D01*
X-20192581Y-7648886D01*
X-20049578Y-7737092D01*
X-20049573Y-7737094D01*
X-19890084Y-7789943D01*
X-19791644Y-7800000D01*
X-19275000Y-7800000D01*
X-19258364Y-7800000D01*
X-19258348Y-7799999D01*
X-19159917Y-7789944D01*
X-19000428Y-7737094D01*
X-19000423Y-7737092D01*
X-18857420Y-7648886D01*
X-18738615Y-7530081D01*
X-18650409Y-7387078D01*
X-18650407Y-7387073D01*
X-18597558Y-7227584D01*
X-18587501Y-7129151D01*
X-18587500Y-7129138D01*
X-18587500Y-6950001D01*
X-19275000Y-6950001D01*
X-19275000Y-7800000D01*
X-19791644Y-7800000D01*
X-19775000Y-7799999D01*
X-19775000Y-6824001D01*
X-19755315Y-6756962D01*
X-19702511Y-6711207D01*
X-19651000Y-6700001D01*
X-19525000Y-6700001D01*
X-19525000Y-6574001D01*
X-19505315Y-6506962D01*
X-19452511Y-6461207D01*
X-19401000Y-6450001D01*
X-18587501Y-6450001D01*
X-18587501Y-6270865D01*
X-18587502Y-6270848D01*
X-18597557Y-6172417D01*
X-18650407Y-6012928D01*
X-18650409Y-6012923D01*
X-18738615Y-5869920D01*
X-18857421Y-5751114D01*
X-18857425Y-5751111D01*
X-18906406Y-5720899D01*
X-18953131Y-5668951D01*
X-18964352Y-5599989D01*
X-18951793Y-5559066D01*
X-18902549Y-5462420D01*
X-18902549Y-5462418D01*
X-18902548Y-5462417D01*
X-18887000Y-5364251D01*
X-18887000Y-4535748D01*
X-18902548Y-4437582D01*
X-18939742Y-4364586D01*
X-18962842Y-4319249D01*
X-18962846Y-4319245D01*
X-18962847Y-4319243D01*
X-19038181Y-4243909D01*
X-19052885Y-4216981D01*
X-19069477Y-4191163D01*
X-19070369Y-4184962D01*
X-19071666Y-4182586D01*
X-19074500Y-4156228D01*
X-19074500Y-3993771D01*
X-19054815Y-3926732D01*
X-19038186Y-3906094D01*
X-18962842Y-3830751D01*
X-18902549Y-3712420D01*
X-18902549Y-3712418D01*
X-18902548Y-3712417D01*
X-18887000Y-3614251D01*
X-18887000Y-3324000D01*
X-18867315Y-3256961D01*
X-18814511Y-3211206D01*
X-18763000Y-3200000D01*
X-18162000Y-3200000D01*
X-18094961Y-3219685D01*
X-18049206Y-3272489D01*
X-18038000Y-3324000D01*
X-18038000Y-3614251D01*
X-18022453Y-3712417D01*
X-18022451Y-3712420D01*
X-17962158Y-3830751D01*
X-17962156Y-3830753D01*
X-17962154Y-3830756D01*
X-17868257Y-3924653D01*
X-17868255Y-3924654D01*
X-17868251Y-3924658D01*
X-17790027Y-3964515D01*
X-17739231Y-4012490D01*
X-17722436Y-4080311D01*
X-17744974Y-4146446D01*
X-17790027Y-4185484D01*
X-17868251Y-4225342D01*
X-17868252Y-4225343D01*
X-17868257Y-4225346D01*
X-17962154Y-4319243D01*
X-17962157Y-4319248D01*
X-17962158Y-4319249D01*
X-17982256Y-4358692D01*
X-18022453Y-4437582D01*
X-18038000Y-4535748D01*
X-18038000Y-5364251D01*
X-18022453Y-5462417D01*
X-18012108Y-5482720D01*
X-17962158Y-5580751D01*
X-17886818Y-5656091D01*
X-17872112Y-5683022D01*
X-17855523Y-5708836D01*
X-17854632Y-5715035D01*
X-17853334Y-5717412D01*
X-17850500Y-5743771D01*
X-17850500Y-5906229D01*
X-17870185Y-5973268D01*
X-17886819Y-5993910D01*
X-17962154Y-6069244D01*
X-17962157Y-6069249D01*
X-17962158Y-6069250D01*
X-17982256Y-6108693D01*
X-18022453Y-6187583D01*
X-18038000Y-6285749D01*
X-18038000Y-7114252D01*
X-18022453Y-7212418D01*
X-18003136Y-7250330D01*
X-17962158Y-7330752D01*
X-17962156Y-7330754D01*
X-17962154Y-7330757D01*
X-17868257Y-7424654D01*
X-17868255Y-7424655D01*
X-17868251Y-7424659D01*
X-17749920Y-7484952D01*
X-17749919Y-7484952D01*
X-17749917Y-7484953D01*
X-17749918Y-7484953D01*
X-17651751Y-7500501D01*
X-17651746Y-7500501D01*
X-17148249Y-7500501D01*
X-17050083Y-7484953D01*
X-17050082Y-7484952D01*
X-17050080Y-7484952D01*
X-16931749Y-7424659D01*
X-16837842Y-7330752D01*
X-16777549Y-7212421D01*
X-16777549Y-7212419D01*
X-16777548Y-7212418D01*
X-16762000Y-7114252D01*
X-16762000Y-6285749D01*
X-16777548Y-6187583D01*
X-16782431Y-6178000D01*
X-16837842Y-6069250D01*
X-16837846Y-6069246D01*
X-16837847Y-6069244D01*
X-16913181Y-5993910D01*
X-16927885Y-5966982D01*
X-16944477Y-5941164D01*
X-16945369Y-5934963D01*
X-16946666Y-5932587D01*
X-16949500Y-5906229D01*
X-16949500Y-5806966D01*
X-16929815Y-5739927D01*
X-16877011Y-5694172D01*
X-16807853Y-5684228D01*
X-16744297Y-5713253D01*
X-16737819Y-5719285D01*
X-16471613Y-5985491D01*
X-16374975Y-6041284D01*
X-16368885Y-6044800D01*
X-16254308Y-6075501D01*
X-15999500Y-6075501D01*
X-15932461Y-6095186D01*
X-15886706Y-6147990D01*
X-15875500Y-6199501D01*
X-15875500Y-6975500D01*
X-15895185Y-7042539D01*
X-15947989Y-7088294D01*
X-15999500Y-7099500D01*
X-16054271Y-7099500D01*
X-16084701Y-7102353D01*
X-16084703Y-7102353D01*
X-16212882Y-7147206D01*
X-16212884Y-7147207D01*
X-16322151Y-7227850D01*
X-16402794Y-7337117D01*
X-16402795Y-7337119D01*
X-16447648Y-7465298D01*
X-16447648Y-7465300D01*
X-16450501Y-7495730D01*
X-16450501Y-8904269D01*
X-16447648Y-8934699D01*
X-16447648Y-8934701D01*
X-16402795Y-9062880D01*
X-16402794Y-9062882D01*
X-16322151Y-9172150D01*
X-16212883Y-9252793D01*
X-16170156Y-9267744D01*
X-16084702Y-9297646D01*
X-16054271Y-9300500D01*
X-16054267Y-9300500D01*
X-13945731Y-9300500D01*
X-13915302Y-9297646D01*
X-13915300Y-9297646D01*
X-13851211Y-9275219D01*
X-13787119Y-9252793D01*
X-13677851Y-9172150D01*
X-13597208Y-9062882D01*
X-13574782Y-8998790D01*
X-13552355Y-8934701D01*
X-13552355Y-8934699D01*
X-13549501Y-8904269D01*
X-13549501Y-7754500D01*
X-13529816Y-7687461D01*
X-13477012Y-7641706D01*
X-13425501Y-7630500D01*
X-13170692Y-7630500D01*
X-13170691Y-7630500D01*
X-13080327Y-7606286D01*
X-13056113Y-7599799D01*
X-12953386Y-7540489D01*
X-12594588Y-7181690D01*
X-12533267Y-7148207D01*
X-12463576Y-7153191D01*
X-12407642Y-7195062D01*
X-12383225Y-7260527D01*
X-12398077Y-7328800D01*
X-12399940Y-7331720D01*
X-12402793Y-7337119D01*
X-12447646Y-7465298D01*
X-12447646Y-7465300D01*
X-12450499Y-7495730D01*
X-12450499Y-8904269D01*
X-12447646Y-8934699D01*
X-12447646Y-8934701D01*
X-12402793Y-9062880D01*
X-12402792Y-9062882D01*
X-12322149Y-9172150D01*
X-12212881Y-9252793D01*
X-12170154Y-9267744D01*
X-12084700Y-9297646D01*
X-12054269Y-9300500D01*
X-12054265Y-9300500D01*
X-9945731Y-9300500D01*
X-9943005Y-9300244D01*
X-9935586Y-9299548D01*
X-9867001Y-9312882D01*
X-9816512Y-9361179D01*
X-9800000Y-9423005D01*
X-9800000Y-15876000D01*
X-9819685Y-15943039D01*
X-9872489Y-15988794D01*
X-9924000Y-16000000D01*
X-16642516Y-16000000D01*
X-16704515Y-15983388D01*
X-16848216Y-15900423D01*
X-17000943Y-15859500D01*
X-17159057Y-15859500D01*
X-17311784Y-15900423D01*
X-17311785Y-15900423D01*
X-17455485Y-15983388D01*
X-17517484Y-16000000D01*
X-22876000Y-16000000D01*
X-22943039Y-15980315D01*
X-22988794Y-15927511D01*
X-23000000Y-15876000D01*
X-23000000Y-14130943D01*
X-17590500Y-14130943D01*
X-17590500Y-14289056D01*
X-17549577Y-14441783D01*
X-17549574Y-14441790D01*
X-17470525Y-14578709D01*
X-17470521Y-14578714D01*
X-17470520Y-14578716D01*
X-17358716Y-14690520D01*
X-17358714Y-14690521D01*
X-17358710Y-14690524D01*
X-17221791Y-14769573D01*
X-17221784Y-14769577D01*
X-17069057Y-14810500D01*
X-17069055Y-14810500D01*
X-16910945Y-14810500D01*
X-16910943Y-14810500D01*
X-16758216Y-14769577D01*
X-16621284Y-14690520D01*
X-16509480Y-14578716D01*
X-16430423Y-14441784D01*
X-16389500Y-14289057D01*
X-16389500Y-14130943D01*
X-16430423Y-13978216D01*
X-16430427Y-13978209D01*
X-16509476Y-13841290D01*
X-16509482Y-13841282D01*
X-16621283Y-13729481D01*
X-16621291Y-13729475D01*
X-16758210Y-13650426D01*
X-16758214Y-13650424D01*
X-16758216Y-13650423D01*
X-16910943Y-13609500D01*
X-17069057Y-13609500D01*
X-17221784Y-13650423D01*
X-17221791Y-13650426D01*
X-17358710Y-13729475D01*
X-17358718Y-13729481D01*
X-17470519Y-13841282D01*
X-17470525Y-13841290D01*
X-17549574Y-13978209D01*
X-17549577Y-13978216D01*
X-17590500Y-14130943D01*
X-23000000Y-14130943D01*
X-23000000Y-10790256D01*
X-22980315Y-10723217D01*
X-22927511Y-10677462D01*
X-22858353Y-10667518D01*
X-22794797Y-10696543D01*
X-22776234Y-10716618D01*
X-22772150Y-10722151D01*
X-22662882Y-10802794D01*
X-22622089Y-10817068D01*
X-22534704Y-10847646D01*
X-22534702Y-10847646D01*
X-22534699Y-10847647D01*
X-22522926Y-10848751D01*
X-22458018Y-10874605D01*
X-22417391Y-10931449D01*
X-22410500Y-10972209D01*
X-22410500Y-11099056D01*
X-22369577Y-11251783D01*
X-22369574Y-11251790D01*
X-22290525Y-11388709D01*
X-22290521Y-11388714D01*
X-22290520Y-11388716D01*
X-22178716Y-11500520D01*
X-22178714Y-11500521D01*
X-22178710Y-11500524D01*
X-22041791Y-11579573D01*
X-22041784Y-11579577D01*
X-21889057Y-11620500D01*
X-21889055Y-11620500D01*
X-21730945Y-11620500D01*
X-21730943Y-11620500D01*
X-21578216Y-11579577D01*
X-21441284Y-11500520D01*
X-21329480Y-11388716D01*
X-21250423Y-11251784D01*
X-21209500Y-11099057D01*
X-21209500Y-10974085D01*
X-21189815Y-10907046D01*
X-21137011Y-10861291D01*
X-21097076Y-10850627D01*
X-21077063Y-10848750D01*
X-21065301Y-10847647D01*
X-21065299Y-10847647D01*
X-21001210Y-10825220D01*
X-20937118Y-10802794D01*
X-20827850Y-10722151D01*
X-20747207Y-10612883D01*
X-20724781Y-10548791D01*
X-20702354Y-10484702D01*
X-20702354Y-10484700D01*
X-20699500Y-10454270D01*
X-20699500Y-9695731D01*
X-20702354Y-9665301D01*
X-20702354Y-9665299D01*
X-20747207Y-9537120D01*
X-20747208Y-9537118D01*
X-20827850Y-9427851D01*
X-20937118Y-9347208D01*
X-20937120Y-9347207D01*
X-21065300Y-9302354D01*
X-21095730Y-9299501D01*
X-21095734Y-9299501D01*
X-22504266Y-9299501D01*
X-22504270Y-9299501D01*
X-22534700Y-9302354D01*
X-22534702Y-9302354D01*
X-22662881Y-9347207D01*
X-22662883Y-9347208D01*
X-22772151Y-9427851D01*
X-22776232Y-9433382D01*
X-22831881Y-9475631D01*
X-22901537Y-9481087D01*
X-22963086Y-9448018D01*
X-22996985Y-9386923D01*
X-23000000Y-9359745D01*
X-23000000Y-8214124D01*
X-22980315Y-8147085D01*
X-22927511Y-8101330D01*
X-22858353Y-8091386D01*
X-22810902Y-8108586D01*
X-22769127Y-8134354D01*
X-22769120Y-8134357D01*
X-22602698Y-8189504D01*
X-22602691Y-8189505D01*
X-22499981Y-8199998D01*
X-22050001Y-8199998D01*
X-22050000Y-8199997D01*
X-22050000Y-6049999D01*
X-22499972Y-6049999D01*
X-22499988Y-6050000D01*
X-22602698Y-6060493D01*
X-22769120Y-6115640D01*
X-22769129Y-6115644D01*
X-22810904Y-6141412D01*
X-22878296Y-6159852D01*
X-22944960Y-6138929D01*
X-22989729Y-6085287D01*
X-23000000Y-6035873D01*
X-23000000Y-5081582D01*
X-22174999Y-5081582D01*
X-22168592Y-5152102D01*
X-22168591Y-5152107D01*
X-22118019Y-5314396D01*
X-22030073Y-5459877D01*
X-21909878Y-5580072D01*
X-21764396Y-5668019D01*
X-21764397Y-5668019D01*
X-21602106Y-5718590D01*
X-21602108Y-5718590D01*
X-21531582Y-5724999D01*
X-21450001Y-5724998D01*
X-21450000Y-5724998D01*
X-21450000Y-5075000D01*
X-22174999Y-5075000D01*
X-22174999Y-5081582D01*
X-23000000Y-5081582D01*
X-23000000Y-3324000D01*
X-22980315Y-3256961D01*
X-22927511Y-3211206D01*
X-22876000Y-3200000D01*
X-21999499Y-3200000D01*
X-21932460Y-3219685D01*
G37*
%TD.AperFunction*%
%TD*%
M02*
