%TF.GenerationSoftware,KiCad,Pcbnew,9.0.3*%
%TF.CreationDate,2025-08-25T11:29:22-05:00*%
%TF.ProjectId,controller,636f6e74-726f-46c6-9c65-722e6b696361,rev?*%
%TF.SameCoordinates,Original*%
%TF.FileFunction,Copper,L6,Bot*%
%TF.FilePolarity,Positive*%
%FSLAX46Y46*%
G04 Gerber Fmt 4.6, Leading zero omitted, Abs format (unit mm)*
G04 Created by KiCad (PCBNEW 9.0.3) date 2025-08-25 11:29:22*
%MOMM*%
%LPD*%
G01*
G04 APERTURE LIST*
G04 Aperture macros list*
%AMRoundRect*
0 Rectangle with rounded corners*
0 $1 Rounding radius*
0 $2 $3 $4 $5 $6 $7 $8 $9 X,Y pos of 4 corners*
0 Add a 4 corners polygon primitive as box body*
4,1,4,$2,$3,$4,$5,$6,$7,$8,$9,$2,$3,0*
0 Add four circle primitives for the rounded corners*
1,1,$1+$1,$2,$3*
1,1,$1+$1,$4,$5*
1,1,$1+$1,$6,$7*
1,1,$1+$1,$8,$9*
0 Add four rect primitives between the rounded corners*
20,1,$1+$1,$2,$3,$4,$5,0*
20,1,$1+$1,$4,$5,$6,$7,0*
20,1,$1+$1,$6,$7,$8,$9,0*
20,1,$1+$1,$8,$9,$2,$3,0*%
%AMRotRect*
0 Rectangle, with rotation*
0 The origin of the aperture is its center*
0 $1 length*
0 $2 width*
0 $3 Rotation angle, in degrees counterclockwise*
0 Add horizontal line*
21,1,$1,$2,0,0,$3*%
%AMOutline5P*
0 Free polygon, 5 corners , with rotation*
0 The origin of the aperture is its center*
0 number of corners: always 5*
0 $1 to $10 corner X, Y*
0 $11 Rotation angle, in degrees counterclockwise*
0 create outline with 5 corners*
4,1,5,$1,$2,$3,$4,$5,$6,$7,$8,$9,$10,$1,$2,$11*%
%AMOutline6P*
0 Free polygon, 6 corners , with rotation*
0 The origin of the aperture is its center*
0 number of corners: always 6*
0 $1 to $12 corner X, Y*
0 $13 Rotation angle, in degrees counterclockwise*
0 create outline with 6 corners*
4,1,6,$1,$2,$3,$4,$5,$6,$7,$8,$9,$10,$11,$12,$1,$2,$13*%
%AMOutline7P*
0 Free polygon, 7 corners , with rotation*
0 The origin of the aperture is its center*
0 number of corners: always 7*
0 $1 to $14 corner X, Y*
0 $15 Rotation angle, in degrees counterclockwise*
0 create outline with 7 corners*
4,1,7,$1,$2,$3,$4,$5,$6,$7,$8,$9,$10,$11,$12,$13,$14,$1,$2,$15*%
%AMOutline8P*
0 Free polygon, 8 corners , with rotation*
0 The origin of the aperture is its center*
0 number of corners: always 8*
0 $1 to $16 corner X, Y*
0 $17 Rotation angle, in degrees counterclockwise*
0 create outline with 8 corners*
4,1,8,$1,$2,$3,$4,$5,$6,$7,$8,$9,$10,$11,$12,$13,$14,$15,$16,$1,$2,$17*%
G04 Aperture macros list end*
%TA.AperFunction,SMDPad,CuDef*%
%ADD10R,0.900000X0.400000*%
%TD*%
%TA.AperFunction,SMDPad,CuDef*%
%ADD11R,1.500000X3.500000*%
%TD*%
%TA.AperFunction,SMDPad,CuDef*%
%ADD12R,0.600000X1.250000*%
%TD*%
%TA.AperFunction,SMDPad,CuDef*%
%ADD13R,1.200000X3.790000*%
%TD*%
%TA.AperFunction,SMDPad,CuDef*%
%ADD14R,1.450000X1.400000*%
%TD*%
%TA.AperFunction,SMDPad,CuDef*%
%ADD15R,1.000000X0.600000*%
%TD*%
%TA.AperFunction,SMDPad,CuDef*%
%ADD16R,0.950000X0.850000*%
%TD*%
%TA.AperFunction,SMDPad,CuDef*%
%ADD17RoundRect,0.147500X-0.147500X-0.172500X0.147500X-0.172500X0.147500X0.172500X-0.147500X0.172500X0*%
%TD*%
%TA.AperFunction,SMDPad,CuDef*%
%ADD18RoundRect,0.040000X-0.140000X-0.120000X0.140000X-0.120000X0.140000X0.120000X-0.140000X0.120000X0*%
%TD*%
%TA.AperFunction,SMDPad,CuDef*%
%ADD19C,0.500000*%
%TD*%
%TA.AperFunction,SMDPad,CuDef*%
%ADD20R,3.810000X1.830000*%
%TD*%
%TA.AperFunction,SMDPad,CuDef*%
%ADD21R,1.830000X3.810000*%
%TD*%
%TA.AperFunction,SMDPad,CuDef*%
%ADD22RoundRect,0.040000X-0.120000X0.140000X-0.120000X-0.140000X0.120000X-0.140000X0.120000X0.140000X0*%
%TD*%
%TA.AperFunction,SMDPad,CuDef*%
%ADD23C,1.000000*%
%TD*%
%TA.AperFunction,SMDPad,CuDef*%
%ADD24RoundRect,0.147500X-0.172500X0.147500X-0.172500X-0.147500X0.172500X-0.147500X0.172500X0.147500X0*%
%TD*%
%TA.AperFunction,SMDPad,CuDef*%
%ADD25R,0.203200X1.066800*%
%TD*%
%TA.AperFunction,SMDPad,CuDef*%
%ADD26R,0.762000X0.203200*%
%TD*%
%TA.AperFunction,SMDPad,CuDef*%
%ADD27RoundRect,0.225000X-0.017678X0.335876X-0.335876X0.017678X0.017678X-0.335876X0.335876X-0.017678X0*%
%TD*%
%TA.AperFunction,SMDPad,CuDef*%
%ADD28RoundRect,0.225000X0.017678X-0.335876X0.335876X-0.017678X-0.017678X0.335876X-0.335876X0.017678X0*%
%TD*%
%TA.AperFunction,SMDPad,CuDef*%
%ADD29R,2.000000X0.500000*%
%TD*%
%TA.AperFunction,SMDPad,CuDef*%
%ADD30RoundRect,0.135000X0.226274X0.035355X0.035355X0.226274X-0.226274X-0.035355X-0.035355X-0.226274X0*%
%TD*%
%TA.AperFunction,SMDPad,CuDef*%
%ADD31RoundRect,0.150000X0.150000X-0.587500X0.150000X0.587500X-0.150000X0.587500X-0.150000X-0.587500X0*%
%TD*%
%TA.AperFunction,SMDPad,CuDef*%
%ADD32Outline5P,-0.375000X0.475000X0.000000X0.850000X0.375000X0.850000X0.375000X-0.850000X-0.375000X-0.850000X0.000000*%
%TD*%
%TA.AperFunction,SMDPad,CuDef*%
%ADD33R,0.600000X1.800000*%
%TD*%
%TA.AperFunction,SMDPad,CuDef*%
%ADD34Outline5P,-0.375000X0.850000X0.000000X0.850000X0.375000X0.475000X0.375000X-0.850000X-0.375000X-0.850000X0.000000*%
%TD*%
%TA.AperFunction,SMDPad,CuDef*%
%ADD35R,1.300000X0.900000*%
%TD*%
%TA.AperFunction,SMDPad,CuDef*%
%ADD36R,1.500000X4.000000*%
%TD*%
%TA.AperFunction,SMDPad,CuDef*%
%ADD37RoundRect,0.250000X0.550000X-1.500000X0.550000X1.500000X-0.550000X1.500000X-0.550000X-1.500000X0*%
%TD*%
%TA.AperFunction,ComponentPad*%
%ADD38C,1.545000*%
%TD*%
%TA.AperFunction,ComponentPad*%
%ADD39C,1.400000*%
%TD*%
%TA.AperFunction,ComponentPad*%
%ADD40C,2.400000*%
%TD*%
%TA.AperFunction,SMDPad,CuDef*%
%ADD41RoundRect,0.100000X-0.100000X0.637500X-0.100000X-0.637500X0.100000X-0.637500X0.100000X0.637500X0*%
%TD*%
%TA.AperFunction,ComponentPad*%
%ADD42R,1.428000X1.428000*%
%TD*%
%TA.AperFunction,ComponentPad*%
%ADD43C,1.428000*%
%TD*%
%TA.AperFunction,ComponentPad*%
%ADD44O,2.216000X1.108000*%
%TD*%
%TA.AperFunction,SMDPad,CuDef*%
%ADD45R,0.320000X0.360000*%
%TD*%
%TA.AperFunction,SMDPad,CuDef*%
%ADD46RotRect,0.250000X0.400000X45.000000*%
%TD*%
%TA.AperFunction,SMDPad,CuDef*%
%ADD47RotRect,0.400000X0.700000X315.000000*%
%TD*%
%TA.AperFunction,SMDPad,CuDef*%
%ADD48R,3.150000X1.000000*%
%TD*%
%TA.AperFunction,SMDPad,CuDef*%
%ADD49R,0.200000X0.700000*%
%TD*%
%TA.AperFunction,ComponentPad*%
%ADD50R,1.700000X1.700000*%
%TD*%
%TA.AperFunction,ComponentPad*%
%ADD51C,1.700000*%
%TD*%
%TA.AperFunction,SMDPad,CuDef*%
%ADD52R,0.304800X0.812800*%
%TD*%
%TA.AperFunction,SMDPad,CuDef*%
%ADD53R,2.489200X1.752600*%
%TD*%
%TA.AperFunction,SMDPad,CuDef*%
%ADD54RoundRect,0.135000X-0.185000X0.135000X-0.185000X-0.135000X0.185000X-0.135000X0.185000X0.135000X0*%
%TD*%
%TA.AperFunction,ComponentPad*%
%ADD55C,0.700000*%
%TD*%
%TA.AperFunction,ComponentPad*%
%ADD56O,1.700000X0.900000*%
%TD*%
%TA.AperFunction,ComponentPad*%
%ADD57O,2.400000X0.900000*%
%TD*%
%TA.AperFunction,SMDPad,CuDef*%
%ADD58R,0.860000X1.820000*%
%TD*%
%TA.AperFunction,SMDPad,CuDef*%
%ADD59RoundRect,0.150000X0.512500X0.150000X-0.512500X0.150000X-0.512500X-0.150000X0.512500X-0.150000X0*%
%TD*%
%TA.AperFunction,SMDPad,CuDef*%
%ADD60RoundRect,0.135000X0.135000X0.185000X-0.135000X0.185000X-0.135000X-0.185000X0.135000X-0.185000X0*%
%TD*%
%TA.AperFunction,ViaPad*%
%ADD61C,0.800000*%
%TD*%
%TA.AperFunction,ViaPad*%
%ADD62C,0.500000*%
%TD*%
%TA.AperFunction,ViaPad*%
%ADD63C,1.400000*%
%TD*%
%TA.AperFunction,ViaPad*%
%ADD64C,0.600000*%
%TD*%
%TA.AperFunction,ViaPad*%
%ADD65C,1.200000*%
%TD*%
%TA.AperFunction,Conductor*%
%ADD66C,0.450000*%
%TD*%
%TA.AperFunction,Conductor*%
%ADD67C,0.500000*%
%TD*%
%TA.AperFunction,Conductor*%
%ADD68C,1.000000*%
%TD*%
%TA.AperFunction,Conductor*%
%ADD69C,0.150000*%
%TD*%
%TA.AperFunction,Conductor*%
%ADD70C,0.156500*%
%TD*%
%TA.AperFunction,Conductor*%
%ADD71C,0.200000*%
%TD*%
%TA.AperFunction,Conductor*%
%ADD72C,0.300000*%
%TD*%
%TA.AperFunction,Conductor*%
%ADD73C,0.250000*%
%TD*%
%TA.AperFunction,Conductor*%
%ADD74C,0.700000*%
%TD*%
%TA.AperFunction,Conductor*%
%ADD75C,0.900000*%
%TD*%
%TA.AperFunction,Conductor*%
%ADD76C,0.110000*%
%TD*%
%TA.AperFunction,Conductor*%
%ADD77C,0.136400*%
%TD*%
%TA.AperFunction,Conductor*%
%ADD78C,0.218186*%
%TD*%
%TA.AperFunction,Conductor*%
%ADD79C,0.600000*%
%TD*%
G04 APERTURE END LIST*
D10*
%TO.P,L1,1,1*%
%TO.N,/SOM/FPGA_USB_D+*%
X-22480000Y35050000D03*
%TO.P,L1,2,2*%
%TO.N,/SOM/USB_D+*%
X-24180000Y35050000D03*
%TO.P,L1,3,3*%
%TO.N,/SOM/USB_D-*%
X-24180000Y34250000D03*
%TO.P,L1,4,4*%
%TO.N,/SOM/FPGA_USB_D-*%
X-22480000Y34250000D03*
%TD*%
D11*
%TO.P,J8,2,Ext*%
%TO.N,GND*%
X39200000Y56777500D03*
X33800000Y56777500D03*
%TD*%
%TO.P,J6,2,Ext*%
%TO.N,GND*%
X33800000Y-17027500D03*
X39200000Y-17027500D03*
%TD*%
D12*
%TO.P,J3,1,DAT2*%
%TO.N,/SD/DAT2*%
X2415001Y53755000D03*
%TO.P,J3,2,CD/DAT3*%
%TO.N,/SD/DAT3*%
X1315000Y53755000D03*
%TO.P,J3,3,CMD*%
%TO.N,/SD/CMD*%
X215000Y53755000D03*
%TO.P,J3,4,VDD*%
%TO.N,+3V3*%
X-885000Y53755000D03*
%TO.P,J3,5,CLK*%
%TO.N,/SD/CLK*%
X-1985000Y53755000D03*
%TO.P,J3,6,VSS*%
%TO.N,GND*%
X-3085000Y53755000D03*
%TO.P,J3,7,DAT0*%
%TO.N,/SD/DAT0*%
X-4185000Y53755000D03*
%TO.P,J3,8,DAT1*%
%TO.N,/SD/DAT1*%
X-5285001Y53755000D03*
D13*
%TO.P,J3,G1,GND*%
%TO.N,GND*%
X-6435000Y56235000D03*
D14*
%TO.P,J3,G2,GND*%
X4040000Y55480000D03*
D15*
%TO.P,J3,G3,POL*%
%TO.N,unconnected-(J3-POL-PadG3)*%
X4265000Y56730000D03*
D16*
%TO.P,J3,G4,DET*%
%TO.N,Net-(J3-DET)*%
X3340000Y57705000D03*
%TD*%
D17*
%TO.P,D2,1,K*%
%TO.N,Net-(D2-K)*%
X-8910000Y56950000D03*
%TO.P,D2,2,A*%
%TO.N,/SOM/LED0*%
X-7940000Y56950000D03*
%TD*%
D18*
%TO.P,C25,1*%
%TO.N,+1V8*%
X-20510000Y39610000D03*
%TO.P,C25,2*%
%TO.N,GND*%
X-19950000Y39610000D03*
%TD*%
D19*
%TO.P,FID6,*%
%TO.N,*%
X-12000000Y48000000D03*
%TD*%
D20*
%TO.P,M3,1,+VDC*%
%TO.N,/PSU/PoE_VDC+*%
X-3095000Y-16390000D03*
D21*
%TO.P,M3,2,-VDC*%
%TO.N,GND*%
X-18285000Y-15450000D03*
%TO.P,M3,3,ADJ*%
%TO.N,unconnected-(M3-ADJ-Pad3)*%
X-20625000Y-15450000D03*
D20*
%TO.P,M3,4,VIN+*%
%TO.N,/PSU/PoE_VIN+*%
X-19685000Y-4810000D03*
%TO.P,M3,5,VIN-*%
%TO.N,/PSU/PoE_VIN-*%
X-3095000Y-4810000D03*
%TD*%
D22*
%TO.P,C26,1*%
%TO.N,+3.3VA*%
X-21690000Y46890000D03*
%TO.P,C26,2*%
%TO.N,GNDA*%
X-21690000Y46330000D03*
%TD*%
D23*
%TO.P,TP1,1,1*%
%TO.N,3V3_MIC*%
X30000000Y55000000D03*
%TD*%
%TO.P,TP2,1,1*%
%TO.N,Net-(C40-Pad1)*%
X-24000000Y52500000D03*
%TD*%
D24*
%TO.P,D9,1,K*%
%TO.N,Net-(D9-K)*%
X-4890000Y15595001D03*
%TO.P,D9,2,A*%
%TO.N,/Ethernet/RGMII0_LED_LINK*%
X-4890000Y14625001D03*
%TD*%
D25*
%TO.P,U1,1,DAT2A*%
%TO.N,/SD/SD_D2*%
X1470188Y46706175D03*
%TO.P,U1,2,DAT3A*%
%TO.N,/SD/SD_D3*%
X1070062Y46706175D03*
%TO.P,U1,3,DAT0A*%
%TO.N,/SD/SD_D0*%
X669936Y46706175D03*
%TO.P,U1,4,DAT1A*%
%TO.N,/SD/SD_D1*%
X269810Y46706175D03*
D26*
%TO.P,U1,5,CLKA*%
%TO.N,/SD/SD_CLK*%
X-400001Y46830000D03*
%TO.P,U1,6,CLK_FB*%
%TO.N,unconnected-(U1-CLK_FB-Pad6)*%
X-400001Y47230050D03*
%TO.P,U1,7,GND*%
%TO.N,GND*%
X-400001Y47630100D03*
%TO.P,U1,8,CLKB*%
%TO.N,/SD/CLK*%
X-400001Y48030150D03*
D25*
%TO.P,U1,9,DAT1B*%
%TO.N,/SD/DAT1*%
X269810Y48153975D03*
%TO.P,U1,10,DAT0B*%
%TO.N,/SD/DAT0*%
X669936Y48153975D03*
%TO.P,U1,11,DAT3B*%
%TO.N,/SD/DAT3*%
X1070062Y48153975D03*
%TO.P,U1,12,DAT2B*%
%TO.N,/SD/DAT2*%
X1470188Y48153975D03*
D26*
%TO.P,U1,13,CMDB*%
%TO.N,/SD/CMD*%
X2139999Y48030150D03*
%TO.P,U1,14,VCCB*%
%TO.N,+3V3*%
X2139999Y47630100D03*
%TO.P,U1,15,VCCA*%
%TO.N,+1V8*%
X2139999Y47230050D03*
%TO.P,U1,16,CMDA*%
%TO.N,/SD/SD_CMD*%
X2139999Y46830000D03*
%TD*%
D27*
%TO.P,C40,1*%
%TO.N,Net-(C40-Pad1)*%
X-21910000Y50090000D03*
%TO.P,C40,2*%
%TO.N,GNDA*%
X-23006016Y48993984D03*
%TD*%
D28*
%TO.P,C2,1*%
%TO.N,Net-(C2-Pad1)*%
X-18558008Y53401992D03*
%TO.P,C2,2*%
%TO.N,GNDA*%
X-17461992Y54498008D03*
%TD*%
D29*
%TO.P,M2,1,VDD_5V*%
%TO.N,+5V*%
X55200000Y-7600000D03*
%TO.P,M2,2,VDD_5V*%
X50800000Y-7600000D03*
%TO.P,M2,3,VDD_5V*%
X55200000Y-6800000D03*
%TO.P,M2,4,VDD_5V*%
X50800000Y-6800000D03*
%TO.P,M2,5,GND*%
%TO.N,GND*%
X55200000Y-6000000D03*
%TO.P,M2,6,GND*%
X50800000Y-6000000D03*
%TO.P,M2,7,IO_B34_25*%
%TO.N,/SOM/D58*%
X55200000Y-5200000D03*
%TO.P,M2,8,IO_B34_0*%
%TO.N,/SOM/D36*%
X50800000Y-5200000D03*
%TO.P,M2,9,IO_B34_LP13*%
%TO.N,unconnected-(M2-IO_B34_LP13-Pad9)*%
X55200000Y-4400000D03*
%TO.P,M2,10,IO_B34_LP24*%
%TO.N,/SOM/D34*%
X50800000Y-4400000D03*
%TO.P,M2,11,IO_B34_LN13*%
%TO.N,unconnected-(M2-IO_B34_LN13-Pad11)*%
X55200000Y-3600000D03*
%TO.P,M2,12,IO_B34_LN24*%
%TO.N,/SOM/D38*%
X50800000Y-3600000D03*
%TO.P,M2,13,IO_B34_LP22*%
%TO.N,unconnected-(M2-IO_B34_LP22-Pad13)*%
X55200000Y-2800000D03*
%TO.P,M2,14,IO_B34_LP21*%
%TO.N,/SOM/D18*%
X50800000Y-2800000D03*
%TO.P,M2,15,IO_B34_LN22*%
%TO.N,unconnected-(M2-IO_B34_LN22-Pad15)*%
X55200000Y-2000000D03*
%TO.P,M2,16,IO_B34_LN21*%
%TO.N,/SOM/D56*%
X50800000Y-2000000D03*
%TO.P,M2,17,IO_B34_LP23*%
%TO.N,unconnected-(M2-IO_B34_LP23-Pad17)*%
X55200000Y-1200000D03*
%TO.P,M2,18,IO_B34_LP20*%
%TO.N,/SOM/D20*%
X50800000Y-1200000D03*
%TO.P,M2,19,IO_B34_LN23*%
%TO.N,/SOM/LED_DI*%
X55200000Y-400000D03*
%TO.P,M2,20,IO_B34_LN20*%
%TO.N,/SOM/D54*%
X50800000Y-400000D03*
%TO.P,M2,21,GND*%
%TO.N,GND*%
X55200000Y400000D03*
%TO.P,M2,22,GND*%
X50800000Y400000D03*
%TO.P,M2,23,IO_B34_LP19*%
%TO.N,unconnected-(M2-IO_B34_LP19-Pad23)*%
X55200000Y1200000D03*
%TO.P,M2,24,IO_B34_LP18*%
%TO.N,/SOM/D6*%
X50800000Y1200000D03*
%TO.P,M2,25,IO_B34_LN19*%
%TO.N,unconnected-(M2-IO_B34_LN19-Pad25)*%
X55200000Y2000000D03*
%TO.P,M2,26,IO_B34_LN18*%
%TO.N,/SOM/D32*%
X50800000Y2000000D03*
%TO.P,M2,27,IO_B34_LP9*%
%TO.N,unconnected-(M2-IO_B34_LP9-Pad27)*%
X55200000Y2800000D03*
%TO.P,M2,28,IO_B34_LP12*%
%TO.N,/SOM/D0*%
X50800000Y2800000D03*
%TO.P,M2,29,IO_B34_LN9*%
%TO.N,unconnected-(M2-IO_B34_LN9-Pad29)*%
X55200000Y3600000D03*
%TO.P,M2,30,IO_B34_LN12*%
%TO.N,/SOM/D16*%
X50800000Y3600000D03*
%TO.P,M2,31,IO_B34_LP5*%
%TO.N,unconnected-(M2-IO_B34_LP5-Pad31)*%
X55200000Y4400000D03*
%TO.P,M2,32,IO_B34_LP14*%
%TO.N,/SOM/MCLK1*%
X50800000Y4400000D03*
%TO.P,M2,33,IO_B34_LN5*%
%TO.N,unconnected-(M2-IO_B34_LN5-Pad33)*%
X55200000Y5200000D03*
%TO.P,M2,34,IO_B34_LN14*%
%TO.N,/SOM/D4*%
X50800000Y5200000D03*
%TO.P,M2,35,VDDIO_34_PL*%
%TO.N,VDDIO_34_3V3*%
X55200000Y6000000D03*
%TO.P,M2,36,VDDIO_34_PL*%
X50800000Y6000000D03*
%TO.P,M2,37,GND*%
%TO.N,GND*%
X55200000Y6800000D03*
%TO.P,M2,38,GND*%
X50800000Y6800000D03*
%TO.P,M2,39,IO_B34_LP11*%
%TO.N,/SOM/MCLK2*%
X55200000Y7600000D03*
%TO.P,M2,40,IO_B34_LP15*%
%TO.N,/SOM/D14*%
X50800000Y7600000D03*
%TO.P,M2,41,IO_B34_LN11*%
%TO.N,unconnected-(M2-IO_B34_LN11-Pad41)*%
X55200000Y8400000D03*
%TO.P,M2,42,IO_B34_LN15*%
%TO.N,/SOM/D30*%
X50800000Y8400000D03*
%TO.P,M2,43,IO_B34_LP6*%
%TO.N,unconnected-(M2-IO_B34_LP6-Pad43)*%
X55200000Y9200000D03*
%TO.P,M2,44,IO_B34_LP10*%
%TO.N,/SOM/D52*%
X50800000Y9200000D03*
%TO.P,M2,45,IO_B34_LN6*%
%TO.N,unconnected-(M2-IO_B34_LN6-Pad45)*%
X55200000Y10000000D03*
%TO.P,M2,46,IO_B34_LN10*%
%TO.N,unconnected-(M2-IO_B34_LN10-Pad46)*%
X50800000Y10000000D03*
%TO.P,M2,47,IO_B34_LP4*%
%TO.N,unconnected-(M2-IO_B34_LP4-Pad47)*%
X55200000Y10800000D03*
%TO.P,M2,48,IO_B34_LP16*%
%TO.N,unconnected-(M2-IO_B34_LP16-Pad48)*%
X50800000Y10800000D03*
%TO.P,M2,49,IO_B34_LN4*%
%TO.N,unconnected-(M2-IO_B34_LN4-Pad49)*%
X55200000Y11600000D03*
%TO.P,M2,50,IO_B34_LN16*%
%TO.N,unconnected-(M2-IO_B34_LN16-Pad50)*%
X50800000Y11600000D03*
%TO.P,M2,51,GND*%
%TO.N,GND*%
X55200000Y12400000D03*
%TO.P,M2,52,GND*%
X50800000Y12400000D03*
%TO.P,M2,53,IO_B34_LP7*%
%TO.N,unconnected-(M2-IO_B34_LP7-Pad53)*%
X55200000Y13200000D03*
%TO.P,M2,54,IO_B34_LP17*%
%TO.N,unconnected-(M2-IO_B34_LP17-Pad54)*%
X50800000Y13200000D03*
%TO.P,M2,55,IO_B34_LN7*%
%TO.N,unconnected-(M2-IO_B34_LN7-Pad55)*%
X55200000Y14000000D03*
%TO.P,M2,56,IO_B34_LN17*%
%TO.N,unconnected-(M2-IO_B34_LN17-Pad56)*%
X50800000Y14000000D03*
%TO.P,M2,57,IO_B34_LP3*%
%TO.N,unconnected-(M2-IO_B34_LP3-Pad57)*%
X55200000Y14800000D03*
%TO.P,M2,58,IO_B34_LP8*%
%TO.N,unconnected-(M2-IO_B34_LP8-Pad58)*%
X50800000Y14800000D03*
%TO.P,M2,59,IO_B34_LN3*%
%TO.N,unconnected-(M2-IO_B34_LN3-Pad59)*%
X55200000Y15600000D03*
%TO.P,M2,60,IO_B34_LN8*%
%TO.N,unconnected-(M2-IO_B34_LN8-Pad60)*%
X50800000Y15600000D03*
%TO.P,M2,61,IO_B34_LP1*%
%TO.N,unconnected-(M2-IO_B34_LP1-Pad61)*%
X55200000Y16400000D03*
%TO.P,M2,62,IO_B34_LP2*%
%TO.N,/SOM/SYNC_IN*%
X50800000Y16400000D03*
%TO.P,M2,63,IO_B34_LN1*%
%TO.N,unconnected-(M2-IO_B34_LN1-Pad63)*%
X55200000Y17200000D03*
%TO.P,M2,64,IO_B34_LN2*%
%TO.N,/SOM/SYNC_OUT*%
X50800000Y17200000D03*
%TO.P,M2,65,GND*%
%TO.N,GND*%
X55200000Y18000000D03*
%TO.P,M2,66,GND*%
X50800000Y18000000D03*
%TO.P,M2,67,NC*%
%TO.N,unconnected-(M2-NC-Pad67)*%
X55200000Y18800000D03*
%TO.P,M2,68,NC*%
%TO.N,unconnected-(M2-NC-Pad68)*%
X50800000Y18800000D03*
%TO.P,M2,69,NC*%
%TO.N,unconnected-(M2-NC-Pad69)*%
X55200000Y19600000D03*
%TO.P,M2,70,NC*%
%TO.N,unconnected-(M2-NC-Pad70)*%
X50800000Y19600000D03*
%TO.P,M2,71,NC*%
%TO.N,unconnected-(M2-NC-Pad71)*%
X55200000Y20400000D03*
%TO.P,M2,72,NC*%
%TO.N,unconnected-(M2-NC-Pad72)*%
X50800000Y20400000D03*
%TO.P,M2,73,NC*%
%TO.N,unconnected-(M2-NC-Pad73)*%
X55200000Y21200000D03*
%TO.P,M2,74,NC*%
%TO.N,unconnected-(M2-NC-Pad74)*%
X50800000Y21200000D03*
%TO.P,M2,75,NC*%
%TO.N,unconnected-(M2-NC-Pad75)*%
X55200000Y22000000D03*
%TO.P,M2,76,NC*%
%TO.N,unconnected-(M2-NC-Pad76)*%
X50800000Y22000000D03*
%TO.P,M2,77,NC*%
%TO.N,unconnected-(M2-NC-Pad77)*%
X55200000Y22800000D03*
%TO.P,M2,78,NC*%
%TO.N,unconnected-(M2-NC-Pad78)*%
X50800000Y22800000D03*
%TO.P,M2,79,GND*%
%TO.N,GND*%
X55200000Y23600000D03*
%TO.P,M2,80,GND*%
X50800000Y23600000D03*
%TO.P,M2,81,VDDIO_13_PL*%
%TO.N,VDDIO_13_3V3*%
X55200000Y24400000D03*
%TO.P,M2,82,VDDIO_13_PL*%
X50800000Y24400000D03*
%TO.P,M2,83,IO_B13_LP21*%
%TO.N,/SOM/MCLK0*%
X55200000Y25200000D03*
%TO.P,M2,84,IO_B13_0*%
%TO.N,/SOM/D10*%
X50800000Y25200000D03*
%TO.P,M2,85,IO_B13_LN21*%
%TO.N,unconnected-(M2-IO_B13_LN21-Pad85)*%
X55200000Y26000000D03*
%TO.P,M2,86,IO_B13_LP16*%
%TO.N,/SOM/D50*%
X50800000Y26000000D03*
%TO.P,M2,87,IO_B13_LP12*%
%TO.N,unconnected-(M2-IO_B13_LP12-Pad87)*%
X55200000Y26800000D03*
%TO.P,M2,88,IO_B13_LN16*%
%TO.N,/SOM/D28*%
X50800000Y26800000D03*
%TO.P,M2,89,IO_B13_LN12*%
%TO.N,unconnected-(M2-IO_B13_LN12-Pad89)*%
X55200000Y27600000D03*
%TO.P,M2,90,IO_B13_LP20*%
%TO.N,/SOM/D48*%
X50800000Y27600000D03*
%TO.P,M2,91,IO_B13_LP17*%
%TO.N,unconnected-(M2-IO_B13_LP17-Pad91)*%
X55200000Y28400000D03*
%TO.P,M2,92,IO_B13_LN20*%
%TO.N,/SOM/D12*%
X50800000Y28400000D03*
%TO.P,M2,93,IO_B13_LN17*%
%TO.N,unconnected-(M2-IO_B13_LN17-Pad93)*%
X55200000Y29200000D03*
%TO.P,M2,94,IO_B13_LP18*%
%TO.N,/SOM/D26*%
X50800000Y29200000D03*
%TO.P,M2,95,GND*%
%TO.N,GND*%
X55200000Y30000000D03*
%TO.P,M2,96,IO_B13_LN18*%
%TO.N,/SOM/D2*%
X50800000Y30000000D03*
%TO.P,M2,97,IO_B13_LP11*%
%TO.N,unconnected-(M2-IO_B13_LP11-Pad97)*%
X55200000Y30800000D03*
%TO.P,M2,98,GND*%
%TO.N,GND*%
X50800000Y30800000D03*
%TO.P,M2,99,IO_B13_LN11*%
%TO.N,unconnected-(M2-IO_B13_LN11-Pad99)*%
X55200000Y31600000D03*
%TO.P,M2,100,IO_B13_LP14*%
%TO.N,/SOM/D46*%
X50800000Y31600000D03*
%TO.P,M2,101,IO_B13_LP15*%
%TO.N,unconnected-(M2-IO_B13_LP15-Pad101)*%
X55200000Y32400000D03*
%TO.P,M2,102,IO_B13_LN14*%
%TO.N,/SOM/D8*%
X50800000Y32400000D03*
%TO.P,M2,103,IO_B13_LN15*%
%TO.N,/SOM/D44*%
X55200000Y33200000D03*
%TO.P,M2,104,IO_B13_LP13*%
%TO.N,/SOM/D24*%
X50800000Y33200000D03*
%TO.P,M2,105,IO_B13_LP22*%
%TO.N,unconnected-(M2-IO_B13_LP22-Pad105)*%
X55200000Y34000000D03*
%TO.P,M2,106,IO_B13_LN13*%
%TO.N,/SOM/D22*%
X50800000Y34000000D03*
%TO.P,M2,107,IO_B13_LN22*%
%TO.N,unconnected-(M2-IO_B13_LN22-Pad107)*%
X55200000Y34800000D03*
%TO.P,M2,108,IO_B13_LP19*%
%TO.N,/SOM/D42*%
X50800000Y34800000D03*
%TO.P,M2,109,GND*%
%TO.N,GND*%
X55200000Y35600000D03*
%TO.P,M2,110,IO_B13_LN19*%
%TO.N,/SOM/D40*%
X50800000Y35600000D03*
%TO.P,M2,111,NC*%
%TO.N,unconnected-(M2-NC-Pad111)*%
X55200000Y36400000D03*
%TO.P,M2,112,GND*%
%TO.N,GND*%
X50800000Y36400000D03*
%TO.P,M2,113,NC*%
%TO.N,unconnected-(M2-NC-Pad113)*%
X55200000Y37200000D03*
%TO.P,M2,114,NC*%
%TO.N,unconnected-(M2-NC-Pad114)*%
X50800000Y37200000D03*
%TO.P,M2,115,GND*%
%TO.N,GND*%
X55200000Y38000000D03*
%TO.P,M2,116,NC*%
%TO.N,unconnected-(M2-NC-Pad116)*%
X50800000Y38000000D03*
%TO.P,M2,117,NC*%
%TO.N,unconnected-(M2-NC-Pad117)*%
X55200000Y38800000D03*
%TO.P,M2,118,GND*%
%TO.N,GND*%
X50800000Y38800000D03*
%TO.P,M2,119,NC*%
%TO.N,unconnected-(M2-NC-Pad119)*%
X55200000Y39600000D03*
%TO.P,M2,120,NC*%
%TO.N,unconnected-(M2-NC-Pad120)*%
X50800000Y39600000D03*
%TO.P,M2,121,GND*%
%TO.N,GND*%
X55200000Y40400000D03*
%TO.P,M2,122,NC*%
%TO.N,unconnected-(M2-NC-Pad122)*%
X50800000Y40400000D03*
%TO.P,M2,123,NC*%
%TO.N,unconnected-(M2-NC-Pad123)*%
X55200000Y41200000D03*
%TO.P,M2,124,GND*%
%TO.N,GND*%
X50800000Y41200000D03*
%TO.P,M2,125,NC*%
%TO.N,unconnected-(M2-NC-Pad125)*%
X55200000Y42000000D03*
%TO.P,M2,126,NC*%
%TO.N,unconnected-(M2-NC-Pad126)*%
X50800000Y42000000D03*
%TO.P,M2,127,GND*%
%TO.N,GND*%
X55200000Y42800000D03*
%TO.P,M2,128,NC*%
%TO.N,unconnected-(M2-NC-Pad128)*%
X50800000Y42800000D03*
%TO.P,M2,129,NC*%
%TO.N,unconnected-(M2-NC-Pad129)*%
X55200000Y43600000D03*
%TO.P,M2,130,GND*%
%TO.N,GND*%
X50800000Y43600000D03*
%TO.P,M2,131,NC*%
%TO.N,unconnected-(M2-NC-Pad131)*%
X55200000Y44400000D03*
%TO.P,M2,132,NC*%
%TO.N,unconnected-(M2-NC-Pad132)*%
X50800000Y44400000D03*
%TO.P,M2,133,GND*%
%TO.N,GND*%
X55200000Y45200000D03*
%TO.P,M2,134,NC*%
%TO.N,unconnected-(M2-NC-Pad134)*%
X50800000Y45200000D03*
%TO.P,M2,135,NC*%
%TO.N,unconnected-(M2-NC-Pad135)*%
X55200000Y46000000D03*
%TO.P,M2,136,GND*%
%TO.N,GND*%
X50800000Y46000000D03*
%TO.P,M2,137,NC*%
%TO.N,unconnected-(M2-NC-Pad137)*%
X55200000Y46800000D03*
%TO.P,M2,138,NC*%
%TO.N,unconnected-(M2-NC-Pad138)*%
X50800000Y46800000D03*
%TO.P,M2,139,GND*%
%TO.N,GND*%
X55200000Y47600000D03*
%TO.P,M2,140,NC*%
%TO.N,unconnected-(M2-NC-Pad140)*%
X50800000Y47600000D03*
%TD*%
D30*
%TO.P,R14,1*%
%TO.N,/DAC/OUTL*%
X-18866013Y49186013D03*
%TO.P,R14,2*%
%TO.N,Net-(C40-Pad1)*%
X-19587261Y49907261D03*
%TD*%
D31*
%TO.P,Q1,1,G*%
%TO.N,Net-(Q1-G)*%
X-20340000Y17982500D03*
%TO.P,Q1,2,S*%
%TO.N,+5V*%
X-22240000Y17982500D03*
%TO.P,Q1,3,D*%
%TO.N,VCCIN*%
X-21290000Y19857501D03*
%TD*%
D32*
%TO.P,SW1,1*%
%TO.N,GND*%
X13275000Y55550000D03*
D33*
%TO.P,SW1,2*%
%TO.N,/SOM/PS_WARMRESET_IN*%
X14500000Y55600000D03*
D34*
%TO.P,SW1,3*%
%TO.N,GND*%
X15725000Y55550000D03*
D35*
%TO.P,SW1,S1,SHIELD*%
X12650000Y57650000D03*
%TO.P,SW1,S2,SHIELD*%
X16350000Y57650000D03*
%TD*%
D19*
%TO.P,FID7,*%
%TO.N,*%
X51000000Y54000000D03*
%TD*%
D36*
%TO.P,J5,R*%
%TO.N,Net-(C2-Pad1)*%
X-32080000Y49600000D03*
%TO.P,J5,S*%
%TO.N,GNDA*%
X-34080000Y56600000D03*
%TO.P,J5,T*%
%TO.N,Net-(C40-Pad1)*%
X-27080000Y56600000D03*
%TD*%
D37*
%TO.P,C20,1*%
%TO.N,/PSU/PoE_VDC+*%
X-26750000Y-16410000D03*
%TO.P,C20,2*%
%TO.N,GND*%
X-26750000Y-10810000D03*
%TD*%
D38*
%TO.P,J4,1,TRCT3*%
%TO.N,Net-(J4-TRCT3)*%
X-13800000Y11850000D03*
%TO.P,J4,2,TRD3-*%
%TO.N,/Ethernet/RGMII0_TRN2*%
X-13800000Y9820000D03*
%TO.P,J4,3,TRD3+*%
%TO.N,/Ethernet/RGMII0_TRP2*%
X-13800000Y7790000D03*
%TO.P,J4,4,TRD2+*%
%TO.N,/Ethernet/RGMII0_TRP1*%
X-13800000Y5760000D03*
%TO.P,J4,5,TRD2-*%
%TO.N,/Ethernet/RGMII0_TRN1*%
X-13800000Y3730000D03*
%TO.P,J4,6,TRCT2*%
%TO.N,Net-(J4-TRCT2)*%
X-13800000Y1700000D03*
%TO.P,J4,7,TRCT4*%
%TO.N,Net-(J4-TRCT4)*%
X-11260000Y12870000D03*
%TO.P,J4,8,TRD4+*%
%TO.N,/Ethernet/RGMII0_TRP3*%
X-11260000Y10830000D03*
%TO.P,J4,9,TRD4-*%
%TO.N,/Ethernet/RGMII0_TRN3*%
X-11260000Y8790000D03*
%TO.P,J4,10,TRD1-*%
%TO.N,/Ethernet/RGMII0_TRN0*%
X-11260000Y4740000D03*
%TO.P,J4,11,TRD1+*%
%TO.N,/Ethernet/RGMII0_TRP0*%
X-11260000Y2700000D03*
%TO.P,J4,12,TRCT1*%
%TO.N,Net-(J4-TRCT1)*%
X-11260000Y660000D03*
D39*
%TO.P,J4,13,VCC+_12*%
%TO.N,/Ethernet/POE_PR12*%
X-20910000Y12355000D03*
%TO.P,J4,14,VCC-_36*%
%TO.N,/Ethernet/POE_PR36*%
X-20910000Y1175000D03*
%TO.P,J4,15,VCC+_45*%
%TO.N,/Ethernet/POE_PR45*%
X-22460000Y12355000D03*
%TO.P,J4,16,VCC-_78*%
%TO.N,/Ethernet/POE_PR78*%
X-22460000Y1175000D03*
D40*
%TO.P,J4,S1,S1*%
%TO.N,Earth_Clean*%
X-32220000Y-1410000D03*
%TO.P,J4,S2,S2*%
X-32220000Y14940000D03*
%TD*%
D18*
%TO.P,C38,1*%
%TO.N,/SOM/PS_WARMRESET_IN*%
X14700000Y52740000D03*
%TO.P,C38,2*%
%TO.N,GND*%
X15260000Y52740000D03*
%TD*%
D41*
%TO.P,U10,1,CPVDD*%
%TO.N,+3.3VA*%
X-20600000Y46760000D03*
%TO.P,U10,2,CAPP*%
%TO.N,Net-(U10-CAPP)*%
X-19950000Y46760000D03*
%TO.P,U10,3,CPGND*%
%TO.N,GNDA*%
X-19300000Y46760000D03*
%TO.P,U10,4,CAPM*%
%TO.N,Net-(U10-CAPM)*%
X-18650000Y46760000D03*
%TO.P,U10,5,VNEG*%
%TO.N,Net-(U10-VNEG)*%
X-18000000Y46760000D03*
%TO.P,U10,6,OUTL*%
%TO.N,/DAC/OUTL*%
X-17350000Y46760000D03*
%TO.P,U10,7,OUTR*%
%TO.N,/DAC/OUTR*%
X-16700000Y46760000D03*
%TO.P,U10,8,AVDD*%
%TO.N,+3.3VA*%
X-16050000Y46760000D03*
%TO.P,U10,9,AGND*%
%TO.N,GNDA*%
X-15400000Y46760000D03*
%TO.P,U10,10,DEMP*%
%TO.N,GND*%
X-14750000Y46760000D03*
%TO.P,U10,11,FLT*%
X-14750000Y41035000D03*
%TO.P,U10,12,SCK*%
X-15400000Y41035000D03*
%TO.P,U10,13,BCK*%
%TO.N,/DAC/I2S_BCK*%
X-16050000Y41035000D03*
%TO.P,U10,14,DIN*%
%TO.N,/DAC/I2S_DIN*%
X-16700000Y41035000D03*
%TO.P,U10,15,LRCK*%
%TO.N,/DAC/I2S_LRCK*%
X-17350000Y41035000D03*
%TO.P,U10,16,FMT*%
%TO.N,GND*%
X-18000000Y41035000D03*
%TO.P,U10,17,XSMT*%
%TO.N,Net-(U10-XSMT)*%
X-18650000Y41035000D03*
%TO.P,U10,18,LDOO*%
%TO.N,/DAC/LDOO*%
X-19300000Y41035000D03*
%TO.P,U10,19,DGND*%
%TO.N,GND*%
X-19950000Y41035000D03*
%TO.P,U10,20,DVDD*%
%TO.N,+1V8*%
X-20600000Y41035000D03*
%TD*%
D42*
%TO.P,J1,1,VCC*%
%TO.N,VDD_5V*%
X-29427500Y31170000D03*
D43*
%TO.P,J1,2,D-*%
%TO.N,/SOM/USB_D-*%
X-29427500Y33670000D03*
%TO.P,J1,3,D+*%
%TO.N,/SOM/USB_D+*%
X-29427500Y35670000D03*
%TO.P,J1,4,GND*%
%TO.N,GND*%
X-29427500Y38170000D03*
D44*
%TO.P,J1,S1,SHIELD*%
%TO.N,Earth_Clean*%
X-30627500Y28270000D03*
%TO.P,J1,S2,SHIELD__1*%
X-30627500Y41070000D03*
%TD*%
D18*
%TO.P,C32,1*%
%TO.N,/PSU/VBUS_TVS*%
X-20190000Y26180000D03*
%TO.P,C32,2*%
%TO.N,GNDPWR*%
X-19630000Y26180000D03*
%TD*%
D22*
%TO.P,C24,1*%
%TO.N,/DAC/LDOO*%
X-21630000Y41310000D03*
%TO.P,C24,2*%
%TO.N,GND*%
X-21630000Y40750000D03*
%TD*%
D24*
%TO.P,D10,1,K*%
%TO.N,Net-(D10-K)*%
X-4890000Y-1590000D03*
%TO.P,D10,2,A*%
%TO.N,/Ethernet/RGMII0_LED_ACT*%
X-4890000Y-2560000D03*
%TD*%
D45*
%TO.P,C19,1*%
%TO.N,+5V*%
X29470000Y43430000D03*
%TO.P,C19,2*%
%TO.N,GND*%
X29470000Y42870000D03*
%TD*%
D30*
%TO.P,R12,1*%
%TO.N,/DAC/OUTR*%
X-17736013Y50359254D03*
%TO.P,R12,2*%
%TO.N,Net-(C2-Pad1)*%
X-18457261Y51080502D03*
%TD*%
D45*
%TO.P,C18,1*%
%TO.N,3V3_MIC*%
X30720000Y43430000D03*
%TO.P,C18,2*%
%TO.N,GND*%
X30720000Y42870000D03*
%TD*%
D46*
%TO.P,D7,1*%
%TO.N,/Ethernet/RGMII0_TRP2*%
X-1324073Y5295875D03*
%TO.P,D7,2*%
%TO.N,/Ethernet/RGMII0_TRN2*%
X-1005875Y5614073D03*
D47*
%TO.P,D7,3*%
%TO.N,GND*%
X-670000Y4960000D03*
%TD*%
D19*
%TO.P,FID4,*%
%TO.N,*%
X51000000Y-14000000D03*
%TD*%
D48*
%TO.P,J7,1,Pin_1*%
%TO.N,/SOM/JTAG_TMS*%
X-8025001Y24650000D03*
%TO.P,J7,2,Pin_2*%
%TO.N,/SOM/UART_RX_3V3*%
X-2974999Y24650000D03*
%TO.P,J7,3,Pin_3*%
%TO.N,/SOM/JTAG_TDI*%
X-8025000Y27190000D03*
%TO.P,J7,4,Pin_4*%
%TO.N,/SOM/UART_TX_3V3*%
X-2975000Y27190000D03*
%TO.P,J7,5,Pin_5*%
%TO.N,/SOM/JTAG_TDO*%
X-8025000Y29730000D03*
%TO.P,J7,6,Pin_6*%
%TO.N,GND*%
X-2975000Y29730000D03*
%TO.P,J7,7,Pin_7*%
%TO.N,/SOM/JTAG_TCK*%
X-8025000Y32270000D03*
%TO.P,J7,8,Pin_8*%
%TO.N,/SOM/EXT_RST_IN*%
X-2975000Y32270000D03*
%TO.P,J7,9,Pin_9*%
%TO.N,GND*%
X-8025000Y34810000D03*
%TO.P,J7,10,Pin_10*%
%TO.N,/SOM/FPGA_DONE*%
X-2975000Y34810000D03*
%TO.P,J7,11,Pin_11*%
%TO.N,+3V3*%
X-8025001Y37350000D03*
%TO.P,J7,12,Pin_12*%
X-2974999Y37350000D03*
%TD*%
D29*
%TO.P,M1,1,VDD_5V*%
%TO.N,+5V*%
X10700000Y-7600000D03*
%TO.P,M1,2,VDD_5V*%
X6300000Y-7600000D03*
%TO.P,M1,3,VDD_5V*%
X10700000Y-6800000D03*
%TO.P,M1,4,VDD_5V*%
X6300000Y-6800000D03*
%TO.P,M1,5,GND*%
%TO.N,GND*%
X10700000Y-6000000D03*
%TO.P,M1,6,GND*%
X6300000Y-6000000D03*
%TO.P,M1,7,RGMII0_TRP0*%
%TO.N,/Ethernet/RGMII0_TRP0*%
X10700000Y-5200000D03*
%TO.P,M1,8,GND*%
%TO.N,GND*%
X6300000Y-5200000D03*
%TO.P,M1,9,RGMII0_TRN0*%
%TO.N,/Ethernet/RGMII0_TRN0*%
X10700000Y-4400000D03*
%TO.P,M1,10,RGMII0_TRP1*%
%TO.N,/Ethernet/RGMII0_TRP1*%
X6300000Y-4400000D03*
%TO.P,M1,11,GND*%
%TO.N,GND*%
X10700000Y-3600000D03*
%TO.P,M1,12,RGMII0_TRN1*%
%TO.N,/Ethernet/RGMII0_TRN1*%
X6300000Y-3600000D03*
%TO.P,M1,13,RGMII0_TRP2*%
%TO.N,/Ethernet/RGMII0_TRP2*%
X10700000Y-2800000D03*
%TO.P,M1,14,GND*%
%TO.N,GND*%
X6300000Y-2800000D03*
%TO.P,M1,15,RGMII0_TRN2*%
%TO.N,/Ethernet/RGMII0_TRN2*%
X10700000Y-2000000D03*
%TO.P,M1,16,RGMII0_TRP3*%
%TO.N,/Ethernet/RGMII0_TRP3*%
X6300000Y-2000000D03*
%TO.P,M1,17,GND*%
%TO.N,GND*%
X10700000Y-1200000D03*
%TO.P,M1,18,RGMII0_TRN3*%
%TO.N,/Ethernet/RGMII0_TRN3*%
X6300000Y-1200000D03*
%TO.P,M1,19,USB_PHY_DP*%
%TO.N,/SOM/FPGA_USB_D+*%
X10700000Y-400000D03*
%TO.P,M1,20,GND*%
%TO.N,GND*%
X6300000Y-400000D03*
%TO.P,M1,21,USB_PHY_DM*%
%TO.N,/SOM/FPGA_USB_D-*%
X10700000Y400000D03*
%TO.P,M1,22,MDIO_CK*%
%TO.N,unconnected-(M1-MDIO_CK-Pad22)*%
X6300000Y400000D03*
%TO.P,M1,23,GND*%
%TO.N,GND*%
X10700000Y1200000D03*
%TO.P,M1,24,MDIO_DATA*%
%TO.N,unconnected-(M1-MDIO_DATA-Pad24)*%
X6300000Y1200000D03*
%TO.P,M1,25,USB_PHY_ID*%
%TO.N,unconnected-(M1-USB_PHY_ID-Pad25)*%
X10700000Y2000000D03*
%TO.P,M1,26,RGMII0_LED_ACT*%
%TO.N,/SOM/RGMII_LED_ACT*%
X6300000Y2000000D03*
%TO.P,M1,27,USB_PHY_VBUS*%
%TO.N,unconnected-(M1-USB_PHY_VBUS-Pad27)*%
X10700000Y2800000D03*
%TO.P,M1,28,RGMII0_LED_LINK*%
%TO.N,/SOM/RGMII_LED_LINK*%
X6300000Y2800000D03*
%TO.P,M1,29,IO_B35_0*%
%TO.N,unconnected-(M1-IO_B35_0-Pad29)*%
X10700000Y3600000D03*
%TO.P,M1,30,VBUS_SW_EN*%
%TO.N,unconnected-(M1-VBUS_SW_EN-Pad30)*%
X6300000Y3600000D03*
%TO.P,M1,31,IO_B35_LP7*%
%TO.N,unconnected-(M1-IO_B35_LP7-Pad31)*%
X10700000Y4400000D03*
%TO.P,M1,32,GND*%
%TO.N,GND*%
X6300000Y4400000D03*
%TO.P,M1,33,IO_B35_LN7*%
%TO.N,unconnected-(M1-IO_B35_LN7-Pad33)*%
X10700000Y5200000D03*
%TO.P,M1,34,IO_B35_LP18*%
%TO.N,unconnected-(M1-IO_B35_LP18-Pad34)*%
X6300000Y5200000D03*
%TO.P,M1,35,IO_B35_LP21*%
%TO.N,unconnected-(M1-IO_B35_LP21-Pad35)*%
X10700000Y6000000D03*
%TO.P,M1,36,IO_B35_LN18*%
%TO.N,unconnected-(M1-IO_B35_LN18-Pad36)*%
X6300000Y6000000D03*
%TO.P,M1,37,IO_B35_LN21*%
%TO.N,unconnected-(M1-IO_B35_LN21-Pad37)*%
X10700000Y6800000D03*
%TO.P,M1,38,IO_B35_LP9*%
%TO.N,unconnected-(M1-IO_B35_LP9-Pad38)*%
X6300000Y6800000D03*
%TO.P,M1,39,IO_B35_LP17*%
%TO.N,unconnected-(M1-IO_B35_LP17-Pad39)*%
X10700000Y7600000D03*
%TO.P,M1,40,IO_B35_LN9*%
%TO.N,unconnected-(M1-IO_B35_LN9-Pad40)*%
X6300000Y7600000D03*
%TO.P,M1,41,IO_B35_LN17*%
%TO.N,unconnected-(M1-IO_B35_LN17-Pad41)*%
X10700000Y8400000D03*
%TO.P,M1,42,IO_B35_LP11*%
%TO.N,unconnected-(M1-IO_B35_LP11-Pad42)*%
X6300000Y8400000D03*
%TO.P,M1,43,GND*%
%TO.N,GND*%
X10700000Y9200000D03*
%TO.P,M1,44,IO_B35_LN11*%
%TO.N,unconnected-(M1-IO_B35_LN11-Pad44)*%
X6300000Y9200000D03*
%TO.P,M1,45,IO_B35_LP1*%
%TO.N,unconnected-(M1-IO_B35_LP1-Pad45)*%
X10700000Y10000000D03*
%TO.P,M1,46,GND*%
%TO.N,GND*%
X6300000Y10000000D03*
%TO.P,M1,47,IO_B35_LN1*%
%TO.N,unconnected-(M1-IO_B35_LN1-Pad47)*%
X10700000Y10800000D03*
%TO.P,M1,48,IO_B35_LP4*%
%TO.N,unconnected-(M1-IO_B35_LP4-Pad48)*%
X6300000Y10800000D03*
%TO.P,M1,49,IO_B35_LP15*%
%TO.N,unconnected-(M1-IO_B35_LP15-Pad49)*%
X10700000Y11600000D03*
%TO.P,M1,50,IO_B35_LN4*%
%TO.N,unconnected-(M1-IO_B35_LN4-Pad50)*%
X6300000Y11600000D03*
%TO.P,M1,51,IO_B35_LN15*%
%TO.N,unconnected-(M1-IO_B35_LN15-Pad51)*%
X10700000Y12400000D03*
%TO.P,M1,52,IO_B35_LP8*%
%TO.N,unconnected-(M1-IO_B35_LP8-Pad52)*%
X6300000Y12400000D03*
%TO.P,M1,53,GND*%
%TO.N,GND*%
X10700000Y13200000D03*
%TO.P,M1,54,IO_B35_LN8*%
%TO.N,unconnected-(M1-IO_B35_LN8-Pad54)*%
X6300000Y13200000D03*
%TO.P,M1,55,IO_B35_LP12*%
%TO.N,unconnected-(M1-IO_B35_LP12-Pad55)*%
X10700000Y14000000D03*
%TO.P,M1,56,IO_B35_LP16*%
%TO.N,unconnected-(M1-IO_B35_LP16-Pad56)*%
X6300000Y14000000D03*
%TO.P,M1,57,IO_B35_LN12*%
%TO.N,unconnected-(M1-IO_B35_LN12-Pad57)*%
X10700000Y14800000D03*
%TO.P,M1,58,IO_B35_LN16*%
%TO.N,unconnected-(M1-IO_B35_LN16-Pad58)*%
X6300000Y14800000D03*
%TO.P,M1,59,VDDIO_35_PL*%
%TO.N,+3V3*%
X10700000Y15600000D03*
%TO.P,M1,60,VDDIO_35_PL*%
X6300000Y15600000D03*
%TO.P,M1,61,GND*%
%TO.N,GND*%
X10700000Y16400000D03*
%TO.P,M1,62,GND*%
X6300000Y16400000D03*
%TO.P,M1,63,IO_B35_LP5*%
%TO.N,unconnected-(M1-IO_B35_LP5-Pad63)*%
X10700000Y17200000D03*
%TO.P,M1,64,IO_B35_LP10*%
%TO.N,unconnected-(M1-IO_B35_LP10-Pad64)*%
X6300000Y17200000D03*
%TO.P,M1,65,IO_B35_LN5*%
%TO.N,unconnected-(M1-IO_B35_LN5-Pad65)*%
X10700000Y18000000D03*
%TO.P,M1,66,IO_B35_LN10*%
%TO.N,unconnected-(M1-IO_B35_LN10-Pad66)*%
X6300000Y18000000D03*
%TO.P,M1,67,IO_B35_LP3*%
%TO.N,unconnected-(M1-IO_B35_LP3-Pad67)*%
X10700000Y18800000D03*
%TO.P,M1,68,IO_B35_LP14*%
%TO.N,unconnected-(M1-IO_B35_LP14-Pad68)*%
X6300000Y18800000D03*
%TO.P,M1,69,IO_B35_LN3*%
%TO.N,unconnected-(M1-IO_B35_LN3-Pad69)*%
X10700000Y19600000D03*
%TO.P,M1,70,IO_B35_LN14*%
%TO.N,unconnected-(M1-IO_B35_LN14-Pad70)*%
X6300000Y19600000D03*
%TO.P,M1,71,IO_B35_LP2*%
%TO.N,unconnected-(M1-IO_B35_LP2-Pad71)*%
X10700000Y20400000D03*
%TO.P,M1,72,IO_B35_LP6*%
%TO.N,unconnected-(M1-IO_B35_LP6-Pad72)*%
X6300000Y20400000D03*
%TO.P,M1,73,IO_B35_LN2*%
%TO.N,unconnected-(M1-IO_B35_LN2-Pad73)*%
X10700000Y21200000D03*
%TO.P,M1,74,IO_B35_LN6*%
%TO.N,unconnected-(M1-IO_B35_LN6-Pad74)*%
X6300000Y21200000D03*
%TO.P,M1,75,GND*%
%TO.N,GND*%
X10700000Y22000000D03*
%TO.P,M1,76,GND*%
X6300000Y22000000D03*
%TO.P,M1,77,IO_B35_LP13*%
%TO.N,unconnected-(M1-IO_B35_LP13-Pad77)*%
X10700000Y22800000D03*
%TO.P,M1,78,IO_B35_LP24*%
%TO.N,unconnected-(M1-IO_B35_LP24-Pad78)*%
X6300000Y22800000D03*
%TO.P,M1,79,IO_B35_LN13*%
%TO.N,unconnected-(M1-IO_B35_LN13-Pad79)*%
X10700000Y23600000D03*
%TO.P,M1,80,IO_B35_LN24*%
%TO.N,unconnected-(M1-IO_B35_LN24-Pad80)*%
X6300000Y23600000D03*
%TO.P,M1,81,GND*%
%TO.N,GND*%
X10700000Y24400000D03*
%TO.P,M1,82,IO_B35_LP20*%
%TO.N,unconnected-(M1-IO_B35_LP20-Pad82)*%
X6300000Y24400000D03*
%TO.P,M1,83,IO_B35_LP19*%
%TO.N,unconnected-(M1-IO_B35_LP19-Pad83)*%
X10700000Y25200000D03*
%TO.P,M1,84,IO_B35_LN20*%
%TO.N,unconnected-(M1-IO_B35_LN20-Pad84)*%
X6300000Y25200000D03*
%TO.P,M1,85,IO_B35_LN19*%
%TO.N,unconnected-(M1-IO_B35_LN19-Pad85)*%
X10700000Y26000000D03*
%TO.P,M1,86,IO_B35_LP22*%
%TO.N,/DAC/I2S_LRCK*%
X6300000Y26000000D03*
%TO.P,M1,87,IO_B35_LP23*%
%TO.N,unconnected-(M1-IO_B35_LP23-Pad87)*%
X10700000Y26800000D03*
%TO.P,M1,88,IO_B35_LN22*%
%TO.N,/DAC/I2S_DIN*%
X6300000Y26800000D03*
%TO.P,M1,89,IO_B35_LN23*%
%TO.N,/SOM/LED0*%
X10700000Y27600000D03*
%TO.P,M1,90,IO_B35_25*%
%TO.N,/DAC/I2S_BCK*%
X6300000Y27600000D03*
%TO.P,M1,91,GND*%
%TO.N,GND*%
X10700000Y28400000D03*
%TO.P,M1,92,GND*%
X6300000Y28400000D03*
%TO.P,M1,93,XADC_VCC*%
%TO.N,unconnected-(M1-XADC_VCC-Pad93)*%
X10700000Y29200000D03*
%TO.P,M1,94,JTAG_TCK*%
%TO.N,/SOM/JTAG_TCK*%
X6300000Y29200000D03*
%TO.P,M1,95,XADC_INP0*%
%TO.N,unconnected-(M1-XADC_INP0-Pad95)*%
X10700000Y30000000D03*
%TO.P,M1,96,JTAG_TMS*%
%TO.N,/SOM/JTAG_TMS*%
X6300000Y30000000D03*
%TO.P,M1,97,XADC_INN0*%
%TO.N,unconnected-(M1-XADC_INN0-Pad97)*%
X10700000Y30800000D03*
%TO.P,M1,98,JTAG_TDI*%
%TO.N,/SOM/JTAG_TDI*%
X6300000Y30800000D03*
%TO.P,M1,99,XADC_TEMP_P*%
%TO.N,unconnected-(M1-XADC_TEMP_P-Pad99)*%
X10700000Y31600000D03*
%TO.P,M1,100,JTAG_TDO*%
%TO.N,/SOM/JTAG_TDO*%
X6300000Y31600000D03*
%TO.P,M1,101,XADC_TEMP_N*%
%TO.N,unconnected-(M1-XADC_TEMP_N-Pad101)*%
X10700000Y32400000D03*
%TO.P,M1,102,GND*%
%TO.N,GND*%
X6300000Y32400000D03*
%TO.P,M1,103,XADC_GND*%
%TO.N,unconnected-(M1-XADC_GND-Pad103)*%
X10700000Y33200000D03*
%TO.P,M1,104,SDIO0_CLK*%
%TO.N,/SD/SD_CLK*%
X6300000Y33200000D03*
%TO.P,M1,105,GND*%
%TO.N,GND*%
X10700000Y34000000D03*
%TO.P,M1,106,SDIO0_CMD*%
%TO.N,/SD/SD_CMD*%
X6300000Y34000000D03*
%TO.P,M1,107,PS_MIO0*%
%TO.N,unconnected-(M1-PS_MIO0-Pad107)*%
X10700000Y34800000D03*
%TO.P,M1,108,SDIO0_D1*%
%TO.N,/SD/SD_D0*%
X6300000Y34800000D03*
%TO.P,M1,109,S_JTAG_H*%
%TO.N,/SOM/S_JTAG_H*%
X10700000Y35600000D03*
%TO.P,M1,110,SDIO0_D2*%
%TO.N,/SD/SD_D1*%
X6300000Y35600000D03*
%TO.P,M1,111,SD_BOOT_CONF_H*%
%TO.N,/SOM/SD_BOOT_CONF_H*%
X10700000Y36400000D03*
%TO.P,M1,112,SDIO0_D3*%
%TO.N,/SD/SD_D2*%
X6300000Y36400000D03*
%TO.P,M1,113,PS_MIO8*%
%TO.N,unconnected-(M1-PS_MIO8-Pad113)*%
X10700000Y37200000D03*
%TO.P,M1,114,SDIO0_D4*%
%TO.N,/SD/SD_D3*%
X6300000Y37200000D03*
%TO.P,M1,115,PS_MIO9*%
%TO.N,unconnected-(M1-PS_MIO9-Pad115)*%
X10700000Y38000000D03*
%TO.P,M1,116,SDIO0_CD*%
%TO.N,/SD/SD_CD*%
X6300000Y38000000D03*
%TO.P,M1,117,PS_MIO10*%
%TO.N,unconnected-(M1-PS_MIO10-Pad117)*%
X10700000Y38800000D03*
%TO.P,M1,118,SDIO0_WP*%
%TO.N,/SOM/SD_WP*%
X6300000Y38800000D03*
%TO.P,M1,119,PS_MIO11*%
%TO.N,unconnected-(M1-PS_MIO11-Pad119)*%
X10700000Y39600000D03*
%TO.P,M1,120,GND*%
%TO.N,GND*%
X6300000Y39600000D03*
%TO.P,M1,121,PS_MIO12*%
%TO.N,unconnected-(M1-PS_MIO12-Pad121)*%
X10700000Y40400000D03*
%TO.P,M1,122,UART1_TX*%
%TO.N,/SOM/UART_TX*%
X6300000Y40400000D03*
%TO.P,M1,123,PS_MIO13*%
%TO.N,unconnected-(M1-PS_MIO13-Pad123)*%
X10700000Y41200000D03*
%TO.P,M1,124,UART1_RX*%
%TO.N,/SOM/UART_RX*%
X6300000Y41200000D03*
%TO.P,M1,125,PS_MIO14*%
%TO.N,unconnected-(M1-PS_MIO14-Pad125)*%
X10700000Y42000000D03*
%TO.P,M1,126,PS_501_MIO_50*%
%TO.N,unconnected-(M1-PS_501_MIO_50-Pad126)*%
X6300000Y42000000D03*
%TO.P,M1,127,PS_MIO15*%
%TO.N,unconnected-(M1-PS_MIO15-Pad127)*%
X10700000Y42800000D03*
%TO.P,M1,128,PS_501_MIO_51*%
%TO.N,unconnected-(M1-PS_501_MIO_51-Pad128)*%
X6300000Y42800000D03*
%TO.P,M1,129,GND*%
%TO.N,GND*%
X10700000Y43600000D03*
%TO.P,M1,130,FPGA_INITn*%
%TO.N,unconnected-(M1-FPGA_INITn-Pad130)*%
X6300000Y43600000D03*
%TO.P,M1,131,Sys_PG*%
%TO.N,unconnected-(M1-Sys_PG-Pad131)*%
X10700000Y44400000D03*
%TO.P,M1,132,FPGA_WARMRESETn*%
%TO.N,unconnected-(M1-FPGA_WARMRESETn-Pad132)*%
X6300000Y44400000D03*
%TO.P,M1,133,PS_500_RESET_OUTn*%
%TO.N,unconnected-(M1-PS_500_RESET_OUTn-Pad133)*%
X10700000Y45200000D03*
%TO.P,M1,134,FPGA_INIT_DONE*%
%TO.N,/SOM/FPGA_DONE*%
X6300000Y45200000D03*
%TO.P,M1,135,PS_WARMRESET_INn*%
%TO.N,/SOM/PS_WARMRESET_IN*%
X10700000Y46000000D03*
%TO.P,M1,136,VBAT_KEY_BACK_1.8V*%
%TO.N,unconnected-(M1-VBAT_KEY_BACK_1.8V-Pad136)*%
X6300000Y46000000D03*
%TO.P,M1,137,eMMC_RSTn*%
%TO.N,unconnected-(M1-eMMC_RSTn-Pad137)*%
X10700000Y46800000D03*
%TO.P,M1,138,VDDIO_501_PS*%
%TO.N,VDDIO_501_PS*%
X6300000Y46800000D03*
%TO.P,M1,139,VDDIO_500_PS*%
%TO.N,VDDIO_500_3V3*%
X10700000Y47600000D03*
%TO.P,M1,140,GND*%
%TO.N,GND*%
X6300000Y47600000D03*
%TD*%
D49*
%TO.P,U9,1,VCCA*%
%TO.N,VDDIO_34_3V3*%
X40100000Y19550000D03*
%TO.P,U9,2,A1*%
%TO.N,/SOM/SYNC_OUT*%
X39699999Y19550000D03*
%TO.P,U9,3,A2*%
%TO.N,GND*%
X39300001Y19550000D03*
%TO.P,U9,4,GND*%
X38900000Y19550000D03*
%TO.P,U9,5,OE*%
%TO.N,VDDIO_34_3V3*%
X38900000Y20450000D03*
%TO.P,U9,6,B2*%
%TO.N,unconnected-(U9-B2-Pad6)*%
X39300001Y20450000D03*
%TO.P,U9,7,B1*%
%TO.N,/SOM/SYNC_OUT_5V*%
X39699999Y20450000D03*
%TO.P,U9,8,VCCB*%
%TO.N,+5V*%
X40100000Y20450000D03*
%TD*%
D50*
%TO.P,J9,1,Pin_1*%
%TO.N,+3V3*%
X-6775000Y44275000D03*
D51*
%TO.P,J9,2,Pin_2*%
X-6775000Y41735000D03*
%TO.P,J9,3,Pin_3*%
%TO.N,/SOM/SD_BOOT_CONF_H*%
X-4235000Y44275000D03*
%TO.P,J9,4,Pin_4*%
%TO.N,/SOM/S_JTAG_H*%
X-4235000Y41735000D03*
%TD*%
D52*
%TO.P,U8,1,IN*%
%TO.N,/PSU/VBUS_TVS*%
X-23089958Y25210000D03*
%TO.P,U8,2,IN*%
X-22439972Y25210000D03*
%TO.P,U8,3,IN*%
X-21789986Y25210000D03*
%TO.P,U8,4,IN*%
X-21140000Y25210000D03*
%TO.P,U8,5,GND*%
%TO.N,GNDPWR*%
X-21140000Y22314400D03*
%TO.P,U8,6,GND*%
X-21789986Y22314400D03*
%TO.P,U8,7,GND*%
X-22439972Y22314400D03*
%TO.P,U8,8,GND*%
X-23089958Y22314400D03*
D53*
%TO.P,U8,9,EPAD/FLOAT*%
%TO.N,unconnected-(U8-EPAD{slash}FLOAT-Pad9)*%
X-22114979Y23762200D03*
%TD*%
D46*
%TO.P,D6,1*%
%TO.N,/Ethernet/RGMII0_TRP1*%
X-2390000Y1260000D03*
%TO.P,D6,2*%
%TO.N,/Ethernet/RGMII0_TRN1*%
X-2071802Y1578198D03*
D47*
%TO.P,D6,3*%
%TO.N,GND*%
X-1735927Y924125D03*
%TD*%
D23*
%TO.P,TP3,1,1*%
%TO.N,Net-(C2-Pad1)*%
X-24000000Y55500000D03*
%TD*%
D46*
%TO.P,D8,1*%
%TO.N,/Ethernet/RGMII0_TRP3*%
X-2588198Y4051802D03*
%TO.P,D8,2*%
%TO.N,/Ethernet/RGMII0_TRN3*%
X-2270000Y4370000D03*
D47*
%TO.P,D8,3*%
%TO.N,GND*%
X-1934125Y3715927D03*
%TD*%
D45*
%TO.P,C4,1*%
%TO.N,+3V3*%
X2270000Y49440000D03*
%TO.P,C4,2*%
%TO.N,GND*%
X2270000Y50000000D03*
%TD*%
D54*
%TO.P,R5,1*%
%TO.N,GND*%
X-3870000Y-1565001D03*
%TO.P,R5,2*%
%TO.N,Net-(D10-K)*%
X-3870000Y-2584999D03*
%TD*%
D55*
%TO.P,J2,A1,GND*%
%TO.N,GNDPWR*%
X-30542500Y19102499D03*
%TO.P,J2,A4,VBUS*%
%TO.N,/PSU/VBUS*%
X-30542500Y19952499D03*
%TO.P,J2,A5,CC1*%
%TO.N,Net-(J2-CC1)*%
X-30542500Y20802500D03*
%TO.P,J2,A6,D+*%
%TO.N,unconnected-(J2-D+-PadA6)*%
X-30542500Y21652499D03*
%TO.P,J2,A7,D-*%
%TO.N,unconnected-(J2-D--PadA7)*%
X-30542500Y22502499D03*
%TO.P,J2,A8,SBU1*%
%TO.N,unconnected-(J2-SBU1-PadA8)*%
X-30542500Y23352499D03*
%TO.P,J2,A9,VBUS*%
%TO.N,/PSU/VBUS*%
X-30542500Y24202500D03*
%TO.P,J2,A12,GND*%
%TO.N,GNDPWR*%
X-30542500Y25052499D03*
%TO.P,J2,B1,GND*%
X-31892500Y25052499D03*
%TO.P,J2,B4,VBUS*%
%TO.N,/PSU/VBUS*%
X-31892500Y24202499D03*
%TO.P,J2,B5,CC2*%
%TO.N,Net-(J2-CC2)*%
X-31892500Y23352499D03*
%TO.P,J2,B6,D+*%
%TO.N,unconnected-(J2-D+-PadB6)*%
X-31892500Y22502499D03*
%TO.P,J2,B7,D-*%
%TO.N,unconnected-(J2-D--PadB7)*%
X-31892500Y21652499D03*
%TO.P,J2,B8,SBU2*%
%TO.N,unconnected-(J2-SBU2-PadB8)*%
X-31892500Y20802499D03*
%TO.P,J2,B9,VBUS*%
%TO.N,/PSU/VBUS*%
X-31892500Y19952499D03*
%TO.P,J2,B12,GND*%
%TO.N,GNDPWR*%
X-31892500Y19102499D03*
D56*
%TO.P,J2,S1,SHIELD*%
%TO.N,Earth_Clean*%
X-34902500Y17752499D03*
D57*
X-31522500Y17752499D03*
D56*
X-34902500Y26402499D03*
D57*
X-31522500Y26402499D03*
%TD*%
D49*
%TO.P,U12,1,VCCA*%
%TO.N,VDDIO_34_3V3*%
X38900000Y14450000D03*
%TO.P,U12,2,A1*%
%TO.N,/SOM/SYNC_IN*%
X39300001Y14450000D03*
%TO.P,U12,3,A2*%
%TO.N,GND*%
X39699999Y14450000D03*
%TO.P,U12,4,GND*%
X40100000Y14450000D03*
%TO.P,U12,5,OE*%
%TO.N,VDDIO_34_3V3*%
X40100000Y13550000D03*
%TO.P,U12,6,B2*%
%TO.N,unconnected-(U12-B2-Pad6)*%
X39699999Y13550000D03*
%TO.P,U12,7,B1*%
%TO.N,/SOM/SYNC_IN_5V*%
X39300001Y13550000D03*
%TO.P,U12,8,VCCB*%
%TO.N,+5V*%
X38900000Y13550000D03*
%TD*%
D18*
%TO.P,C35,1*%
%TO.N,/PSU/VBUS_TVS*%
X-20182500Y27002499D03*
%TO.P,C35,2*%
%TO.N,GNDPWR*%
X-19622500Y27002499D03*
%TD*%
D58*
%TO.P,F1,1,1*%
%TO.N,/PSU/VBUS*%
X-28077500Y23252499D03*
%TO.P,F1,2,2*%
%TO.N,/PSU/VBUS_TVS*%
X-24727500Y23252499D03*
%TD*%
D59*
%TO.P,U6,1,1A*%
%TO.N,/SOM/RGMII_LED_LINK*%
X1660000Y11119999D03*
%TO.P,U6,2,GND*%
%TO.N,GND*%
X1660000Y10170000D03*
%TO.P,U6,3,2A*%
%TO.N,/SOM/RGMII_LED_ACT*%
X1660000Y9220001D03*
%TO.P,U6,4,2Y*%
%TO.N,/Ethernet/RGMII0_LED_ACT*%
X-615000Y9220001D03*
%TO.P,U6,5,VCC*%
%TO.N,+3V3*%
X-615000Y10170000D03*
%TO.P,U6,6,1Y*%
%TO.N,/Ethernet/RGMII0_LED_LINK*%
X-615000Y11119999D03*
%TD*%
D19*
%TO.P,FID3,*%
%TO.N,*%
X4000000Y-14000000D03*
%TD*%
D54*
%TO.P,R3,1*%
%TO.N,GND*%
X-3870000Y15620000D03*
%TO.P,R3,2*%
%TO.N,Net-(D9-K)*%
X-3870000Y14600002D03*
%TD*%
D46*
%TO.P,D5,1*%
%TO.N,/Ethernet/RGMII0_TRP0*%
X-3596586Y-51612D03*
%TO.P,D5,2*%
%TO.N,/Ethernet/RGMII0_TRN0*%
X-3278388Y266586D03*
D47*
%TO.P,D5,3*%
%TO.N,GND*%
X-2942513Y-387487D03*
%TD*%
D60*
%TO.P,R16,1*%
%TO.N,GND*%
X-7890001Y55910000D03*
%TO.P,R16,2*%
%TO.N,Net-(D2-K)*%
X-8909999Y55910000D03*
%TD*%
D19*
%TO.P,FID10,*%
%TO.N,*%
X-23030000Y37970000D03*
%TD*%
D61*
%TO.N,+5V*%
X9430000Y-6820000D03*
D62*
X40400000Y20440000D03*
X49680000Y-7580000D03*
X49500000Y-6800000D03*
D61*
X11950000Y-6780000D03*
D62*
X20790000Y54260000D03*
X51830000Y-6810000D03*
X56270000Y-7620000D03*
D61*
X9970000Y-8240000D03*
D63*
X19000000Y53280000D03*
D62*
X38630000Y13540000D03*
D61*
X29460000Y44000000D03*
X5096483Y-6743517D03*
D63*
X-23310000Y18440000D03*
D62*
X56370000Y-6800000D03*
X46470000Y-490000D03*
D61*
X11240000Y-8250000D03*
X7563422Y-6762000D03*
D62*
X54110000Y-7620000D03*
D61*
X5820000Y-8260000D03*
D62*
X21800000Y55010000D03*
X21790000Y54260000D03*
X51830000Y-7580000D03*
X20800000Y55010000D03*
X54160000Y-6790000D03*
D61*
X6940000Y-8240000D03*
D62*
%TO.N,/SOM/D10*%
X49600000Y25200000D03*
X20555000Y43250000D03*
%TO.N,/SOM/D50*%
X21825000Y43250000D03*
X49600000Y26000000D03*
%TO.N,/SOM/D28*%
X49600000Y26800000D03*
X23095000Y43250000D03*
%TO.N,/SOM/D12*%
X49600000Y28400000D03*
X24365000Y43250000D03*
%TO.N,/SOM/D2*%
X49600000Y30000000D03*
X25635000Y43250000D03*
%TO.N,/SOM/D8*%
X49600000Y32249997D03*
X26905000Y43200000D03*
%TO.N,/SOM/D48*%
X49600000Y27600000D03*
X21825000Y48750000D03*
%TO.N,/SOM/D26*%
X49600000Y29200000D03*
X23095000Y48750000D03*
%TO.N,/SOM/D46*%
X49600000Y31600000D03*
X24365000Y48750000D03*
%TO.N,/SOM/D24*%
X25635000Y48750000D03*
X49600000Y33000000D03*
%TO.N,/SOM/D44*%
X26750000Y48140000D03*
X54000000Y33200000D03*
%TO.N,/SOM/D22*%
X49600000Y34000000D03*
X28380000Y48150000D03*
%TO.N,/SOM/D42*%
X49600000Y34800000D03*
X29445000Y48750000D03*
%TO.N,/SOM/D40*%
X30715000Y48750000D03*
X49600000Y35600000D03*
%TO.N,/SOM/D16*%
X23095000Y-8750000D03*
X49600000Y3600000D03*
%TO.N,/SOM/D32*%
X24365000Y-8750000D03*
X49600000Y2000000D03*
%TO.N,/SOM/D54*%
X49600000Y-400000D03*
X25635000Y-8665000D03*
D61*
%TO.N,+3V3*%
X-2974999Y37350000D03*
D62*
X230000Y10150000D03*
D63*
X8480000Y15120000D03*
D62*
X2620000Y49460000D03*
D61*
X-8025001Y37350000D03*
D62*
X-860000Y54580000D03*
X-800000Y30070000D03*
X-19080000Y39900000D03*
%TO.N,/SOM/MCLK0*%
X19285000Y48750000D03*
X54030000Y25180000D03*
%TO.N,/SOM/MCLK1*%
X49600000Y4400000D03*
X20555000Y-8750000D03*
%TO.N,/SD/CLK*%
X-1220000Y48570000D03*
X-1985000Y53755000D03*
D64*
%TO.N,/SD/CMD*%
X215000Y53755000D03*
X2140000Y48330000D03*
D62*
%TO.N,+1V8*%
X5350000Y49700000D03*
X-560000Y31850000D03*
X630000Y30010000D03*
X-20790000Y39330000D03*
X3000000Y47200000D03*
%TO.N,GND*%
X7420000Y-380000D03*
X21810000Y-9040000D03*
X11100000Y1200000D03*
D61*
X-24150000Y-10490000D03*
X12762743Y-6366240D03*
D62*
X6700000Y16400000D03*
X8700000Y34000000D03*
X6660000Y47610000D03*
X54000000Y6800000D03*
X2506210Y10146210D03*
X-4010000Y25720000D03*
X52000000Y36400000D03*
X23796700Y53071574D03*
D61*
X-4190000Y-11030000D03*
D62*
X-7890000Y55420000D03*
X-25020000Y18730000D03*
D61*
X33800000Y-17027500D03*
D62*
X39080000Y19060000D03*
X-19550000Y39360000D03*
X-15390000Y40130000D03*
X-1470000Y40940000D03*
D61*
X8500000Y-6500000D03*
D62*
X54000000Y47600000D03*
X54000000Y12400000D03*
X52000000Y30800000D03*
X33210000Y43550000D03*
X6560000Y39610000D03*
D61*
X-17080000Y-16460000D03*
D62*
X52000000Y46000000D03*
X630000Y32080000D03*
D61*
X39200000Y57527500D03*
D62*
X11100000Y13200000D03*
D61*
X-30520000Y-11810000D03*
D62*
X39900000Y14920000D03*
X28300000Y52200000D03*
X33210000Y-8450000D03*
X-1560000Y43410000D03*
D61*
X-21810000Y-11020000D03*
D62*
X54000000Y-6000000D03*
X23796700Y54074872D03*
X-14760000Y40160000D03*
D61*
X20600000Y47900000D03*
D62*
X20200000Y52300000D03*
X54000000Y42800000D03*
X13275000Y55600000D03*
X54000000Y18000000D03*
X20180000Y52990000D03*
X54000000Y400000D03*
D61*
X-26760000Y-9490000D03*
D62*
X-7030000Y600000D03*
X15620000Y52730000D03*
X6700000Y22000000D03*
X-26200000Y17230000D03*
X54000000Y23600000D03*
X-6435000Y56235000D03*
X-1320000Y55930000D03*
X52000000Y38800000D03*
X4300000Y4400000D03*
D61*
X-8025000Y34810000D03*
X31040000Y42187998D03*
D62*
X28200000Y44000000D03*
X2550000Y50360000D03*
X52000000Y400000D03*
X-21740000Y40400000D03*
X-3840000Y33510000D03*
X23796700Y55078174D03*
X16790000Y43550000D03*
X6700000Y32400000D03*
X49600000Y6800000D03*
D61*
X39200000Y-17027500D03*
X-16990000Y-14210000D03*
D62*
X-3085000Y53755000D03*
X52000000Y41200000D03*
X-18930000Y17440000D03*
X54000000Y38000000D03*
X-1140000Y4310000D03*
X31000000Y52100000D03*
X54000000Y40400000D03*
X4530000Y49040000D03*
X-7030000Y-670000D03*
X5160000Y-2780000D03*
X52000000Y-6000000D03*
X8700000Y22000000D03*
X4040000Y55480000D03*
X21000000Y52300000D03*
X-7060000Y13230000D03*
X10700000Y-1200000D03*
X52000000Y12400000D03*
D61*
X-2975000Y29730000D03*
D62*
X21580000Y52290000D03*
X54000000Y30000000D03*
D61*
X33800000Y57527500D03*
D62*
X54000000Y45200000D03*
X8700000Y24400000D03*
X16790000Y48450000D03*
X33210000Y48450000D03*
X6700000Y28400000D03*
X52000000Y18000000D03*
X11100000Y-3600000D03*
X-3710000Y-1140000D03*
X31000000Y53000000D03*
X-7050000Y11930000D03*
X8700000Y28400000D03*
X16350000Y57550001D03*
X16790000Y-8450000D03*
X11100000Y9200000D03*
X52000000Y43600000D03*
X33210000Y-3550000D03*
X3800000Y53040000D03*
D61*
X29710000Y42187998D03*
D62*
X15725000Y55600000D03*
X54000000Y35600000D03*
X8730000Y43600000D03*
X-3360000Y15630000D03*
X26300000Y52200000D03*
X-18000000Y40160000D03*
X-1090804Y47630349D03*
X-340000Y55920000D03*
X16790000Y-3550000D03*
X6700000Y10000000D03*
D61*
X19300000Y44100000D03*
D62*
X8700000Y16400000D03*
X12650000Y57550001D03*
X51900000Y23600000D03*
%TO.N,/SD/SD_D0*%
X1940861Y35871601D03*
X1718432Y38518432D03*
%TO.N,/SD/SD_CMD*%
X4270000Y34000000D03*
X3525000Y38125000D03*
%TO.N,/SD/SD_D3*%
X2975000Y37575000D03*
X1935000Y39520000D03*
%TO.N,/SD/SD_CD*%
X3870000Y51150000D03*
D65*
%TO.N,VDDIO_501_PS*%
X7752157Y46800000D03*
D62*
%TO.N,/SOM/JTAG_TMS*%
X-6710000Y25190000D03*
%TO.N,/SOM/JTAG_TDO*%
X-5790000Y31950000D03*
%TO.N,/SOM/JTAG_TDI*%
X-5390000Y26790000D03*
%TO.N,/SOM/JTAG_TCK*%
X-8025000Y32270000D03*
X4780000Y29380000D03*
%TO.N,/SOM/UART_TX*%
X4850000Y40400000D03*
%TO.N,/SOM/UART_RX*%
X5070000Y41090000D03*
%TO.N,/SOM/EXT_RST_IN*%
X-5820000Y32680000D03*
%TO.N,Net-(J3-DET)*%
X4870000Y53770000D03*
%TO.N,3V3_MIC*%
X28800000Y53500000D03*
D61*
X30719458Y44121819D03*
D62*
X29800000Y53500000D03*
X27900000Y53500000D03*
%TO.N,/SOM/UART_TX_3V3*%
X-3730000Y26680000D03*
X-1420000Y31330000D03*
X-5850000Y25480000D03*
%TO.N,/SOM/UART_RX_3V3*%
X-1380000Y30620000D03*
X-5410000Y24620000D03*
%TO.N,/SOM/D56*%
X49600000Y-2000000D03*
X26952500Y-8702500D03*
%TO.N,/SOM/D34*%
X28175000Y-8750000D03*
X49600000Y-4400000D03*
%TO.N,/SOM/D58*%
X29445000Y-8750000D03*
X53900000Y-5200000D03*
%TO.N,/SOM/D36*%
X30715000Y-8750000D03*
X49175000Y-5625000D03*
%TO.N,/SOM/D52*%
X19285000Y-3250000D03*
X49600000Y9200000D03*
%TO.N,/SOM/D30*%
X49600000Y8400000D03*
X20555000Y-3250000D03*
%TO.N,/SOM/D14*%
X21825000Y-3250000D03*
X49600000Y7600000D03*
%TO.N,/SOM/D4*%
X49600000Y5200000D03*
X23095000Y-3250000D03*
%TO.N,/SOM/D0*%
X49600000Y2800000D03*
X25635000Y-3250000D03*
%TO.N,/SOM/D6*%
X49600000Y1200000D03*
X26905000Y-3250000D03*
%TO.N,/SOM/D20*%
X28175000Y-3250000D03*
X49600000Y-1200000D03*
%TO.N,/SOM/D18*%
X49600000Y-2800000D03*
X29445000Y-3250000D03*
%TO.N,/SOM/D38*%
X30715000Y-3250000D03*
X49600000Y-3600000D03*
%TO.N,/SOM/LED_DI*%
X54000000Y-400000D03*
%TO.N,/SOM/LED0*%
X-7950000Y57450000D03*
X7370000Y54620000D03*
%TO.N,/SOM/MCLK2*%
X19292500Y-8742500D03*
X54050000Y7570000D03*
%TO.N,/SOM/SD_BOOT_CONF_H*%
X8760000Y36420000D03*
%TO.N,VDDIO_34_3V3*%
X53950000Y6000000D03*
X52180000Y6000000D03*
X40390000Y13550000D03*
X38610000Y14460000D03*
X40390000Y19540000D03*
X38640000Y20480000D03*
X46500000Y1260000D03*
X48020000Y-320000D03*
%TO.N,GNDPWR*%
X-26902500Y22002499D03*
X-25402500Y22002499D03*
X-23902500Y22002499D03*
X-19582500Y27422499D03*
X-25402500Y21002499D03*
X-26902500Y21002499D03*
X-20520000Y22650000D03*
X-19602500Y25602499D03*
D63*
%TO.N,VCCIN*%
X-19250000Y20200000D03*
X-28030000Y-13380000D03*
D61*
%TO.N,/Ethernet/POE_PR78*%
X-15550000Y-4170000D03*
%TO.N,/Ethernet/POE_PR45*%
X-14180000Y-6400000D03*
%TO.N,/Ethernet/POE_PR36*%
X-11960000Y-4060000D03*
%TO.N,/Ethernet/POE_PR12*%
X-10470000Y-6410000D03*
D62*
%TO.N,Net-(C10-Pad1)*%
X-26749999Y6710000D03*
X-17780000Y6790000D03*
%TO.N,/Ethernet/RGMII0_TRP3*%
X-10120000Y9460000D03*
X4625551Y-1920000D03*
X-3183112Y4529988D03*
%TO.N,/Ethernet/RGMII0_TRN2*%
X-1458270Y6231941D03*
X9033443Y-2080000D03*
%TO.N,/Ethernet/RGMII0_TRN1*%
X-2540945Y2184916D03*
X-12530000Y5870000D03*
X4618499Y-3680000D03*
%TO.N,/Ethernet/RGMII0_TRN0*%
X-3741369Y853917D03*
X9009609Y-4480000D03*
%TO.N,/Ethernet/RGMII0_TRP2*%
X9033443Y-2720000D03*
X-1910818Y5779393D03*
%TO.N,/Ethernet/RGMII0_TRN3*%
X4625551Y-1280000D03*
X-2730564Y4982536D03*
%TO.N,/Ethernet/RGMII0_TRP1*%
X4618499Y-4320000D03*
X-2993493Y1732368D03*
%TO.N,/Ethernet/RGMII0_TRP0*%
X9009609Y-5120000D03*
X-4193917Y401369D03*
%TO.N,/PSU/PoE_VIN+*%
X-19000000Y-11000000D03*
X-10000000Y-11000000D03*
X-18000000Y-9000000D03*
X-17000000Y-9000000D03*
X-10000000Y-10000000D03*
X-20000000Y-9000000D03*
X-13000000Y-10000000D03*
X-17000000Y-10000000D03*
X-11000000Y-10000000D03*
X-18000000Y-11000000D03*
X-18000000Y-10000000D03*
X-17000000Y-8000000D03*
X-15000000Y-10000000D03*
X-19000000Y-8000000D03*
X-15000000Y-11000000D03*
X-20000000Y-10000000D03*
X-18000000Y-8000000D03*
X-13000000Y-11000000D03*
X-12000000Y-10000000D03*
X-20000000Y-11000000D03*
X-12000000Y-11000000D03*
X-16000000Y-10000000D03*
X-16000000Y-11000000D03*
X-14000000Y-11000000D03*
X-11000000Y-11000000D03*
X-19000000Y-10000000D03*
X-17000000Y-11000000D03*
D65*
X-21820000Y-5980000D03*
D62*
X-14000000Y-10000000D03*
X-20000000Y-8000000D03*
X-19000000Y-9000000D03*
%TO.N,/PSU/PoE_VIN-*%
X-6000000Y-9000000D03*
X-1000000Y-10000000D03*
X-1000000Y-11000000D03*
X-2000000Y-6000000D03*
X-8000000Y-11000000D03*
X-9000000Y-9000000D03*
X-2000000Y-10000000D03*
X-8000000Y-8000000D03*
X-2000000Y-11000000D03*
X-9000000Y-11000000D03*
X-9000000Y-10000000D03*
X-7000000Y-11000000D03*
X-6000000Y-8000000D03*
X-9000000Y-8000000D03*
X-8000000Y-9000000D03*
X-7000000Y-10000000D03*
X-2000000Y-8000000D03*
X-1000000Y-8000000D03*
X-1000000Y-9000000D03*
X-6000000Y-11000000D03*
X-7000000Y-8000000D03*
D65*
X-5240000Y-5840000D03*
D62*
X-6000000Y-10000000D03*
X-7000000Y-9000000D03*
X-1000000Y-6000000D03*
X-2000000Y-7000000D03*
X-8000000Y-10000000D03*
X-1000000Y-7000000D03*
X-2000000Y-9000000D03*
%TO.N,/SOM/FPGA_DONE*%
X-5370000Y34050000D03*
X-880000Y44230000D03*
X5500000Y45200000D03*
D61*
%TO.N,/PSU/PoE_VDC+*%
X-25360000Y-14940000D03*
D62*
%TO.N,/SOM/FPGA_USB_D+*%
X13557886Y1171265D03*
X-21393671Y34970000D03*
%TO.N,/SOM/FPGA_USB_D-*%
X12917886Y1171265D03*
X-21393671Y34330000D03*
%TO.N,Net-(Q1-G)*%
X-22130000Y19400000D03*
X-19970000Y18630000D03*
%TO.N,/PSU/VBUS_TVS*%
X-21152500Y26502499D03*
X-21802500Y26502499D03*
X-22402500Y26502499D03*
X-23002500Y26502499D03*
X-24702500Y24602499D03*
%TO.N,/PSU/VBUS*%
X-29152500Y23002499D03*
X-29152500Y22252499D03*
X-29152500Y23752499D03*
%TO.N,/SOM/S_JTAG_H*%
X8780000Y35590000D03*
%TO.N,GNDA*%
X-21190000Y47540000D03*
X-23470000Y49460000D03*
X-21690000Y45930000D03*
X-17980000Y54950000D03*
X-19310000Y47670000D03*
X-33170000Y56610000D03*
X-15990000Y48090000D03*
X-15390000Y47630000D03*
D61*
%TO.N,Net-(C2-Pad1)*%
X-23190000Y54750000D03*
X-31980000Y51570000D03*
D62*
%TO.N,/DAC/LDOO*%
X-21610000Y41660000D03*
%TO.N,+3.3VA*%
X-16010000Y45810000D03*
X-22250000Y46560000D03*
X-20600000Y46760000D03*
%TO.N,Net-(U10-CAPM)*%
X-18505000Y45450000D03*
%TO.N,Net-(U10-CAPP)*%
X-20055000Y45450000D03*
%TO.N,Net-(U10-VNEG)*%
X-18060000Y47710000D03*
%TO.N,Net-(U10-XSMT)*%
X-18610000Y41990000D03*
%TO.N,/DAC/I2S_LRCK*%
X3860000Y26000000D03*
X-17349918Y40110483D03*
%TO.N,/DAC/I2S_BCK*%
X-16050000Y40110000D03*
X3060000Y27600000D03*
%TO.N,/DAC/I2S_DIN*%
X3360000Y26800000D03*
X-16700000Y40100000D03*
%TO.N,/SOM/SYNC_IN_5V*%
X36500000Y-15440000D03*
%TO.N,/SOM/SYNC_OUT_5V*%
X36500000Y55010000D03*
%TD*%
D66*
%TO.N,+5V*%
X5152965Y-6800000D02*
X6300000Y-6800000D01*
D67*
X55200000Y-6800000D02*
X54170000Y-6800000D01*
X50800000Y-6800000D02*
X51820000Y-6800000D01*
D68*
X-22852500Y17982500D02*
X-23310000Y18440000D01*
D67*
X50800000Y-6800000D02*
X49500000Y-6800000D01*
D69*
X40100000Y20450000D02*
X40390000Y20450000D01*
D67*
X56270000Y-7620000D02*
X54110000Y-7620000D01*
D66*
X9450000Y-6800000D02*
X9430000Y-6820000D01*
D67*
X49680000Y-7580000D02*
X49700000Y-7600000D01*
D66*
X6940000Y-8240000D02*
X6300000Y-7600000D01*
X10700000Y-6800000D02*
X9450000Y-6800000D01*
D69*
X38900000Y13550000D02*
X38640000Y13550000D01*
D66*
X7563422Y-6762000D02*
X7525422Y-6800000D01*
D68*
X29470000Y43990000D02*
X29460000Y44000000D01*
D66*
X11930000Y-6800000D02*
X11950000Y-6780000D01*
D67*
X56250000Y-7600000D02*
X56270000Y-7620000D01*
X55200000Y-7600000D02*
X56250000Y-7600000D01*
X50800000Y-7600000D02*
X51810000Y-7600000D01*
X51820000Y-6800000D02*
X51830000Y-6810000D01*
X55200000Y-6800000D02*
X56370000Y-6800000D01*
D69*
X40390000Y20450000D02*
X40400000Y20440000D01*
D67*
X54170000Y-6800000D02*
X54160000Y-6790000D01*
D66*
X5820000Y-8080000D02*
X6300000Y-7600000D01*
D67*
X51810000Y-7600000D02*
X51830000Y-7580000D01*
D66*
X11240000Y-8140000D02*
X10700000Y-7600000D01*
D69*
X38640000Y13550000D02*
X38630000Y13540000D01*
D66*
X10700000Y-6800000D02*
X11930000Y-6800000D01*
X5820000Y-8260000D02*
X5820000Y-8080000D01*
X11240000Y-8250000D02*
X11240000Y-8140000D01*
X7525422Y-6800000D02*
X6300000Y-6800000D01*
X9970000Y-8240000D02*
X10610000Y-7600000D01*
X5096483Y-6743517D02*
X5152965Y-6800000D01*
D68*
X-22240000Y17982500D02*
X-22852500Y17982500D01*
D67*
X49700000Y-7600000D02*
X50800000Y-7600000D01*
D69*
%TO.N,/SOM/D10*%
X49600000Y25200000D02*
X50800000Y25200000D01*
%TO.N,/SOM/D50*%
X49600000Y26000000D02*
X50800000Y26000000D01*
%TO.N,/SOM/D28*%
X49600000Y26800000D02*
X50800000Y26800000D01*
%TO.N,/SOM/D12*%
X49600000Y28400000D02*
X50800000Y28400000D01*
%TO.N,/SOM/D2*%
X49600000Y30000000D02*
X50800000Y30000000D01*
%TO.N,/SOM/D8*%
X49750003Y32400000D02*
X49600000Y32249997D01*
X50800000Y32400000D02*
X49750003Y32400000D01*
%TO.N,/SOM/D48*%
X49600000Y27600000D02*
X50800000Y27600000D01*
%TO.N,/SOM/D26*%
X49600000Y29200000D02*
X50800000Y29200000D01*
%TO.N,/SOM/D46*%
X49600000Y31600000D02*
X50800000Y31600000D01*
%TO.N,/SOM/D24*%
X50800000Y33200000D02*
X49800000Y33200000D01*
X49800000Y33200000D02*
X49600000Y33000000D01*
%TO.N,/SOM/D44*%
X54000000Y33200000D02*
X55200000Y33200000D01*
%TO.N,/SOM/D22*%
X49600000Y34000000D02*
X50800000Y34000000D01*
%TO.N,/SOM/D42*%
X49600000Y34800000D02*
X50800000Y34800000D01*
%TO.N,/SOM/D40*%
X49600000Y35600000D02*
X50800000Y35600000D01*
%TO.N,/SOM/D16*%
X50800000Y3600000D02*
X49600000Y3600000D01*
%TO.N,/SOM/D32*%
X50800000Y2000000D02*
X49600000Y2000000D01*
%TO.N,/SOM/D54*%
X50800000Y-400000D02*
X49600000Y-400000D01*
D66*
%TO.N,+3V3*%
X10700000Y15600000D02*
X8680000Y15600000D01*
D69*
X-615000Y10170000D02*
X210000Y10170000D01*
X2734550Y47630100D02*
X2777000Y47672550D01*
X210000Y10170000D02*
X230000Y10150000D01*
X2270000Y49440000D02*
X2600000Y49440000D01*
D66*
X8480000Y15400000D02*
X8480000Y15120000D01*
D69*
X-885000Y54555000D02*
X-860000Y54580000D01*
X-885000Y53755000D02*
X-885000Y54555000D01*
D66*
X8680000Y15600000D02*
X8480000Y15400000D01*
D69*
X2600000Y49440000D02*
X2620000Y49460000D01*
D66*
X8680000Y15600000D02*
X6300000Y15600000D01*
D69*
X2777000Y48933000D02*
X2270000Y49440000D01*
X2777000Y47672550D02*
X2777000Y48933000D01*
X2140000Y47630100D02*
X2734550Y47630100D01*
%TO.N,/SOM/MCLK0*%
X54050000Y25200000D02*
X54030000Y25180000D01*
X55200000Y25200000D02*
X54050000Y25200000D01*
%TO.N,/SOM/MCLK1*%
X50800000Y4400000D02*
X49600000Y4400000D01*
D70*
%TO.N,/SD/DAT1*%
X-5285001Y53411501D02*
X-2773500Y50900000D01*
X-951385Y49441385D02*
X-491767Y48981766D01*
X-1743820Y49101500D02*
X-1800389Y49158069D01*
X-1800389Y49384343D02*
X-1460505Y49724230D01*
X-2410000Y50900000D02*
X-1460505Y49950504D01*
X-1177661Y49441386D02*
X-1517546Y49101500D01*
X-350344Y48557500D02*
X-491766Y48698922D01*
X-2410000Y50900000D02*
X-2773500Y50900000D01*
X269810Y48220190D02*
X-67500Y48557500D01*
X-491767Y48840344D02*
G75*
G03*
X-491722Y48981811I-70733J70756D01*
G01*
X-951385Y49441385D02*
G75*
G03*
X-1177637Y49441363I-113115J-113085D01*
G01*
X-1800389Y49158069D02*
G75*
G02*
X-1800383Y49384337I113089J113131D01*
G01*
X-67500Y48557500D02*
G75*
G03*
X-208922Y48557500I-70711J-70713D01*
G01*
X-1517546Y49101500D02*
G75*
G02*
X-1743820Y49101500I-113137J113137D01*
G01*
X-491766Y48698922D02*
G75*
G02*
X-491734Y48840310I70666J70678D01*
G01*
X-1460505Y49724230D02*
G75*
G03*
X-1460472Y49950537I-113095J113170D01*
G01*
X-208922Y48557500D02*
G75*
G02*
X-350344Y48557500I-70711J70713D01*
G01*
%TO.N,/SD/DAT0*%
X-4185000Y53485000D02*
X-1980000Y51280000D01*
X-1030578Y50203627D02*
X-1010239Y50223965D01*
X-1840000Y51280000D02*
X-1980000Y51280000D01*
X-614258Y50054259D02*
X-614257Y50054257D01*
X669936Y48153976D02*
X669936Y48770064D01*
X-331412Y49771412D02*
X-21150Y50081675D01*
X-747734Y49920783D02*
X-614257Y50054257D01*
X-1840000Y51280000D02*
X-1010239Y50450239D01*
X-364276Y49382500D02*
X-436857Y49455081D01*
X-436857Y49665969D02*
X-331415Y49771414D01*
X-974008Y49920783D02*
X-1030578Y49977353D01*
X-331415Y49771414D02*
X-331412Y49771412D01*
X-21150Y50307950D02*
X-77721Y50364521D01*
X669936Y48770064D02*
X57500Y49382500D01*
X-303995Y50364521D02*
X-614258Y50054259D01*
X-153388Y49382500D02*
G75*
G02*
X-364276Y49382500I-105444J105445D01*
G01*
X-1010239Y50223965D02*
G75*
G03*
X-1010241Y50450237I-113161J113135D01*
G01*
X57500Y49382500D02*
G75*
G03*
X-153388Y49382500I-105444J-105445D01*
G01*
X-1030578Y49977353D02*
G75*
G02*
X-1030588Y50203637I113178J113147D01*
G01*
X-436857Y49455081D02*
G75*
G02*
X-436832Y49665944I105457J105419D01*
G01*
X-747734Y49920783D02*
G75*
G02*
X-974008Y49920783I-113137J113137D01*
G01*
X-21150Y50081675D02*
G75*
G03*
X-21162Y50307938I-113150J113125D01*
G01*
X-77721Y50364521D02*
G75*
G03*
X-303995Y50364521I-113137J-113137D01*
G01*
%TO.N,/SD/CLK*%
X-680150Y48030150D02*
X-1220000Y48570000D01*
%TO.N,/SD/CMD*%
X2140000Y48030150D02*
X2140000Y48330000D01*
%TO.N,/SD/DAT3*%
X1070062Y49390062D02*
X1070062Y48700000D01*
X910062Y50750062D02*
X483060Y50750062D01*
X1315000Y53755000D02*
X1315000Y52875000D01*
X1315000Y51815000D02*
X1315000Y51155000D01*
X323060Y50590062D02*
X323060Y50510062D01*
X483060Y50350062D02*
X910062Y50350062D01*
X1515000Y52675000D02*
X1515000Y52475000D01*
X1315000Y51155000D02*
X1070062Y50910062D01*
X910062Y49950062D02*
X633072Y49950062D01*
X633072Y49550062D02*
X910062Y49550062D01*
X1070062Y50190062D02*
X1070062Y50110062D01*
X1070062Y48700000D02*
X1070062Y48153976D01*
X468028Y52215000D02*
X468028Y52135000D01*
X628028Y52375000D02*
X1415000Y52375000D01*
X628028Y51975000D02*
X1155000Y51975000D01*
X473072Y49790062D02*
X473072Y49710062D01*
X1315000Y52875000D02*
G75*
G03*
X1415000Y52775000I100000J0D01*
G01*
X910062Y49550062D02*
G75*
G02*
X1070062Y49390062I38J-159962D01*
G01*
X1515000Y52475000D02*
G75*
G02*
X1415000Y52375000I-100000J0D01*
G01*
X1070062Y50910062D02*
G75*
G02*
X910062Y50750138I-159962J38D01*
G01*
X1070062Y50110062D02*
G75*
G02*
X910062Y49950138I-159962J38D01*
G01*
X910062Y50350062D02*
G75*
G02*
X1070062Y50190062I38J-159962D01*
G01*
X1155000Y51975000D02*
G75*
G02*
X1315000Y51815000I0J-160000D01*
G01*
X483060Y50750062D02*
G75*
G03*
X323138Y50590062I40J-159962D01*
G01*
X473072Y49710062D02*
G75*
G03*
X633072Y49550072I160028J38D01*
G01*
X1415000Y52775000D02*
G75*
G02*
X1515000Y52675000I0J-100000D01*
G01*
X633072Y49950062D02*
G75*
G03*
X473138Y49790062I28J-159962D01*
G01*
X468028Y52135000D02*
G75*
G03*
X628028Y51975028I159972J0D01*
G01*
X628028Y52375000D02*
G75*
G03*
X468000Y52215000I-28J-160000D01*
G01*
X323060Y50510062D02*
G75*
G03*
X483060Y50350060I160040J38D01*
G01*
%TO.N,/SD/DAT2*%
X2415001Y52405001D02*
X2415001Y53755000D01*
X1903849Y51845001D02*
X3226166Y51845001D01*
X1791348Y49040932D02*
X1791348Y49120932D01*
X2106584Y50976586D02*
X2415001Y51285001D01*
X1791350Y49840932D02*
X1791350Y49920932D01*
X1903849Y52245001D02*
X2255001Y52245001D01*
X1630188Y49680932D02*
X1631350Y49680932D01*
X1631350Y50080932D02*
X1630188Y50080932D01*
X1470188Y48153975D02*
X1470188Y48720932D01*
X1470188Y50340188D02*
X2106584Y50976586D01*
X1630188Y48880932D02*
X1631348Y48880932D01*
X1470188Y50240932D02*
X1470188Y50340188D01*
X3386166Y51605001D02*
X3386166Y51685001D01*
X2575001Y51445001D02*
X3226166Y51445001D01*
X1631348Y49280932D02*
X1630188Y49280932D01*
X1743849Y52005001D02*
X1743849Y52085001D01*
X1470188Y49440932D02*
X1470188Y49520932D01*
X3226166Y51445001D02*
G75*
G03*
X3386199Y51605001I34J159999D01*
G01*
X1903849Y51845001D02*
G75*
G02*
X1743801Y52005001I-49J159999D01*
G01*
X1631350Y49680932D02*
G75*
G03*
X1791268Y49840932I-50J159968D01*
G01*
X1791350Y49920932D02*
G75*
G03*
X1631350Y50080950I-160050J-32D01*
G01*
X1470188Y49520932D02*
G75*
G02*
X1630188Y49680912I160012J-32D01*
G01*
X3386166Y51685001D02*
G75*
G03*
X3226166Y51844966I-159966J-1D01*
G01*
X1470188Y48720932D02*
G75*
G02*
X1630188Y48880912I160012J-32D01*
G01*
X1791348Y49120932D02*
G75*
G03*
X1631348Y49280948I-160048J-32D01*
G01*
X2415001Y51285001D02*
G75*
G02*
X2575001Y51444999I159999J-1D01*
G01*
X1630188Y50080932D02*
G75*
G02*
X1470232Y50240932I12J159968D01*
G01*
X1630188Y49280932D02*
G75*
G02*
X1470232Y49440932I12J159968D01*
G01*
X1631348Y48880932D02*
G75*
G03*
X1791268Y49040932I-48J159968D01*
G01*
X1743849Y52085001D02*
G75*
G02*
X1903849Y52244951I159951J-1D01*
G01*
X2255001Y52245001D02*
G75*
G03*
X2414999Y52405001I-1J159999D01*
G01*
D71*
%TO.N,+1V8*%
X2969950Y47230050D02*
X3000000Y47200000D01*
X2140000Y47230050D02*
X2969950Y47230050D01*
D72*
X-20600000Y40160000D02*
X-20600000Y41035000D01*
X-20790000Y39330000D02*
X-20800000Y39340000D01*
X-20800000Y39340000D02*
X-20800000Y39960000D01*
X-20800000Y39960000D02*
X-20600000Y40160000D01*
%TO.N,GND*%
X55200000Y42800000D02*
X54000000Y42800000D01*
D69*
X-612513Y5032513D02*
X-1140000Y4505026D01*
D73*
X5180000Y-2800000D02*
X5160000Y-2780000D01*
D69*
X-7890001Y55910000D02*
X-7890000Y55420000D01*
D74*
X-16990000Y-15460000D02*
X-18275000Y-15460000D01*
D72*
X55200000Y40400000D02*
X54000000Y40400000D01*
D66*
X12762743Y-6366240D02*
X12396503Y-6000000D01*
D73*
X29710000Y42630000D02*
X29470000Y42870000D01*
D69*
X-400002Y47630100D02*
X-1090555Y47630100D01*
D72*
X55200000Y6800000D02*
X54000000Y6800000D01*
D69*
X2550000Y50150000D02*
X2400000Y50000000D01*
D72*
X55200000Y47600000D02*
X54000000Y47600000D01*
D71*
X-14750000Y40170000D02*
X-14760000Y40160000D01*
D67*
X6650000Y47600000D02*
X6660000Y47610000D01*
D69*
X-1340052Y4310000D02*
X-1140000Y4310000D01*
D67*
X9900000Y43600000D02*
X8730000Y43600000D01*
D73*
X31040000Y42187998D02*
X30912002Y42187998D01*
D69*
X-3370000Y15620000D02*
X-3360000Y15630000D01*
D71*
X-14750000Y46760000D02*
X-14750000Y43950000D01*
D66*
X6300000Y-5200000D02*
X6300000Y-6000000D01*
D67*
X9900000Y22000000D02*
X8700000Y22000000D01*
D72*
X55200000Y18000000D02*
X54000000Y18000000D01*
D66*
X6300000Y-6000000D02*
X8000000Y-6000000D01*
D69*
X-3870000Y15620000D02*
X-3370000Y15620000D01*
D71*
X-14750000Y43950000D02*
X-15400000Y43300000D01*
D72*
X50800000Y12400000D02*
X52000000Y12400000D01*
D69*
X39300001Y19280001D02*
X39080000Y19060000D01*
X1660000Y10170000D02*
X2482420Y10170000D01*
D71*
X-15400000Y43300000D02*
X-15400000Y41035000D01*
X-21720000Y40380000D02*
X-21740000Y40400000D01*
D69*
X2482420Y10170000D02*
X2506210Y10146210D01*
X-1934125Y3715927D02*
X-1340052Y4310000D01*
D71*
X-21630000Y40380000D02*
X-21720000Y40380000D01*
X-14750000Y41035000D02*
X-14750000Y40170000D01*
D69*
X38900000Y19240000D02*
X39080000Y19060000D01*
D71*
X-19550000Y39360000D02*
X-19880000Y39690000D01*
D73*
X30912002Y42187998D02*
X31040000Y42315996D01*
D67*
X5500000Y4400000D02*
X4300000Y4400000D01*
D71*
X-18000000Y41035000D02*
X-18000000Y40160000D01*
D72*
X50800000Y23600000D02*
X51900000Y23600000D01*
D69*
X40100000Y14720000D02*
X39900000Y14920000D01*
D71*
X-21620000Y40390000D02*
X-21630000Y40380000D01*
D67*
X9900000Y16400000D02*
X8700000Y16400000D01*
X9900000Y24400000D02*
X8700000Y24400000D01*
D74*
X-16990000Y-14210000D02*
X-16990000Y-15460000D01*
D69*
X-1140000Y4505026D02*
X-1140000Y4310000D01*
D72*
X55200000Y45200000D02*
X54000000Y45200000D01*
D69*
X50800000Y6800000D02*
X49600000Y6800000D01*
D72*
X50800000Y43600000D02*
X52000000Y43600000D01*
X50800000Y36400000D02*
X52000000Y36400000D01*
D74*
X-18230000Y-15450000D02*
X-16990000Y-14210000D01*
D69*
X2550000Y50360000D02*
X2550000Y50150000D01*
D71*
X-19880000Y39690000D02*
X-19880000Y40090000D01*
D72*
X50800000Y41200000D02*
X52000000Y41200000D01*
D69*
X39300001Y19550000D02*
X39300001Y19280001D01*
X38900000Y19550000D02*
X38900000Y19240000D01*
D73*
X31040000Y42550000D02*
X30720000Y42870000D01*
D72*
X50800000Y18000000D02*
X52000000Y18000000D01*
X55200000Y12400000D02*
X54000000Y12400000D01*
D69*
X-1735927Y924125D02*
X-2942513Y-282461D01*
D72*
X50800000Y400000D02*
X52000000Y400000D01*
X50800000Y-6000000D02*
X52000000Y-6000000D01*
D67*
X9900000Y34000000D02*
X8700000Y34000000D01*
D74*
X-16990000Y-15460000D02*
X-16990000Y-16370000D01*
D69*
X2400000Y50000000D02*
X2270000Y50000000D01*
X39699999Y14719999D02*
X39900000Y14920000D01*
D72*
X55200000Y-6000000D02*
X54000000Y-6000000D01*
D71*
X-19950000Y40160000D02*
X-19950000Y41035000D01*
D72*
X55200000Y400000D02*
X54000000Y400000D01*
D66*
X10700000Y-6000000D02*
X9000000Y-6000000D01*
X12396503Y-6000000D02*
X10700000Y-6000000D01*
D71*
X-15400000Y40140000D02*
X-15390000Y40130000D01*
D66*
X8000000Y-6000000D02*
X8500000Y-6500000D01*
D72*
X55200000Y38000000D02*
X54000000Y38000000D01*
D74*
X-18090000Y-15450000D02*
X-17080000Y-16460000D01*
D72*
X50800000Y38800000D02*
X52000000Y38800000D01*
X55200000Y35600000D02*
X54000000Y35600000D01*
X50800000Y46000000D02*
X52000000Y46000000D01*
D71*
X-21630000Y40750000D02*
X-21630000Y40400000D01*
D69*
X39699999Y14450000D02*
X39699999Y14719999D01*
D71*
X-15400000Y41035000D02*
X-15400000Y40140000D01*
D72*
X55200000Y23600000D02*
X54000000Y23600000D01*
D73*
X6300000Y-2800000D02*
X5180000Y-2800000D01*
D69*
X-1090555Y47630100D02*
X-1090804Y47630349D01*
D73*
X29710000Y42187998D02*
X29710000Y42630000D01*
D69*
X40100000Y14450000D02*
X40100000Y14720000D01*
D66*
X9000000Y-6000000D02*
X8500000Y-6500000D01*
D67*
X9900000Y28400000D02*
X8700000Y28400000D01*
D73*
X31040000Y42315996D02*
X31040000Y42550000D01*
D72*
X55200000Y30000000D02*
X54000000Y30000000D01*
D74*
X-16990000Y-16370000D02*
X-17080000Y-16460000D01*
D71*
X-19880000Y40090000D02*
X-19950000Y40160000D01*
D72*
X50800000Y30800000D02*
X52000000Y30800000D01*
D71*
X-21630000Y40400000D02*
X-21620000Y40390000D01*
D69*
X-2957487Y-387487D02*
X-3710000Y-1140000D01*
D70*
%TO.N,/SD/SD_CLK*%
X3275000Y33200000D02*
X5500000Y33200000D01*
X-400002Y36875002D02*
X2575000Y33900000D01*
X3284742Y34157193D02*
X3341310Y34100625D01*
X3084115Y33390885D02*
X3275000Y33200000D01*
X2801274Y33900000D02*
X3058468Y34157193D01*
X-400002Y46830000D02*
X-400002Y36875002D01*
X3341310Y33874351D02*
X3084115Y33617159D01*
X2575000Y33900000D02*
G75*
G03*
X2801274Y33900000I113137J113137D01*
G01*
X3341310Y34100625D02*
G75*
G02*
X3341298Y33874363I-113110J-113125D01*
G01*
X3084115Y33617159D02*
G75*
G03*
X3084093Y33390863I113185J-113159D01*
G01*
X3058468Y34157193D02*
G75*
G02*
X3284742Y34157193I113137J-113137D01*
G01*
%TO.N,/SD/SD_D1*%
X269810Y38505190D02*
X269810Y46706175D01*
X3980000Y35100000D02*
X3900000Y35100000D01*
X1357729Y38039525D02*
X1046602Y37728399D01*
X269810Y38505190D02*
X650620Y38124380D01*
X1725428Y36710160D02*
X1781995Y36766730D01*
X3740000Y35260000D02*
X3740000Y35440000D01*
X735478Y36851582D02*
X1640572Y37756681D01*
X5500000Y35600000D02*
X4300000Y35600000D01*
X792047Y36568739D02*
X735478Y36625308D01*
X2064839Y36483886D02*
X2008271Y36427317D01*
X4140000Y35440000D02*
X4140000Y35260000D01*
X2432534Y36342465D02*
X2291115Y36483885D01*
X933462Y37615263D02*
X452630Y37134431D01*
X226356Y37134431D02*
X169787Y37191000D01*
X1499153Y37049572D02*
X1018321Y36568739D01*
X2573957Y35918199D02*
X2432535Y36059621D01*
X3175000Y35600000D02*
X2856801Y35918199D01*
X3175000Y35600000D02*
X3580000Y35600000D01*
X169787Y37417274D02*
X650620Y37898106D01*
X1640572Y37982956D02*
X1584003Y38039525D01*
X1781995Y36993004D02*
X1725429Y37049571D01*
X1046602Y37728399D02*
X933462Y37615263D01*
X1781997Y36427317D02*
X1725428Y36483886D01*
X4140000Y35260000D02*
G75*
G02*
X3980000Y35100000I-160000J0D01*
G01*
X3900000Y35100000D02*
G75*
G02*
X3740000Y35260000I0J160000D01*
G01*
X650620Y37898106D02*
G75*
G03*
X650577Y38124337I-113120J113094D01*
G01*
X452630Y37134431D02*
G75*
G02*
X226356Y37134431I-113137J113137D01*
G01*
X2856801Y35918199D02*
G75*
G03*
X2715379Y35918199I-70711J-70713D01*
G01*
X735478Y36625308D02*
G75*
G02*
X735523Y36851537I113122J113092D01*
G01*
X3740000Y35440000D02*
G75*
G03*
X3580000Y35600000I-160000J0D01*
G01*
X2432534Y36201043D02*
G75*
G03*
X2432580Y36342511I-70734J70757D01*
G01*
X1640572Y37756681D02*
G75*
G03*
X1640554Y37982938I-113172J113119D01*
G01*
X2008271Y36427317D02*
G75*
G02*
X1781997Y36427317I-113137J113137D01*
G01*
X2432535Y36059621D02*
G75*
G02*
X2432566Y36201010I70665J70679D01*
G01*
X1584003Y38039525D02*
G75*
G03*
X1357729Y38039525I-113137J-113137D01*
G01*
X1018321Y36568739D02*
G75*
G02*
X792047Y36568739I-113137J113137D01*
G01*
X1725428Y36483886D02*
G75*
G02*
X1725451Y36710137I113172J113114D01*
G01*
X2715379Y35918199D02*
G75*
G02*
X2573957Y35918199I-70711J70713D01*
G01*
X4300000Y35600000D02*
G75*
G03*
X4140000Y35440000I0J-160000D01*
G01*
X169787Y37191000D02*
G75*
G02*
X169824Y37417237I113113J113100D01*
G01*
X1781995Y36766730D02*
G75*
G03*
X1782028Y36993037I-113095J113170D01*
G01*
X2291115Y36483885D02*
G75*
G03*
X2064863Y36483863I-113115J-113085D01*
G01*
X1725429Y37049571D02*
G75*
G03*
X1499162Y37049563I-113129J-113171D01*
G01*
%TO.N,/SD/SD_D0*%
X880000Y39356864D02*
X880000Y44610000D01*
X880000Y44610000D02*
X669936Y44820064D01*
X3012462Y34800000D02*
X1940861Y35871601D01*
X669936Y44820064D02*
X669936Y46706174D01*
X5500000Y34800000D02*
X3012462Y34800000D01*
X1718432Y38518432D02*
X880000Y39356864D01*
%TO.N,/SD/SD_CMD*%
X3554040Y40025000D02*
X3554040Y39825000D01*
X4270000Y34000000D02*
X5500000Y34000000D01*
X3354040Y39625000D02*
X3354040Y38295960D01*
X3254040Y40125000D02*
X3454040Y40125000D01*
X3154040Y40425000D02*
X3154040Y40225000D01*
X3354040Y38295960D02*
X3525000Y38125000D01*
X2170000Y46830000D02*
X3354040Y45645960D01*
X3354040Y45645960D02*
X3354040Y40625000D01*
X3154040Y40225000D02*
G75*
G03*
X3254040Y40125040I99960J0D01*
G01*
X3554040Y39825000D02*
G75*
G02*
X3454040Y39724960I-100040J0D01*
G01*
X3454040Y40125000D02*
G75*
G02*
X3554000Y40025000I-40J-100000D01*
G01*
X3354040Y40625000D02*
G75*
G02*
X3254040Y40524960I-100040J0D01*
G01*
X3454040Y39725000D02*
G75*
G03*
X3354000Y39625000I-40J-100000D01*
G01*
X3254040Y40525000D02*
G75*
G03*
X3154000Y40425000I-40J-100000D01*
G01*
%TO.N,/SD/SD_D3*%
X1344793Y41735000D02*
X1776381Y41735000D01*
X1470000Y42260207D02*
X1470000Y45390000D01*
X1341411Y41335000D02*
X1776381Y41335000D01*
X2975000Y37395000D02*
X3170000Y37200000D01*
X1070062Y45789938D02*
X1070062Y46706174D01*
X1344781Y40535000D02*
X1776362Y40535000D01*
X3170000Y37200000D02*
X5500000Y37200000D01*
X1341411Y40935000D02*
X1776362Y40935000D01*
X1470000Y39985000D02*
X1935000Y39520000D01*
X1936362Y40695000D02*
X1936362Y40775000D01*
X1470000Y45390000D02*
X1070062Y45789938D01*
X1219586Y41860207D02*
X1219586Y42009793D01*
X1212823Y41063588D02*
X1212823Y41206412D01*
X1219562Y40235438D02*
X1219562Y40409781D01*
X2975000Y37575000D02*
X2975000Y37395000D01*
X1936381Y41495000D02*
X1936381Y41575000D01*
X1776381Y41335000D02*
G75*
G03*
X1936400Y41495000I19J160000D01*
G01*
X1341411Y40935000D02*
G75*
G02*
X1212800Y41063588I-11J128600D01*
G01*
X1776362Y40535000D02*
G75*
G03*
X1936400Y40695000I38J160000D01*
G01*
X1219586Y42009793D02*
G75*
G02*
X1344793Y42135014I125214J7D01*
G01*
X1219562Y40409781D02*
G75*
G02*
X1344781Y40535038I125238J19D01*
G01*
X1936362Y40775000D02*
G75*
G03*
X1776362Y40934962I-159962J0D01*
G01*
X1470000Y39985000D02*
G75*
G03*
X1344781Y40110200I-125200J0D01*
G01*
X1936381Y41575000D02*
G75*
G03*
X1776381Y41734981I-159981J0D01*
G01*
X1344793Y41735000D02*
G75*
G02*
X1219600Y41860207I7J125200D01*
G01*
X1344793Y42135000D02*
G75*
G03*
X1470000Y42260207I7J125200D01*
G01*
X1344781Y40110219D02*
G75*
G02*
X1219619Y40235438I19J125181D01*
G01*
X1212823Y41206412D02*
G75*
G02*
X1341411Y41334977I128577J-12D01*
G01*
%TO.N,/SD/SD_D2*%
X3039153Y39740000D02*
X3039153Y39820000D01*
X2521903Y39180000D02*
X2879150Y39180000D01*
X2340851Y40380000D02*
X2450000Y40380000D01*
X2165000Y37265000D02*
X2055850Y37265000D01*
X2610000Y40540000D02*
X2610000Y45566363D01*
X2340851Y39980000D02*
X2879153Y39980000D01*
X2325000Y37825000D02*
X2325000Y37935000D01*
X5500000Y36400000D02*
X4560739Y36400000D01*
X2390849Y38780000D02*
X2879150Y38780000D01*
X4240739Y35970847D02*
X4160739Y35970847D01*
X2325000Y37935000D02*
X2610000Y38220000D01*
X2450000Y38380000D02*
X2390849Y38380000D01*
X2180851Y40140000D02*
X2180851Y40220000D01*
X4000739Y36130847D02*
X4000739Y36669151D01*
X3039150Y38940000D02*
X3039150Y39020000D01*
X2055850Y37665000D02*
X2165000Y37665000D01*
X3030000Y36400000D02*
X3440739Y36400000D01*
X2230849Y38540000D02*
X2230849Y38620000D01*
X2610000Y45566363D02*
X1470188Y46706175D01*
X1895850Y37425000D02*
X1895850Y37505000D01*
X2433807Y39268096D02*
X2433807Y39491904D01*
X2521903Y39580000D02*
X2879153Y39580000D01*
X3840739Y36829151D02*
X3760739Y36829151D01*
X3600739Y36669151D02*
X3600739Y36560000D01*
X2325000Y37105000D02*
X3030000Y36400000D01*
X4400739Y36240000D02*
X4400739Y36130847D01*
X4160739Y35970847D02*
G75*
G02*
X4000747Y36130847I-39J159953D01*
G01*
X2165000Y37665000D02*
G75*
G03*
X2325000Y37825000I0J160000D01*
G01*
X2390849Y38380000D02*
G75*
G02*
X2230800Y38540000I-49J160000D01*
G01*
X3039150Y39020000D02*
G75*
G03*
X2879150Y39180050I-160050J0D01*
G01*
X2055850Y37265000D02*
G75*
G02*
X1895900Y37425000I50J160000D01*
G01*
X2879153Y39580000D02*
G75*
G03*
X3039200Y39740000I47J160000D01*
G01*
X3039153Y39820000D02*
G75*
G03*
X2879153Y39979953I-159953J0D01*
G01*
X2230849Y38620000D02*
G75*
G02*
X2390849Y38779951I159951J0D01*
G01*
X2180851Y40220000D02*
G75*
G02*
X2340851Y40380049I160049J0D01*
G01*
X2521903Y39180000D02*
G75*
G02*
X2433800Y39268096I-3J88100D01*
G01*
X2450000Y40380000D02*
G75*
G03*
X2610000Y40540000I0J160000D01*
G01*
X4560739Y36400000D02*
G75*
G03*
X4400700Y36240000I-39J-160000D01*
G01*
X2433807Y39491904D02*
G75*
G02*
X2521903Y39579993I88093J-4D01*
G01*
X4000739Y36669151D02*
G75*
G03*
X3840739Y36829239I-160039J49D01*
G01*
X3600739Y36560000D02*
G75*
G02*
X3440739Y36399961I-160039J0D01*
G01*
X4400739Y36130847D02*
G75*
G02*
X4240739Y35970761I-160039J-47D01*
G01*
X2610000Y38220000D02*
G75*
G03*
X2450000Y38380000I-160000J0D01*
G01*
X2325000Y37105000D02*
G75*
G03*
X2165000Y37265000I-160000J0D01*
G01*
X3760739Y36829151D02*
G75*
G03*
X3600749Y36669151I-39J-159951D01*
G01*
X2879150Y38780000D02*
G75*
G03*
X3039100Y38940000I-50J160000D01*
G01*
X2340851Y39980000D02*
G75*
G02*
X2180900Y40140000I49J160000D01*
G01*
X1895850Y37505000D02*
G75*
G02*
X2055850Y37665050I160050J0D01*
G01*
%TO.N,/SD/SD_CD*%
X3984000Y51036000D02*
X3870000Y51150000D01*
X3984000Y49500000D02*
X3984000Y51036000D01*
X3600000Y49116000D02*
X3984000Y49500000D01*
X3600000Y45930000D02*
X3600000Y49116000D01*
X5500000Y38000000D02*
X5000000Y38000000D01*
X5000000Y38000000D02*
X3984000Y39016000D01*
X3984000Y45546000D02*
X3600000Y45930000D01*
X3984000Y39016000D02*
X3984000Y45546000D01*
D66*
%TO.N,VDDIO_501_PS*%
X6300000Y46800000D02*
X7752157Y46800000D01*
D69*
%TO.N,/SOM/JTAG_TMS*%
X-5180000Y23660000D02*
X-1330000Y23660000D01*
X-610000Y25180000D02*
X4210000Y30000000D01*
X-5180000Y23660000D02*
X-6710000Y25190000D01*
X-1330000Y23660000D02*
X-610000Y24380000D01*
X-610000Y24380000D02*
X-610000Y25180000D01*
X-7250000Y24650000D02*
X-6710000Y25190000D01*
X4210000Y30000000D02*
X5500000Y30000000D01*
%TO.N,/SOM/JTAG_TDO*%
X-6390000Y29730000D02*
X-4704000Y28044000D01*
X-86000Y28044000D02*
X3470000Y31600000D01*
X-5790000Y31950000D02*
X-5790000Y30350000D01*
X-6410000Y29730000D02*
X-8025000Y29730000D01*
X3470000Y31600000D02*
X5500000Y31600000D01*
X-8025000Y29730000D02*
X-6390000Y29730000D01*
X-5790000Y30350000D02*
X-6410000Y29730000D01*
X-4704000Y28044000D02*
X-86000Y28044000D01*
%TO.N,/SOM/JTAG_TDI*%
X3827192Y30800000D02*
X-782808Y26190000D01*
X-8025000Y27190000D02*
X-5790000Y27190000D01*
X-782808Y26190000D02*
X-4790000Y26190000D01*
X6300000Y30800000D02*
X3827192Y30800000D01*
X-4790000Y26190000D02*
X-5390000Y26790000D01*
X-5790000Y27190000D02*
X-5390000Y26790000D01*
%TO.N,/SOM/JTAG_TCK*%
X4960000Y29200000D02*
X6300000Y29200000D01*
X4780000Y29380000D02*
X4960000Y29200000D01*
%TO.N,/SOM/UART_TX*%
X6300000Y40400000D02*
X4850000Y40400000D01*
%TO.N,/SOM/EXT_RST_IN*%
X-5820000Y32680000D02*
X-3385000Y32680000D01*
%TO.N,Net-(J3-DET)*%
X5010000Y57161000D02*
X5010000Y53910000D01*
X3340000Y57705000D02*
X4466000Y57705000D01*
X4466000Y57705000D02*
X5010000Y57161000D01*
X5010000Y53910000D02*
X4870000Y53770000D01*
D73*
%TO.N,3V3_MIC*%
X30720000Y43430000D02*
X30720000Y44121277D01*
X30720000Y44121277D02*
X30719458Y44121819D01*
D72*
X29800000Y54550000D02*
X30000000Y54750000D01*
X29800000Y53500000D02*
X29800000Y54550000D01*
D69*
%TO.N,Net-(D2-K)*%
X-8910000Y56950000D02*
X-8909999Y55910000D01*
%TO.N,/SOM/UART_TX_3V3*%
X-3220000Y27190000D02*
X-3730000Y26680000D01*
%TO.N,/SOM/UART_RX_3V3*%
X-5380000Y24650000D02*
X-5410000Y24620000D01*
X-2974999Y24650000D02*
X-5380000Y24650000D01*
%TO.N,/SOM/RGMII_LED_LINK*%
X1660000Y11119999D02*
X2322499Y11119999D01*
X3390000Y10052498D02*
X3390000Y4360000D01*
X4950000Y2800000D02*
X6300000Y2800000D01*
X2322499Y11119999D02*
X3390000Y10052498D01*
X3390000Y4360000D02*
X4950000Y2800000D01*
%TO.N,/SOM/RGMII_LED_ACT*%
X2950000Y8840000D02*
X2569999Y9220001D01*
X6300000Y2000000D02*
X5170000Y2000000D01*
X2569999Y9220001D02*
X1660000Y9220001D01*
X2950000Y4220000D02*
X2950000Y8840000D01*
X5170000Y2000000D02*
X2950000Y4220000D01*
%TO.N,/SOM/D56*%
X50800000Y-2000000D02*
X49600000Y-2000000D01*
%TO.N,/SOM/D34*%
X49600000Y-4400000D02*
X50800000Y-4400000D01*
%TO.N,/SOM/D58*%
X53900000Y-5200000D02*
X55200000Y-5200000D01*
%TO.N,/SOM/D36*%
X49175000Y-5625000D02*
X49600000Y-5200000D01*
X49600000Y-5200000D02*
X50800000Y-5200000D01*
%TO.N,/SOM/D52*%
X50800000Y9200000D02*
X49600000Y9200000D01*
%TO.N,/SOM/D30*%
X49600000Y8400000D02*
X50800000Y8400000D01*
%TO.N,/SOM/D14*%
X50800000Y7600000D02*
X49600000Y7600000D01*
%TO.N,/SOM/D4*%
X50800000Y5200000D02*
X49600000Y5200000D01*
%TO.N,/SOM/D0*%
X50800000Y2800000D02*
X49600000Y2800000D01*
%TO.N,/SOM/D6*%
X50800000Y1200000D02*
X49600000Y1200000D01*
%TO.N,/SOM/D20*%
X50800000Y-1200000D02*
X49600000Y-1200000D01*
%TO.N,/SOM/D18*%
X50800000Y-2800000D02*
X49600000Y-2800000D01*
%TO.N,/SOM/D38*%
X50800000Y-3600000D02*
X49600000Y-3600000D01*
D71*
%TO.N,/SOM/LED_DI*%
X54000000Y-400000D02*
X55200000Y-400000D01*
D69*
%TO.N,/SOM/LED0*%
X8480000Y27600000D02*
X7850000Y28230000D01*
X8860000Y48120000D02*
X7370000Y49610000D01*
X7850000Y28230000D02*
X7850000Y44820000D01*
X-7950000Y57450000D02*
X-7950000Y56960000D01*
X8860000Y45830000D02*
X8860000Y48120000D01*
X7850000Y44820000D02*
X8860000Y45830000D01*
X7370000Y49610000D02*
X7370000Y54620000D01*
X10700000Y27600000D02*
X8480000Y27600000D01*
%TO.N,/SOM/MCLK2*%
X55200000Y7600000D02*
X54080000Y7600000D01*
X54080000Y7600000D02*
X54050000Y7570000D01*
%TO.N,/SOM/SD_BOOT_CONF_H*%
X9900000Y36400000D02*
X8780000Y36400000D01*
X8780000Y36400000D02*
X8760000Y36420000D01*
D66*
%TO.N,VDDIO_34_3V3*%
X50800000Y6000000D02*
X52180000Y6000000D01*
X53950000Y6000000D02*
X55200000Y6000000D01*
D71*
X46500000Y3390000D02*
X49110000Y6000000D01*
X47220000Y-300000D02*
X46500000Y420000D01*
X48000000Y-300000D02*
X47220000Y-300000D01*
D72*
X38670000Y20450000D02*
X38640000Y20480000D01*
D71*
X46500000Y1260000D02*
X46500000Y3390000D01*
D66*
X52180000Y6000000D02*
X53950000Y6000000D01*
D71*
X48020000Y-320000D02*
X48000000Y-300000D01*
X49110000Y6000000D02*
X50800000Y6000000D01*
D72*
X38900000Y20450000D02*
X38670000Y20450000D01*
D71*
X46500000Y420000D02*
X46500000Y1260000D01*
D72*
X40100000Y19550000D02*
X40380000Y19550000D01*
X40380000Y19550000D02*
X40390000Y19540000D01*
X38900000Y14450000D02*
X38620000Y14450000D01*
X38620000Y14450000D02*
X38610000Y14460000D01*
X40100000Y13550000D02*
X40390000Y13550000D01*
D73*
%TO.N,GNDPWR*%
X-19582500Y25622499D02*
X-19602500Y25602499D01*
X-19582500Y26002499D02*
X-19582500Y25622499D01*
D67*
X-20520000Y22650000D02*
X-21167501Y22002499D01*
X-21167501Y22002499D02*
X-23902500Y22002499D01*
D73*
X-19582500Y27002499D02*
X-19582500Y27422499D01*
D66*
%TO.N,VDDIO_13_3V3*%
X50800000Y24400000D02*
X55200000Y24400000D01*
D75*
%TO.N,VCCIN*%
X-20410052Y19857501D02*
X-21290000Y19857501D01*
X-19250000Y20200000D02*
X-20067553Y20200000D01*
X-20067553Y20200000D02*
X-20410052Y19857501D01*
D67*
%TO.N,/Ethernet/POE_PR78*%
X-15550000Y-3930000D02*
X-18360000Y-1120000D01*
X-20810000Y-1120000D02*
X-22460000Y530000D01*
X-22460000Y530000D02*
X-22460000Y1175000D01*
X-18360000Y-1120000D02*
X-20810000Y-1120000D01*
X-15550000Y-4170000D02*
X-15550000Y-3930000D01*
%TO.N,/Ethernet/POE_PR45*%
X-22460000Y12355000D02*
X-22460000Y3680000D01*
X-23710000Y2430000D02*
X-23710000Y210000D01*
X-23710000Y210000D02*
X-20670000Y-2830000D01*
X-20670000Y-2830000D02*
X-18240000Y-2830000D01*
X-14670000Y-6400000D02*
X-14180000Y-6400000D01*
X-22460000Y3680000D02*
X-23710000Y2430000D01*
X-18240000Y-2830000D02*
X-14670000Y-6400000D01*
%TO.N,/Ethernet/POE_PR36*%
X-19525000Y-210000D02*
X-17850000Y-210000D01*
X-20910000Y1175000D02*
X-19525000Y-210000D01*
X-17850000Y-210000D02*
X-14000000Y-4060000D01*
X-14000000Y-4060000D02*
X-11960000Y-4060000D01*
%TO.N,/Ethernet/POE_PR12*%
X-10480000Y-6400000D02*
X-10470000Y-6410000D01*
X-20910000Y12355000D02*
X-20910000Y4320000D01*
X-11720000Y-2950000D02*
X-10480000Y-4190000D01*
X-13640000Y-2950000D02*
X-11720000Y-2950000D01*
X-20910000Y4320000D02*
X-13640000Y-2950000D01*
X-10480000Y-4190000D02*
X-10480000Y-6400000D01*
D76*
%TO.N,/Ethernet/RGMII0_TRP3*%
X4820551Y-1725000D02*
X4625551Y-1920000D01*
X5275000Y-1725000D02*
X4820551Y-1725000D01*
X-10124882Y9460000D02*
X-10120000Y9460000D01*
X5550000Y-2000000D02*
X5275000Y-1725000D01*
X-3183112Y4529988D02*
X-2924962Y4529988D01*
X-11260000Y10595118D02*
X-10124882Y9460000D01*
X-2869397Y4474423D02*
X-2869399Y4474423D01*
X-2588198Y4051802D02*
X-2831949Y4295553D01*
X-2831949Y4436975D02*
X-2869397Y4474423D01*
X-2924962Y4529988D02*
X-2869397Y4474423D01*
X-2831949Y4295553D02*
X-2831949Y4436975D01*
%TO.N,/Ethernet/RGMII0_TRN2*%
X-11128222Y7315000D02*
X-12743222Y8930000D01*
X9228443Y-2275000D02*
X9033443Y-2080000D01*
X9675000Y-2275000D02*
X9228443Y-2275000D01*
X9950000Y-2000000D02*
X9675000Y-2275000D01*
X-1458270Y6231941D02*
X-1734041Y6231941D01*
X-1391048Y5857824D02*
X-1466611Y5933387D01*
X-12743222Y8930000D02*
X-12910000Y8930000D01*
X-1734041Y6231941D02*
X-2817100Y7315000D01*
X-12910000Y8930000D02*
X-13800000Y9820000D01*
X-1249626Y5857824D02*
X-1391048Y5857824D01*
X-2817100Y7315000D02*
X-11128222Y7315000D01*
X-1466611Y5933387D02*
X-1466611Y5933389D01*
X-1005875Y5614073D02*
X-1249626Y5857824D01*
%TO.N,/Ethernet/RGMII0_TRN1*%
X-12530000Y5870000D02*
X-12530000Y5540000D01*
X-2071802Y1578198D02*
X-2315553Y1821949D01*
X-2540945Y2184916D02*
X-2540945Y1949055D01*
X4813499Y-3875000D02*
X4618499Y-3680000D01*
X5550000Y-3600000D02*
X5275000Y-3875000D01*
X-2540945Y1949055D02*
X-2562512Y1927488D01*
X-2562512Y1927486D02*
X-2562512Y1927488D01*
X-2456975Y1821949D02*
X-2562512Y1927486D01*
X-12530000Y5540000D02*
X-13800000Y4270000D01*
X-2315553Y1821949D02*
X-2456975Y1821949D01*
X5275000Y-3875000D02*
X4813499Y-3875000D01*
%TO.N,/Ethernet/RGMII0_TRN0*%
X9204609Y-4675000D02*
X9009609Y-4480000D01*
X9950000Y-4400000D02*
X9675000Y-4675000D01*
X-3278388Y266586D02*
X-3522139Y510337D01*
X-3731611Y578387D02*
X-3731611Y844159D01*
X-3522139Y510337D02*
X-3663561Y510337D01*
X9675000Y-4675000D02*
X9204609Y-4675000D01*
X-3663561Y510337D02*
X-3731611Y578387D01*
X-3731611Y844159D02*
X-3741369Y853917D01*
%TO.N,/Ethernet/RGMII0_TRP2*%
X-1643387Y5756611D02*
X-1643389Y5756611D01*
X9950000Y-2800000D02*
X9675000Y-2525000D01*
X-1567824Y5539626D02*
X-1567824Y5681048D01*
X-11231778Y7065000D02*
X-12846778Y8680000D01*
X-2920654Y7065000D02*
X-11231778Y7065000D01*
X-1324073Y5295875D02*
X-1567824Y5539626D01*
X-1910818Y6055164D02*
X-2920654Y7065000D01*
X9675000Y-2525000D02*
X9228443Y-2525000D01*
X-1910818Y5779393D02*
X-1910818Y6055164D01*
X-12910000Y8680000D02*
X-13800000Y7790000D01*
X9228443Y-2525000D02*
X9033443Y-2720000D01*
X-12846778Y8680000D02*
X-12910000Y8680000D01*
X-1567824Y5681048D02*
X-1643387Y5756611D01*
%TO.N,/Ethernet/RGMII0_TRN3*%
X5550000Y-1200000D02*
X5275000Y-1475000D01*
X-2692621Y4651199D02*
X-2692621Y4651201D01*
X-2513751Y4613751D02*
X-2655173Y4613751D01*
X-2655173Y4613751D02*
X-2692621Y4651199D01*
X-2270000Y4370000D02*
X-2513751Y4613751D01*
X-2730564Y4689144D02*
X-2692621Y4651201D01*
X-2730564Y4982536D02*
X-2730564Y4689144D01*
X4820551Y-1475000D02*
X4625551Y-1280000D01*
X5275000Y-1475000D02*
X4820551Y-1475000D01*
%TO.N,/Ethernet/RGMII0_TRP1*%
X5550000Y-4400000D02*
X5275000Y-4125000D01*
X-2390000Y1260000D02*
X-2633751Y1503751D01*
X-2633751Y1645173D02*
X-2739288Y1750710D01*
X-2633751Y1503751D02*
X-2633751Y1645173D01*
X5275000Y-4125000D02*
X4813499Y-4125000D01*
X-2975151Y1750710D02*
X-2993493Y1732368D01*
X-2739288Y1750710D02*
X-2975151Y1750710D01*
X4813499Y-4125000D02*
X4618499Y-4320000D01*
%TO.N,/Ethernet/RGMII0_TRP0*%
X-3840337Y333561D02*
X-3908387Y401611D01*
X9950000Y-5200000D02*
X9675000Y-4925000D01*
X9204609Y-4925000D02*
X9009609Y-5120000D01*
X-3596586Y-51612D02*
X-3840337Y192139D01*
X-3840337Y192139D02*
X-3840337Y333561D01*
X-3908387Y401611D02*
X-4193675Y401611D01*
X-4193675Y401611D02*
X-4193917Y401369D01*
X9675000Y-4925000D02*
X9204609Y-4925000D01*
D69*
%TO.N,/Ethernet/RGMII0_LED_LINK*%
X-4890000Y14625001D02*
X-1384998Y11119999D01*
X-1384998Y11119999D02*
X-615000Y11119999D01*
%TO.N,Net-(D9-K)*%
X-3895001Y14600002D02*
X-4890000Y15595001D01*
X-3870000Y14600002D02*
X-3895001Y14600002D01*
D67*
%TO.N,/PSU/PoE_VIN-*%
X-4210000Y-4810000D02*
X-5240000Y-5840000D01*
D69*
%TO.N,/SOM/FPGA_DONE*%
X-4840000Y34050000D02*
X-4080000Y34810000D01*
X-950000Y36530000D02*
X-950000Y44160000D01*
X-5370000Y34050000D02*
X-4840000Y34050000D01*
X-950000Y44160000D02*
X-880000Y44230000D01*
X-950000Y36530000D02*
X-2670000Y34810000D01*
D74*
%TO.N,/PSU/PoE_VDC+*%
X-23140000Y-12800000D02*
X-26750000Y-16410000D01*
D67*
X-25360000Y-14940000D02*
X-25360000Y-15020000D01*
D74*
X-11580000Y-16390000D02*
X-15170000Y-12800000D01*
X-3095000Y-16390000D02*
X-11580000Y-16390000D01*
X-15170000Y-12800000D02*
X-23140000Y-12800000D01*
D77*
%TO.N,/SOM/USB_D+*%
X-29427500Y35670000D02*
X-28565700Y34808200D01*
X-28565700Y34808200D02*
X-25194227Y34808200D01*
X-25194227Y34808200D02*
X-25174227Y34788200D01*
X-25116801Y34788200D02*
X-24855001Y35050000D01*
X-25174227Y34788200D02*
X-25116801Y34788200D01*
X-24855001Y35050000D02*
X-24180000Y35050000D01*
%TO.N,/SOM/USB_D-*%
X-25116801Y34511800D02*
X-24855001Y34250000D01*
X-29427500Y33670000D02*
X-28565700Y34531800D01*
X-25280000Y34511800D02*
X-25116801Y34511800D01*
X-25300000Y34531800D02*
X-25280000Y34511800D01*
X-24855001Y34250000D02*
X-24180000Y34250000D01*
X-28565700Y34531800D02*
X-25300000Y34531800D01*
%TO.N,/SOM/FPGA_USB_D+*%
X11711800Y-138200D02*
X12477244Y-138200D01*
X13376086Y760642D02*
X13376086Y989465D01*
X13376086Y989465D02*
X13557886Y1171265D01*
X11450000Y-400000D02*
X11711800Y-138200D01*
X-22230000Y35050000D02*
X-21968200Y34788200D01*
X-21575471Y34788200D02*
X-21393671Y34970000D01*
X12477244Y-138200D02*
X13376086Y760642D01*
X-21968200Y34788200D02*
X-21575471Y34788200D01*
%TO.N,/SOM/FPGA_USB_D-*%
X12362756Y138200D02*
X13099686Y875130D01*
X-22230000Y34250000D02*
X-21968200Y34511800D01*
X-21968200Y34511800D02*
X-21575471Y34511800D01*
X13099686Y989465D02*
X12917886Y1171265D01*
X13099686Y875130D02*
X13099686Y989465D01*
X11450000Y400000D02*
X11711800Y138200D01*
X11711800Y138200D02*
X12362756Y138200D01*
X-21575471Y34511800D02*
X-21393671Y34330000D01*
D78*
%TO.N,Net-(Q1-G)*%
X-22130000Y19380000D02*
X-21380000Y18630000D01*
X-21380000Y18630000D02*
X-19970000Y18630000D01*
X-19970000Y18630000D02*
X-19970000Y18352500D01*
X-22130000Y19400000D02*
X-22130000Y19380000D01*
X-19970000Y18352500D02*
X-20340000Y17982500D01*
D69*
%TO.N,/PSU/VBUS_TVS*%
X-21802486Y24898099D02*
X-21802486Y26502485D01*
D67*
X-20652500Y26002499D02*
X-21152500Y26502499D01*
D69*
X-23102458Y25090000D02*
X-23102458Y26402541D01*
X-22452472Y24898099D02*
X-22452472Y26452527D01*
D67*
X-20222500Y27002499D02*
X-20652500Y27002499D01*
X-20222500Y26002499D02*
X-20652500Y26002499D01*
D69*
X-23102458Y26402541D02*
X-23002500Y26502499D01*
D73*
X-24727500Y23252499D02*
X-24727500Y24577499D01*
D69*
X-23830000Y25090000D02*
X-23102458Y25090000D01*
X-22452472Y26452527D02*
X-22402500Y26502499D01*
X-24727500Y24577499D02*
X-24702500Y24602499D01*
X-24727500Y24192500D02*
X-23830000Y25090000D01*
X-24727500Y23252499D02*
X-24727500Y24192500D01*
X-21802486Y26502485D02*
X-21802500Y26502499D01*
D67*
X-20652500Y27002499D02*
X-21152500Y26502499D01*
D69*
X-21152500Y24898099D02*
X-21152500Y26502499D01*
D79*
%TO.N,/PSU/VBUS*%
X-30047526Y24202500D02*
X-29762500Y23917474D01*
X-31892500Y24202499D02*
X-30542501Y24202499D01*
X-29762500Y23917474D02*
X-29762500Y20142499D01*
X-30542500Y24202500D02*
X-30047526Y24202500D01*
X-29027501Y24202500D02*
X-28077500Y23252499D01*
X-29952500Y19952499D02*
X-31892500Y19952499D01*
X-30542500Y24202500D02*
X-29027501Y24202500D01*
X-29762500Y20142499D02*
X-29952500Y19952499D01*
D69*
%TO.N,/SOM/S_JTAG_H*%
X8780000Y35590000D02*
X9890000Y35590000D01*
D71*
%TO.N,GNDA*%
X-19300000Y46760000D02*
X-19300000Y47660000D01*
D73*
X-21690000Y46330000D02*
X-21690000Y45930000D01*
D71*
X-15400000Y46760000D02*
X-15400000Y47620000D01*
X-23006016Y48996016D02*
X-23470000Y49460000D01*
X-19300000Y47660000D02*
X-19310000Y47670000D01*
X-15400000Y47620000D02*
X-15390000Y47630000D01*
X-33180000Y56600000D02*
X-33170000Y56610000D01*
X-34080000Y56600000D02*
X-33180000Y56600000D01*
X-17528008Y54498008D02*
X-17980000Y54950000D01*
D74*
%TO.N,Net-(C2-Pad1)*%
X-32080000Y51470000D02*
X-31980000Y51570000D01*
X-32080000Y49600000D02*
X-32080000Y51470000D01*
X-22874832Y55065168D02*
X-22874832Y55500000D01*
X-24000000Y55500000D02*
X-22874832Y55500000D01*
X-20794091Y53419259D02*
X-20794091Y53417332D01*
X-20794091Y53417332D02*
X-18680000Y51303241D01*
X-22874832Y55500000D02*
X-20794091Y53419259D01*
X-23190000Y54750000D02*
X-22874832Y55065168D01*
X-19654435Y52305565D02*
X-18558008Y53401992D01*
D71*
%TO.N,/DAC/LDOO*%
X-19513001Y41985500D02*
X-21284500Y41985500D01*
X-19300000Y41035000D02*
X-19300000Y41772499D01*
X-21284500Y41985500D02*
X-21610000Y41660000D01*
X-19300000Y41772499D02*
X-19513001Y41985500D01*
X-21630000Y41310000D02*
X-21630000Y41640000D01*
X-21630000Y41640000D02*
X-21610000Y41660000D01*
D73*
%TO.N,+3.3VA*%
X-16050000Y45850000D02*
X-16010000Y45810000D01*
D71*
X-21920000Y46890000D02*
X-22250000Y46560000D01*
X-20730000Y46890000D02*
X-20600000Y46760000D01*
D73*
X-16050000Y46760000D02*
X-16050000Y45850000D01*
D71*
X-21690000Y46890000D02*
X-21920000Y46890000D01*
X-21690000Y46890000D02*
X-20730000Y46890000D01*
D67*
%TO.N,Net-(U10-CAPM)*%
X-18650000Y45595000D02*
X-18505000Y45450000D01*
X-18650000Y46760000D02*
X-18650000Y45595000D01*
%TO.N,Net-(U10-CAPP)*%
X-19950000Y46760000D02*
X-19950000Y45555000D01*
X-19950000Y45555000D02*
X-20055000Y45450000D01*
D72*
%TO.N,Net-(U10-VNEG)*%
X-18060000Y46820000D02*
X-18000000Y46760000D01*
X-18060000Y47710000D02*
X-18060000Y46820000D01*
D74*
%TO.N,Net-(C40-Pad1)*%
X-22180000Y52500000D02*
X-19810000Y50130000D01*
X-24090000Y52500000D02*
X-27080000Y55490000D01*
X-24000000Y52500000D02*
X-22180000Y52500000D01*
X-20870000Y51130000D02*
X-21910000Y50090000D01*
D72*
%TO.N,Net-(U10-XSMT)*%
X-18610000Y41990000D02*
X-18610000Y41075000D01*
D67*
%TO.N,/DAC/OUTR*%
X-16700000Y46760000D02*
X-16700000Y49060000D01*
X-16700000Y49060000D02*
X-17513274Y49873274D01*
X-17513274Y49873274D02*
X-17513274Y50136515D01*
%TO.N,/DAC/OUTL*%
X-17350000Y46760000D02*
X-17350000Y47990000D01*
X-17350000Y47990000D02*
X-18323274Y48963274D01*
X-18323274Y48963274D02*
X-18643274Y48963274D01*
D69*
%TO.N,/DAC/I2S_LRCK*%
X3860000Y26000000D02*
X5500000Y26000000D01*
X-17350000Y41035000D02*
X-17350000Y40110565D01*
X-17350000Y40110565D02*
X-17349918Y40110483D01*
%TO.N,/DAC/I2S_BCK*%
X-16050000Y40110000D02*
X-16050000Y41035000D01*
X3060000Y27600000D02*
X5500000Y27600000D01*
%TO.N,/DAC/I2S_DIN*%
X-16700000Y41035000D02*
X-16700000Y40100000D01*
X3360000Y26800000D02*
X5500000Y26800000D01*
%TO.N,/Ethernet/RGMII0_LED_ACT*%
X-4407001Y-3042999D02*
X-4890000Y-2560000D01*
X-615000Y9220001D02*
X1760000Y6845001D01*
X1760000Y6845001D02*
X1760000Y120000D01*
X-1402999Y-3042999D02*
X-4407001Y-3042999D01*
X1760000Y120000D02*
X-1402999Y-3042999D01*
%TO.N,Net-(D10-K)*%
X-3870000Y-2584999D02*
X-3895001Y-2584999D01*
X-3895001Y-2584999D02*
X-4890000Y-1590000D01*
%TO.N,/SOM/SYNC_IN*%
X40470000Y16400000D02*
X39300001Y15230001D01*
X50800000Y16400000D02*
X40470000Y16400000D01*
X39300001Y15230001D02*
X39300001Y14450000D01*
%TO.N,/SOM/SYNC_OUT*%
X40510000Y17200000D02*
X50800000Y17200000D01*
X39699999Y18010001D02*
X40510000Y17200000D01*
X39699999Y19550000D02*
X39699999Y18010001D01*
D73*
%TO.N,/SOM/SYNC_IN_5V*%
X36500000Y-15440000D02*
X36500000Y9720000D01*
X39300001Y12520001D02*
X39300001Y13550000D01*
X36500000Y9720000D02*
X39300001Y12520001D01*
%TO.N,/SOM/SYNC_OUT_5V*%
X39699999Y21170001D02*
X39699999Y20450000D01*
X36500000Y24370000D02*
X39699999Y21170001D01*
X36500000Y55010000D02*
X36500000Y24370000D01*
D69*
%TO.N,/SOM/PS_WARMRESET_IN*%
X10700000Y46000000D02*
X11450000Y46000000D01*
X11450000Y46000000D02*
X14500000Y49050000D01*
X14500000Y49050000D02*
X14500000Y53530000D01*
X14500000Y53530000D02*
X14500000Y55600000D01*
%TD*%
%TA.AperFunction,Conductor*%
%TO.N,/PSU/VBUS*%
G36*
X-31964975Y24501999D02*
G01*
X-31820025Y24501999D01*
X-31818159Y24502499D01*
X-30625262Y24502499D01*
X-30617634Y24501999D01*
X-30614975Y24501999D01*
X-30467366Y24501999D01*
X-30459738Y24502499D01*
X-28451530Y24502499D01*
X-28393339Y24483592D01*
X-28357375Y24434092D01*
X-28353748Y24418983D01*
X-28350615Y24399193D01*
X-28349854Y24394718D01*
X-28349853Y24394713D01*
X-28313909Y24310617D01*
X-28313908Y24310616D01*
X-28277944Y24261116D01*
X-28253703Y24233371D01*
X-28175193Y24186463D01*
X-28117002Y24167556D01*
X-28104302Y24165545D01*
X-28053504Y24157499D01*
X-28053500Y24157499D01*
X-27751500Y24157499D01*
X-27693309Y24138592D01*
X-27657345Y24089092D01*
X-27652500Y24058499D01*
X-27652500Y22851499D01*
X-27651635Y22840514D01*
X-27649970Y22819356D01*
X-27645117Y22788706D01*
X-27644354Y22784218D01*
X-27644353Y22784213D01*
X-27608409Y22700117D01*
X-27608408Y22700116D01*
X-27572444Y22650616D01*
X-27548203Y22622871D01*
X-27469693Y22575963D01*
X-27411502Y22557056D01*
X-27399448Y22555147D01*
X-27348004Y22546999D01*
X-27229870Y22546999D01*
X-27171679Y22528092D01*
X-27135715Y22478592D01*
X-27135715Y22417406D01*
X-27171679Y22367906D01*
X-27178340Y22363582D01*
X-27179110Y22362991D01*
X-27262993Y22279108D01*
X-27322298Y22176390D01*
X-27322299Y22176385D01*
X-27348795Y22077499D01*
X-27349230Y22075876D01*
X-27382554Y22024561D01*
X-27439676Y22002635D01*
X-27444857Y22002499D01*
X-29402500Y22002499D01*
X-29402500Y22002498D01*
X-29402500Y19601499D01*
X-29421407Y19543308D01*
X-29470907Y19507344D01*
X-29501500Y19502499D01*
X-30122969Y19502499D01*
X-30181160Y19521406D01*
X-30192967Y19531490D01*
X-30204485Y19543008D01*
X-30204488Y19543010D01*
X-30204490Y19543012D01*
X-30330012Y19615482D01*
X-30330011Y19615482D01*
X-30359604Y19623412D01*
X-30470025Y19652999D01*
X-30614975Y19652999D01*
X-30676710Y19636458D01*
X-30754990Y19615482D01*
X-30880511Y19543012D01*
X-30880512Y19543011D01*
X-30880515Y19543009D01*
X-30880515Y19543008D01*
X-30892030Y19531494D01*
X-30946544Y19503718D01*
X-30962031Y19502499D01*
X-31472969Y19502499D01*
X-31531160Y19521406D01*
X-31542967Y19531490D01*
X-31554485Y19543008D01*
X-31554488Y19543010D01*
X-31554490Y19543012D01*
X-31680012Y19615482D01*
X-31680011Y19615482D01*
X-31709604Y19623412D01*
X-31820025Y19652999D01*
X-31964975Y19652999D01*
X-32026710Y19636458D01*
X-32104990Y19615482D01*
X-32230511Y19543012D01*
X-32230512Y19543011D01*
X-32230515Y19543009D01*
X-32230515Y19543008D01*
X-32242030Y19531494D01*
X-32296544Y19503718D01*
X-32312031Y19502499D01*
X-32553500Y19502499D01*
X-32611691Y19521406D01*
X-32647655Y19570906D01*
X-32652500Y19601499D01*
X-32652500Y20403499D01*
X-32647655Y20418411D01*
X-32647655Y20434092D01*
X-32638439Y20446778D01*
X-32633593Y20461690D01*
X-32620908Y20470907D01*
X-32611691Y20483592D01*
X-32596779Y20488438D01*
X-32584093Y20497654D01*
X-32553500Y20502499D01*
X-32411000Y20502499D01*
X-32352809Y20483592D01*
X-32337750Y20468921D01*
X-32337597Y20469073D01*
X-32333011Y20464487D01*
X-32333009Y20464484D01*
X-32230515Y20361990D01*
X-32230513Y20361989D01*
X-32230511Y20361987D01*
X-32104989Y20289517D01*
X-32104988Y20289517D01*
X-32104985Y20289515D01*
X-31964975Y20251999D01*
X-31964974Y20251999D01*
X-31820026Y20251999D01*
X-31820025Y20251999D01*
X-31680015Y20289515D01*
X-31680013Y20289517D01*
X-31680011Y20289517D01*
X-31554490Y20361987D01*
X-31554490Y20361988D01*
X-31554485Y20361990D01*
X-31451991Y20464484D01*
X-31451990Y20464487D01*
X-31447403Y20469073D01*
X-31446351Y20468021D01*
X-31402121Y20498421D01*
X-31374000Y20502499D01*
X-31060999Y20502499D01*
X-31002808Y20483592D01*
X-30987750Y20468922D01*
X-30987597Y20469074D01*
X-30983011Y20464488D01*
X-30983009Y20464485D01*
X-30880515Y20361991D01*
X-30880513Y20361990D01*
X-30880511Y20361988D01*
X-30754989Y20289518D01*
X-30754988Y20289518D01*
X-30754985Y20289516D01*
X-30614975Y20252000D01*
X-30614974Y20252000D01*
X-30470026Y20252000D01*
X-30470025Y20252000D01*
X-30330015Y20289516D01*
X-30330013Y20289518D01*
X-30330011Y20289518D01*
X-30204490Y20361988D01*
X-30204490Y20361989D01*
X-30204485Y20361991D01*
X-30101991Y20464485D01*
X-30099342Y20469073D01*
X-30029518Y20590011D01*
X-30029517Y20590014D01*
X-30029516Y20590015D01*
X-29992000Y20730025D01*
X-29992000Y20874975D01*
X-30029516Y21014985D01*
X-30029518Y21014988D01*
X-30029518Y21014990D01*
X-30101988Y21140511D01*
X-30101990Y21140513D01*
X-30101991Y21140515D01*
X-30118975Y21157499D01*
X-30146750Y21212013D01*
X-30137179Y21272445D01*
X-30118974Y21297503D01*
X-30101991Y21314484D01*
X-30101990Y21314487D01*
X-30101988Y21314488D01*
X-30029518Y21440010D01*
X-30029518Y21440012D01*
X-30029516Y21440014D01*
X-29992000Y21580024D01*
X-29992000Y21724974D01*
X-30029516Y21864984D01*
X-30029518Y21864987D01*
X-30029518Y21864989D01*
X-30101988Y21990510D01*
X-30101990Y21990512D01*
X-30101991Y21990514D01*
X-30118975Y22007498D01*
X-30146750Y22062012D01*
X-30137179Y22122444D01*
X-30118976Y22147500D01*
X-30101991Y22164484D01*
X-30042621Y22267315D01*
X-30029518Y22290010D01*
X-30029518Y22290012D01*
X-30029516Y22290014D01*
X-29992000Y22430024D01*
X-29992000Y22574974D01*
X-30029516Y22714984D01*
X-30029518Y22714987D01*
X-30029518Y22714989D01*
X-30101988Y22840510D01*
X-30101990Y22840512D01*
X-30101991Y22840514D01*
X-30118975Y22857498D01*
X-30146750Y22912012D01*
X-30137179Y22972444D01*
X-30118976Y22997500D01*
X-30101991Y23014484D01*
X-30029516Y23140014D01*
X-29992000Y23280024D01*
X-29992000Y23424974D01*
X-30029516Y23564984D01*
X-30029518Y23564987D01*
X-30029518Y23564989D01*
X-30101988Y23690510D01*
X-30101990Y23690512D01*
X-30101991Y23690514D01*
X-30204485Y23793008D01*
X-30204488Y23793010D01*
X-30204490Y23793012D01*
X-30330012Y23865482D01*
X-30330011Y23865482D01*
X-30359604Y23873412D01*
X-30470025Y23902999D01*
X-30614975Y23902999D01*
X-30676710Y23886458D01*
X-30754990Y23865482D01*
X-30880511Y23793012D01*
X-30983013Y23690510D01*
X-31055484Y23564986D01*
X-31056052Y23563614D01*
X-31056743Y23562806D01*
X-31058729Y23559365D01*
X-31059367Y23559734D01*
X-31073513Y23543170D01*
X-31089325Y23521406D01*
X-31093167Y23520158D01*
X-31095788Y23517088D01*
X-31147516Y23502499D01*
X-31287484Y23502499D01*
X-31345675Y23521406D01*
X-31375809Y23559632D01*
X-31376271Y23559365D01*
X-31378112Y23562553D01*
X-31378948Y23563614D01*
X-31379517Y23564986D01*
X-31451988Y23690510D01*
X-31451990Y23690512D01*
X-31451991Y23690514D01*
X-31554485Y23793008D01*
X-31554488Y23793010D01*
X-31554490Y23793012D01*
X-31680012Y23865482D01*
X-31680011Y23865482D01*
X-31709604Y23873412D01*
X-31820025Y23902999D01*
X-31964975Y23902999D01*
X-32026710Y23886458D01*
X-32104990Y23865482D01*
X-32230511Y23793012D01*
X-32230512Y23793011D01*
X-32230515Y23793009D01*
X-32230515Y23793008D01*
X-32233499Y23790025D01*
X-32288013Y23762249D01*
X-32348445Y23771820D01*
X-32391710Y23815085D01*
X-32402500Y23860030D01*
X-32402500Y24403499D01*
X-32383593Y24461690D01*
X-32334093Y24497654D01*
X-32303500Y24502499D01*
X-31966841Y24502499D01*
X-31964975Y24501999D01*
G37*
%TD.AperFunction*%
%TD*%
%TA.AperFunction,Conductor*%
%TO.N,/PSU/VBUS_TVS*%
G36*
X-20443309Y26983592D02*
G01*
X-20407345Y26934092D01*
X-20402500Y26903499D01*
X-20402500Y23549299D01*
X-20407345Y23534388D01*
X-20407345Y23518706D01*
X-20416562Y23506021D01*
X-20421407Y23491108D01*
X-20434093Y23481892D01*
X-20443309Y23469206D01*
X-20458222Y23464361D01*
X-20470907Y23455144D01*
X-20501500Y23450299D01*
X-20570879Y23450299D01*
X-20629070Y23469206D01*
X-20665034Y23518706D01*
X-20669879Y23549299D01*
X-20669879Y24658247D01*
X-20669881Y24658259D01*
X-20678781Y24703000D01*
X-20681512Y24716731D01*
X-20725827Y24783052D01*
X-20725831Y24783055D01*
X-20792146Y24827366D01*
X-20792148Y24827367D01*
X-20792151Y24827368D01*
X-20792152Y24827368D01*
X-20850621Y24838999D01*
X-20850631Y24839000D01*
X-23379327Y24839000D01*
X-23379328Y24839000D01*
X-23379338Y24838999D01*
X-23437807Y24827368D01*
X-23437813Y24827366D01*
X-23504128Y24783055D01*
X-23504134Y24783049D01*
X-23548445Y24716734D01*
X-23548447Y24716728D01*
X-23560078Y24658259D01*
X-23560079Y24658247D01*
X-23560079Y23549299D01*
X-23578986Y23491108D01*
X-23628486Y23455144D01*
X-23659079Y23450299D01*
X-24352079Y23450299D01*
X-24252306Y22851499D01*
X-24180455Y22420272D01*
X-24182842Y22404384D01*
X-24180328Y22388516D01*
X-24187271Y22374890D01*
X-24189542Y22359765D01*
X-24208104Y22333999D01*
X-24260604Y22281497D01*
X-24315120Y22253718D01*
X-24330609Y22252499D01*
X-24974391Y22252499D01*
X-25032582Y22271406D01*
X-25044389Y22281490D01*
X-25123506Y22360607D01*
X-25151281Y22415121D01*
X-25152500Y22430608D01*
X-25152500Y24252498D01*
X-25152500Y24252499D01*
X-25152501Y24252499D01*
X-26652499Y24252499D01*
X-26652500Y24252499D01*
X-26652500Y24252498D01*
X-26652500Y22851499D01*
X-26671407Y22793308D01*
X-26720907Y22757344D01*
X-26751500Y22752499D01*
X-27348000Y22752499D01*
X-27406191Y22771406D01*
X-27442155Y22820906D01*
X-27447000Y22851499D01*
X-27447000Y24182246D01*
X-27447002Y24182258D01*
X-27449789Y24196268D01*
X-27458633Y24240730D01*
X-27502948Y24307051D01*
X-27502952Y24307054D01*
X-27569267Y24351365D01*
X-27569269Y24351366D01*
X-27569272Y24351367D01*
X-27569273Y24351367D01*
X-27627742Y24362998D01*
X-27627752Y24362999D01*
X-27627753Y24362999D01*
X-28053500Y24362999D01*
X-28111691Y24381906D01*
X-28147655Y24431406D01*
X-28152500Y24461999D01*
X-28152500Y26903499D01*
X-28133593Y26961690D01*
X-28084093Y26997654D01*
X-28053500Y27002499D01*
X-20501500Y27002499D01*
X-20443309Y26983592D01*
G37*
%TD.AperFunction*%
%TD*%
%TA.AperFunction,Conductor*%
%TO.N,/PSU/PoE_VIN-*%
G36*
X-4623939Y-3219685D02*
G01*
X-4603297Y-3236319D01*
X-4563057Y-3276559D01*
X-4484744Y-3308996D01*
X-4461801Y-3318499D01*
X-4461799Y-3318499D01*
X-1348200Y-3318499D01*
X-1348199Y-3318499D01*
X-1246941Y-3276556D01*
X-1206704Y-3236319D01*
X-1145381Y-3202834D01*
X-1119023Y-3200000D01*
X-773517Y-3200000D01*
X-706478Y-3219685D01*
X-660723Y-3272489D01*
X-649518Y-3323516D01*
X-619723Y-10950943D01*
X-600671Y-15828294D01*
X-600486Y-15875516D01*
X-603071Y-15884445D01*
X-601747Y-15893647D01*
X-612628Y-15917471D01*
X-619908Y-15942631D01*
X-626910Y-15948746D01*
X-630772Y-15957203D01*
X-652807Y-15971363D01*
X-672533Y-15988592D01*
X-683291Y-15990954D01*
X-689550Y-15994977D01*
X-724485Y-16000000D01*
X-865500Y-16000000D01*
X-932539Y-15980315D01*
X-978294Y-15927511D01*
X-989500Y-15876000D01*
X-989500Y-15455249D01*
X-989501Y-15455247D01*
X-1001132Y-15396770D01*
X-1001133Y-15396769D01*
X-1045448Y-15330447D01*
X-1111770Y-15286132D01*
X-1111771Y-15286131D01*
X-1170248Y-15274500D01*
X-1170252Y-15274500D01*
X-5019748Y-15274500D01*
X-5019753Y-15274500D01*
X-5078230Y-15286131D01*
X-5078231Y-15286132D01*
X-5144553Y-15330447D01*
X-5188868Y-15396769D01*
X-5188869Y-15396770D01*
X-5200500Y-15455247D01*
X-5200500Y-15715500D01*
X-5220185Y-15782539D01*
X-5272989Y-15828294D01*
X-5324500Y-15839500D01*
X-9376000Y-15839500D01*
X-9443039Y-15819815D01*
X-9488794Y-15767011D01*
X-9500000Y-15715500D01*
X-9500000Y-10950943D01*
X-4790500Y-10950943D01*
X-4790500Y-11109056D01*
X-4749577Y-11261783D01*
X-4749574Y-11261790D01*
X-4670525Y-11398709D01*
X-4670521Y-11398714D01*
X-4670520Y-11398716D01*
X-4558716Y-11510520D01*
X-4558714Y-11510521D01*
X-4558710Y-11510524D01*
X-4421791Y-11589573D01*
X-4421784Y-11589577D01*
X-4269057Y-11630500D01*
X-4269055Y-11630500D01*
X-4110945Y-11630500D01*
X-4110943Y-11630500D01*
X-3958216Y-11589577D01*
X-3821284Y-11510520D01*
X-3709480Y-11398716D01*
X-3630423Y-11261784D01*
X-3589500Y-11109057D01*
X-3589500Y-10950943D01*
X-3630423Y-10798216D01*
X-3673625Y-10723387D01*
X-3709476Y-10661290D01*
X-3709482Y-10661282D01*
X-3821283Y-10549481D01*
X-3821291Y-10549475D01*
X-3958210Y-10470426D01*
X-3958214Y-10470424D01*
X-3958216Y-10470423D01*
X-4110943Y-10429500D01*
X-4269057Y-10429500D01*
X-4421784Y-10470423D01*
X-4421791Y-10470426D01*
X-4558710Y-10549475D01*
X-4558718Y-10549481D01*
X-4670519Y-10661282D01*
X-4670525Y-10661290D01*
X-4749574Y-10798209D01*
X-4749577Y-10798216D01*
X-4790500Y-10950943D01*
X-9500000Y-10950943D01*
X-9500000Y-3324000D01*
X-9480315Y-3256961D01*
X-9427511Y-3211206D01*
X-9376000Y-3200000D01*
X-4690978Y-3200000D01*
X-4623939Y-3219685D01*
G37*
%TD.AperFunction*%
%TD*%
%TA.AperFunction,Conductor*%
%TO.N,/PSU/PoE_VIN+*%
G36*
X-21777645Y-3219685D02*
G01*
X-21731890Y-3272489D01*
X-21721946Y-3341647D01*
X-21750971Y-3405203D01*
X-21801351Y-3440182D01*
X-21832087Y-3451645D01*
X-21832094Y-3451649D01*
X-21947188Y-3537809D01*
X-21947191Y-3537812D01*
X-22033351Y-3652906D01*
X-22033355Y-3652913D01*
X-22083597Y-3787620D01*
X-22083599Y-3787627D01*
X-22090000Y-3847155D01*
X-22090000Y-4560000D01*
X-17262350Y-4560000D01*
X-17239914Y-4547748D01*
X-17170222Y-4552730D01*
X-17125871Y-4581232D01*
X-14946614Y-6760489D01*
X-14946613Y-6760490D01*
X-14946611Y-6760491D01*
X-14891175Y-6792496D01*
X-14891173Y-6792498D01*
X-14891172Y-6792498D01*
X-14843886Y-6819799D01*
X-14729309Y-6850500D01*
X-14629931Y-6850500D01*
X-14562892Y-6870185D01*
X-14554443Y-6876125D01*
X-14548719Y-6880517D01*
X-14548716Y-6880520D01*
X-14548713Y-6880521D01*
X-14548710Y-6880524D01*
X-14411791Y-6959573D01*
X-14411784Y-6959577D01*
X-14259057Y-7000500D01*
X-14259055Y-7000500D01*
X-14100945Y-7000500D01*
X-14100943Y-7000500D01*
X-13948216Y-6959577D01*
X-13811284Y-6880520D01*
X-13699480Y-6768716D01*
X-13620423Y-6631784D01*
X-13579500Y-6479057D01*
X-13579500Y-6320943D01*
X-13620423Y-6168216D01*
X-13620427Y-6168209D01*
X-13699476Y-6031290D01*
X-13699482Y-6031282D01*
X-13811283Y-5919481D01*
X-13811291Y-5919475D01*
X-13948210Y-5840426D01*
X-13948214Y-5840424D01*
X-13948216Y-5840423D01*
X-14100943Y-5799500D01*
X-14259057Y-5799500D01*
X-14411781Y-5840422D01*
X-14411784Y-5840423D01*
X-14443941Y-5858988D01*
X-14511842Y-5875457D01*
X-14577868Y-5852603D01*
X-14593618Y-5839279D01*
X-15470071Y-4962826D01*
X-15503556Y-4901503D01*
X-15498572Y-4831811D01*
X-15456700Y-4775878D01*
X-15414489Y-4755373D01*
X-15318216Y-4729577D01*
X-15181284Y-4650520D01*
X-15069480Y-4538716D01*
X-14990423Y-4401784D01*
X-14949500Y-4249057D01*
X-14949500Y-4090943D01*
X-14955397Y-4068935D01*
X-14953736Y-3999088D01*
X-14914574Y-3941225D01*
X-14850346Y-3913719D01*
X-14781444Y-3925304D01*
X-14747942Y-3949161D01*
X-14276614Y-4420489D01*
X-14173887Y-4479799D01*
X-14149679Y-4486284D01*
X-14149676Y-4486286D01*
X-14149675Y-4486286D01*
X-14119553Y-4494357D01*
X-14059309Y-4510500D01*
X-12409931Y-4510500D01*
X-12342892Y-4530185D01*
X-12334443Y-4536125D01*
X-12328719Y-4540517D01*
X-12328716Y-4540520D01*
X-12328713Y-4540521D01*
X-12328710Y-4540524D01*
X-12191791Y-4619573D01*
X-12191784Y-4619577D01*
X-12039057Y-4660500D01*
X-12039055Y-4660500D01*
X-11880945Y-4660500D01*
X-11880943Y-4660500D01*
X-11728216Y-4619577D01*
X-11591284Y-4540520D01*
X-11479480Y-4428716D01*
X-11400423Y-4291784D01*
X-11374629Y-4195515D01*
X-11338266Y-4135858D01*
X-11275419Y-4105328D01*
X-11206043Y-4113622D01*
X-11167174Y-4139930D01*
X-10966819Y-4340284D01*
X-10933334Y-4401607D01*
X-10930500Y-4427965D01*
X-10930500Y-5973382D01*
X-10947112Y-6035381D01*
X-11029577Y-6178215D01*
X-11029577Y-6178216D01*
X-11070500Y-6330943D01*
X-11070500Y-6489057D01*
X-11032256Y-6631783D01*
X-11029577Y-6641783D01*
X-11029574Y-6641790D01*
X-10950525Y-6778709D01*
X-10950521Y-6778714D01*
X-10950520Y-6778716D01*
X-10838716Y-6890520D01*
X-10838714Y-6890521D01*
X-10838710Y-6890524D01*
X-10719105Y-6959577D01*
X-10701784Y-6969577D01*
X-10549057Y-7010500D01*
X-10549055Y-7010500D01*
X-10390945Y-7010500D01*
X-10390943Y-7010500D01*
X-10238216Y-6969577D01*
X-10101284Y-6890520D01*
X-10011681Y-6800917D01*
X-9950358Y-6767432D01*
X-9880666Y-6772416D01*
X-9824733Y-6814288D01*
X-9800316Y-6879752D01*
X-9800000Y-6888598D01*
X-9800000Y-15715500D01*
X-9819685Y-15782539D01*
X-9872489Y-15828294D01*
X-9924000Y-15839500D01*
X-11300614Y-15839500D01*
X-11367653Y-15819815D01*
X-11388295Y-15803181D01*
X-14831984Y-12359491D01*
X-14831985Y-12359490D01*
X-14957515Y-12287016D01*
X-14957514Y-12287016D01*
X-14992518Y-12277637D01*
X-15097525Y-12249500D01*
X-22876000Y-12249500D01*
X-22943039Y-12229815D01*
X-22988794Y-12177011D01*
X-23000000Y-12125500D01*
X-23000000Y-10940943D01*
X-22410500Y-10940943D01*
X-22410500Y-11099056D01*
X-22369577Y-11251783D01*
X-22369574Y-11251790D01*
X-22290525Y-11388709D01*
X-22290521Y-11388714D01*
X-22290520Y-11388716D01*
X-22178716Y-11500520D01*
X-22178714Y-11500521D01*
X-22178710Y-11500524D01*
X-22041791Y-11579573D01*
X-22041784Y-11579577D01*
X-21889057Y-11620500D01*
X-21889055Y-11620500D01*
X-21730945Y-11620500D01*
X-21730943Y-11620500D01*
X-21578216Y-11579577D01*
X-21441284Y-11500520D01*
X-21329480Y-11388716D01*
X-21250423Y-11251784D01*
X-21209500Y-11099057D01*
X-21209500Y-10940943D01*
X-21250423Y-10788216D01*
X-21250427Y-10788209D01*
X-21329476Y-10651290D01*
X-21329482Y-10651282D01*
X-21441283Y-10539481D01*
X-21441291Y-10539475D01*
X-21578210Y-10460426D01*
X-21578214Y-10460424D01*
X-21578216Y-10460423D01*
X-21730943Y-10419500D01*
X-21889057Y-10419500D01*
X-22041784Y-10460423D01*
X-22041791Y-10460426D01*
X-22178710Y-10539475D01*
X-22178718Y-10539481D01*
X-22290519Y-10651282D01*
X-22290525Y-10651290D01*
X-22369574Y-10788209D01*
X-22369577Y-10788216D01*
X-22410500Y-10940943D01*
X-23000000Y-10940943D01*
X-23000000Y-5772844D01*
X-22090000Y-5772844D01*
X-22083599Y-5832372D01*
X-22083597Y-5832379D01*
X-22033355Y-5967086D01*
X-22033351Y-5967093D01*
X-21947191Y-6082187D01*
X-21947188Y-6082190D01*
X-21832094Y-6168350D01*
X-21832087Y-6168354D01*
X-21697380Y-6218596D01*
X-21697373Y-6218598D01*
X-21637845Y-6224999D01*
X-21637828Y-6225000D01*
X-19935000Y-6225000D01*
X-19435000Y-6225000D01*
X-17732172Y-6225000D01*
X-17732156Y-6224999D01*
X-17672628Y-6218598D01*
X-17672621Y-6218596D01*
X-17537914Y-6168354D01*
X-17537907Y-6168350D01*
X-17422813Y-6082190D01*
X-17422810Y-6082187D01*
X-17336650Y-5967093D01*
X-17336646Y-5967086D01*
X-17286404Y-5832379D01*
X-17286402Y-5832372D01*
X-17280001Y-5772844D01*
X-17280000Y-5772827D01*
X-17280000Y-5060000D01*
X-19435000Y-5060000D01*
X-19435000Y-6225000D01*
X-19935000Y-6225000D01*
X-19935000Y-5060000D01*
X-22090000Y-5060000D01*
X-22090000Y-5772844D01*
X-23000000Y-5772844D01*
X-23000000Y-3324000D01*
X-22980315Y-3256961D01*
X-22927511Y-3211206D01*
X-22876000Y-3200000D01*
X-21844684Y-3200000D01*
X-21777645Y-3219685D01*
G37*
%TD.AperFunction*%
%TD*%
M02*
